<svg width="18" height="18" viewBox="0 0 18 18" fill="none" xmlns="http://www.w3.org/2000/svg">
    <path fill-rule="evenodd" clip-rule="evenodd" d="M3.75 1.5h1.5a.75.75 0 0 1 .087 1.494L5.25 3h-1.5a.75.75 0 0 0-.745.663L3 3.749v10.5c0 .385.29.702.663.745L3.75 15h10.5a.75.75 0 0 0 .745-.662l.005-.088v-1.5a.75.75 0 0 1 1.495-.087l.005.087v1.5a2.25 2.25 0 0 1-2.118 2.246l-.132.004H3.75a2.25 2.25 0 0 1-2.246-2.117l-.004-.133V3.75a2.25 2.25 0 0 1 2.118-2.246L3.75 1.5h1.5-1.5zm12 0 .06.002.09.012.084.023.083.033.073.039.073.05.067.06.073.084.053.083.024.046.025.061.018.057.022.11.005.09v4.5a.75.75 0 0 1-1.5 0V4.06l-4.72 4.72a.75.75 0 0 1-.99.062l-.07-.062a.75.75 0 0 1-.063-.99l.063-.071 4.718-4.72H11.25a.75.75 0 0 1 0-1.5h4.5z" fill="#4E1C95"/>
</svg>
