<svg width="12" height="10" viewBox="0 0 12 10" fill="none" xmlns="http://www.w3.org/2000/svg">
<path d="M5.84893 1.00244C6.69313 0.972958 7.525 1.21149 8.2253 1.68385C8.80762 2.07663 9.27411 2.61432 9.58087 3.24072L8.06962 3.36668C7.79443 3.38962 7.58994 3.6313 7.61288 3.90648C7.63581 4.18167 7.87749 4.38616 8.15268 4.36322L10.4362 4.1729C10.6429 4.15567 10.8175 4.01257 10.875 3.81325L11.4928 1.67228C11.5694 1.40696 11.4164 1.12981 11.1511 1.05325C10.8858 0.976689 10.6086 1.1297 10.5321 1.39502L10.2476 2.38077C9.87623 1.77691 9.37858 1.25553 8.78449 0.854814C7.90912 0.264364 6.86928 -0.0338029 5.81403 0.00304712C4.75878 0.0398971 3.74228 0.409872 2.91022 1.05995C2.07816 1.71002 1.47326 2.60682 1.18222 3.62181C1.1061 3.88726 1.25959 4.16415 1.52503 4.24026C1.79048 4.31638 2.06737 4.1629 2.14348 3.89745C2.37632 3.08546 2.86024 2.36802 3.52588 1.84796C4.19153 1.3279 5.00473 1.03192 5.84893 1.00244Z" fill="#1890FF"/>
<path d="M3.8599 5.96917C4.13508 5.94624 4.37676 6.15073 4.3997 6.42592C4.42264 6.7011 4.21815 6.94278 3.94296 6.96572L2.57186 7.08C2.89535 7.61137 3.33949 8.06181 3.87067 8.39333C4.52731 8.80315 5.28874 9.01365 6.06264 8.99931C6.83653 8.98497 7.58965 8.7464 8.23065 8.31254C8.87165 7.87867 9.373 7.26815 9.6739 6.555C9.78125 6.30058 10.0745 6.18135 10.3289 6.2887C10.5834 6.39605 10.7026 6.68933 10.5952 6.94375C10.2191 7.83518 9.59243 8.59834 8.79118 9.14067C7.98993 9.683 7.04854 9.98122 6.08117 9.99914C5.1138 10.0171 4.162 9.75394 3.34121 9.24166C2.73158 8.86118 2.21366 8.35539 1.81999 7.76103L1.48053 8.93738C1.40396 9.20269 1.12682 9.35571 0.861501 9.27915C0.596184 9.20259 0.443169 8.92544 0.519732 8.66012L1.13755 6.51914C1.19507 6.31983 1.36969 6.17673 1.57642 6.1595L3.8599 5.96917Z" fill="#1890FF"/>
</svg>
