<svg width="16" height="17" viewBox="0 0 16 17" fill="none" xmlns="http://www.w3.org/2000/svg">
<path d="M8 0.90918C6.41775 0.90918 4.87103 1.37837 3.55544 2.25742C2.23985 3.13647 1.21447 4.3859 0.608967 5.84771C0.00346629 7.30952 -0.15496 8.91805 0.153721 10.4699C0.462403 12.0217 1.22433 13.4472 2.34315 14.566C3.46197 15.6848 4.88743 16.4468 6.43928 16.7555C7.99113 17.0641 9.59966 16.9057 11.0615 16.3002C12.5233 15.6947 13.7727 14.6693 14.6518 13.3537C15.5308 12.0381 16 10.4914 16 8.90918C15.9976 6.78817 15.154 4.75471 13.6542 3.25494C12.1545 1.75516 10.121 0.911544 8 0.90918ZM11.138 11.1045C11.2017 11.166 11.2525 11.2396 11.2874 11.3209C11.3223 11.4022 11.3407 11.4897 11.3415 11.5782C11.3423 11.6668 11.3254 11.7545 11.2919 11.8365C11.2584 11.9184 11.2089 11.9928 11.1463 12.0554C11.0837 12.118 11.0092 12.1675 10.9273 12.2011C10.8454 12.2346 10.7576 12.2514 10.6691 12.2507C10.5805 12.2499 10.4931 12.2315 10.4117 12.1966C10.3304 12.1616 10.2568 12.1108 10.1953 12.0472L8 9.85191L5.80467 12.0472C5.67893 12.1686 5.51053 12.2358 5.33573 12.2343C5.16094 12.2328 4.99373 12.1627 4.87012 12.0391C4.74652 11.9154 4.6764 11.7482 4.67489 11.5734C4.67337 11.3986 4.74056 11.2302 4.862 11.1045L7.05727 8.90918L4.862 6.71384C4.74056 6.58811 4.67337 6.41971 4.67489 6.24491C4.6764 6.07011 4.74652 5.9029 4.87012 5.7793C4.99373 5.65569 5.16094 5.58558 5.33573 5.58406C5.51053 5.58254 5.67893 5.64974 5.80467 5.77118L8 7.96644L10.1953 5.77118C10.3211 5.64974 10.4895 5.58254 10.6643 5.58406C10.8391 5.58558 11.0063 5.65569 11.1299 5.7793C11.2535 5.9029 11.3236 6.07011 11.3251 6.24491C11.3266 6.41971 11.2594 6.58811 11.138 6.71384L8.94273 8.90918L11.138 11.1045Z" fill="#FB3307"/>
</svg>
