<svg width="16" height="16" viewBox="0 0 16 16" fill="none" xmlns="http://www.w3.org/2000/svg">
<path d="M8.27586 14.4482V13.9482V10.8448V10.3448H8.77586H13.9483H14.4483V10.8448V13.6896C14.4483 13.8908 14.3684 14.0838 14.2261 14.226L8.27586 14.4482ZM8.27586 14.4482H8.77586M8.27586 14.4482H8.77586M8.77586 14.4482H13.6897M8.77586 14.4482H13.6897M13.6897 14.4482C13.8908 14.4482 14.0838 14.3683 14.2261 14.2261L13.6897 14.4482ZM13.9483 9.79307H14.4483V9.29307V2.31031C14.4483 2.10912 14.3684 1.91616 14.2261 1.77389C14.0838 1.63162 13.8908 1.55169 13.6897 1.55169H8.77586H8.27586V2.05169V9.29307V9.79307H8.77586H13.9483ZM7.72414 2.05169V1.55169H7.22414H2.31034C2.10915 1.55169 1.91619 1.63162 1.77392 1.77389C1.63165 1.91616 1.55172 2.10912 1.55172 2.31031V5.15514V5.65514H2.05172H7.22414H7.72414V5.15514V2.05169ZM2.05172 6.20687H1.55172V6.70687V13.6896C1.55172 13.8908 1.63165 14.0838 1.77392 14.226C1.91619 14.3683 2.10915 14.4482 2.31034 14.4482H7.22414H7.72414V13.9482V6.70687V6.20687H7.22414H2.05172ZM14.6162 1.38376C14.8619 1.6295 15 1.96279 15 2.31031V13.6896C15 14.0371 14.8619 14.3704 14.6162 14.6162C14.3705 14.8619 14.0372 15 13.6897 15H2.31034C1.96282 15 1.62953 14.8619 1.38379 14.6162C1.13805 14.3704 1 14.0371 1 13.6896V2.31031C1 1.96279 1.13805 1.6295 1.38379 1.38376C1.62953 1.13802 1.96282 0.999969 2.31034 0.999969H13.6897C14.0372 0.999969 14.3705 1.13802 14.6162 1.38376Z" fill="white" stroke="white"/>
</svg>
