<svg width="16" height="16" viewBox="0 0 16 16" fill="none" xmlns="http://www.w3.org/2000/svg">
<path d="M5.33317 0.666504H2.6665C1.5615 0.666504 0.666504 1.5615 0.666504 2.6665V5.33317C0.666504 6.43817 1.5615 7.33317 2.6665 7.33317H5.33317C6.43817 7.33317 7.33317 6.43817 7.33317 5.33317V2.6665C7.33317 1.5615 6.43817 0.666504 5.33317 0.666504ZM5.99984 5.33317C5.99984 5.7015 5.7015 5.99984 5.33317 5.99984H2.6665C2.29817 5.99984 1.99984 5.7015 1.99984 5.33317V2.6665C1.99984 2.29817 2.29817 1.99984 2.6665 1.99984H5.33317C5.7015 1.99984 5.99984 2.29817 5.99984 2.6665V5.33317Z" fill="white"/>
<path d="M13.3332 0.666504H10.6665C9.5615 0.666504 8.6665 1.5615 8.6665 2.6665V5.33317C8.6665 6.43817 9.5615 7.33317 10.6665 7.33317H13.3332C14.4382 7.33317 15.3332 6.43817 15.3332 5.33317V2.6665C15.3332 1.5615 14.4382 0.666504 13.3332 0.666504ZM13.9998 5.33317C13.9998 5.7015 13.7015 5.99984 13.3332 5.99984H10.6665C10.2982 5.99984 9.99984 5.7015 9.99984 5.33317V2.6665C9.99984 2.29817 10.2982 1.99984 10.6665 1.99984H13.3332C13.7015 1.99984 13.9998 2.29817 13.9998 2.6665V5.33317Z" fill="white"/>
<path d="M13.3332 8.6665H10.6665C9.5615 8.6665 8.6665 9.5615 8.6665 10.6665V13.3332C8.6665 14.4382 9.5615 15.3332 10.6665 15.3332H13.3332C14.4382 15.3332 15.3332 14.4382 15.3332 13.3332V10.6665C15.3332 9.5615 14.4382 8.6665 13.3332 8.6665ZM13.9998 13.3332C13.9998 13.7015 13.7015 13.9998 13.3332 13.9998H10.6665C10.2982 13.9998 9.99984 13.7015 9.99984 13.3332V10.6665C9.99984 10.2982 10.2982 9.99984 10.6665 9.99984H13.3332C13.7015 9.99984 13.9998 10.2982 13.9998 10.6665V13.3332Z" fill="white"/>
<path d="M5.33317 8.6665H2.6665C1.5615 8.6665 0.666504 9.5615 0.666504 10.6665V13.3332C0.666504 14.4382 1.5615 15.3332 2.6665 15.3332H5.33317C6.43817 15.3332 7.33317 14.4382 7.33317 13.3332V10.6665C7.33317 9.5615 6.43817 8.6665 5.33317 8.6665ZM5.99984 13.3332C5.99984 13.7015 5.7015 13.9998 5.33317 13.9998H2.6665C2.29817 13.9998 1.99984 13.7015 1.99984 13.3332V10.6665C1.99984 10.2982 2.29817 9.99984 2.6665 9.99984H5.33317C5.7015 9.99984 5.99984 10.2982 5.99984 10.6665V13.3332Z" fill="white"/>
</svg>
