<svg width="157" height="168" viewBox="0 0 157 168" fill="none" xmlns="http://www.w3.org/2000/svg">
<g clip-path="url(#clip0_67_31419)">
<path d="M11.9733 131.082C10.3083 130.042 8.42606 129.397 6.47156 129.197C5.57271 129.104 4.59896 129.13 3.87238 129.671C3.78913 129.719 3.72022 129.788 3.67281 129.871C3.6254 129.955 3.60121 130.049 3.60273 130.145C3.64537 130.28 3.73586 130.396 3.8574 130.47C6.10453 132.171 9.47522 132.384 11.9733 131.082Z" fill="#E0E0E0"/>
<path d="M11.8311 130.937C10.5568 130.004 9.36751 128.961 8.27689 127.821C7.18443 126.672 6.41683 125.256 6.05223 123.716C5.97944 123.488 5.95748 123.247 5.98789 123.01C6.01829 122.773 6.10033 122.545 6.22826 122.343C9.05964 124.548 11.2843 127.399 11.8461 130.925" fill="#E0E0E0"/>
<path d="M11.9429 131.064C11.6792 129.523 11.7008 127.947 12.0066 126.414C12.3236 124.871 13.2112 123.503 14.4934 122.582C14.9803 123.72 14.7706 125.034 14.426 126.224C13.8923 128.069 13.0599 129.814 11.9617 131.392" fill="#E0E0E0"/>
<path d="M14.7182 136.019C13.0328 136.221 11.5647 137.105 10.3063 138.258C9.04213 139.405 8.16221 140.91 7.78577 142.572C9.4374 142.471 10.8381 141.307 11.8568 140.008C12.8755 138.71 13.5759 137.277 14.6957 136.057" fill="#E0E0E0"/>
<path d="M15.3218 136.81C14.6591 135.132 14.4268 133.315 14.6458 131.525C14.8649 129.735 15.5284 128.027 16.5764 126.556C17.5389 129.959 17.1831 133.803 15.3218 136.81Z" fill="#E0E0E0"/>
<path d="M18.9881 141.162C17.4465 141.068 15.9112 141.428 14.5738 142.198C13.2365 142.968 12.1562 144.113 11.4677 145.49C11.3741 145.677 11.2917 145.912 11.4153 146.076C11.4805 146.14 11.5602 146.186 11.6477 146.212C11.7351 146.238 11.8276 146.243 11.9171 146.225C13.3965 146.128 14.7111 145.24 15.7972 144.229C16.8833 143.218 17.8233 142.046 19.0218 141.173" fill="#E0E0E0"/>
<path d="M18.8718 140.922C18.0812 138.39 18.0332 135.685 18.7332 133.127C19.0066 132.123 19.4823 131.067 20.3998 130.597C20.4377 130.573 20.4801 130.556 20.5245 130.549C20.5689 130.541 20.6144 130.542 20.6583 130.552C20.733 130.593 20.7903 130.659 20.8193 130.739C21.1249 131.444 21.2535 132.212 21.1938 132.978C21.1384 133.741 21.0207 134.499 20.8418 135.243C20.5497 136.627 20.3924 138.116 19.6321 139.306C19.4508 139.594 19.2881 139.893 19.1452 140.202C19.0029 140.504 18.9991 140.612 18.8681 140.851" fill="#E0E0E0"/>
<path d="M28.5797 142.366C27.8606 139.638 28.6246 136.336 30.3474 134.1C30.4747 133.936 30.6433 133.757 30.8493 133.776C31.1676 133.806 31.25 134.227 31.2238 134.544C31.0972 137.354 30.1767 140.07 28.5684 142.38" fill="#E0E0E0"/>
<path d="M29.4749 142.959C32.7969 143.821 36.5908 142.985 39.3772 140.955C37.7193 140.125 35.8242 139.893 34.014 140.298C32.2238 140.705 30.5872 141.507 29.4749 142.959Z" fill="#E0E0E0"/>
<path d="M30.1936 141.145C32.0662 138.123 35.6242 136.149 39.1821 135.969C38.7739 137.41 37.5866 138.529 36.2421 139.205C34.8976 139.88 33.407 140.179 31.9314 140.462C31.3546 140.574 30.5681 140.697 30.1973 141.145" fill="#E0E0E0"/>
<path d="M28.7632 132.339C29.3276 130.636 29.713 128.879 29.913 127.097C30.0516 125.309 29.7969 123.444 28.8643 121.91C27.1266 125.268 26.9505 129.179 28.7108 132.518" fill="#E0E0E0"/>
<path d="M34.6206 129.391C36.6543 125.708 40.8002 122.768 44.9986 122.354C43.3807 126.372 38.9651 129.477 34.6206 129.391Z" fill="#E0E0E0"/>
<path d="M33.3397 130.113C36.3733 130.572 38.9575 132.505 41.7889 133.673C42.3821 133.961 43.0405 134.09 43.699 134.046C44.0047 134.041 44.3015 133.943 44.5497 133.765C44.798 133.588 44.9856 133.338 45.0875 133.051C45.1895 132.764 45.2008 132.453 45.1199 132.159C45.0391 131.865 44.87 131.603 44.6353 131.408C44.2334 131.041 43.7624 130.757 43.2495 130.572C40.1635 129.292 36.8527 129.259 33.6019 130.035" fill="#E0E0E0"/>
<path d="M31.5831 132.232C32.2722 132.43 32.5045 132.781 33.0513 133.243C34.9034 134.819 37.0968 135.945 39.4593 136.535C39.7028 136.594 40.0248 136.62 40.1447 136.4C40.2645 136.18 40.1185 135.975 39.9799 135.803C38.9494 134.602 37.6129 133.7 36.1111 133.191C34.6317 132.643 33.3509 131.982 31.5831 132.124" fill="#E0E0E0"/>
<path d="M29.6063 119.433C30.85 120.574 32.3192 121.444 33.9199 121.987C35.5207 122.53 37.2176 122.734 38.9019 122.586C39.0569 122.587 39.2071 122.533 39.3252 122.433C39.5611 122.179 39.2802 121.787 39.0068 121.574C36.2728 119.451 32.962 118.571 29.6063 119.433Z" fill="#E0E0E0"/>
<path d="M31.9539 118.574C33.6009 117.366 35.5114 116.563 37.5293 116.232C39.5471 115.901 41.615 116.05 43.564 116.667C42.0477 118.071 40.0997 118.923 38.0361 119.085C35.998 119.272 33.9428 119.099 31.9651 118.574" fill="#E0E0E0"/>
<path d="M31.0182 112.693C30.7523 109.976 30.9245 107.842 30.7373 105.099C30.7373 104.879 30.6736 104.618 30.4676 104.54C30.183 104.428 29.947 104.778 29.8534 105.07C29.4557 106.335 29.3535 107.674 29.5547 108.985C29.7559 110.296 30.2552 111.544 31.0144 112.633" fill="#E0E0E0"/>
<path d="M30.8235 112.995C32.6046 111.847 34.1408 110.359 35.344 108.618C36.2353 107.402 36.9881 105.943 36.7859 104.45C36.1573 104.467 35.5398 104.62 34.9765 104.898C34.4131 105.176 33.9174 105.574 33.5238 106.062C32.7449 107.046 32.1799 108.181 31.8647 109.394C31.4901 110.588 31.2467 111.82 30.8235 112.995Z" fill="#E0E0E0"/>
<path d="M35.2648 111.765C39.333 110.264 43.0998 108.051 46.388 105.231C45.0585 104.698 43.5379 105.019 42.2084 105.552C39.1937 106.691 36.7022 108.891 35.2048 111.735" fill="#E0E0E0"/>
<path d="M32.0702 114.481C34.1263 114.705 36.1899 114.854 38.246 114.511C40.3022 114.168 42.1411 113.392 44.0137 112.604C44.1764 112.555 44.3159 112.449 44.4069 112.306C44.4353 112.22 44.4369 112.127 44.4115 112.04C44.3861 111.952 44.3349 111.875 44.2646 111.817C44.1216 111.703 43.9535 111.623 43.774 111.586C41.7403 111.018 39.5419 111.283 37.5419 111.959C35.6355 112.611 33.8019 113.457 32.0702 114.485" fill="#E0E0E0"/>
<path d="M20.3473 119.525C18.9466 116.708 19.0365 113.42 20.2462 110.513C21.1001 111.808 21.2012 113.454 21.0477 114.991C20.8941 116.529 20.4222 118.114 20.3885 119.659" fill="#E0E0E0"/>
<path d="M14.7488 116.712C12.9964 116.691 11.2587 117.033 9.64654 117.718C8.03443 118.403 6.5833 119.415 5.38574 120.69C7.15051 120.899 8.93733 120.568 10.5092 119.742C12.0722 118.916 13.5467 117.933 14.9098 116.809" fill="#E0E0E0"/>
<path d="M10.9883 115.457C9.27679 115.319 7.61766 115.11 5.98474 115.61C5.15405 115.842 4.38336 116.25 3.72535 116.806C3.06735 117.361 2.53753 118.052 2.17212 118.831C3.78613 118.962 5.40582 118.658 6.86112 117.95C8.30629 117.243 9.68505 116.409 10.9809 115.457" fill="#E0E0E0"/>
<path d="M16.5574 115.514C15.0181 114.51 13.4376 113.487 11.6474 113.07C9.8572 112.652 7.77861 112.961 6.52771 114.308C7.97711 115.155 9.73736 115.264 11.419 115.264C13.1006 115.264 15.1642 115.241 16.7521 115.801" fill="#E0E0E0"/>
<path d="M16.5689 115.596C13.9472 113.021 12.9398 108.398 13.9959 104.875C16.0742 108.044 16.9837 111.833 16.5689 115.596Z" fill="#E0E0E0"/>
<path d="M23.8049 108.301C24.2993 107.152 24.6514 105.946 25.0933 104.775C25.5004 103.587 26.1252 102.485 26.9359 101.525C27.7583 100.559 28.9286 99.9551 30.1943 99.8418C29.7893 101.617 29.0165 103.288 27.9252 104.748C26.8339 106.208 25.4483 107.425 23.8574 108.32" fill="#E0E0E0"/>
<path d="M22.4936 109.824C21.6734 108.704 20.7259 107.167 19.6098 106.327C18.4938 105.488 17.0481 104.977 15.6886 105.301C16.3925 106.53 17.3739 107.578 18.5551 108.363C19.7363 109.148 21.0848 109.648 22.4936 109.824Z" fill="#E0E0E0"/>
<path d="M22.7558 108.395C22.1661 107.053 21.7314 105.649 21.46 104.209C21.1927 102.761 21.4236 101.266 22.1154 99.9661C23.5611 102.69 24.0255 105.608 22.8307 108.448" fill="#E0E0E0"/>
<path d="M23.8156 99.9652C24.6358 97.2711 27.1151 95.2822 29.8079 94.368C30.1399 94.2332 30.4995 94.1795 30.8565 94.2113C31.034 94.2315 31.2017 94.303 31.3388 94.4171C31.4759 94.5311 31.5765 94.6827 31.6281 94.8531C31.7254 95.3121 31.3434 95.7263 30.9876 96.0285C28.8898 97.812 26.4496 99.1514 23.8156 99.9652Z" fill="#E0E0E0"/>
<path d="M23.857 97.7268C23.9619 95.9879 24.0705 94.2267 24.6397 92.5774C25.209 90.9281 26.2989 89.3833 27.8906 88.6631C28.164 90.4206 27.385 92.1669 26.4487 93.6782C25.5124 95.1894 24.3776 96.6148 23.827 98.3014" fill="#E0E0E0"/>
<path d="M23.8043 98.9394C23.1264 96.9729 23.0552 94.4616 21.8755 92.7638C21.0516 91.5698 19.7295 90.7526 19.0179 89.4839C18.5842 90.7018 18.6433 92.0401 19.1827 93.2153C19.7205 94.3761 20.4611 95.4323 21.3699 96.3348C22.2425 97.264 22.9916 97.9617 23.8043 98.9468" fill="#E0E0E0"/>
<path d="M23.8158 156.822C23.7634 156.822 23.7185 143.71 23.7147 127.541C23.711 111.373 23.7522 98.2568 23.8046 98.2568C23.857 98.2568 23.902 111.365 23.9057 127.541C23.9095 143.717 23.857 156.822 23.8158 156.822Z" fill="#E0E0E0"/>
<path d="M35.317 117.548C35.1575 117.623 34.9922 117.684 34.8226 117.731L33.4594 118.19C32.3133 118.563 30.7366 119.142 29.025 119.843C27.3135 120.545 25.7293 121.157 24.8192 121.94C24.4557 122.244 24.1673 122.627 23.9765 123.06C23.8454 123.366 23.8229 123.556 23.8042 123.552C23.7855 123.549 23.8042 123.504 23.8042 123.414C23.8248 123.287 23.8574 123.162 23.9016 123.041C24.0757 122.585 24.3584 122.178 24.7255 121.854C25.2764 121.396 25.8907 121.019 26.5495 120.735C27.2985 120.395 28.0887 120.041 28.9464 119.69C30.6654 118.989 32.2534 118.444 33.4144 118.086C33.9949 117.903 34.4706 117.772 34.7964 117.683C34.9644 117.619 35.139 117.574 35.317 117.548Z" fill="#E0E0E0"/>
<path d="M39.0889 108.321C39.0889 108.321 39.044 108.377 38.9504 108.471L38.5271 108.866L36.9654 110.291L31.7221 114.948C29.6735 116.762 27.902 118.497 26.6773 119.799C26.0631 120.452 25.58 120.99 25.2504 121.37L24.8759 121.803C24.786 121.9 24.7373 121.952 24.7335 121.945C24.7298 121.937 24.7672 121.885 24.8459 121.777C24.9245 121.669 25.0406 121.516 25.1979 121.322C25.5125 120.93 25.9807 120.374 26.5837 119.706C28.1686 117.983 29.8438 116.345 31.6022 114.799C33.6584 112.986 35.5272 111.359 36.8867 110.183L38.5047 108.803L38.9504 108.429C38.9921 108.388 39.0386 108.352 39.0889 108.321Z" fill="#E0E0E0"/>
<path d="M29.4747 116.794C29.4223 116.768 29.8492 115.783 30.2762 114.555C30.7031 113.328 30.9091 112.26 30.9653 112.268C30.9201 113.072 30.7482 113.864 30.456 114.615C30.2745 115.152 30.0619 115.677 29.8193 116.19C29.7342 116.407 29.6181 116.61 29.4747 116.794Z" fill="#E0E0E0"/>
<path d="M23.8311 124.727C23.7126 124.614 23.6059 124.489 23.5128 124.354C23.2993 124.078 23.0297 123.731 22.7038 123.32C22.026 122.443 21.0859 121.238 20.0335 119.917C18.9811 118.596 18.0148 117.41 17.3145 116.559L16.4868 115.54C16.3803 115.425 16.285 115.3 16.2021 115.167C16.3288 115.266 16.4432 115.38 16.543 115.507C16.7527 115.734 17.0523 116.07 17.4156 116.488C18.1646 117.324 19.1309 118.495 20.1833 119.82C21.2357 121.145 22.1608 122.365 22.805 123.261C23.1308 123.708 23.393 124.074 23.554 124.331C23.6584 124.454 23.7512 124.587 23.8311 124.727Z" fill="#E0E0E0"/>
<path d="M21.3066 121.504C20.798 120.944 20.4353 120.267 20.2504 119.534C20.054 118.892 19.9729 118.22 20.0108 117.549H20.1119C20.0744 117.702 20.0445 117.784 20.0295 117.78C20.0145 117.777 20.0295 117.695 20.0295 117.538H20.1156C20.1561 118.191 20.2691 118.838 20.4527 119.467C20.6875 120.166 20.9729 120.847 21.3066 121.504Z" fill="#E0E0E0"/>
<path d="M18.0519 117.426C17.8221 117.251 17.5703 117.106 17.3029 116.996C16.6391 116.799 15.9409 116.745 15.2543 116.836C14.5594 116.888 13.8704 117 13.1944 117.168C12.9159 117.254 12.6319 117.322 12.3442 117.37C12.5975 117.22 12.8713 117.108 13.1569 117.037C13.8349 116.828 14.5349 116.696 15.243 116.646C15.9553 116.551 16.6799 116.629 17.3553 116.873C17.646 116.969 17.893 117.165 18.0519 117.426Z" fill="#E0E0E0"/>
<path d="M17.2801 116.437C17.2801 116.463 16.8494 116.265 16.1566 116.026C14.3269 115.401 12.3675 115.252 10.4638 115.593C9.71479 115.724 9.29533 115.858 9.28409 115.829C9.27286 115.799 9.38522 115.769 9.58371 115.702C9.86259 115.603 10.1479 115.523 10.4376 115.463C12.3615 115.041 14.3675 115.193 16.2052 115.899C16.4815 116.006 16.7505 116.131 17.0105 116.273C17.1865 116.362 17.2876 116.422 17.2801 116.437Z" fill="#E0E0E0"/>
<path d="M23.8046 112.253C23.4693 111.321 23.1941 110.369 22.9806 109.402C22.7051 108.45 22.4912 107.482 22.3402 106.503C22.6762 107.435 22.9514 108.387 23.1642 109.354C23.4376 110.306 23.6515 111.274 23.8046 112.253Z" fill="#E0E0E0"/>
<path d="M23.857 112.252C23.5924 111.662 23.287 111.091 22.9432 110.543C22.556 110.028 22.1042 109.564 21.5986 109.163C21.7906 109.209 21.969 109.3 22.1192 109.428C22.4997 109.708 22.8312 110.048 23.1005 110.435C23.5072 110.965 23.768 111.591 23.857 112.252Z" fill="#E0E0E0"/>
<path d="M23.816 149.833C23.816 149.833 23.7598 149.52 23.61 148.96C23.3917 148.177 23.0969 147.417 22.7299 146.691C21.8198 144.826 20.1682 142.493 18.0634 140.143C17.0222 138.956 16.011 137.837 15.1533 136.766C14.3843 135.825 13.6894 134.827 13.0747 133.78C12.6626 133.071 12.3106 132.328 12.0223 131.56C11.925 131.288 11.8538 131.075 11.8163 130.926C11.7891 130.853 11.7715 130.776 11.7639 130.698C11.7639 130.698 11.8763 131 12.0935 131.534C12.4033 132.287 12.7701 133.016 13.1908 133.713C13.8182 134.746 14.5204 135.731 15.2919 136.661C16.1533 137.721 17.1645 138.833 18.2094 140.019C20.3142 142.378 21.9546 144.755 22.8535 146.635C23.2122 147.374 23.4897 148.15 23.6812 148.949C23.7411 149.232 23.7823 149.453 23.7973 149.605C23.8124 149.68 23.8186 149.757 23.816 149.833Z" fill="#E0E0E0"/>
<path d="M34.2087 138.139C34.0355 138.254 33.854 138.356 33.6657 138.445C33.1731 138.72 32.7012 139.03 32.2537 139.374C31.5854 139.885 30.9592 140.449 30.3811 141.06C29.7294 141.743 29.059 142.553 28.3737 143.393C27.0216 145.117 25.7296 146.609 24.9805 147.829C24.606 148.426 24.3101 148.949 24.1229 149.288C24.0373 149.477 23.9371 149.66 23.8232 149.833C23.8331 149.78 23.8508 149.728 23.8757 149.68C23.9169 149.583 23.9693 149.434 24.0592 149.255C24.2977 148.741 24.5679 148.243 24.8682 147.762C25.6172 146.527 26.8831 144.99 28.2388 143.284C28.9242 142.43 29.6021 141.631 30.265 140.945C30.8518 140.336 31.4882 139.777 32.1676 139.273C32.6272 138.935 33.116 138.637 33.6282 138.385C33.808 138.295 33.954 138.239 34.0514 138.198C34.1488 138.157 34.205 138.131 34.2087 138.139Z" fill="#E0E0E0"/>
<path d="M34.4148 141.932C34.0344 142.013 33.649 142.068 33.2612 142.096C32.3366 142.192 31.4227 142.372 30.531 142.634C29.6499 142.92 28.8233 143.351 28.0854 143.91C27.5236 144.346 27.2577 144.705 27.2314 144.682C27.273 144.586 27.3313 144.497 27.4037 144.421C27.5809 144.196 27.7818 143.991 28.003 143.809C28.7309 143.202 29.5705 142.742 30.4748 142.455C31.3776 142.184 32.309 142.02 33.25 141.966C33.6363 141.918 34.0263 141.907 34.4148 141.932Z" fill="#E0E0E0"/>
<path d="M27.5681 144.269C27.5082 144.236 28.025 143.444 28.4295 142.381C28.834 141.318 28.8939 140.37 28.9613 140.381C28.9966 140.585 28.9966 140.793 28.9613 140.997C28.9053 141.492 28.7922 141.979 28.6243 142.448C28.4504 142.913 28.2269 143.359 27.9576 143.777C27.8545 143.96 27.7231 144.126 27.5681 144.269Z" fill="#E0E0E0"/>
<path d="M37.5751 127.952C37.5187 127.993 37.457 128.025 37.3916 128.049L36.8485 128.295C36.6126 128.396 36.3242 128.527 36.0021 128.694C35.68 128.862 35.2942 129.034 34.901 129.273L34.2718 129.627C34.0546 129.75 33.8411 129.9 33.6089 130.042C33.1482 130.321 32.6838 130.668 32.1895 131.019C30.0679 132.591 28.2184 134.498 26.714 136.665C26.3769 137.169 26.0473 137.642 25.7814 138.113C25.6466 138.348 25.5043 138.568 25.4069 138.788L25.0698 139.426C24.8451 139.825 24.6953 140.21 24.5305 140.546C24.3657 140.881 24.2534 141.165 24.156 141.404L23.9275 141.949C23.9054 142.014 23.8752 142.077 23.8376 142.135C23.8459 142.067 23.8636 142.001 23.8901 141.937L24.0848 141.378C24.1672 141.131 24.2796 140.837 24.4294 140.501C24.5792 140.165 24.729 139.777 24.9462 139.381L25.2721 138.732C25.3882 138.508 25.5267 138.284 25.6466 138.049C25.905 137.572 26.2346 137.09 26.5679 136.579C28.0745 134.381 29.9435 132.454 32.0958 130.877C32.5977 130.527 33.0658 130.187 33.5377 129.911C33.7699 129.769 33.9872 129.624 34.2081 129.5L34.8486 129.153C35.2493 128.922 35.6351 128.758 35.9721 128.601C36.2537 128.462 36.5425 128.337 36.8373 128.228L37.3953 128.015C37.4529 127.988 37.5131 127.967 37.5751 127.952Z" fill="#E0E0E0"/>
<path d="M29.351 133.444C29.4263 133.177 29.5851 132.942 29.8041 132.772C30.3088 132.332 30.9538 132.085 31.6243 132.074C32.2818 132.073 32.9332 132.2 33.5418 132.447C33.7996 132.529 34.0443 132.647 34.2684 132.798C34.0047 132.748 33.7464 132.673 33.4969 132.574C32.8938 132.37 32.2613 132.266 31.6243 132.265C30.9937 132.278 30.3837 132.491 29.8828 132.873C29.6908 133.049 29.513 133.24 29.351 133.444Z" fill="#E0E0E0"/>
<path d="M28.1226 134.705C28.3653 134.17 28.539 133.607 28.6394 133.029C28.6743 132.443 28.6353 131.856 28.5233 131.279C28.6329 131.423 28.7062 131.59 28.7368 131.768C28.9586 132.612 28.853 133.509 28.4409 134.279C28.2799 134.57 28.1375 134.72 28.1226 134.705Z" fill="#E0E0E0"/>
<path d="M14.7261 151.714C15.0107 156.721 16.5275 161.819 18.8458 166.972H28.9841C31.2087 161.871 32.6169 156.781 32.8679 151.714H14.7261Z" fill="#E0E0E0"/>
<path d="M31.2388 159.821C31.2388 159.873 27.8981 159.914 23.7821 159.914C19.6661 159.914 16.3291 159.873 16.3291 159.821C16.3291 159.769 19.6661 159.724 23.7821 159.724C27.8981 159.724 31.2388 159.769 31.2388 159.821Z" fill="#FAFAFA"/>
<path d="M31.0106 161.636C31.0106 161.688 27.8833 161.729 24.022 161.729C20.1607 161.729 17.0334 161.688 17.0334 161.636C17.0334 161.583 20.1644 161.542 24.022 161.542C27.8796 161.542 31.0106 161.583 31.0106 161.636Z" fill="#FAFAFA"/>
<path d="M19.0217 155.001C19.1466 156.549 19.1466 158.105 19.0217 159.654C18.8969 158.105 18.8969 156.549 19.0217 155.001Z" fill="#FAFAFA"/>
<path d="M24.4525 155.001C24.5824 156.605 24.5824 158.217 24.4525 159.822C24.3277 158.217 24.3277 156.605 24.4525 155.001Z" fill="#FAFAFA"/>
<path d="M29.5532 154.96C29.678 156.596 29.678 158.239 29.5532 159.874C29.4234 158.239 29.4234 156.596 29.5532 154.96Z" fill="#FAFAFA"/>
<path d="M32.5573 155C32.5573 155.052 28.6436 155.097 23.816 155.097C18.9884 155.097 15.0709 155.052 15.0709 155C15.0709 154.948 18.9847 154.907 23.816 154.907C28.6473 154.907 32.5573 154.948 32.5573 155Z" fill="#FAFAFA"/>
<path d="M138.108 118.962H73.7206V148.545H138.108V118.962Z" fill="#F5F5F5"/>
<path d="M136.588 147.154H75.196V120.519H136.588V147.154ZM75.608 146.754H136.176V120.918H75.5968L75.608 146.754Z" fill="#E0E0E0"/>
<path d="M153.838 118.962H138.108V148.545H153.838V118.962Z" fill="#E0E0E0"/>
<path d="M75.3946 128.762H136.374C136.393 128.758 136.409 128.748 136.421 128.733C136.433 128.718 136.439 128.7 136.439 128.682C136.439 128.663 136.433 128.645 136.421 128.63C136.409 128.615 136.393 128.605 136.374 128.601H75.3946C75.3763 128.605 75.3598 128.615 75.348 128.63C75.3362 128.645 75.3297 128.663 75.3297 128.682C75.3297 128.7 75.3362 128.718 75.348 128.733C75.3598 128.748 75.3763 128.758 75.3946 128.762Z" fill="#E0E0E0"/>
<path d="M106.083 128.697C106.253 126.021 106.261 123.337 106.105 120.66C106.105 120.638 106.097 120.617 106.081 120.602C106.066 120.586 106.045 120.578 106.023 120.578C106.001 120.578 105.98 120.586 105.965 120.602C105.949 120.617 105.941 120.638 105.941 120.66C105.785 123.337 105.793 126.021 105.963 128.697C105.963 128.713 105.969 128.728 105.981 128.739C105.992 128.751 106.007 128.757 106.023 128.757C106.039 128.757 106.054 128.751 106.065 128.739C106.077 128.728 106.083 128.713 106.083 128.697Z" fill="#E0E0E0"/>
<path d="M122.498 124.664C122.498 124.828 122.449 124.988 122.358 125.124C122.266 125.261 122.137 125.367 121.985 125.429C121.833 125.492 121.666 125.509 121.504 125.477C121.343 125.445 121.195 125.366 121.079 125.25C120.962 125.134 120.883 124.986 120.851 124.826C120.819 124.665 120.835 124.498 120.898 124.347C120.961 124.196 121.068 124.066 121.205 123.975C121.341 123.884 121.502 123.836 121.667 123.836C121.776 123.835 121.884 123.856 121.985 123.898C122.086 123.939 122.178 124 122.256 124.077C122.333 124.154 122.394 124.246 122.436 124.346C122.477 124.447 122.498 124.555 122.498 124.664Z" fill="#E0E0E0"/>
<path d="M90.4954 124.664C90.4954 124.828 90.4466 124.988 90.3553 125.124C90.2639 125.261 90.1341 125.367 89.9821 125.429C89.8302 125.492 89.663 125.509 89.5017 125.477C89.3405 125.445 89.1923 125.366 89.076 125.25C88.9598 125.134 88.8806 124.986 88.8485 124.826C88.8164 124.665 88.8329 124.498 88.8958 124.347C88.9587 124.196 89.0653 124.066 89.202 123.975C89.3388 123.884 89.4995 123.836 89.6639 123.836C89.7733 123.835 89.8816 123.856 89.9827 123.898C90.0838 123.939 90.1757 124 90.253 124.077C90.3303 124.154 90.3915 124.246 90.4331 124.346C90.4747 124.447 90.4959 124.555 90.4954 124.664Z" fill="#E0E0E0"/>
<path d="M106.716 133.836C106.717 134 106.669 134.16 106.578 134.297C106.487 134.434 106.357 134.541 106.205 134.604C106.053 134.667 105.886 134.684 105.725 134.653C105.563 134.621 105.415 134.542 105.298 134.427C105.181 134.311 105.102 134.163 105.069 134.003C105.037 133.842 105.053 133.675 105.116 133.523C105.179 133.372 105.285 133.242 105.422 133.151C105.559 133.06 105.72 133.011 105.885 133.011C105.994 133.011 106.102 133.032 106.202 133.073C106.303 133.114 106.395 133.175 106.472 133.251C106.549 133.328 106.611 133.419 106.653 133.519C106.694 133.62 106.716 133.727 106.716 133.836Z" fill="#E0E0E0"/>
<path d="M81.4211 148.548L78.1066 167.124H79.9717L86.0801 148.548H81.4211Z" fill="#E0E0E0"/>
<path d="M133.554 148.548L136.326 167.153H134.46L128.891 148.548H133.554Z" fill="#E0E0E0"/>
<path d="M145.999 148.548L149.142 167.153H147.277L141.337 148.548H145.999Z" fill="#E0E0E0"/>
<path d="M106.66 142.209C106.66 142.372 106.611 142.533 106.52 142.669C106.428 142.805 106.298 142.911 106.146 142.974C105.995 143.037 105.827 143.053 105.666 143.021C105.505 142.989 105.357 142.91 105.24 142.794C105.124 142.678 105.045 142.531 105.013 142.37C104.981 142.209 104.997 142.043 105.06 141.892C105.123 141.74 105.23 141.611 105.366 141.52C105.503 141.429 105.664 141.38 105.828 141.38C105.938 141.38 106.046 141.401 106.147 141.442C106.248 141.484 106.34 141.545 106.417 141.622C106.495 141.699 106.556 141.79 106.597 141.891C106.639 141.992 106.66 142.1 106.66 142.209Z" fill="#E0E0E0"/>
<path d="M75.3947 137.926H136.374C136.396 137.926 136.417 137.917 136.432 137.902C136.448 137.887 136.457 137.866 136.457 137.844C136.457 137.822 136.448 137.801 136.432 137.786C136.417 137.771 136.396 137.762 136.374 137.762H75.3947C75.3728 137.762 75.3518 137.771 75.3364 137.786C75.3209 137.801 75.3123 137.822 75.3123 137.844C75.3123 137.866 75.3209 137.887 75.3364 137.902C75.3518 137.917 75.3728 137.926 75.3947 137.926Z" fill="#E0E0E0"/>
<path d="M118.671 108.92L118.65 104.972L99.1828 105.074L99.2036 109.022L118.671 108.92Z" fill="#E0E0E0"/>
<path d="M121.006 118.876L120.973 112.742L99.2777 112.855L99.3099 118.989L121.006 118.876Z" fill="#F5F5F5"/>
<path d="M116.836 118.84C116.727 117.821 116.691 116.797 116.727 115.773C116.691 114.749 116.727 113.724 116.836 112.706C116.939 113.725 116.974 114.749 116.94 115.773C116.974 116.796 116.939 117.821 116.836 118.84Z" fill="#E0E0E0"/>
<path d="M117.745 118.84C117.639 117.821 117.604 116.796 117.64 115.773C117.604 114.749 117.639 113.724 117.745 112.706C117.851 113.724 117.886 114.749 117.85 115.773C117.886 116.796 117.851 117.821 117.745 118.84Z" fill="#E0E0E0"/>
<path d="M102.581 118.84C102.478 117.821 102.443 116.796 102.476 115.773C102.443 114.749 102.478 113.725 102.581 112.706C102.687 113.724 102.722 114.749 102.686 115.773C102.722 116.796 102.687 117.821 102.581 118.84Z" fill="#E0E0E0"/>
<path d="M103.491 118.84C103.388 117.821 103.353 116.796 103.386 115.773C103.353 114.749 103.388 113.725 103.491 112.706C103.6 113.724 103.636 114.749 103.6 115.773C103.636 116.797 103.6 117.821 103.491 118.84Z" fill="#E0E0E0"/>
<path d="M105.48 115.87C105.48 115.81 107.671 115.765 110.371 115.765C113.072 115.765 115.259 115.81 115.259 115.87C115.259 115.929 113.072 115.978 110.371 115.978C107.671 115.978 105.48 115.929 105.48 115.87Z" fill="#E0E0E0"/>
<path d="M129.156 112.703L129.135 108.756L102.361 108.895L102.382 112.843L129.156 112.703Z" fill="#EBEBEB"/>
<path d="M125.329 112.221C125.075 112.224 124.826 112.152 124.614 112.013C124.401 111.875 124.235 111.676 124.135 111.444C124.036 111.211 124.009 110.954 124.056 110.705C124.104 110.457 124.225 110.228 124.403 110.048C124.582 109.868 124.81 109.745 125.059 109.694C125.308 109.644 125.566 109.668 125.801 109.764C126.036 109.861 126.237 110.024 126.378 110.234C126.52 110.444 126.595 110.692 126.595 110.945C126.596 111.111 126.564 111.277 126.501 111.431C126.438 111.585 126.345 111.726 126.228 111.844C126.11 111.963 125.97 112.057 125.816 112.122C125.662 112.186 125.497 112.22 125.329 112.221Z" fill="#E0E0E0"/>
<path d="M121.851 111.339V110.548H103.93V111.339H121.851Z" fill="#E0E0E0"/>
<path d="M89.649 13.3083C90.5978 14.5635 91.8906 15.5186 93.3718 16.0584C98.4316 17.9241 102.862 14.7113 104.102 10.8343C104.775 10.6456 105.409 10.3386 105.974 9.9276C105.396 9.96443 104.815 9.91539 104.252 9.78207C104.946 9.65044 105.568 9.27262 106.004 8.71861C105.353 8.83999 104.685 8.84757 104.031 8.741C103.781 8.1553 103.344 7.66803 102.788 7.35454C102.232 7.04106 101.588 6.91883 100.955 7.00676C100.322 7.0947 99.7361 7.38789 99.2874 7.841C98.8388 8.29411 98.5525 8.88188 98.4728 9.51341C97.4094 9.06156 96.4534 8.39182 95.6668 7.54772C94.8802 6.70362 94.2808 5.70406 93.9073 4.61401C93.337 5.08485 92.9686 5.75488 92.8774 6.48724C92.7862 7.2196 92.9791 7.95901 93.4167 8.55442C92.9836 8.38504 92.598 8.11361 92.2932 7.76336C92.0512 8.39266 92.0373 9.08642 92.2541 9.7248C92.4709 10.3632 92.9046 10.9061 93.4804 11.2597C93.0393 11.2217 92.6128 11.0838 92.2332 10.8567C92.2078 11.46 92.3726 12.056 92.7044 12.5613C93.0362 13.0665 93.5184 13.4556 94.0834 13.674C92.6146 14.1388 91.0211 14.0073 89.649 13.3083Z" fill="#EBEBEB"/>
<path d="M133.012 84.4577L131.615 82.8606V79.0359C131.617 78.1401 131.295 77.2736 130.708 76.5946C130.122 75.9157 129.31 75.4697 128.42 75.338V73.7297H127.409V75.3156C126.492 75.4236 125.648 75.8633 125.035 76.5513C124.423 77.2393 124.085 78.1275 124.087 79.0471V82.6927L122.683 84.4577H126.514C126.606 84.6989 126.756 84.9141 126.951 85.0844C127.146 85.2547 127.38 85.3751 127.632 85.435C127.884 85.495 128.147 85.4927 128.398 85.4284C128.649 85.364 128.88 85.2396 129.072 85.0659C129.253 84.8974 129.391 84.6891 129.476 84.4577H133.012Z" fill="#EBEBEB"/>
<path d="M18.0854 43.2651L16.4824 41.4292V37.0336C16.4825 36.0098 16.116 35.0196 15.4486 34.2412C14.7813 33.4627 13.857 32.9471 12.8421 32.7872V30.9438H11.6623V32.7648C10.6123 32.8882 9.6443 33.3916 8.94215 34.1792C8.24001 34.9668 7.85258 35.9839 7.85344 37.0373V41.2203L6.23926 43.2688H10.6399C10.7445 43.549 10.917 43.7991 11.1421 43.9968C11.3671 44.1945 11.6377 44.3337 11.9298 44.402C12.2219 44.4703 12.5264 44.4656 12.8163 44.3884C13.1061 44.3111 13.3723 44.1637 13.5911 43.9591C13.7999 43.7649 13.9603 43.5247 14.0593 43.2576L18.0854 43.2651Z" fill="#EBEBEB"/>
<path d="M154.827 167.154C154.827 167.207 120.165 167.251 77.4172 167.251C34.6694 167.251 0 167.207 0 167.154C0 167.102 34.6544 167.057 77.4172 167.057C120.18 167.057 154.827 167.102 154.827 167.154Z" fill="#263238"/>
<path d="M67.6765 83.86C67.3918 83.3899 69.5865 81.554 73.1145 78.6883L76.0021 76.3337C77.2179 75.277 78.5979 74.4238 80.0881 73.8075C81.9195 73.1355 83.907 73.0059 85.8108 73.4344C86.8343 73.6584 87.8138 74.0493 88.7096 74.5911C89.7023 75.1814 90.5496 75.986 91.1889 76.9457C91.3784 77.232 91.5402 77.5356 91.672 77.8524C91.8577 78.3029 91.9457 78.7874 91.9305 79.2741C91.9108 79.9045 91.6875 80.5117 91.2938 81.0055C91.0648 81.2971 90.7779 81.5384 90.4511 81.7145C90.104 81.8988 89.7204 82.0045 89.3275 82.0242C88.7507 82.0415 88.181 81.8925 87.6871 81.5951C87.3725 81.4159 87.2003 81.2853 87.1104 81.2219C87.0205 81.1585 87.0467 81.1846 87.0729 81.1958C87.1059 81.2071 87.1397 81.2159 87.174 81.2219C87.2377 81.2219 87.2414 81.2219 87.174 81.2219C86.8594 81.2825 86.5492 81.3635 86.2452 81.4645C86.0055 81.5316 85.7171 81.5876 85.4512 81.6398C85.1853 81.6921 84.9232 81.7107 84.6722 81.7219C83.7825 81.7546 82.8916 81.6983 82.0131 81.554C81.2641 81.4495 80.5899 81.3525 80.0207 81.3339C79.5015 81.3114 78.9821 81.3706 78.4814 81.5092C77.4203 81.8704 76.4067 82.3578 75.4628 82.9608C74.5315 83.5422 73.5471 84.0345 72.5228 84.431C71.6948 84.7487 70.8146 84.9095 69.9273 84.9049C69.3545 84.9097 68.7895 84.7725 68.2832 84.5056C67.9461 84.3116 67.8188 84.1324 67.8562 83.9981C67.9499 83.7183 68.6689 83.7854 69.7288 83.4048C70.3799 83.1694 70.9999 82.8562 71.5752 82.4719C72.3837 81.9274 73.1591 81.3356 73.8973 80.6995C74.9477 79.7857 76.1276 79.0313 77.399 78.4606C78.2145 78.1348 79.0793 77.9481 79.957 77.9084C80.768 77.8828 81.5798 77.9077 82.3876 77.983C83.051 78.0505 83.719 78.0592 84.3838 78.0091C84.5299 78.0091 84.6573 77.9681 84.7921 77.9457C84.9269 77.9233 85.0243 77.8935 85.1666 77.8412C85.6345 77.6708 86.1154 77.5385 86.6048 77.4457C87.0174 77.3744 87.4393 77.3744 87.8519 77.4457C88.0907 77.4877 88.3243 77.5552 88.5485 77.6472C88.7288 77.7229 88.9039 77.8101 89.0729 77.9084C89.3388 78.0688 89.5148 78.1882 89.5672 78.2106C89.5672 78.2106 89.5672 78.2106 89.5485 78.2479L89.4549 78.4457C89.3778 78.6002 89.3115 78.7598 89.2564 78.9233C89.2214 79.0147 89.1975 79.1099 89.1852 79.2069C89.1817 79.2417 89.1817 79.2767 89.1852 79.3114C89.1852 79.3114 89.1852 79.3338 89.1852 79.3114C89.159 79.2256 89.2152 79.4308 89.2077 79.4084V79.3748C89.1745 79.319 89.1313 79.2697 89.0803 79.2293C89.0405 79.1982 88.9964 79.173 88.9493 79.1547H89.0242H88.7807C88.671 79.1534 88.5615 79.166 88.4549 79.192C88.3599 79.2099 88.2661 79.2336 88.174 79.2629L88.0916 79.2928C88.0546 79.207 88.0081 79.1257 87.953 79.0502C87.3875 78.1547 86.1928 77.442 84.9569 77.1285C83.7528 76.8181 82.4866 76.8401 81.294 77.1919C80.0932 77.6105 78.9583 78.1973 77.9234 78.9345C76.7998 79.6808 75.7062 80.3599 74.7062 80.9421C70.6726 83.2929 67.9536 84.3116 67.6765 83.86Z" fill="#F5F5F5"/>
<path d="M86.6872 154.642L86.1441 162.818C86.1441 162.818 94.3124 165.519 94.3574 167.038L78.399 167.154L78.7211 154.377L86.6872 154.642Z" fill="#455A64"/>
<g opacity="0.6">
<path opacity="0.6" d="M81.2304 161.978C81.0756 162.02 80.9419 162.117 80.8548 162.252C80.7677 162.386 80.7334 162.547 80.7585 162.705C80.7944 162.861 80.8891 162.997 81.023 163.085C81.1568 163.174 81.3196 163.207 81.4776 163.179C81.6421 163.135 81.7843 163.032 81.8763 162.889C81.9684 162.746 82.0038 162.574 81.9757 162.407C81.9201 162.248 81.8054 162.117 81.6555 162.041C81.5056 161.964 81.3319 161.948 81.1704 161.996" fill="white"/>
</g>
<g opacity="0.6">
<path opacity="0.6" d="M78.3983 167.155L78.432 165.867L93.6413 166.128C93.8257 166.211 93.9871 166.337 94.1118 166.496C94.2364 166.654 94.3204 166.841 94.3567 167.039L78.3983 167.155Z" fill="white"/>
</g>
<path d="M86.4024 162.743C86.4024 162.821 86.0091 162.843 85.6159 163.082C85.2227 163.321 85.0129 163.642 84.9418 163.608C84.8706 163.575 85.0017 163.131 85.4773 162.862C85.953 162.593 86.4211 162.672 86.4024 162.743Z" fill="#263238"/>
<path d="M88.0538 163.485C88.0538 163.56 87.7279 163.683 87.4545 164C87.1811 164.317 87.08 164.668 87.0164 164.66C86.9527 164.653 86.904 164.213 87.2523 163.824C87.6006 163.436 88.0575 163.399 88.0538 163.485Z" fill="#263238"/>
<path d="M88.9457 165.508C88.8746 165.508 88.7772 165.135 88.9907 164.713C89.2042 164.292 89.5712 164.135 89.6049 164.202C89.6386 164.269 89.4026 164.486 89.2304 164.833C89.0581 165.18 89.0244 165.501 88.9457 165.508Z" fill="#263238"/>
<path d="M86.3203 160.866C86.2866 160.937 85.9458 160.817 85.4889 160.836C85.0319 160.855 84.7024 160.978 84.6612 160.911C84.62 160.843 84.9645 160.579 85.4814 160.564C85.9982 160.549 86.3615 160.806 86.3203 160.866Z" fill="#263238"/>
<g opacity="0.3">
<path opacity="0.3" d="M86.5742 156.263L86.4806 157.718L78.6418 157.412L78.6756 156.095L86.5742 156.263Z" fill="black"/>
</g>
<path d="M86.4023 159.218C86.1385 159.28 85.8628 159.269 85.6045 159.188C85.3181 159.129 85.0401 159.035 84.7768 158.908C84.6195 158.833 84.4681 158.747 84.3237 158.65C84.2359 158.598 84.1564 158.532 84.0877 158.456C84.0386 158.4 84.0097 158.328 84.0056 158.253C84.0016 158.178 84.0225 158.104 84.0653 158.042C84.1063 157.989 84.1592 157.947 84.2196 157.917C84.28 157.888 84.3464 157.874 84.4136 157.874C84.5143 157.876 84.6141 157.894 84.7094 157.927C84.879 157.974 85.0443 158.035 85.2038 158.109C85.4687 158.238 85.7114 158.408 85.9229 158.613C86.2974 158.968 86.4023 159.259 86.376 159.274C86.3498 159.289 86.1663 159.05 85.7993 158.759C85.5849 158.589 85.3495 158.447 85.0989 158.337C84.9513 158.272 84.7985 158.22 84.642 158.18C84.4735 158.132 84.3312 158.128 84.2675 158.199C84.2038 158.27 84.2675 158.24 84.2675 158.288C84.3169 158.345 84.3751 158.393 84.4398 158.43C84.5723 158.524 84.7112 158.609 84.8555 158.684C85.094 158.814 85.345 158.92 85.6045 159.001C85.8762 159.05 86.1431 159.123 86.4023 159.218Z" fill="#263238"/>
<path d="M86.2938 159.324C86.1513 159.092 86.0859 158.82 86.1065 158.548C86.1029 158.253 86.1485 157.959 86.2413 157.679C86.3004 157.514 86.373 157.354 86.4586 157.201C86.5075 157.1 86.5811 157.013 86.6728 156.948C86.7644 156.883 86.8711 156.841 86.9829 156.828C87.0536 156.832 87.1217 156.856 87.1794 156.897C87.2371 156.938 87.2819 156.994 87.3087 157.059C87.3459 157.154 87.3711 157.253 87.3836 157.354C87.4059 157.532 87.3996 157.712 87.3649 157.888C87.3098 158.186 87.1811 158.465 86.9904 158.701C86.6646 159.104 86.3387 159.186 86.3312 159.16C86.3237 159.134 86.5822 158.977 86.8331 158.589C86.979 158.364 87.0736 158.109 87.1102 157.843C87.1327 157.691 87.1327 157.536 87.1102 157.384C87.0915 157.212 87.0316 157.074 86.9679 157.089C86.9043 157.104 86.7507 157.209 86.6795 157.343C86.597 157.478 86.5268 157.621 86.4698 157.768C86.373 158.021 86.3125 158.286 86.29 158.556C86.2638 159.018 86.3387 159.313 86.2938 159.324Z" fill="#263238"/>
<path d="M70.8976 154.47L69.774 162.589C69.774 162.589 77.7326 165.847 77.6764 167.369L61.7555 166.384L62.9689 153.664L70.8976 154.47Z" fill="#455A64"/>
<g opacity="0.6">
<path opacity="0.6" d="M64.9419 161.415C64.7849 161.446 64.6449 161.534 64.5487 161.661C64.4526 161.789 64.4072 161.947 64.4213 162.106C64.4455 162.264 64.5299 162.406 64.6569 162.503C64.7839 162.601 64.9437 162.645 65.103 162.628C65.2721 162.595 65.4226 162.501 65.5246 162.362C65.6267 162.224 65.6727 162.052 65.6535 161.882C65.6102 161.72 65.5057 161.581 65.3619 161.494C65.2181 161.407 65.0462 161.379 64.882 161.415" fill="white"/>
</g>
<g opacity="0.6">
<path opacity="0.6" d="M61.7555 166.385L61.8791 165.105L77.2345 166.597C77.3903 166.693 77.5202 166.826 77.6128 166.983C77.7055 167.14 77.7582 167.318 77.7663 167.5L61.7555 166.385Z" fill="white"/>
</g>
<path d="M70.0508 162.535C70.0508 162.613 69.65 162.61 69.2418 162.819C68.8336 163.027 68.5976 163.333 68.5302 163.296C68.4628 163.259 68.6239 162.822 69.1182 162.576C69.6126 162.33 70.0732 162.464 70.0508 162.535Z" fill="#263238"/>
<path d="M71.6464 163.399C71.6464 163.477 71.3093 163.574 71.0097 163.876C70.7101 164.179 70.6052 164.514 70.5266 164.503C70.4479 164.492 70.4442 164.048 70.8224 163.682C71.2007 163.317 71.6539 163.313 71.6464 163.399Z" fill="#263238"/>
<path d="M72.392 165.467C72.3209 165.467 72.2535 165.094 72.4932 164.676C72.7329 164.258 73.1149 164.142 73.1411 164.209C73.1673 164.277 72.9201 164.478 72.7254 164.814C72.5306 165.15 72.4707 165.467 72.392 165.467Z" fill="#263238"/>
<path d="M70.0957 160.658C70.0583 160.725 69.7212 160.579 69.2718 160.568C68.8223 160.557 68.474 160.658 68.4403 160.568C68.4066 160.478 68.7624 160.255 69.283 160.277C69.8036 160.299 70.1407 160.598 70.0957 160.658Z" fill="#263238"/>
<g opacity="0.3">
<path opacity="0.3" d="M70.6756 156.079L70.4771 157.523L62.6796 156.676L62.8032 155.367L70.6756 156.079Z" fill="black"/>
</g>
<path d="M70.298 159.012C70.0309 159.06 69.7557 159.031 69.504 158.93C69.2234 158.85 68.9532 158.737 68.6988 158.594C68.5476 158.509 68.4024 158.413 68.2644 158.307C68.1807 158.247 68.1063 158.176 68.0434 158.094C67.9969 158.035 67.9717 157.962 67.9717 157.887C67.9717 157.812 67.9969 157.739 68.0434 157.68C68.0896 157.628 68.1479 157.588 68.2131 157.563C68.2783 157.538 68.3486 157.53 68.4179 157.538C68.5194 157.548 68.6191 157.572 68.7138 157.609C68.8785 157.667 69.0377 157.739 69.1894 157.826C69.4458 157.974 69.6771 158.161 69.8748 158.382C70.2081 158.755 70.3055 159.057 70.2793 159.072C70.2531 159.087 70.0845 158.833 69.74 158.516C69.5381 158.331 69.3127 158.173 69.0696 158.046C68.9276 157.972 68.7798 157.909 68.6277 157.859C68.4629 157.799 68.3205 157.785 68.2531 157.859C68.1857 157.934 68.2344 157.896 68.2531 157.949C68.2984 158.008 68.3528 158.059 68.4142 158.102C68.5411 158.202 68.6736 158.296 68.8112 158.382C69.0484 158.529 69.2992 158.654 69.5602 158.755C69.8116 158.824 70.0581 158.91 70.298 159.012Z" fill="#263238"/>
<path d="M70.178 159.111C70.0515 158.871 70.0055 158.596 70.0469 158.328C70.0626 158.033 70.1285 157.743 70.2416 157.47C70.3099 157.309 70.3939 157.155 70.4926 157.011C70.5452 156.91 70.6233 156.824 70.7192 156.763C70.8151 156.701 70.9255 156.666 71.0394 156.66C71.11 156.668 71.1768 156.697 71.2319 156.742C71.2869 156.787 71.328 156.846 71.3502 156.914C71.3806 157.01 71.3982 157.111 71.4027 157.212C71.4124 157.392 71.3947 157.572 71.3502 157.746C71.2755 158.037 71.1302 158.307 70.927 158.529C70.575 158.903 70.2416 158.97 70.2379 158.944C70.2342 158.917 70.5038 158.779 70.781 158.41C70.9399 158.196 71.051 157.95 71.1068 157.69C71.1395 157.539 71.1496 157.384 71.1368 157.231C71.1368 157.059 71.0806 156.917 71.0169 156.929C70.9532 156.94 70.7884 157.033 70.7098 157.16C70.6194 157.29 70.5393 157.428 70.4701 157.57C70.3561 157.817 70.2779 158.078 70.2379 158.347C70.1705 158.809 70.2229 159.104 70.178 159.111Z" fill="#263238"/>
<path d="M88.2747 85.8232C88.2747 85.8232 92.7689 93.5809 92.7689 104.361C92.7689 109.137 88.2747 156.975 88.2747 156.975L77.1888 156.997L77.8031 132.541L79.2188 85.9203L88.2747 85.8232Z" fill="#263238"/>
<path d="M69.1224 85.6055L69.0887 85.6502C64.1488 92.0683 62.3136 99.9604 62.6507 107.617L63.9278 124.334L61.7631 155.212L73.9537 156.977L76.9686 128.219C76.9686 128.219 82.0434 97.1506 82.0434 96.2998V85.8219C82.0434 85.8219 70.7328 83.4487 69.1224 85.6055Z" fill="#263238"/>
<path d="M83.6013 52.8893C83.9309 52.949 87.1143 54.2811 88.56 54.8894C89.0164 55.0823 89.3884 55.4318 89.6086 55.8745L96.7245 70.1472L91.234 73.9347C91.234 73.9347 89.691 85.2596 88.2753 85.8231C87.7472 86.032 70.7477 85.8231 70.7477 85.8231C70.7477 85.8231 68.6766 86.5694 67.9313 85.8231C67.3583 85.2559 67.5793 84.1551 67.5793 84.1551V60.8895L66.5419 54.4826C66.5419 54.4826 76.4217 51.6281 83.6013 52.8893Z" fill="#F58A07"/>
<path d="M70.298 59.4379L70.6014 71.0054L60.7065 71.9457C60.7065 71.8823 59.6354 56.9453 66.5228 54.4751L70.298 59.4379Z" fill="#F58A07"/>
<path d="M90.8071 71.9536C90.7509 71.5804 90.6835 71.1401 90.5787 70.4349C90.4288 69.3901 90.2341 68.0356 90.0169 66.543C89.7996 65.0504 89.6161 63.6922 89.4663 62.6436C89.4027 62.1809 89.3502 61.7854 89.3053 61.4607C89.2744 61.3174 89.2618 61.1707 89.2678 61.0242C89.3253 61.1602 89.3644 61.3032 89.3839 61.4496C89.4439 61.7257 89.5225 62.1249 89.6124 62.6212C89.7884 63.6138 90.0056 64.9907 90.2229 66.5131C90.4401 68.0356 90.6161 69.4162 90.7247 70.4162C90.7809 70.92 90.8183 71.3267 90.8371 71.6066C90.8371 71.7484 90.8371 71.8566 90.8371 71.9349V71.9797C90.8371 71.9797 90.8371 72.017 90.8034 71.9984V71.9797C90.8034 71.9797 90.8034 71.9536 90.8071 71.9536Z" fill="#263238"/>
<path d="M60.7063 71.9522C60.9385 71.9023 61.1737 71.8674 61.4104 71.8477L63.3429 71.6276C64.9758 71.4559 67.2304 71.2283 69.7098 70.9895L70.5787 70.9074L70.485 71.0119C70.4251 68.7171 70.3839 66.6759 70.3652 65.2058C70.3652 64.4968 70.3652 63.9147 70.3652 63.4744C70.3535 63.2639 70.361 63.0528 70.3877 62.8438C70.4251 63.0506 70.4439 63.2604 70.4438 63.4706C70.4626 63.9109 70.4888 64.4968 70.5187 65.202C70.5787 66.6722 70.6423 68.7133 70.706 71.0082V71.1052H70.6086L69.7397 71.1873C67.2492 71.4261 64.9908 71.6313 63.3542 71.7656L61.4141 71.9186C61.1794 71.9478 60.9428 71.9591 60.7063 71.9522Z" fill="#263238"/>
<g opacity="0.3">
<path opacity="0.3" d="M90.1779 78.5577C89.9372 77.9138 89.5668 77.3257 89.0896 76.8297C88.6123 76.3336 88.0382 75.9401 87.4027 75.6733C86.1279 75.1453 84.752 74.9032 83.3728 74.9643C80.9623 74.9502 78.5942 75.5956 76.5266 76.8301C73.4892 78.7443 71.4593 82.1362 68.1186 83.4609L67.7103 84.0467C70.3137 84.1806 72.9011 83.5694 75.167 82.2854C76.6314 81.4459 77.9572 80.3264 79.5602 79.7854C80.9759 79.304 82.5039 79.3115 83.9983 79.3227C85.4102 79.3227 86.912 79.3749 88.0843 80.1622C88.3946 80.4434 88.7748 80.6367 89.1854 80.722C89.422 80.7197 89.6518 80.6431 89.8421 80.5031C90.0324 80.363 90.1735 80.1667 90.2453 79.9421C90.3749 79.4857 90.3512 78.9995 90.1779 78.5577Z" fill="black"/>
</g>
<path d="M85.8817 70.5394L87.0689 67.5543C87.1282 67.4051 87.2315 67.2774 87.3653 67.1881C87.4991 67.0988 87.657 67.0521 87.818 67.0543H93.4358C93.5252 67.0556 93.6132 67.0779 93.6924 67.1194C93.7716 67.1608 93.8398 67.2203 93.8917 67.293C93.9435 67.3657 93.9773 67.4496 93.9905 67.5378C94.0037 67.6259 93.9959 67.716 93.9676 67.8006L90.3572 77.577C90.337 77.633 90.2999 77.6814 90.2509 77.7155C90.202 77.7496 90.1436 77.7677 90.0838 77.7673H83.4061C83.3577 77.7679 83.3099 77.7565 83.267 77.7342C83.2241 77.7118 83.1874 77.6792 83.1603 77.6392C83.1332 77.5993 83.1165 77.5532 83.1117 77.5052C83.1069 77.4572 83.1141 77.4088 83.1327 77.3643L85.8817 70.5394Z" fill="#263238"/>
<path d="M93.0801 79.636L93.6194 73.1059L93.0689 70.2439L92.1888 72.6283V73.5873C91.863 73.5052 88.8443 70.9529 88.0316 71.5014C87.2189 72.0499 85.144 75.0649 85.144 75.0649C85.144 75.0649 88.7956 78.621 89.3799 78.8859C89.3799 78.8859 88.717 81.4979 88.5072 82.4719C88.2975 83.4458 88.099 86.2033 89.3799 86.6473C90.6607 87.0914 94.1026 84.0353 93.6194 82.0987C93.2974 80.8151 93.0801 79.636 93.0801 79.636Z" fill="#AB6E65"/>
<path d="M69.4365 71.2324L69.7549 75.0534L78.9831 71.6951L83.1028 69.8032L84.9005 70.251C84.9005 70.251 90.552 70.6241 90.6007 70.9973C90.6494 71.3704 90.9115 71.6652 90.6007 71.7137C90.2898 71.7622 85.8256 71.9712 85.8256 71.9712C85.8256 71.9712 90.6419 72.2772 90.7505 72.6354C90.8591 72.9936 90.7056 73.5571 90.4471 73.5571H85.2038C85.2038 73.5571 90.1326 73.863 90.185 74.0683C90.2374 74.2735 90.5932 74.6317 90.1325 74.7847C89.6719 74.9377 85.1514 75.0907 85.1514 75.0907L89.3985 75.8332C89.3985 75.8332 89.552 76.4974 89.1925 76.4974C88.833 76.4974 79.5374 77.1131 79.5374 77.1131C79.5374 77.1131 68.6538 84.0312 66.5977 84.5313C64.5415 85.0313 62.7476 82.6655 62.4779 80.9901C62.1034 78.4676 61.7289 71.863 61.7289 71.863L69.4365 71.2324Z" fill="#AB6E65"/>
<path d="M79.5448 77.1134L79.7358 77.0872L80.2901 77.0425L82.4174 76.8857L85.7881 76.6544L87.8854 76.5126L89.0314 76.4342C89.212 76.4457 89.3916 76.4 89.5445 76.3036C89.6344 76.2104 89.4921 76.0089 89.3573 75.8895L89.3947 75.9081L85.1327 75.1618C85.1213 75.16 85.1104 75.156 85.1006 75.1499C85.0908 75.1438 85.0823 75.1358 85.0757 75.1264C85.0691 75.117 85.0644 75.1064 85.062 75.0952C85.0595 75.084 85.0594 75.0724 85.0615 75.0611C85.0642 75.0413 85.0741 75.0232 85.0893 75.0101C85.1044 74.9971 85.1239 74.99 85.1439 74.9902L87.6682 74.8782L88.9865 74.7999L89.6569 74.7439C89.8741 74.714 90.1213 74.714 90.2411 74.5946C90.361 74.4752 90.2973 74.2215 90.1662 74.1543C90.0653 74.1284 89.9627 74.1097 89.8591 74.0984L89.5108 74.0573L88.0989 73.9118L85.1889 73.6431C85.162 73.6431 85.1363 73.6325 85.1173 73.6136C85.0984 73.5947 85.0877 73.5691 85.0877 73.5424C85.0877 73.5157 85.0984 73.49 85.1173 73.4711C85.1363 73.4522 85.162 73.4416 85.1889 73.4416H90.3984C90.4696 73.4416 90.552 73.3558 90.6044 73.2513C90.6651 73.1558 90.6876 73.0411 90.6675 72.9299C90.6473 72.8187 90.5861 72.719 90.4958 72.6506C90.3155 72.5925 90.1298 72.5525 89.9415 72.5311L89.346 72.4453L88.1513 72.3035L85.7956 72.061C85.7819 72.0601 85.7686 72.0564 85.7565 72.0502C85.7443 72.044 85.7335 72.0354 85.7247 72.025C85.716 72.0145 85.7094 72.0024 85.7055 71.9893C85.7016 71.9763 85.7004 71.9626 85.7019 71.949C85.7045 71.9246 85.7157 71.9018 85.7335 71.8847C85.7514 71.8676 85.7747 71.8574 85.7993 71.8558L88.8404 71.7102L90.316 71.6281C90.4213 71.6288 90.5261 71.6137 90.6269 71.5834C90.6594 71.5569 90.6839 71.5219 90.6978 71.4824C90.7117 71.4429 90.7144 71.4004 90.7055 71.3595C90.6931 71.2622 90.6467 71.1724 90.5745 71.1057C90.488 71.048 90.3893 71.0109 90.2861 70.9975C89.3648 70.8035 88.4135 70.7177 87.5221 70.6244C86.6308 70.5311 85.7319 70.4415 84.8705 70.3632L83.0765 69.9079H83.1327L79.013 71.7737L72.2529 74.2028L70.4102 74.8521L69.9309 75.0163C69.876 75.0367 69.8197 75.0529 69.7623 75.0648L69.9234 74.9641L70.3953 74.7812L72.2229 74.0946L78.9643 71.6058L83.084 69.7027C83.1021 69.6955 83.1222 69.6955 83.1402 69.7027L84.9379 70.1468C85.7993 70.2177 86.6869 70.3035 87.5933 70.3968C88.4996 70.49 89.4322 70.5833 90.3872 70.7699C90.5228 70.7892 90.6515 70.8418 90.7617 70.9229C90.8682 71.0214 90.9382 71.1529 90.9602 71.296C90.9747 71.3748 90.9662 71.4561 90.9356 71.5302C90.9051 71.6043 90.8538 71.6681 90.7879 71.714C90.6603 71.764 90.5243 71.7893 90.3872 71.7886L88.8891 71.8744L85.848 72.0237V71.8184L88.2075 72.061L89.406 72.2028L90.0089 72.2886C90.2242 72.3114 90.4356 72.3616 90.6381 72.4379C90.7104 72.4812 90.7719 72.5403 90.818 72.6108C90.864 72.6812 90.8935 72.7612 90.904 72.8446C90.9202 73.0019 90.893 73.1605 90.8254 73.3036C90.7903 73.3765 90.7435 73.4433 90.6868 73.5013C90.656 73.5341 90.6191 73.5607 90.5782 73.5797C90.5328 73.602 90.4828 73.6135 90.4321 73.6133H85.1963V73.4118L88.1101 73.6842L89.5221 73.8334L89.8704 73.8782C89.9978 73.8878 90.1236 73.9129 90.2449 73.9528C90.3065 73.99 90.3594 74.0399 90.4001 74.0991C90.4408 74.1583 90.4683 74.2255 90.4808 74.2961C90.4982 74.3673 90.4969 74.4416 90.4773 74.5122C90.4576 74.5827 90.4201 74.6471 90.3685 74.6991C90.2639 74.7914 90.1329 74.8488 89.994 74.8633L89.6494 74.9043C89.4209 74.9267 89.1962 74.9417 88.9753 74.9566L87.6532 75.0312L85.1252 75.1357V74.9603L89.3872 75.7402C89.3981 75.7362 89.4101 75.7362 89.4209 75.7402C89.5049 75.816 89.5769 75.9041 89.6344 76.0014C89.6735 76.0558 89.6944 76.1211 89.6944 76.188C89.6944 76.2549 89.6735 76.3201 89.6344 76.3745C89.4592 76.5055 89.2424 76.5691 89.0239 76.5536L87.8779 76.6245L85.7768 76.7514L82.4062 76.9455L80.2714 77.0611L79.7171 77.0835C79.6606 77.0982 79.603 77.1082 79.5448 77.1134Z" fill="#7C4B43"/>
<path d="M66.8264 79.3929C66.8041 79.1222 66.8282 78.8496 66.8976 78.5869C67.0273 77.9422 67.2817 77.3288 67.6466 76.7809C68.0147 76.2351 68.4899 75.7693 69.0436 75.4115C69.2589 75.243 69.5041 75.1164 69.7664 75.0383C69.8189 75.1055 68.6429 75.6391 67.8189 76.8817C67.4821 77.416 67.2294 77.9987 67.0699 78.6093C67.0122 78.8772 66.9308 79.1394 66.8264 79.3929Z" fill="#7C4B43"/>
<path d="M90.5415 69.5234C90.5887 69.6112 90.6081 69.7113 90.597 69.8103C90.586 69.9093 90.5451 70.0027 90.4796 70.0781C90.4142 70.1534 90.3274 70.2073 90.2306 70.2324C90.1339 70.2576 90.0317 70.253 89.9376 70.2191C89.8436 70.1852 89.7621 70.1237 89.7038 70.0427C89.6456 69.9617 89.6134 69.865 89.6114 69.7654C89.6095 69.6658 89.6379 69.5679 89.693 69.4847C89.748 69.4015 89.8271 69.3369 89.9198 69.2995C90.0322 69.2482 90.1603 69.243 90.2766 69.2848C90.3928 69.3267 90.488 69.4123 90.5415 69.5234Z" fill="#FAFAFA"/>
<path d="M91.6458 73.2288C91.6878 73.0362 91.7467 72.8477 91.8218 72.6654L92.3649 71.1541C92.6083 70.5086 92.8892 69.7549 93.1963 68.9153C93.2787 68.7026 93.3574 68.4899 93.4398 68.2697C93.5222 68.0496 93.6607 67.7958 93.6008 67.6578C93.5746 67.5981 93.4847 67.5682 93.3686 67.5757H92.2076H89.2751H87.9942C87.9117 67.561 87.8266 67.5701 87.749 67.6018C87.6714 67.6335 87.6045 67.6866 87.556 67.7548C87.4811 67.8929 87.4175 68.0832 87.3538 68.2324L86.7283 69.725C86.6609 69.91 86.577 70.0886 86.4774 70.2586C86.5208 70.0667 86.5822 69.8793 86.6609 69.6989C86.8032 69.3257 86.9943 68.8033 87.2227 68.2063C87.2901 68.0458 87.3351 67.8929 87.4287 67.7026C87.4867 67.6076 87.5731 67.5332 87.6759 67.4899C87.7764 67.4479 87.8855 67.43 87.9942 67.4376H89.2751H92.2001H93.3461C93.4256 67.4248 93.5071 67.4356 93.5804 67.4688C93.6537 67.502 93.7156 67.5561 93.7581 67.6242C93.7819 67.6927 93.7919 67.7653 93.7874 67.8376C93.7829 67.91 93.764 67.9808 93.7319 68.0459C93.6869 68.1578 93.6458 68.2697 93.6046 68.3817C93.5184 68.5981 93.436 68.8145 93.3536 69.0235L92.481 71.2437C92.2338 71.8519 92.0316 72.3631 91.878 72.7363C91.8118 72.9055 91.7342 73.07 91.6458 73.2288Z" fill="#455A64"/>
<path d="M75.4215 30.8398C74.4777 30.2428 74.2493 28.8621 74.7624 27.8546C75.045 27.3734 75.4355 26.9637 75.9032 26.6575C76.371 26.3514 76.9034 26.157 77.4589 26.0897C78.2656 25.9681 79.0898 26.0393 79.8634 26.2975C80.637 26.5558 81.3379 26.9936 81.9082 27.5748C82.515 28.2017 83.0093 29.0151 83.8333 29.3024C84.5599 29.5525 85.3613 29.3248 86.1216 29.4256C86.6304 29.5163 87.1122 29.7196 87.5316 30.0205C87.951 30.3215 88.2972 30.7124 88.5448 31.1644C89.0309 32.0712 89.3229 33.0686 89.4024 34.0936C89.5148 35.0302 89.5859 36.0564 90.2376 36.7392C90.8893 37.4221 91.878 37.5452 92.6645 38.0191C93.3888 38.4946 93.8977 39.2335 94.0825 40.0779C94.2672 40.9223 94.1132 41.8052 93.6532 42.5379C93.3386 42.9931 92.9042 43.4073 92.8555 43.9596C92.8068 44.5118 93.1476 44.9074 93.3012 45.385C93.3802 45.6945 93.3919 46.0174 93.3353 46.3318C93.2788 46.6462 93.1554 46.9449 92.9734 47.2079C92.7914 47.4708 92.5551 47.6919 92.2802 47.8564C92.0054 48.0208 91.6984 48.1247 91.3799 48.1612C90.7282 48.1985 90.0241 47.9448 89.4361 48.2358C88.8481 48.5269 88.6384 49.2247 88.2639 49.7583C87.8815 50.2732 87.3332 50.6417 86.7107 50.802C86.0883 50.9623 85.4294 50.9047 84.8445 50.6389C84.3651 50.4038 83.9082 50.0157 83.3726 50.0493C82.8371 50.0829 82.4213 50.5419 81.8933 50.6426C81.2041 50.7732 80.5525 50.2695 80.1443 49.7023C79.736 49.1351 79.4476 48.4672 78.9271 48.0045C78.2417 47.3962 77.2754 47.2582 76.4103 46.9485C75.4507 46.6165 74.5736 46.0838 73.8379 45.386C73.1022 44.6883 72.525 43.8417 72.145 42.9032C71.765 41.9647 71.5911 40.956 71.6349 39.9449C71.6788 38.9338 71.9394 37.9438 72.3992 37.0415" fill="#263238"/>
<path d="M85.3989 43.1278C85.6046 42.9026 85.8614 42.7299 86.148 42.6241H86.0918C86.1448 42.6117 86.1986 42.603 86.2528 42.5979C86.3524 42.5683 86.4572 42.5596 86.5603 42.5724C86.6635 42.5853 86.7628 42.6194 86.8521 42.6726C87.1834 42.7942 87.4582 43.0333 87.6236 43.3442C87.7518 43.6214 87.8014 43.9282 87.7671 44.2314C87.7327 44.5346 87.6158 44.8227 87.4288 45.0644C87.2934 45.2847 87.094 45.4588 86.8571 45.5637C86.6202 45.6687 86.3569 45.6995 86.1021 45.6522C85.8472 45.6049 85.6128 45.4817 85.4297 45.2988C85.2466 45.1159 85.1236 44.8819 85.0768 44.6278C84.9984 44.3711 84.9868 44.0987 85.0432 43.8363C85.0995 43.5739 85.222 43.3301 85.3989 43.1278Z" fill="#455A64"/>
<path d="M72.9539 53.1202L71.9539 34.7913C71.9342 34.4033 72.0608 34.022 72.3089 33.7224C72.557 33.4227 72.9086 33.2263 73.2947 33.1719L81.5342 30.8546C84.1783 30.4815 86.0284 33.7017 86.2794 36.351C86.549 39.2914 86.7625 42.896 86.4741 45.105C85.8973 49.5455 82.5117 50.2059 82.5117 50.2059C82.5117 50.2059 82.5941 54.1911 82.6203 55.8031L82.3244 61.3368L72.9539 53.1202Z" fill="#AB6E65"/>
<path d="M84.56 40.1942C84.5652 40.3416 84.5125 40.4851 84.4132 40.5945C84.314 40.7039 84.1758 40.7704 84.0282 40.78C83.9559 40.7883 83.8827 40.782 83.813 40.7615C83.7432 40.741 83.6783 40.7068 83.622 40.6609C83.5658 40.6149 83.5194 40.5582 83.4856 40.4941C83.4518 40.4299 83.4312 40.3597 83.4252 40.2875C83.4199 40.1397 83.4724 39.9957 83.5716 39.8857C83.6708 39.7758 83.809 39.7084 83.957 39.6979C84.0294 39.6902 84.1027 39.697 84.1725 39.7179C84.2423 39.7388 84.3071 39.7734 84.3633 39.8196C84.4195 39.8658 84.4658 39.9228 84.4996 39.9871C84.5334 40.0514 84.5539 40.1218 84.56 40.1942Z" fill="#263238"/>
<path d="M85.5415 38.2508C85.4741 38.3254 85.0321 38.0194 84.4179 38.0381C83.8037 38.0568 83.3655 38.3739 83.2944 38.303C83.2232 38.2321 83.3281 38.1351 83.5191 37.9859C83.7795 37.7965 84.0918 37.691 84.4142 37.6836C84.7328 37.6736 85.0464 37.7651 85.3093 37.9448C85.5078 38.0829 85.5752 38.2135 85.5415 38.2508Z" fill="#263238"/>
<path d="M78.653 40.1942C78.6592 40.3418 78.6069 40.4859 78.5074 40.5955C78.4079 40.7051 78.2692 40.7713 78.1212 40.78C78.0493 40.7877 77.9765 40.781 77.9072 40.7603C77.8378 40.7396 77.7734 40.7053 77.7175 40.6594C77.6617 40.6135 77.6156 40.557 77.5821 40.4931C77.5485 40.4292 77.5281 40.3593 77.522 40.2875C77.5158 40.1395 77.568 39.9949 77.6674 39.8847C77.7667 39.7746 77.9054 39.7075 78.0538 39.6979C78.1261 39.6902 78.1991 39.697 78.2687 39.718C78.3382 39.7389 78.4029 39.7735 78.4587 39.8198C78.5146 39.8661 78.5606 39.9231 78.594 39.9874C78.6274 40.0517 78.6474 40.122 78.653 40.1942Z" fill="#263238"/>
<path d="M79.5259 38.534C79.4547 38.6086 79.0165 38.3026 78.4023 38.3213C77.7881 38.34 77.3499 38.6609 77.2787 38.5862C77.2076 38.5116 77.3124 38.4183 77.5034 38.2728C77.763 38.0812 78.0756 37.9744 78.3985 37.9668C78.7172 37.9568 79.0308 38.0483 79.2937 38.228C79.4884 38.3661 79.5596 38.5004 79.5259 38.534Z" fill="#263238"/>
<path d="M81.8778 42.9965C82.1968 42.8842 82.5292 42.814 82.8665 42.7875C83.02 42.7689 83.1699 42.7315 83.1923 42.6271C83.2006 42.4659 83.1602 42.3061 83.0762 42.1681C82.9152 41.7949 82.7504 41.4031 82.5781 40.9927C81.889 39.321 81.3834 37.9478 81.4546 37.918C81.5257 37.8881 82.1362 39.224 82.829 40.9031C82.9938 41.3136 83.1549 41.7091 83.3047 42.086C83.4089 42.2707 83.4435 42.4864 83.4021 42.6942C83.3822 42.7506 83.349 42.8013 83.3053 42.8422C83.2617 42.8831 83.2088 42.913 83.1511 42.9293C83.066 42.9551 82.9779 42.9701 82.889 42.9741C82.5541 43.0223 82.2145 43.0299 81.8778 42.9965Z" fill="#263238"/>
<path d="M82.5072 50.206C80.4168 50.2974 78.342 49.8078 76.5149 48.7917C76.5149 48.7917 78.0429 51.7769 82.4735 51.2508L82.5072 50.206Z" fill="#7C4B43"/>
<path d="M81.8258 44.4479C81.6828 44.2501 81.4933 44.0903 81.2739 43.9823C81.0545 43.8743 80.812 43.8215 80.5674 43.8285C80.4076 43.835 80.2518 43.8802 80.1135 43.9602C79.9751 44.0402 79.8584 44.1525 79.7734 44.2875C79.6886 44.4397 79.6479 44.6124 79.6559 44.7864C79.6638 44.9603 79.7201 45.1286 79.8184 45.2726C79.9327 45.422 80.0899 45.5334 80.269 45.592C80.4482 45.6506 80.6411 45.6537 80.8221 45.6009C81.1601 45.482 81.4636 45.2821 81.7059 45.0188C81.7853 44.957 81.8493 44.8778 81.8932 44.7875C81.9153 44.7376 81.9242 44.683 81.919 44.6287C81.9137 44.5745 81.8945 44.5225 81.8632 44.4778" fill="#7C4B43"/>
<path d="M80.0879 43.4675C80.1853 43.4675 80.204 44.1243 80.7883 44.587C81.3725 45.0497 82.0766 44.9601 82.0841 45.0422C82.0916 45.1243 81.9305 45.1765 81.6309 45.1915C81.2425 45.208 80.8607 45.0878 80.5523 44.8519C80.2555 44.6234 80.0594 44.2889 80.0055 43.919C79.9718 43.6205 80.0355 43.4675 80.0879 43.4675Z" fill="#263238"/>
<path d="M79.7247 36.0121C79.6685 36.1801 79.0543 36.1204 78.339 36.2286C77.6236 36.3368 77.0469 36.5457 76.9457 36.4002C76.9008 36.3293 76.9982 36.1689 77.2304 36.001C77.5369 35.7981 77.8873 35.6702 78.2528 35.6278C78.6186 35.5717 78.9926 35.605 79.3427 35.7248C79.6123 35.8069 79.7472 35.9338 79.7247 36.0121Z" fill="#263238"/>
<path d="M85.2786 36.1572C85.1738 36.299 84.7468 36.1572 84.2412 36.1759C83.7356 36.1945 83.3049 36.2953 83.2038 36.1535C83.1588 36.0826 83.2225 35.9445 83.406 35.8065C83.653 35.6412 83.9437 35.553 84.2412 35.553C84.5387 35.553 84.8294 35.6412 85.0764 35.8065C85.2487 35.9445 85.3124 36.0863 85.2786 36.1572Z" fill="#263238"/>
<path d="M89.2638 35.4101C89.0811 34.7346 88.6679 34.1435 88.0953 33.7384C87.777 33.5295 87.4024 33.4026 87.1066 33.1638C86.4661 32.6489 86.3163 31.7496 85.9193 31.0294C85.6597 30.5663 85.2928 30.1717 84.8491 29.8783C84.4055 29.5849 83.898 29.4014 83.3689 29.3428C82.4887 29.2532 81.5824 29.5144 80.7247 29.3017C80.0918 29.1413 79.5375 28.7308 78.8971 28.6114C77.6462 28.3726 76.4814 29.2682 75.5751 30.1562C75.5751 31.0481 76.2867 31.6488 76.972 32.216C77.3178 32.5011 77.7216 32.7079 78.1556 32.8219C78.5895 32.936 79.0432 32.9546 79.4851 32.8765C80.1704 32.7533 80.9157 32.41 81.5075 32.772C82.0992 33.1339 82.1554 34.0855 82.706 34.5631C83.4962 35.2459 84.7471 34.6079 85.7508 34.9027C86.5223 35.1303 87.0055 35.8654 87.5185 36.4848C88.0316 37.1042 88.7994 37.6938 89.5709 37.4624C89.5496 36.7687 89.4465 36.0799 89.2638 35.4101Z" fill="#263238"/>
<path d="M79.8783 31.653C79.3165 31.4926 78.1705 31.1306 77.8708 30.6493C77.5676 30.126 77.1306 29.6921 76.6043 29.3919C76.0779 29.0917 75.4811 28.9359 74.8747 28.9403C74.2647 28.9891 73.6871 29.2337 73.2286 29.6374C72.7701 30.0411 72.4553 30.5821 72.3317 31.1791C71.601 31.205 70.8909 31.4266 70.276 31.8206C69.6611 32.2145 69.1641 32.7664 68.8374 33.418C68.751 33.5858 68.676 33.759 68.6127 33.9367C68.3937 34.3293 68.2635 34.7648 68.2311 35.2127C68.1988 35.6607 68.2651 36.1103 68.4254 36.53C68.6202 37.0338 68.9497 37.5972 68.6913 38.0711C68.4329 38.545 67.755 38.5674 67.2344 38.7465C66.7835 38.9148 66.4065 39.2359 66.1695 39.6535C65.9326 40.0711 65.8508 40.5585 65.9386 41.0302C66.0641 41.3507 66.1202 41.694 66.1034 42.0377C65.9757 42.3726 65.7673 42.6712 65.4967 42.9071C65.2088 43.2487 65.016 43.6595 64.9374 44.0986C64.8588 44.5376 64.8973 44.9896 65.0489 45.4092C65.2006 45.8288 65.4601 46.2015 65.8015 46.4899C66.143 46.7783 66.5544 46.9724 66.9947 47.0527C67.3999 47.0703 67.7984 47.1613 68.1707 47.3214C68.564 47.5639 68.74 48.0378 69.0172 48.4073C69.2926 48.7583 69.6686 49.0177 70.0953 49.1509C70.522 49.2842 70.9793 49.2851 71.4066 49.1535C71.577 49.0954 71.7383 49.0137 71.886 48.911C72.0502 49.1223 72.2655 49.2886 72.5118 49.3943C72.7581 49.5 73.0273 49.5417 73.2942 49.5155L73.1294 40.1869C73.1808 40.3004 73.2591 40.3998 73.3576 40.4765C73.4562 40.5532 73.5719 40.6049 73.6949 40.6272C75.193 40.9667 75.4177 37.8846 75.0807 37.0487C75.645 36.5864 76.1483 36.0548 76.5787 35.4666C77.0606 34.5331 77.2976 33.4934 77.2679 32.4441C77.8184 32.4814 80.1255 31.7239 79.8783 31.653Z" fill="#263238"/>
<path d="M73.5379 40.9528C73.493 40.005 72.3282 39.8035 71.5043 40.2774C71.0511 40.5386 70.7028 41.061 70.7552 42.0685C70.8638 44.7514 73.5454 44.0872 73.5454 44.0089C73.5454 43.9305 73.5941 42.061 73.5379 40.9528Z" fill="#AB6E65"/>
<path d="M72.6731 43.0259C72.6731 43.0259 72.6281 43.0595 72.5532 43.1005C72.4403 43.1458 72.3141 43.1458 72.2012 43.1005C72.0225 42.9982 71.8744 42.8502 71.7724 42.6717C71.6703 42.4933 71.6179 42.2909 71.6207 42.0856C71.6061 41.8555 71.6418 41.6251 71.7255 41.4102C71.7479 41.3258 71.7901 41.2478 71.8487 41.1829C71.9073 41.118 71.9807 41.068 72.0626 41.0371C72.116 41.0206 72.1736 41.0235 72.2251 41.0454C72.2765 41.0672 72.3185 41.1066 72.3435 41.1565C72.3847 41.2274 72.3697 41.2833 72.3847 41.2871C72.3997 41.2908 72.4409 41.2385 72.4147 41.1303C72.3956 41.0642 72.3547 41.0063 72.2986 40.9662C72.222 40.9138 72.1278 40.8937 72.0364 40.9102C71.9273 40.9363 71.8266 40.9898 71.744 41.0656C71.6615 41.1413 71.5997 41.2368 71.5645 41.343C71.4618 41.5778 71.4168 41.8337 71.4334 42.0893C71.4746 42.6266 71.7705 43.1229 72.1825 43.2088C72.2552 43.2268 72.3311 43.2281 72.4044 43.2126C72.4777 43.197 72.5466 43.1651 72.6057 43.1192C72.6731 43.0893 72.6843 43.0296 72.6731 43.0259Z" fill="#7C4B43"/>
<path d="M76.1707 30.9326C75.9621 31.0421 75.7795 31.1948 75.6351 31.3804C75.3241 31.9517 75.2527 32.6225 75.4366 33.2461V33.3133H75.3692C74.9819 33.4166 74.6238 33.6078 74.323 33.8719C74.0222 34.136 73.7868 34.4659 73.6352 34.8357C73.5525 35.0443 73.5044 35.2648 73.4928 35.4887C73.5002 35.7271 73.5291 35.9644 73.579 36.1977C73.6316 36.4436 73.6654 36.693 73.6801 36.944C73.6996 37.224 73.6244 37.5025 73.4666 37.735C73.1166 38.1778 72.6572 38.5224 72.1333 38.7351C71.6738 38.9365 71.251 39.2127 70.8824 39.5523C70.2752 40.1452 69.9154 40.945 69.875 41.7911C69.8613 42.3669 69.9899 42.9371 70.2495 43.4516C70.4293 43.8248 70.5791 43.9927 70.5641 44.0039C70.5491 44.0151 70.5191 43.9628 70.448 43.8807C70.3484 43.7566 70.2594 43.6243 70.1821 43.4852C69.823 42.8359 69.6868 42.0873 69.7943 41.3537C69.9019 40.6201 70.2471 39.9416 70.7776 39.4217C71.1554 39.0653 71.591 38.7752 72.0659 38.5634C72.5602 38.3623 72.9947 38.0386 73.3281 37.6231C73.6239 37.2164 73.4929 36.6865 73.4142 36.2052C73.3623 35.9597 73.3347 35.7097 73.3318 35.4589C73.341 35.2138 73.3943 34.9724 73.4891 34.7462C73.6539 34.3525 73.9092 34.0028 74.2345 33.7254C74.5598 33.448 74.9459 33.2506 75.3617 33.1491L75.3093 33.2349C75.152 32.4065 75.2756 31.6826 75.5827 31.302C75.6922 31.1552 75.8363 31.0373 76.0021 30.9587C76.0569 30.9427 76.1136 30.9339 76.1707 30.9326Z" fill="#455A64"/>
<path d="M71.6688 44.03C71.8745 43.8048 72.1313 43.6321 72.4179 43.5263H72.3617C72.4147 43.514 72.4685 43.5052 72.5227 43.5002C72.6225 43.4718 72.727 43.4638 72.83 43.4766C72.9329 43.4895 73.0322 43.5229 73.122 43.5748C73.4547 43.6942 73.7301 43.934 73.8935 44.2465C74.0217 44.5236 74.0713 44.8304 74.037 45.1336C74.0027 45.4369 73.8857 45.7249 73.6987 45.9667C73.563 46.1869 73.3634 46.361 73.1262 46.4657C72.889 46.5705 72.6255 46.601 72.3706 46.5533C72.1156 46.5055 71.8812 46.3818 71.6984 46.1984C71.5156 46.015 71.3929 45.7807 71.3467 45.5263C71.269 45.2702 71.2578 44.9985 71.3141 44.7368C71.3704 44.4751 71.4925 44.2319 71.6688 44.03Z" fill="#455A64"/>
<path d="M80.3348 100.308C80.3872 100.308 79.0015 112.995 77.2413 128.667C75.481 144.339 74.0054 156.997 73.953 156.993C73.9005 156.989 75.2863 144.306 77.0465 128.634C78.8068 112.962 80.2824 100.301 80.3348 100.308Z" fill="#455A64"/>
<path d="M74.0956 87.1546C74.0692 87.2766 74.0237 87.3937 73.9608 87.5016C73.9023 87.6378 73.8347 87.7699 73.7585 87.8971C73.6652 88.0676 73.5614 88.2321 73.4477 88.3897C73.157 88.8089 72.8231 89.1965 72.4514 89.5464C71.5329 90.4035 70.4203 91.0269 69.2081 91.3636C68.7187 91.498 68.2166 91.5818 67.71 91.6136C67.5142 91.6246 67.3178 91.6246 67.122 91.6136C66.9742 91.613 66.8266 91.603 66.6801 91.5838C66.5532 91.5749 66.4276 91.5524 66.3055 91.5166C66.3055 91.4756 66.8449 91.5502 67.695 91.4681C68.1924 91.4211 68.6841 91.3261 69.1631 91.1845C69.7493 91.0056 70.3154 90.7667 70.8522 90.4718C71.3864 90.1687 71.8883 89.8124 72.3503 89.4084C72.7201 89.067 73.0574 88.6923 73.3578 88.2889C73.8484 87.6285 74.0619 87.1359 74.0956 87.1546Z" fill="#455A64"/>
<path d="M90.2488 92.1294C90.2488 92.1294 90.1477 92.1294 89.9642 92.0846C89.7082 92.0246 89.4576 91.9434 89.2151 91.8421C87.5924 91.169 86.2999 89.888 85.616 88.2748C85.5116 88.0338 85.4289 87.784 85.3688 87.5285C85.3276 87.3494 85.3089 87.2486 85.3239 87.2449C85.3388 87.2412 85.4624 87.618 85.7433 88.2151C86.4736 89.7552 87.7217 90.9921 89.2713 91.7115C89.863 91.9838 90.26 92.0883 90.2488 92.1294Z" fill="#455A64"/>
<path d="M81.5711 86.4758C81.6007 86.6345 81.6108 86.7961 81.601 86.9572C81.601 87.2669 81.601 87.7035 81.601 88.2744C81.5823 89.3938 81.5261 90.92 81.4025 92.6103C81.2377 94.9425 80.9831 96.9575 80.8295 97.9612V98.0023H80.7846C80.5344 98.014 80.2836 98.0028 80.0355 97.9687C80.2832 97.929 80.5337 97.9091 80.7846 97.909L80.7396 97.95C80.8333 96.9425 81.0467 94.9238 81.2115 92.5954C81.3351 90.9088 81.4138 89.3789 81.4662 88.2707C81.4924 87.7445 81.5111 87.3042 81.5299 86.9572C81.5298 86.7959 81.5436 86.6348 81.5711 86.4758Z" fill="#455A64"/>
<path d="M37.9339 60.4312L21.043 60.5244C20.8394 60.5254 20.638 60.5663 20.4503 60.6449C20.2625 60.7234 20.0921 60.838 19.9489 60.9822C19.8056 61.1263 19.6922 61.2972 19.6152 61.485C19.5382 61.6728 19.499 61.8739 19.5 62.0767L19.5674 74.2972C19.5684 74.5001 19.6095 74.7008 19.6883 74.8878C19.7671 75.0749 19.8822 75.2446 20.0269 75.3874C20.1715 75.5301 20.343 75.6431 20.5315 75.7198C20.72 75.7966 20.9218 75.8355 21.1254 75.8346L27.2676 75.801C27.893 76.6592 28.9005 78.0399 29.451 78.7861C29.4932 78.8434 29.549 78.8892 29.6134 78.9194C29.6778 78.9497 29.7488 78.9634 29.8199 78.9593C29.891 78.9552 29.9599 78.9335 30.0205 78.8961C30.081 78.8587 30.1311 78.8068 30.1664 78.7451L31.8705 75.7861L37.9976 75.7525C38.2017 75.7515 38.4036 75.7105 38.5918 75.6317C38.78 75.553 38.9508 75.4381 39.0945 75.2936C39.2381 75.1492 39.3517 74.9779 39.4289 74.7896C39.5061 74.6014 39.5454 74.3998 39.5444 74.1965L39.477 61.9797C39.478 61.777 39.4388 61.5761 39.3617 61.3885C39.2847 61.2009 39.1712 61.0303 39.0279 60.8865C38.8846 60.7426 38.7142 60.6284 38.5265 60.5502C38.3387 60.4721 38.1374 60.4316 37.9339 60.4312Z" fill="#EBEBEB"/>
<path d="M37.9338 60.4305C38.0814 60.418 38.23 60.4332 38.372 60.4753C38.5814 60.5327 38.7767 60.6326 38.9455 60.7687C39.1144 60.9049 39.2532 61.0743 39.3533 61.2664C39.4919 61.5503 39.5527 61.8657 39.5293 62.1806C39.5293 62.5239 39.5293 62.8933 39.5293 63.3C39.5293 64.106 39.5293 65.0239 39.5555 66.0464C39.5555 68.0987 39.5929 70.5689 39.6154 73.3787C39.6154 73.554 39.6154 73.7294 39.6154 73.9085C39.6239 74.0916 39.6176 74.275 39.5967 74.457C39.5412 74.8413 39.35 75.1933 39.0574 75.4496C38.7485 75.7014 38.359 75.8339 37.96 75.8228H36.799L31.889 75.8563L31.9677 75.8116L31.0164 77.4609C30.8591 77.7407 30.6943 78.0243 30.5333 78.3079L30.2861 78.7333C30.2426 78.8233 30.1746 78.8994 30.0899 78.9528C30.0051 79.0063 29.907 79.0349 29.8067 79.0355C29.7037 79.0357 29.6031 79.0044 29.5183 78.946C29.4422 78.8902 29.3774 78.8206 29.3273 78.7408L29.0277 78.334L28.4285 77.5131L27.2038 75.8451L27.2862 75.8862L22.8294 75.9123C22.2114 75.9123 21.6122 75.9123 20.983 75.9123C20.6629 75.8832 20.3582 75.7618 20.1061 75.563C19.854 75.3642 19.6655 75.0966 19.5636 74.7929C19.5168 74.6403 19.4904 74.4822 19.4849 74.3227V73.8749C19.4849 73.5802 19.4849 73.2854 19.4849 72.9906C19.4849 72.401 19.4849 71.8152 19.4849 71.2368C19.4849 68.9233 19.4624 66.6882 19.455 64.5612C19.455 64.0276 19.455 63.5015 19.455 62.9866C19.455 62.7254 19.455 62.4679 19.455 62.2142C19.4408 61.9478 19.4855 61.6815 19.586 61.4343C19.6893 61.1921 19.8498 60.9783 20.0539 60.8113C20.2581 60.6443 20.4997 60.529 20.7583 60.4753C21.0063 60.4407 21.257 60.4282 21.5073 60.438H22.2264H27.5109H35.1624H37.241H37.784H37.9675H37.784H37.241L35.1624 60.4678L27.5109 60.5387L22.2264 60.5798H21.5111C21.2734 60.5718 21.0354 60.583 20.7995 60.6134C20.5685 60.6649 20.353 60.7702 20.1707 60.9206C19.9884 61.0711 19.8445 61.2625 19.7508 61.4791C19.6601 61.7039 19.6217 61.9463 19.6385 62.188C19.6385 62.4455 19.6385 62.703 19.6385 62.9604C19.6385 63.4779 19.6385 64.004 19.6385 64.5389C19.6385 66.6658 19.6647 68.8972 19.6797 71.2144C19.6797 71.7928 19.6797 72.3786 19.6797 72.9645C19.6797 73.2593 19.6797 73.5578 19.6797 73.8526C19.6589 74.1406 19.6829 74.4301 19.7508 74.7108C19.84 74.9805 20.0062 75.2184 20.229 75.3954C20.4519 75.5723 20.7217 75.6807 21.0055 75.7071C21.5935 75.7071 22.2227 75.7071 22.8331 75.7071L27.2862 75.6847H27.3349L27.3648 75.7257L28.5858 77.3937L29.1888 78.2146L29.4846 78.6213C29.5213 78.6835 29.5696 78.7379 29.6269 78.7818C29.6812 78.8182 29.7451 78.8377 29.8105 78.8378C29.8774 78.8386 29.9431 78.8195 29.9991 78.7829C30.0552 78.7464 30.099 78.694 30.1251 78.6325L30.3722 78.2072L30.8591 77.3601L31.8104 75.7145L31.8366 75.666H31.904L36.8177 75.6474C37.5893 75.6026 38.4207 75.8004 38.9712 75.3004C39.2411 75.0742 39.4205 74.7591 39.4768 74.4123C39.4982 74.2378 39.5045 74.0617 39.4956 73.8861V73.3563C39.4956 70.5502 39.4956 68.0763 39.4768 66.024V62.1806C39.5033 61.8756 39.4477 61.569 39.3158 61.2925C39.222 61.1051 39.091 60.9387 38.9307 60.8034C38.7704 60.6681 38.5841 60.5666 38.3832 60.5052C38.2359 60.4673 38.0855 60.4424 37.9338 60.4305Z" fill="#263238"/>
<path d="M28.0356 70.7943C28.07 71.106 28.0398 71.4215 27.9471 71.7212C27.8543 72.0209 27.7009 72.2985 27.4962 72.5368C27.9374 72.4953 28.3538 72.3148 28.6851 72.0216C29.0164 71.7284 29.2454 71.3378 29.3389 70.9062C29.3389 70.9062 33.3313 71.3801 33.8069 68.7084C34.3088 65.8762 31.3875 65.059 30.1441 65.0628C27.9681 65.0628 26.1817 66.2456 26.0843 68.2755C25.9869 70.3054 28.0356 70.7943 28.0356 70.7943Z" fill="white"/>
<path d="M43.2821 61.3968C43.2866 62.2168 43.0468 63.0198 42.5931 63.7041C42.1394 64.3883 41.4922 64.9232 40.7334 65.2409C39.9746 65.5587 39.1383 65.645 38.3302 65.4891C37.5221 65.3332 36.7785 64.942 36.1936 64.365C35.6087 63.788 35.2088 63.0511 35.0443 62.2476C34.8798 61.444 34.9582 60.6099 35.2696 59.8508C35.5809 59.0916 36.1113 58.4416 36.7936 57.9828C37.4759 57.524 38.2794 57.2772 39.1025 57.2735C39.6487 57.2706 40.1902 57.3749 40.6959 57.5806C41.2017 57.7862 41.6618 58.0892 42.05 58.4721C42.4381 58.855 42.7467 59.3104 42.9582 59.8123C43.1696 60.3141 43.2797 60.8525 43.2821 61.3968Z" fill="#F58A07"/>
<path d="M39.6343 59.9297V62.7021H39.0201V60.4633H38.462V59.9446L39.6343 59.9297Z" fill="white"/>
<path d="M135.493 32.2324H109.482C108.847 32.2324 108.239 32.4837 107.79 32.9308C107.341 33.378 107.089 33.9845 107.089 34.6168V53.4495C107.089 54.0819 107.341 54.6883 107.79 55.1355C108.239 55.5826 108.847 55.8339 109.482 55.8339H118.95C119.905 57.1623 121.444 59.2817 122.287 60.4422C122.351 60.5343 122.438 60.6085 122.539 60.6579C122.64 60.7074 122.752 60.7304 122.864 60.7248C122.977 60.7192 123.086 60.6852 123.181 60.626C123.277 60.5667 123.356 60.4842 123.411 60.3862L126.062 55.8339H135.508C136.142 55.8329 136.749 55.5812 137.197 55.1342C137.645 54.6871 137.897 54.0812 137.897 53.4495V34.6168C137.897 34.3028 137.835 33.9918 137.714 33.7018C137.593 33.4118 137.416 33.1484 137.192 32.9269C136.969 32.7053 136.704 32.5299 136.412 32.4107C136.12 32.2916 135.808 32.231 135.493 32.2324Z" fill="#EBEBEB"/>
<path d="M135.492 32.2333C135.492 32.2333 135.549 32.2333 135.665 32.2333C135.835 32.2411 136.003 32.2687 136.167 32.3154C136.488 32.4047 136.787 32.5596 137.045 32.7703C137.303 32.981 137.514 33.2429 137.665 33.5393C137.77 33.745 137.844 33.965 137.886 34.1923C137.922 34.4393 137.936 34.6891 137.927 34.9386C137.927 35.4647 137.927 36.0356 137.927 36.655C137.927 37.8901 137.927 39.3081 137.927 40.8865C137.927 44.047 137.927 47.8568 137.949 52.1853V53.0062C137.962 53.2866 137.951 53.5674 137.916 53.8458C137.822 54.4292 137.52 54.9592 137.065 55.3384C136.597 55.7257 136.003 55.93 135.395 55.913H126.032L126.111 55.8683L124.635 58.4057L123.886 59.7042L123.511 60.3609C123.449 60.4918 123.35 60.6022 123.226 60.6795C123.103 60.7568 122.96 60.7977 122.815 60.7975C122.666 60.796 122.522 60.7505 122.399 60.6669C122.286 60.5828 122.191 60.4776 122.118 60.3572L121.661 59.7303L120.744 58.4616L118.871 55.8795L118.95 55.9205H112.085C111.134 55.9205 110.212 55.9205 109.246 55.9205C108.76 55.8726 108.299 55.6842 107.919 55.3786C107.539 55.073 107.257 54.6635 107.107 54.2003C107.037 53.9717 106.999 53.7343 106.995 53.4951V51.4428C106.995 50.5323 106.995 49.6318 106.995 48.7412C106.995 45.1702 106.995 41.7298 106.995 38.4499C106.995 37.6289 106.995 36.8192 106.995 36.0207V34.8304C106.974 34.426 107.043 34.0221 107.197 33.6475C107.356 33.2825 107.601 32.9608 107.91 32.7095C108.22 32.4582 108.585 32.2847 108.976 32.2034C109.349 32.1551 109.725 32.1389 110.1 32.1549H111.223H119.366L131.159 32.1848L134.365 32.2034H135.2H135.485H135.2H134.365L131.159 32.2221L119.366 32.2519H111.223H110.1C109.725 32.235 109.349 32.2513 108.976 32.3004C108.612 32.3765 108.272 32.5385 107.984 32.7729C107.696 33.0073 107.468 33.3073 107.321 33.6475C107.177 34.0025 107.113 34.3846 107.134 34.7669C107.134 35.1587 107.134 35.558 107.134 35.9573V38.3864C107.134 41.6664 107.134 45.103 107.134 48.6778V52.745C107.101 53.1932 107.137 53.6438 107.242 54.0809C107.379 54.5084 107.638 54.8865 107.988 55.1684C108.339 55.4503 108.764 55.6236 109.212 55.6668C110.13 55.6892 111.085 55.6668 112.032 55.6668H118.95L118.976 55.7078L120.849 58.29L121.77 59.5587L122.223 60.1893C122.285 60.2892 122.363 60.3776 122.455 60.4505C122.547 60.5135 122.655 60.5474 122.766 60.5475C122.878 60.5481 122.988 60.5164 123.082 60.4561C123.177 60.3958 123.252 60.3097 123.298 60.2079L123.672 59.5512L124.422 58.2527C124.923 57.3944 125.414 56.5474 125.92 55.719L125.946 55.6742H135.358C135.927 55.6905 136.483 55.5009 136.923 55.1406C137.347 54.7862 137.63 54.2926 137.721 53.7488C137.756 53.4792 137.769 53.2071 137.758 52.9354V52.1891C137.758 47.8606 137.758 44.0508 137.777 40.8902C137.777 39.3118 137.777 37.9051 137.777 36.6588C137.777 36.0394 137.777 35.4684 137.777 34.9423C137.788 34.6929 137.775 34.4431 137.74 34.196C137.701 33.9748 137.632 33.7601 137.534 33.5579C137.388 33.267 137.184 33.0087 136.935 32.7989C136.686 32.589 136.396 32.4321 136.084 32.3378C135.89 32.2867 135.692 32.2518 135.492 32.2333Z" fill="#263238"/>
<path d="M119.83 39.7591C120.218 39.5241 120.636 39.3421 121.073 39.218L121.332 37.9941L123.41 37.9568L123.71 39.1732C124.15 39.2822 124.573 39.4491 124.968 39.6695L126.021 38.9829L127.519 40.4195L126.867 41.4905C127.103 41.8774 127.286 42.294 127.41 42.7293L128.639 42.983L128.676 45.054L127.455 45.3525C127.347 45.7921 127.179 46.215 126.957 46.61L127.646 47.6586L126.204 49.1511L125.141 48.4981C124.752 48.7319 124.334 48.9126 123.897 49.0355L123.643 50.2631L121.564 50.3004L121.264 49.084C120.823 48.9757 120.399 48.8088 120.002 48.5877L118.95 49.2743L117.452 47.8339L118.103 46.7667C117.869 46.3797 117.687 45.963 117.564 45.5279L116.332 45.2704L116.298 43.1995L117.515 42.901C117.625 42.4628 117.792 42.0412 118.014 41.6472L117.324 40.5987L118.77 39.1061L119.841 39.7553L119.83 39.7591ZM120.954 42.5166C120.642 42.834 120.431 43.2366 120.35 43.6733C120.268 44.1101 120.319 44.5611 120.495 44.9691C120.671 45.3771 120.966 45.7236 121.34 45.9645C121.715 46.2054 122.153 46.3298 122.599 46.3219C123.045 46.3139 123.478 46.1741 123.844 45.92C124.21 45.666 124.491 45.3093 124.653 44.8953C124.815 44.4813 124.849 44.0288 124.752 43.5952C124.655 43.1617 124.43 42.7667 124.107 42.4606C123.679 42.051 123.105 41.827 122.511 41.8374C121.917 41.8479 121.352 42.0921 120.939 42.5166H120.954Z" fill="white"/>
<path d="M120.938 42.5157C121.054 42.3686 121.195 42.2424 121.354 42.1426C121.785 41.8656 122.3 41.7444 122.81 41.7993C123.164 41.8348 123.503 41.9552 123.799 42.15C124.142 42.3709 124.418 42.6804 124.597 43.0456C124.697 43.2413 124.765 43.4516 124.799 43.6687C124.837 43.8961 124.837 44.128 124.799 44.3553C124.735 44.8356 124.519 45.2829 124.182 45.6325C123.845 45.982 123.405 46.2156 122.927 46.2994C122.699 46.3348 122.468 46.3348 122.241 46.2994C122.022 46.2721 121.808 46.2104 121.608 46.1166C121.237 45.9557 120.916 45.6979 120.679 45.3703C120.478 45.0818 120.349 44.7489 120.305 44.4001C120.229 43.8935 120.332 43.3765 120.597 42.9374C120.69 42.7784 120.808 42.6349 120.945 42.512C120.945 42.512 120.81 42.6575 120.638 42.9635C120.402 43.3977 120.316 43.8975 120.395 44.3852C120.444 44.7189 120.572 45.0362 120.769 45.3106C120.996 45.6259 121.304 45.8746 121.661 46.0307C121.851 46.1146 122.053 46.1699 122.26 46.1949C122.475 46.2284 122.693 46.2284 122.908 46.1949C123.363 46.1165 123.781 45.8955 124.102 45.564C124.423 45.2325 124.629 44.8078 124.691 44.3516C124.724 44.1377 124.724 43.9199 124.691 43.706C124.658 43.5002 124.595 43.3002 124.503 43.1127C124.335 42.7642 124.076 42.4666 123.754 42.2508C123.406 42.022 122.999 41.8958 122.582 41.8866C122.165 41.8773 121.753 41.9854 121.395 42.1985C121.08 42.3776 120.949 42.5269 120.938 42.5157Z" fill="white"/>
<path d="M119.83 39.7593L119.762 39.722L119.556 39.6026L118.747 39.1287H118.773L117.339 40.6213V40.5802C117.549 40.8974 117.785 41.2481 118.032 41.625V41.6437V41.6661C117.813 42.0575 117.647 42.4767 117.541 42.9124V42.9385H117.515L116.294 43.2407L116.332 43.1959C116.332 43.849 116.358 44.5393 116.373 45.2669L116.332 45.2184L117.564 45.4721H117.594V45.502C117.718 45.9322 117.899 46.3438 118.133 46.7259V46.7558V46.7819L117.481 47.8528V47.7819L118.979 49.2222H118.904L119.953 48.5357L119.983 48.5133L120.017 48.5319C120.409 48.7492 120.828 48.9136 121.264 49.0207H121.298V49.0581C121.391 49.4312 121.492 49.8529 121.597 50.2745L121.534 50.226L123.612 50.1887L123.552 50.2372C123.635 49.8641 123.721 49.4349 123.807 49.0133V48.976H123.844C124.275 48.8538 124.688 48.6756 125.073 48.4461L125.107 48.4274L125.14 48.4461L126.215 49.0954H126.136L127.578 47.6028V47.6812L126.889 46.6326V46.6028V46.5692C127.108 46.1788 127.273 45.7609 127.38 45.3266V45.293H127.417L128.638 44.9982L128.593 45.0579C128.593 44.349 128.567 43.6586 128.556 42.987L128.605 43.043L127.387 42.7855H127.35V42.7519C127.228 42.3221 127.049 41.9104 126.818 41.528V41.4981V41.4683L127.47 40.4011V40.4645L125.972 39.0242H126.032L124.979 39.707H124.957H124.931C124.539 39.4878 124.119 39.3221 123.683 39.2145H123.657V39.1921L123.361 37.9757L123.399 38.0018L121.32 38.0316L121.346 38.0055L121.084 39.2332C120.756 39.3262 120.437 39.4512 120.133 39.6063L119.908 39.7257L119.833 39.763L119.904 39.7145L120.122 39.5876C120.426 39.4324 120.744 39.3074 121.073 39.2145C121.14 38.8824 121.223 38.4682 121.32 37.9868V37.9645H121.346L123.425 37.9197H123.455V37.9495C123.549 38.3227 123.646 38.7219 123.758 39.1623L123.725 39.1324C124.169 39.2401 124.598 39.407 124.998 39.6287H124.953L126.002 38.9421L126.032 38.9197L126.062 38.9458L127.56 40.3824L127.59 40.4123L127.567 40.4496C127.357 40.7966 127.14 41.1511 126.919 41.5205V41.4608C127.156 41.8528 127.34 42.2744 127.466 42.7146L127.425 42.6735L128.653 42.9273H128.702V42.9721C128.702 43.6475 128.728 44.3378 128.739 45.043V45.099H128.694L127.474 45.3975L127.518 45.3527C127.409 45.7972 127.24 46.2251 127.017 46.6252V46.5916L127.702 47.6364L127.732 47.6812L127.698 47.7147L126.264 49.2036L126.23 49.2409L126.185 49.2111L125.11 48.5655H125.178C124.784 48.8009 124.361 48.984 123.919 49.1103L123.964 49.0618C123.874 49.4834 123.788 49.9014 123.706 50.2857V50.3379H123.642L121.564 50.3715H121.515V50.323C121.414 49.9014 121.313 49.4872 121.219 49.1066L121.264 49.1513C120.818 49.04 120.389 48.8706 119.987 48.6476H120.051L118.998 49.3305L118.961 49.3566L118.923 49.323L117.425 47.8827L117.391 47.8528L117.414 47.8155L118.066 46.7446V46.8005C117.83 46.4095 117.648 45.9892 117.523 45.5505L117.564 45.5878L116.335 45.3303H116.294V45.293C116.294 44.5654 116.272 43.8713 116.26 43.2221V43.1848H116.298L117.519 42.89L117.489 42.9198C117.598 42.4776 117.767 42.0521 117.991 41.6549V41.6922L117.275 40.6213V40.5989L117.294 40.5802L118.747 39.0876L119.541 39.5802L119.743 39.707L119.83 39.7593Z" fill="white"/>
<path d="M140.549 39.5587C143.053 37.0639 143.053 33.0191 140.549 30.5243C138.045 28.0296 133.986 28.0296 131.482 30.5243C128.978 33.0191 128.978 37.0639 131.482 39.5587C133.986 42.0534 138.045 42.0534 140.549 39.5587Z" fill="#F58A07"/>
<path d="M137.728 35.8897C137.728 36.636 137.162 37.2853 135.926 37.2853C135.341 37.2968 134.765 37.1359 134.271 36.8226L134.645 36.0763C135.01 36.327 135.445 36.4575 135.889 36.4495C136.391 36.4495 136.701 36.2442 136.701 35.8935C136.701 35.5427 136.458 35.3599 135.889 35.3599H135.428V34.6994L136.323 33.6919H134.503V32.8896H137.544V33.5315L136.563 34.6509C137.331 34.7703 137.728 35.2517 137.728 35.8897Z" fill="white"/>
<path d="M52.6822 10.5261H30.5367C29.8149 10.5271 29.1229 10.8132 28.6125 11.3218C28.1021 11.8303 27.815 12.5197 27.814 13.2389V28.9595C27.815 29.6786 28.1021 30.3681 28.6125 30.8766C29.1229 31.3851 29.8149 31.6713 30.5367 31.6722H38.4429C39.2968 32.8626 40.69 34.7619 41.439 35.7992C41.4963 35.8792 41.5728 35.9435 41.6615 35.9864C41.7502 36.0292 41.8483 36.0491 41.9467 36.0442C42.0452 36.0394 42.1408 36.01 42.2249 35.9587C42.3089 35.9074 42.3787 35.8359 42.4278 35.7507L44.806 31.6722H52.6709C53.3927 31.6713 54.0847 31.3851 54.5951 30.8766C55.1055 30.3681 55.3927 29.6786 55.3937 28.9595V13.2501C55.3957 12.5309 55.1114 11.8403 54.6031 11.3297C54.0948 10.819 53.404 10.5301 52.6822 10.5261Z" fill="#EBEBEB"/>
<path d="M52.6815 10.5276C52.6815 10.5276 52.734 10.5276 52.8351 10.5276C52.9876 10.5313 53.1394 10.5501 53.2883 10.5836C53.8742 10.7086 54.4015 11.0252 54.7863 11.4829C55.0683 11.8172 55.266 12.2138 55.3631 12.6396C55.4385 13.1509 55.4636 13.6683 55.438 14.1844C55.438 15.3039 55.438 16.5688 55.438 17.9868C55.438 20.8301 55.438 24.2556 55.4567 28.1401V28.8863C55.4607 29.1378 55.4317 29.3886 55.3706 29.6326C55.243 30.1505 54.9692 30.6211 54.5816 30.9888C54.194 31.3564 53.7088 31.6058 53.1834 31.7073C52.916 31.7506 52.6451 31.7681 52.3744 31.7596H44.7716L44.8503 31.7148C44.4208 32.4611 43.9802 33.2186 43.5282 33.9872C43.3035 34.3604 43.0788 34.7634 42.8504 35.1514L42.5095 35.741C42.4513 35.8598 42.3607 35.9598 42.2481 36.0297C42.1355 36.0997 42.0055 36.1367 41.8729 36.1366C41.7391 36.1334 41.6091 36.092 41.4983 36.0171C41.3981 35.94 41.3131 35.8451 41.2474 35.7373L40.8392 35.1738L40.0152 34.0544L38.3411 31.7409L38.4198 31.7819H32.8694C32.0229 31.7819 31.1953 31.7819 30.3526 31.7819C29.9238 31.7528 29.5073 31.6272 29.1343 31.4146C28.7613 31.2019 28.4416 30.9078 28.1991 30.5543C27.9643 30.2016 27.8108 29.8015 27.7497 29.3826C27.7144 28.9757 27.7031 28.567 27.716 28.1587C27.716 27.3527 27.716 26.5542 27.716 25.7631C27.716 22.5988 27.716 19.5428 27.716 16.636C27.716 15.9084 27.716 15.1882 27.716 14.4792V13.4232C27.7047 13.0668 27.7541 12.711 27.862 12.3709C28.0305 11.876 28.3357 11.4385 28.7424 11.1085C29.1491 10.7785 29.641 10.5694 30.1616 10.5052C30.4905 10.48 30.8205 10.4713 31.1503 10.4791H38.3748L48.8352 10.5089H51.6778H52.4269H52.6815H52.4269H51.6778H48.8352L38.3748 10.5388H31.1503C30.8267 10.5288 30.5029 10.5375 30.1803 10.5649C29.8595 10.6038 29.5493 10.7039 29.2665 10.8597C28.678 11.1823 28.2348 11.7159 28.0268 12.3523C27.922 12.6736 27.875 13.0109 27.8882 13.3486V14.4046C27.8882 15.1136 27.8882 15.8337 27.8882 16.5614C27.8882 19.4682 27.8882 22.5317 27.8882 25.6885V28.0841C27.8756 28.4836 27.8856 28.8835 27.9182 29.2819C28.0029 29.8755 28.2899 30.4219 28.7311 30.8296C29.1723 31.2373 29.7409 31.4813 30.3413 31.5207C31.1616 31.5207 32.008 31.5207 32.8469 31.5207H38.4647L38.4947 31.5618L40.165 33.8753L40.989 34.9947L41.3972 35.5582C41.451 35.6483 41.5208 35.728 41.6032 35.7933C41.6832 35.8494 41.7787 35.8794 41.8766 35.8791C41.9753 35.8798 42.072 35.852 42.1551 35.799C42.2383 35.7461 42.3041 35.6702 42.3447 35.5806L42.6893 34.991C42.914 34.5992 43.1425 34.2111 43.3672 33.8268L44.693 31.5581L44.7192 31.5133H52.3744C52.6349 31.5249 52.896 31.5099 53.1534 31.4685C53.6479 31.3733 54.1047 31.1395 54.4703 30.7944C54.8359 30.4493 55.0949 30.0074 55.217 29.5207C55.301 29.0404 55.3287 28.5521 55.2994 28.0654C55.2994 24.181 55.2994 20.7555 55.3219 17.9121C55.3219 16.4942 55.3219 15.2218 55.3219 14.1098C55.3508 13.6003 55.3307 13.0893 55.262 12.5836C55.1541 12.0881 54.9076 11.6331 54.551 11.2712C54.1944 10.9094 53.7424 10.6554 53.2471 10.5388C53.0589 10.5248 52.8701 10.5211 52.6815 10.5276Z" fill="#263238"/>
<path d="M35.214 16.7804L35.2006 25.3254L47.9268 25.3454L47.9402 16.8003L35.214 16.7804Z" fill="white"/>
<path d="M47.9779 16.9001C47.9425 16.942 47.9022 16.9796 47.858 17.0121L47.506 17.3218L46.1839 18.4412L41.7908 22.113L41.7571 22.1428L41.7196 22.113L41.6297 22.0421L37.1055 18.4114L35.7423 17.2919L35.3677 16.986L35.2441 16.874C35.2937 16.8999 35.3402 16.9312 35.3827 16.9673L35.7572 17.2584L37.143 18.3405L41.6859 21.9451L41.7758 22.016H41.7046L46.1165 18.3741L47.461 17.2808L47.8355 16.9897C47.8795 16.9546 47.9272 16.9246 47.9779 16.9001Z" fill="#E0E0E0"/>
<path d="M35.2398 25.4263C35.2136 25.4039 36.1723 24.236 37.3783 22.8143C38.5843 21.3926 39.5842 20.2545 39.6254 20.2732C39.6666 20.2918 38.6891 21.4635 37.4832 22.8852C36.2772 24.3069 35.2623 25.4524 35.2398 25.4263Z" fill="#E0E0E0"/>
<path d="M43.8394 20.1731C43.8656 20.1731 44.8094 21.3187 45.948 22.7851C47.0865 24.2516 47.9891 25.4382 47.9629 25.4568C47.9367 25.4755 46.9966 24.3113 45.8581 22.8448C44.7195 21.3783 43.8132 20.1955 43.8394 20.1731Z" fill="#E0E0E0"/>
<path d="M54.2257 18.3287C58.255 18.3287 61.5214 15.0744 61.5214 11.0599C61.5214 7.0454 58.255 3.79102 54.2257 3.79102C50.1964 3.79102 46.9301 7.0454 46.9301 11.0599C46.9301 15.0744 50.1964 18.3287 54.2257 18.3287Z" fill="#F58A07"/>
<path d="M52.921 9.11182V12.9291H52.0333V9.82079H51.2843V9.11182H52.921Z" fill="white"/>
<path d="M53.5884 11.0233C53.5884 9.76202 54.2887 9.04932 55.2288 9.04932C56.1688 9.04932 56.8692 9.76202 56.8692 11.0233C56.8692 12.2845 56.1763 12.9935 55.2288 12.9935C54.2812 12.9935 53.5884 12.2808 53.5884 11.0233ZM55.9778 11.0233C55.9778 10.1538 55.6707 9.79561 55.2288 9.79561C54.7868 9.79561 54.4797 10.1688 54.4797 11.0233C54.4797 11.8778 54.7868 12.2472 55.2288 12.2472C55.6707 12.2472 55.9778 11.8889 55.9778 11.0233Z" fill="white"/>
</g>
<defs>
<clipPath id="clip0_67_31419">
<rect width="157" height="167" fill="white" transform="translate(0 0.5)"/>
</clipPath>
</defs>
</svg>
