<svg width="70" height="53" viewBox="0 0 70 53" fill="none" xmlns="http://www.w3.org/2000/svg">
<path d="M69.1406 19.8009L54.0802 3.24926C53.3573 2.12106 52.3019 1.43896 51.1901 1.43896H18.8099C17.6981 1.43896 16.6427 2.12106 15.9198 3.24782L0.859375 19.8024V33.0975H69.1406V19.8009Z" stroke="#8C8C8C"/>
<path d="M49.2693 24.364C49.2693 22.0544 50.7448 20.1477 52.575 20.1462H69.1406V46.2458C69.1406 49.3009 67.1813 51.8048 64.7617 51.8048H5.23828C2.81875 51.8048 0.859375 49.2994 0.859375 46.2458V20.1462H17.425C19.2552 20.1462 20.7307 22.0501 20.7307 24.3597V24.3914C20.7307 26.701 22.2225 28.566 24.0513 28.566H45.9487C47.7775 28.566 49.2693 26.6837 49.2693 24.3741V24.364Z" fill="#F5F5F5" stroke="#8C8C8C"/>
</svg>
