<svg width="14" height="12" viewBox="0 0 14 12" fill="none" xmlns="http://www.w3.org/2000/svg">
<path d="M13.5 5.0293H11.8125V3.2543C11.8125 2.97773 11.5891 2.7543 11.3125 2.7543H6.39062L4.55781 1.00117C4.53449 0.97934 4.50382 0.967071 4.47188 0.966797H0.5C0.223437 0.966797 0 1.19023 0 1.4668V10.7168C0 10.9934 0.223437 11.2168 0.5 11.2168H11.4062C11.6094 11.2168 11.7937 11.0934 11.8703 10.9043L13.9641 5.7168C13.9875 5.65742 14 5.59336 14 5.5293C14 5.25273 13.7766 5.0293 13.5 5.0293ZM1.125 2.0918H4.07031L5.93906 3.8793H10.6875V5.0293H2.71875C2.51562 5.0293 2.33125 5.15273 2.25469 5.3418L1.125 8.1418V2.0918ZM11.0516 10.0918H1.48438L3.09844 6.0918H12.6672L11.0516 10.0918Z" fill="#4E1C95"/>
</svg>
