<svg width="16" height="16" viewBox="0 0 16 16" fill="none" xmlns="http://www.w3.org/2000/svg">
<path d="M9.09094 2H4.72731C4.29332 2 3.8771 2.1724 3.57022 2.47928C3.26334 2.78616 3.09094 3.20237 3.09094 3.63636V12.3636C3.09094 12.7976 3.26334 13.2138 3.57022 13.5207C3.8771 13.8276 4.29332 14 4.72731 14H11.2728C11.7068 14 12.123 13.8276 12.4298 13.5207C12.7367 13.2138 12.9091 12.7976 12.9091 12.3636V5.81818L9.09094 2Z" stroke="white" stroke-linecap="round" stroke-linejoin="round"/>
<path d="M9.09094 4.18182C9.09094 4.61581 9.26334 5.03202 9.57022 5.3389C9.8771 5.64578 10.2933 5.81818 10.7273 5.81818H12.9091L9.09094 2V4.18182Z" stroke="white" stroke-linecap="round" stroke-linejoin="round"/>
<path d="M5.81824 8.54541H10.1819" stroke="white" stroke-linecap="round" stroke-linejoin="round"/>
<path d="M5.81824 11.2729H10.1819" stroke="white" stroke-linecap="round" stroke-linejoin="round"/>
</svg>
