<svg width="16" height="16" viewBox="0 0 16 16" fill="none" xmlns="http://www.w3.org/2000/svg">
<path d="M6 6C6 5.07 5.36 4.29 4.5 4.07V2.5C4.5 2.22 4.28 2 4 2C3.72 2 3.5 2.22 3.5 2.5V4.07C2.64 4.29 2 5.07 2 6C2 6.93 2.64 7.71 3.5 7.93V13.5C3.5 13.78 3.72 14 4 14C4.28 14 4.5 13.78 4.5 13.5V7.93C5.36 7.71 6 6.93 6 6ZM4 7C3.45 7 3 6.55 3 6C3 5.45 3.45 5 4 5C4.55 5 5 5.45 5 6C5 6.55 4.55 7 4 7Z" fill="white"/>
<path d="M8.5 9.07V2.5C8.5 2.22 8.28 2 8 2C7.72 2 7.5 2.22 7.5 2.5V9.07C6.64 9.29 6 10.07 6 11C6 11.93 6.64 12.71 7.5 12.93V13.5C7.5 13.78 7.72 14 8 14C8.28 14 8.5 13.78 8.5 13.5V12.93C9.36 12.71 10 11.93 10 11C10 10.07 9.36 9.29 8.5 9.07ZM8 12C7.45 12 7 11.55 7 11C7 10.45 7.45 10 8 10C8.55 10 9 10.45 9 11C9 11.55 8.55 12 8 12Z" fill="white"/>
<path d="M14 5C14 4.07 13.36 3.29 12.5 3.07V2.5C12.5 2.22 12.28 2 12 2C11.72 2 11.5 2.22 11.5 2.5V3.07C10.64 3.29 10 4.07 10 5C10 5.93 10.64 6.71 11.5 6.93V13.5C11.5 13.78 11.72 14 12 14C12.28 14 12.5 13.78 12.5 13.5V6.93C13.36 6.71 14 5.93 14 5ZM12 6C11.45 6 11 5.55 11 5C11 4.45 11.45 4 12 4C12.55 4 13 4.45 13 5C13 5.55 12.55 6 12 6Z" fill="white"/>
</svg>
