<svg width="24" height="24" viewBox="0 0 24 24" fill="none" xmlns="http://www.w3.org/2000/svg">
    <path fill-rule="evenodd" clip-rule="evenodd" d="M12 22c5.523 0 10-4.477 10-10S17.523 2 12 2 2 6.477 2 12s4.477 10 10 10zm3.683-14.556a1.01 1.01 0 0 1 1.445-.237c.462.347.567 1.016.23 1.498l-5.51 7.856a1.01 1.01 0 0 1-1.445.238c-.462-.35-3.677-3.829-3.677-3.829a1.095 1.095 0 0 1 .045-1.513 1.006 1.006 0 0 1 1.461.047l2.647 2.795 4.804-6.855z" fill="#41A036"/>
    <path fill-rule="evenodd" clip-rule="evenodd" d="M15.683 7.442a1.01 1.01 0 0 1 1.445-.237c.462.347.567 1.016.23 1.498l-5.51 7.857a1.01 1.01 0 0 1-1.445.237c-.462-.35-3.677-3.829-3.677-3.829a1.095 1.095 0 0 1 .045-1.513 1.006 1.006 0 0 1 1.461.047l2.647 2.794 4.804-6.854z" fill="#fff"/>
</svg>
