<svg width="32" height="32" viewBox="0 0 32 32" fill="none" xmlns="http://www.w3.org/2000/svg">
<path d="M27.5852 8.7625V29.9375C27.5852 31.075 26.6602 32 25.5227 32H6.47266C5.33516 32 4.41016 31.075 4.41016 29.9375V2.0625C4.41016 0.925 5.33516 0 6.47266 0H18.8227L27.5852 8.7625Z" fill="#EBEFF4"/>
<path d="M20.0181 8.575L27.5868 11.6938V8.7625L23.2993 7.5L20.0181 8.575Z" fill="#BDBDD3"/>
<path d="M27.5882 8.7625H20.8882C19.7507 8.7625 18.8257 7.8375 18.8257 6.7V0L27.5882 8.7625Z" fill="#DBDBED"/>
<path d="M15.8552 12.5C14.5924 12.5 13.3579 12.8745 12.3079 13.5761C11.2579 14.2777 10.4395 15.2749 9.95625 16.4416C9.47298 17.6083 9.34654 18.8921 9.5929 20.1307C9.83927 21.3692 10.4474 22.5069 11.3403 23.3999C12.2333 24.2928 13.371 24.9009 14.6096 25.1473C15.8481 25.3937 17.1319 25.2672 18.2986 24.784C19.4654 24.3007 20.4626 23.4823 21.1641 22.4323C21.8657 21.3823 22.2402 20.1478 22.2402 18.885C22.2383 17.1922 21.565 15.5692 20.368 14.3722C19.171 13.1752 17.548 12.5019 15.8552 12.5ZM18.3597 20.6371C18.4106 20.6862 18.4511 20.7449 18.479 20.8099C18.5069 20.8748 18.5215 20.9446 18.5222 21.0152C18.5228 21.0859 18.5093 21.156 18.4825 21.2214C18.4558 21.2867 18.4163 21.3462 18.3663 21.3961C18.3164 21.4461 18.257 21.4856 18.1916 21.5123C18.1262 21.5391 18.0561 21.5525 17.9855 21.5519C17.9148 21.5513 17.845 21.5366 17.7801 21.5088C17.7152 21.4809 17.6564 21.4403 17.6074 21.3895L15.8552 19.6374L14.1031 21.3895C14.0027 21.4864 13.8683 21.5401 13.7288 21.5389C13.5893 21.5376 13.4558 21.4817 13.3572 21.383C13.2585 21.2844 13.2026 21.1509 13.2014 21.0114C13.2001 20.8719 13.2538 20.7375 13.3507 20.6371L15.1028 18.885L13.3507 17.1328C13.2538 17.0325 13.2001 16.8981 13.2014 16.7586C13.2026 16.6191 13.2585 16.4856 13.3572 16.387C13.4558 16.2883 13.5893 16.2324 13.7288 16.2311C13.8683 16.2299 14.0027 16.2836 14.1031 16.3805L15.8552 18.1326L17.6074 16.3805C17.7077 16.2836 17.8421 16.2299 17.9816 16.2311C18.1211 16.2324 18.2546 16.2883 18.3533 16.387C18.4519 16.4856 18.5079 16.6191 18.5091 16.7586C18.5103 16.8981 18.4567 17.0325 18.3597 17.1328L16.6076 18.885L18.3597 20.6371Z" fill="#FB3307"/>
</svg>
