<svg width="14" height="14" viewBox="0 0 14 14" fill="none" xmlns="http://www.w3.org/2000/svg">
<path fill-rule="evenodd" clip-rule="evenodd" d="M13.6668 6.99886C13.6668 3.31696 10.6821 0.332193 7.00016 0.332193C3.31826 0.332193 0.333496 3.31696 0.333496 6.99886C0.333496 10.6808 3.31826 13.6655 7.00016 13.6655C10.6821 13.6655 13.6668 10.6808 13.6668 6.99886ZM7.00016 4.49886C7.34534 4.49886 7.62516 4.21904 7.62516 3.87386C7.62516 3.52868 7.34534 3.24886 7.00016 3.24886C6.65498 3.24886 6.37516 3.52868 6.37516 3.87386C6.37516 4.21904 6.65498 4.49886 7.00016 4.49886ZM7.00016 5.74886C6.65498 5.74886 6.37516 6.02868 6.37516 6.37386V10.5405C6.37516 10.8857 6.65498 11.1655 7.00016 11.1655C7.34534 11.1655 7.62516 10.8857 7.62516 10.5405V6.37386C7.62516 6.02868 7.34534 5.74886 7.00016 5.74886Z" fill="#1890FF"/>
</svg>
