<svg width="18" height="18" viewBox="0 0 18 18" fill="none" xmlns="http://www.w3.org/2000/svg">
<path d="M10.4545 13.0906C10.0779 13.0906 9.77265 12.7854 9.77265 12.4088C9.77265 12.0323 10.0779 11.727 10.4545 11.727H12.9172L9.51041 8.26698L7.89835 9.90423C7.77019 10.0344 7.59517 10.1077 7.41251 10.1077C7.22985 10.1077 7.05483 10.0344 6.92667 9.90423L3.15045 6.069C2.88625 5.80068 2.8896 5.36898 3.15792 5.10479C3.42624 4.8406 3.85793 4.84394 4.12213 5.11227L7.41251 8.45406L9.02457 6.81681C9.15273 6.68665 9.32775 6.61336 9.51041 6.61336C9.69307 6.61336 9.8681 6.68665 9.99625 6.81681L13.8636 10.7445V8.3179C13.8636 7.94135 14.1688 7.63609 14.5454 7.63609C14.9219 7.63609 15.2272 7.94135 15.2272 8.3179V12.4084L15.2272 12.4116C15.2265 12.5869 15.1585 12.7619 15.0237 12.8947C14.9586 12.9588 14.8838 13.0072 14.8041 13.0398C14.7243 13.0726 14.637 13.0906 14.5454 13.0906H10.4545Z" fill="#F5222D"/>
</svg>
