<svg width="16" height="16" viewBox="0 0 16 16" fill="none" xmlns="http://www.w3.org/2000/svg">
<path d="M13.54 9.44653L13.25 9.2132C13.1721 9.15078 13.1091 9.07165 13.0659 8.98164C13.0226 8.89164 13.0001 8.79306 13 8.6932V5.99986C12.9997 4.84242 12.5977 3.72096 11.8628 2.82678C11.1279 1.93259 10.1055 1.32107 8.97004 1.09653C8.91468 0.881797 8.78951 0.691557 8.61422 0.555729C8.43893 0.419901 8.22346 0.346191 8.00171 0.346191C7.77995 0.346191 7.56449 0.419901 7.3892 0.555729C7.21391 0.691557 7.08874 0.881797 7.03337 1.09653C5.89731 1.32039 4.87415 1.93162 4.13857 2.82587C3.40299 3.72012 3.00058 4.84195 3.00004 5.99986V8.6932C2.99998 8.79306 2.97748 8.89164 2.93421 8.98164C2.89094 9.07165 2.828 9.15078 2.75004 9.2132L2.46004 9.44653C2.1098 9.72653 1.82678 10.0815 1.63181 10.4853C1.43683 10.8891 1.33485 11.3315 1.33337 11.7799V12.3332C1.33337 12.6868 1.47385 13.026 1.7239 13.276C1.97395 13.5261 2.31309 13.6665 2.66671 13.6665H5.42004C5.57031 14.2357 5.90471 14.7392 6.37111 15.0985C6.8375 15.4577 7.40966 15.6525 7.99837 15.6525C8.58708 15.6525 9.15925 15.4577 9.62564 15.0985C10.092 14.7392 10.4264 14.2357 10.5767 13.6665H13.3334C13.687 13.6665 14.0261 13.5261 14.2762 13.276C14.5262 13.026 14.6667 12.6868 14.6667 12.3332V11.7865C14.6662 11.337 14.5647 10.8933 14.3697 10.4883C14.1747 10.0833 13.8912 9.72724 13.54 9.44653ZM8.00004 14.3332C7.76736 14.3318 7.53909 14.2695 7.33793 14.1526C7.13677 14.0356 6.96971 13.868 6.85337 13.6665H9.15004C9.03342 13.8685 8.86584 14.0364 8.66404 14.1534C8.46225 14.2704 8.23329 14.3324 8.00004 14.3332ZM13.3334 12.3332H2.66671V11.7865C2.66706 11.5367 2.72357 11.2902 2.83204 11.0652C2.94051 10.8402 3.09817 10.6424 3.29337 10.4865L3.58337 10.2532C3.81725 10.0659 4.00606 9.82855 4.13588 9.55854C4.26569 9.28852 4.33319 8.99279 4.33337 8.6932V5.99986C4.33337 5.0274 4.71968 4.09477 5.40732 3.40714C6.09495 2.71951 7.02758 2.3332 8.00004 2.3332C8.9725 2.3332 9.90513 2.71951 10.5928 3.40714C11.2804 4.09477 11.6667 5.0274 11.6667 5.99986V8.6932C11.6664 8.99336 11.7336 9.28974 11.8635 9.56037C11.9933 9.831 12.1824 10.0689 12.4167 10.2565L12.7067 10.4899C12.9015 10.6454 13.0589 10.8426 13.1673 11.067C13.2758 11.2914 13.3325 11.5373 13.3334 11.7865V12.3332Z" fill="white"/>
</svg>
