<svg width="13" height="12" viewBox="0 0 13 12" fill="none" xmlns="http://www.w3.org/2000/svg">
<path d="M7.5 3C7.22386 3 7 3.22386 7 3.5C7 3.77614 7.22386 4 7.5 4H9.306L6.80769 6.53735L5.62551 5.3367C5.53153 5.24125 5.40318 5.1875 5.26923 5.1875C5.13528 5.1875 5.00693 5.24125 4.91295 5.3367L2.14372 8.1492C1.94997 8.34597 1.95243 8.66254 2.1492 8.85628C2.34597 9.05003 2.66254 9.04757 2.85628 8.8508L5.26923 6.40015L6.45141 7.6008C6.54539 7.69625 6.67374 7.75 6.80769 7.75C6.94164 7.75 7.06999 7.69625 7.16398 7.6008L10 4.72046V6.5C10 6.77614 10.2239 7 10.5 7C10.7761 7 11 6.77614 11 6.5V3.50033C11 3.49965 11 3.49863 11 3.49794C10.9995 3.36938 10.9497 3.24105 10.8508 3.14372C10.803 3.09667 10.7482 3.06119 10.6897 3.03725C10.6312 3.01324 10.5672 3 10.5 3H7.5Z" fill="#41A036"/>
</svg>
