<svg width="16" height="16" viewBox="0 0 20 20" fill="none" xmlns="http://www.w3.org/2000/svg">
    <path d="M8.333 2.499v1.258L10 4.865v-.7h7.5v11.667h-3.333v1.666h5V4.165c0-.92-.747-1.666-1.667-1.666H8.333z" fill="#fff"/>
    <path d="M14.167 12.915c0-.23.186-.416.417-.416h.833c.23 0 .417.186.417.416v.834c0 .23-.187.416-.417.416h-.833a.417.417 0 0 1-.417-.416v-.834zM14.167 9.582c0-.23.186-.417.417-.417h.833c.23 0 .417.187.417.417v.833c0 .23-.187.417-.417.417h-.833a.417.417 0 0 1-.417-.417v-.833zM14.167 6.249c0-.23.186-.417.417-.417h.833c.23 0 .417.186.417.417v.833c0 .23-.187.417-.417.417h-.833a.417.417 0 0 1-.417-.417v-.833zM11.45 5.832l1.05.7v-.283a.417.417 0 0 0-.416-.417h-.634z" fill="#fff"/>
    <path fill-rule="evenodd" clip-rule="evenodd" d="M7.733 5.364a1.667 1.667 0 0 0-1.849 0L.834 8.733v8.767H12.5V8.54L7.733 5.364zm3.1 10.468h-2.5v-5H5v5H2.5v-6.35L6.808 6.74l4.025 2.558v6.534z" fill="#fff"/>
</svg>
