<svg width="398" height="214" viewBox="0 0 398 214" fill="none" xmlns="http://www.w3.org/2000/svg">
<g clip-path="url(#clip0_9369_5964)">
<path d="M209.534 80.1591L197.577 33.7803L178.218 42.5448L173.283 94.0362L209.534 80.1591Z" fill="#F7B68B"/>
<path d="M166.639 40.7194C166.07 43.0932 167.588 45.2843 170.055 45.8321L189.414 49.8491C191.692 50.3969 194.159 48.9362 194.729 46.5625L200.992 18.9908C201.561 16.7997 200.043 14.4259 197.576 13.8781L178.027 9.86109C175.559 9.3133 173.282 10.7741 172.712 13.1478L166.639 40.7194Z" fill="#F7B68B"/>
<path d="M178.358 42.1309C180.133 42.9212 182.452 42.6461 184.179 41.7908C184.711 41.5142 185.406 41.0076 186.015 40.4128C185.866 40.3643 185.7 40.3122 185.529 40.2769C182.86 39.6352 180.147 40.4268 178.358 42.1309Z" fill="#17082D"/>
<path d="M197.867 26.5274C196.832 24.951 195.446 23.6377 193.801 22.6594C192.576 21.9451 191.094 21.478 189.642 21.3352C189.083 21.2723 187.876 21.0037 187.792 21.8702C187.716 22.6323 188.74 22.845 189.32 22.9656C190.262 23.1437 191.239 23.329 192.186 23.5612C194.328 24.1126 196.25 25.0599 197.867 26.5274Z" fill="#243D42"/>
<path d="M171.448 19.4977C171.364 19.6219 171.315 19.7531 171.312 19.9118C172.452 19.8657 173.549 19.7753 174.705 19.9623C175.498 20.0918 176.296 20.2753 177.077 20.4553C177.551 20.5714 178.404 20.7487 178.652 20.0927C178.92 19.3524 177.926 19.1636 177.482 19.0004C176.354 18.6245 175.063 18.48 173.856 18.6538C173.257 18.7593 171.884 18.8807 171.448 19.4977Z" fill="#243D42"/>
<path d="M188.918 29.6749C189.619 29.8203 190.323 29.3796 190.49 28.6906C190.657 28.0016 190.225 27.3252 189.524 27.1798C188.823 27.0344 188.119 27.4751 187.952 28.1641C187.785 28.8531 188.217 29.5295 188.918 29.6749Z" fill="#243D42"/>
<path d="M173.875 25.9639C174.576 26.1093 175.28 25.6687 175.447 24.9797C175.614 24.2907 175.181 23.6143 174.481 23.4689C173.78 23.3234 173.076 23.7641 172.909 24.4531C172.741 25.1421 173.174 25.8185 173.875 25.9639Z" fill="#243D42"/>
<path d="M180.66 26.3576C179.633 27.5679 178.737 28.8923 178.18 30.4092C177.927 31.1728 177.724 32.0166 177.979 32.8517C178.109 33.2609 178.383 33.6484 178.752 33.8644C179.121 34.0804 179.521 34.164 179.921 34.178C179.181 33.9019 178.58 33.4116 178.498 32.7342C178.395 32.0698 178.573 31.3253 178.811 30.6278C179.315 29.1867 180.077 27.8344 180.66 26.3576Z" fill="#AE7151"/>
<path d="M187.544 27.31C187.579 27.3171 187.613 27.3243 187.634 27.311C187.655 27.2976 189.875 26.5721 192.518 28.5111C192.579 28.5592 192.672 28.5433 192.723 28.4828C192.773 28.4222 192.759 28.3305 192.699 28.2823C189.938 26.2301 187.651 27.0126 187.554 27.0454C187.477 27.065 187.44 27.146 187.458 27.2208C187.48 27.2787 187.51 27.3028 187.544 27.31Z" fill="#243D42"/>
<path d="M172.426 23.4745C172.461 23.4817 172.478 23.4853 172.516 23.4755C172.537 23.4622 174.396 22.8926 176.558 24.5869C176.618 24.635 176.712 24.619 176.762 24.5586C176.813 24.4981 176.799 24.4065 176.738 24.3584C174.452 22.5848 172.512 23.1908 172.436 23.2103C172.359 23.2298 172.322 23.3107 172.34 23.3855C172.345 23.4398 172.375 23.4638 172.426 23.4745Z" fill="#243D42"/>
<path opacity="0.35" d="M172.18 30.8022C173.736 31.0853 175.143 30.618 175.323 29.7584C175.503 28.8988 174.387 27.9725 172.83 27.6894C171.274 27.4063 169.867 27.8736 169.687 28.7332C169.507 29.5928 170.623 30.5191 172.18 30.8022Z" fill="#AE7151"/>
<path opacity="0.35" d="M188.837 34.8516C190.781 35.2054 192.502 34.7941 192.682 33.9331C192.862 33.072 191.432 32.0872 189.488 31.7334C187.544 31.3796 185.823 31.7908 185.643 32.6519C185.463 33.5129 186.893 34.4978 188.837 34.8516Z" fill="#AE7151"/>
<path d="M171.575 18.8082C171.575 18.8082 169.487 15.5216 169.487 13.8782C169.487 12.9652 171.006 10.0437 173.473 9.31337C175.94 8.58299 177.269 11.1393 177.269 11.1393C177.269 11.1393 173.473 12.2349 173.093 12.9652C172.524 13.513 171.575 18.8082 171.575 18.8082Z" fill="#163F59"/>
<path d="M200.043 31.7722C200.043 31.7722 205.357 21.7296 205.547 18.6255C205.737 15.3388 205.927 13.1477 201.941 12.0521C196.247 10.2262 195.868 11.5043 193.4 9.13059C190.933 6.75687 186.758 1.64424 185.049 0.731275C182.202 -0.546882 177.458 -0.546883 175.939 4.74834C174.99 8.58281 172.143 9.13059 172.143 9.31319C172.333 9.86097 173.282 10.5913 174.99 11.8695C179.735 15.5214 182.962 16.7995 187.327 16.6169C191.692 16.4343 199.853 15.8866 200.043 18.9907C200.233 22.0948 197.955 31.0419 198.145 31.7722C198.145 32.32 199.094 32.1374 200.043 31.7722Z" fill="#194866"/>
<path d="M192.071 38.7111C191.882 39.4415 192.451 40.1718 193.21 40.3544L197.386 41.2674C198.145 41.45 198.904 40.9022 199.094 40.1718L200.802 32.8681C200.992 32.1377 200.422 31.4073 199.663 31.2247L195.488 30.3118C194.729 30.1292 193.969 30.6769 193.78 31.4073L192.071 38.7111Z" fill="#F7B68B"/>
<path d="M197.576 33.7812C197.576 33.7812 195.109 44.5542 194.35 48.2061C193.591 51.4928 190.554 58.4313 171.385 54.4143C159.997 52.0405 162.274 44.0064 162.844 41.4501C163.223 39.4416 167.019 33.9638 168.538 33.0508L167.589 37.6156C167.589 37.6156 171.005 33.7812 176.319 34.8767C185.05 36.7027 185.999 41.9979 189.795 42.7283C192.642 43.0934 195.868 39.0764 197.576 33.7812Z" fill="#194866"/>
<path d="M178.216 42.5449L172.333 41.2668C171.574 41.0842 171.004 40.3538 171.194 39.6234L171.384 38.8931L180.304 40.719L180.114 41.4494C179.735 42.3624 178.976 42.7275 178.216 42.5449Z" fill="#F7B68B"/>
<path d="M241.04 206.515L245.215 80.7076C245.215 80.7076 214.469 64.822 173.663 73.7691L137.222 93.4892L145.194 206.515H241.04Z" fill="#D7DCEF"/>
<path d="M327.776 168.718L341.442 119.783C341.442 119.783 315.25 148.45 314.301 164.519C313.542 180.77 327.776 168.718 327.776 168.718Z" fill="#F7B68B"/>
<path d="M334.608 133.294C334.608 133.294 329.863 126.903 330.622 124.895C331.192 122.703 334.228 115.035 334.228 115.035L335.177 113.209C335.177 113.209 337.835 113.026 335.937 118.139C333.849 123.251 336.316 121.243 336.316 121.243L339.922 117.226L344.857 112.661L346.755 110.287C346.755 110.287 347.704 108.826 348.273 108.826C349.792 108.461 349.602 109.739 349.602 109.739L342.959 119.234L351.5 112.113C351.5 112.113 352.828 111.383 353.398 111.748C353.967 112.113 353.587 112.478 353.587 112.478L345.806 122.703L350.741 119.417C350.741 119.417 352.069 118.686 352.639 119.052C353.398 119.417 353.587 119.599 353.587 119.599L336.696 134.572L334.608 133.294Z" fill="#F7B68B"/>
<path d="M344.856 120.329L351.12 115.582C351.12 115.582 352.448 114.303 353.397 114.121C354.536 113.938 354.726 114.851 354.726 114.851L345.805 122.885L344.856 120.329Z" fill="#F7B68B"/>
<path d="M66.0491 170.543L12.9065 162.509C12.9065 162.509 50.6757 186.429 63.5817 188.072C76.6776 189.715 66.0491 170.543 66.0491 170.543Z" fill="#F7B68B"/>
<path d="M30.3677 168.535C30.3677 168.535 29.6086 160.318 27.5208 159.04C25.6229 157.762 17.8413 153.379 17.8413 153.379L15.7535 152.466C15.7535 152.466 13.476 154.11 18.6005 156.849C23.9147 159.587 20.4984 159.587 20.4984 159.587L14.6148 158.857L7.59235 158.492L4.36583 157.944C4.36583 157.944 2.65768 157.396 2.08829 157.762C0.569935 158.492 1.7087 159.222 1.7087 159.222L13.8556 162.509L1.8985 162.326C1.8985 162.326 0.38014 162.509 0.190345 163.239C0.000550017 163.97 0.569935 163.97 0.569935 163.97L14.0454 167.256L7.59235 167.987C7.59235 167.987 6.07399 168.169 5.88419 168.9C5.6944 169.63 5.6944 169.995 5.6944 169.995L29.9882 170.908L30.3677 168.535Z" fill="#F7B68B"/>
<path d="M12.9066 164.517L4.36578 164.882C4.36578 164.882 2.46783 164.7 1.51886 165.247C0.38009 165.795 0.949475 166.708 0.949475 166.708L13.8555 167.439L12.9066 164.517Z" fill="#F7B68B"/>
<path d="M98.3557 207.416H290.494H98.3557Z" stroke="#4E1C95" stroke-width="0.4252" stroke-miterlimit="10"/>
<path d="M152.595 153.38L112.718 209.024C111.389 210.879 108.974 211.598 106.847 210.774L38.6317 184.327C36.1336 183.359 34.8429 180.593 35.705 178.057L39.1183 168.012C39.9621 165.529 42.5815 164.119 45.1187 164.784L98.5033 178.76C98.5033 178.76 115.585 116.496 125.264 104.079C134.944 91.6629 142.726 90.0195 142.726 90.0195L152.595 153.38Z" fill="#D7DCEF"/>
<path d="M242.748 79.2464C242.748 79.2464 263.815 95.4973 278.239 123.617C292.474 151.919 301.205 170.178 301.205 170.178L325.498 134.025L342.58 149.18L302.913 211.079C302.913 211.079 297.219 217.653 291.145 211.079C285.072 204.506 235.346 130.19 235.346 130.19C235.346 130.19 224.527 78.5161 242.748 79.2464Z" fill="#D7DCEF"/>
<path d="M162.464 182.229L170.815 207.062L188.656 183.873L185.809 94.0366L191.503 85.4547L181.444 74.499L173.662 83.8113L177.648 92.7584L162.464 182.229Z" fill="#4E1C95"/>
<path d="M170.057 65.5519L184.102 72.1253L211.242 62.813L219.783 74.8642L193.022 92.7584L182.583 78.3335C182.393 78.5161 177.079 83.4461 176.889 83.6287C176.7 83.8113 171.765 88.3761 171.385 88.7413C167.589 86.0024 163.793 83.2635 159.998 80.5246L170.057 65.5519Z" fill="#CCD1E4"/>
<path d="M181.844 78.332L193.022 92.7579L182.583 78.333C182.393 78.5156 177.079 83.4456 176.889 83.6282C176.7 83.8108 171.765 90.7493 171.385 90.9319L181.844 78.332Z" stroke="#4E1C95" stroke-width="0.4252" stroke-miterlimit="10"/>
<path d="M65.5381 84.5415H37.7097C32.1869 84.5415 27.7097 89.0187 27.7097 94.5415V136.441C27.7097 141.964 32.1869 146.441 37.7097 146.441H65.538C71.0609 146.441 75.538 141.964 75.538 136.441V94.5415C75.538 89.0187 71.0609 84.5415 65.5381 84.5415Z" fill="#EAF4FE"/>
<path d="M39.4766 136.582V130.554C39.4766 129.244 38.4144 128.182 37.1041 128.182C35.7939 128.182 34.7317 129.244 34.7317 130.554V136.582C34.7317 137.892 35.7939 138.955 37.1041 138.955C38.4144 138.955 39.4766 137.892 39.4766 136.582Z" fill="#194866"/>
<path d="M49.3464 136.399V111.929C49.3464 110.618 48.2843 109.556 46.974 109.556C45.6637 109.556 44.6016 110.618 44.6016 111.929V136.399C44.6016 137.709 45.6637 138.771 46.974 138.771C48.2843 138.771 49.3464 137.709 49.3464 136.399Z" fill="#9792E3"/>
<path d="M59.2156 136.4V125.989C59.2156 124.679 58.1534 123.617 56.8431 123.617C55.5329 123.617 54.4707 124.679 54.4707 125.989V136.4C54.4707 137.71 55.5329 138.772 56.8431 138.772C58.1534 138.772 59.2156 137.71 59.2156 136.4Z" fill="#194866"/>
<path d="M69.0855 136.399V116.311C69.0855 115.001 68.0233 113.939 66.713 113.939C65.4028 113.939 64.3406 115.001 64.3406 116.311V136.399C64.3406 137.71 65.4028 138.772 66.713 138.772C68.0233 138.772 69.0855 137.71 69.0855 136.399Z" fill="#F58A07"/>
<path d="M136.711 29.7637H108.883C103.36 29.7637 98.8826 34.2408 98.8826 39.7637V81.663C98.8826 87.1858 103.36 91.663 108.883 91.663H136.711C142.234 91.663 146.711 87.1858 146.711 81.663V39.7637C146.711 34.2408 142.234 29.7637 136.711 29.7637Z" fill="#EAF4FE"/>
<path d="M108.619 51.6511H117.625C118.23 51.6511 118.721 51.1606 118.721 50.5555C118.721 49.9505 118.23 49.46 117.625 49.46H108.619C108.014 49.46 107.523 49.9505 107.523 50.5555C107.523 51.1606 108.014 51.6511 108.619 51.6511Z" fill="#194866"/>
<path d="M108.748 61.1242H122.309C122.915 61.1242 123.405 60.6337 123.405 60.0287C123.405 59.4236 122.915 58.9331 122.309 58.9331H108.748C108.143 58.9331 107.652 59.4236 107.652 60.0287C107.652 60.6337 108.143 61.1242 108.748 61.1242Z" fill="#194866"/>
<path d="M108.762 65.7282H132.383C132.988 65.7282 133.479 65.2377 133.479 64.6327C133.479 64.0276 132.988 63.5371 132.383 63.5371L108.762 63.5371C108.157 63.5371 107.667 64.0276 107.667 64.6327C107.667 65.2377 108.157 65.7282 108.762 65.7282Z" fill="#F58A07"/>
<path d="M108.75 76.0988H122.312C122.917 76.0988 123.407 75.6083 123.407 75.0033C123.407 74.3982 122.917 73.9077 122.312 73.9077H108.75C108.145 73.9077 107.654 74.3982 107.654 75.0033C107.654 75.6083 108.145 76.0988 108.75 76.0988Z" fill="#194866"/>
<path d="M108.763 80.7028H132.384C132.989 80.7028 133.48 80.2123 133.48 79.6073C133.48 79.0022 132.989 78.5117 132.384 78.5117H108.763C108.158 78.5117 107.668 79.0022 107.668 79.6073C107.668 80.2123 108.158 80.7028 108.763 80.7028Z" fill="#F58A07"/>
<path d="M388.001 50.3975H319.746C314.223 50.3975 309.746 54.8746 309.746 60.3975V102.297C309.746 107.82 314.223 112.297 319.746 112.297H388.001C393.524 112.297 398.001 107.82 398.001 102.297V60.3975C398.001 54.8746 393.524 50.3975 388.001 50.3975Z" fill="#EAF4FE"/>
<path d="M324.17 102.678V79.5538C324.17 79.0821 323.787 78.6997 323.316 78.6997C322.844 78.6997 322.462 79.0821 322.462 79.5538V102.678C322.462 103.15 322.844 103.532 323.316 103.532C323.787 103.532 324.17 103.15 324.17 102.678Z" fill="#9792E3"/>
<path d="M324.17 102.679V89.2315C324.17 88.7598 323.787 88.3774 323.316 88.3774C322.844 88.3774 322.462 88.7598 322.462 89.2315V102.679C322.462 103.15 322.844 103.533 323.316 103.533C323.787 103.533 324.17 103.15 324.17 102.679Z" fill="#4E1C95"/>
<path d="M333.091 102.678V79.5538C333.091 79.0821 332.709 78.6997 332.237 78.6997C331.765 78.6997 331.383 79.0821 331.383 79.5538V102.678C331.383 103.15 331.765 103.532 332.237 103.532C332.709 103.532 333.091 103.15 333.091 102.678Z" fill="#9792E3"/>
<path d="M333.091 102.861V93.2481C333.091 92.7764 332.709 92.394 332.237 92.394C331.765 92.394 331.383 92.7764 331.383 93.2481V102.861C331.383 103.332 331.765 103.715 332.237 103.715C332.709 103.715 333.091 103.332 333.091 102.861Z" fill="#F58A07"/>
<path d="M342.011 102.678V79.5538C342.011 79.0821 341.628 78.6997 341.157 78.6997C340.685 78.6997 340.303 79.0821 340.303 79.5538V102.678C340.303 103.15 340.685 103.532 341.157 103.532C341.628 103.532 342.011 103.15 342.011 102.678Z" fill="#9792E3"/>
<path d="M342.011 102.861V84.8492C342.011 84.3775 341.628 83.9951 341.157 83.9951C340.685 83.9951 340.303 84.3775 340.303 84.8492V102.861C340.303 103.333 340.685 103.715 341.157 103.715C341.628 103.715 342.011 103.333 342.011 102.861Z" fill="#4E1C95"/>
<path d="M351.121 102.678V79.5538C351.121 79.0821 350.739 78.6997 350.267 78.6997C349.796 78.6997 349.413 79.0821 349.413 79.5538V102.678C349.413 103.15 349.796 103.532 350.267 103.532C350.739 103.532 351.121 103.15 351.121 102.678Z" fill="#9792E3"/>
<path d="M351.121 102.861V93.2481C351.121 92.7764 350.739 92.394 350.267 92.394C349.796 92.394 349.413 92.7764 349.413 93.2481V102.861C349.413 103.332 349.796 103.715 350.267 103.715C350.739 103.715 351.121 103.332 351.121 102.861Z" fill="#F58A07"/>
<path d="M360.041 102.678V79.5538C360.041 79.0821 359.659 78.6997 359.187 78.6997C358.716 78.6997 358.333 79.0821 358.333 79.5538V102.678C358.333 103.15 358.716 103.532 359.187 103.532C359.659 103.532 360.041 103.15 360.041 102.678Z" fill="#9792E3"/>
<path d="M360.041 102.679V89.2315C360.041 88.7598 359.659 88.3774 359.187 88.3774C358.716 88.3774 358.333 88.7598 358.333 89.2315V102.679C358.333 103.15 358.716 103.533 359.187 103.533C359.659 103.533 360.041 103.15 360.041 102.679Z" fill="#4E1C95"/>
<path d="M368.963 102.678V79.5538C368.963 79.0821 368.58 78.6997 368.109 78.6997C367.637 78.6997 367.255 79.0821 367.255 79.5538V102.678C367.255 103.15 367.637 103.532 368.109 103.532C368.58 103.532 368.963 103.15 368.963 102.678Z" fill="#9792E3"/>
<path d="M368.963 102.861V92.5176C368.963 92.046 368.58 91.6636 368.109 91.6636C367.637 91.6636 367.255 92.046 367.255 92.5176V102.861C367.255 103.332 367.637 103.715 368.109 103.715C368.58 103.715 368.963 103.332 368.963 102.861Z" fill="#F58A07"/>
<path d="M377.882 102.678V79.5538C377.882 79.0821 377.5 78.6997 377.028 78.6997C376.557 78.6997 376.174 79.0821 376.174 79.5538V102.678C376.174 103.15 376.557 103.532 377.028 103.532C377.5 103.532 377.882 103.15 377.882 102.678Z" fill="#9792E3"/>
<path d="M377.882 102.86V86.3092C377.882 85.8375 377.5 85.4551 377.028 85.4551C376.557 85.4551 376.174 85.8375 376.174 86.3092V102.86C376.174 103.332 376.557 103.714 377.028 103.714C377.5 103.714 377.882 103.332 377.882 102.86Z" fill="#4E1C95"/>
<path d="M386.993 102.678V79.5538C386.993 79.0821 386.611 78.6997 386.139 78.6997C385.667 78.6997 385.285 79.0821 385.285 79.5538V102.678C385.285 103.15 385.667 103.532 386.139 103.532C386.611 103.532 386.993 103.15 386.993 102.678Z" fill="#9792E3"/>
<path d="M386.993 102.86V81.7442C386.993 81.2725 386.611 80.8901 386.139 80.8901C385.667 80.8901 385.285 81.2725 385.285 81.7442V102.86C385.285 103.332 385.667 103.714 386.139 103.714C386.611 103.714 386.993 103.332 386.993 102.86Z" fill="#F58A07"/>
<path d="M323.428 67.5291H337.355C337.859 67.5291 338.268 67.1203 338.268 66.6161C338.268 66.1119 337.859 65.7031 337.355 65.7031H323.428C322.924 65.7031 322.515 66.1119 322.515 66.6161C322.515 67.1203 322.924 67.5291 323.428 67.5291Z" fill="#9792E3"/>
<path d="M323.507 71.2825H347.494C347.998 71.2825 348.406 70.8737 348.406 70.3695C348.406 69.8653 347.998 69.4565 347.494 69.4565H323.507C323.003 69.4565 322.594 69.8653 322.594 70.3695C322.594 70.8737 323.003 71.2825 323.507 71.2825Z" fill="#9792E3"/>
<path d="M289.636 120.094V94.0806C289.636 88.5577 285.159 84.0806 279.636 84.0806L235.296 84.0806C229.773 84.0806 225.296 88.5577 225.296 94.0806V120.094C225.296 125.617 229.773 130.094 235.296 130.094H279.636C285.159 130.094 289.636 125.617 289.636 120.094Z" fill="#EAF4FE"/>
<path d="M276.88 99.9599C277.244 99.8007 277.48 99.441 277.48 99.0436V97.8306C277.48 97.0493 276.624 96.5698 275.957 96.9778L256.602 108.827L276.88 99.9599Z" fill="#9792E3"/>
<path d="M276.48 119.235C277.032 119.235 277.48 118.788 277.48 118.235V97.0459C277.48 96.4936 277.032 96.0459 276.48 96.0459H256.602H236.535C235.983 96.0459 235.535 96.4936 235.535 97.0459V118.235C235.535 118.788 235.983 119.235 236.535 119.235H256.602H276.48Z" stroke="#4E1C95" stroke-width="0.4252" stroke-miterlimit="10"/>
<path d="M276.48 119.235C277.032 119.235 277.48 118.788 277.48 118.235V97.8306C277.48 97.0494 276.624 96.5698 275.958 96.9778L257.122 108.509C256.803 108.705 256.401 108.705 256.081 108.511L237.054 96.9673C236.387 96.563 235.535 97.0428 235.535 97.8223V118.235C235.535 118.788 235.983 119.235 236.535 119.235H256.602H276.48Z" stroke="#4E1C95" stroke-width="0.4252" stroke-miterlimit="10" stroke-linecap="round" stroke-linejoin="round"/>
<path d="M81.6126 59.1617H80.284C79.9479 59.1617 79.7606 59.0186 79.5904 58.7323C79.5444 58.6549 79.5101 58.5712 79.4806 58.4862C79.3849 58.2101 79.2146 57.9278 79.2795 57.6429C79.3235 57.4495 79.4242 57.25 79.5249 57.1532L80.4738 56.2402C80.6636 56.0576 80.6636 55.6924 80.4738 55.5098L78.9555 54.0491C78.7657 53.8665 78.3861 53.8665 78.1963 54.0491L77.2473 54.9621C77.1778 55.0289 77.0828 55.0713 76.9717 55.0982C76.5424 55.2019 76.1007 55.0179 75.729 54.7795C75.3494 54.5969 75.1596 54.4143 75.1596 54.0491V52.7709C75.1596 52.4057 74.9698 52.2231 74.5902 52.2231H72.5024C72.1229 52.2231 71.9331 52.4057 71.9331 52.7709V54.0491C71.9331 54.4143 71.7433 54.5969 71.3637 54.7795C70.989 54.8996 70.5946 55.1004 70.2202 54.9796C70.0662 54.93 69.9235 54.8547 69.8453 54.7795L68.8963 53.8665C68.7065 53.6839 68.327 53.6839 68.1372 53.8665L66.6188 55.3272C66.429 55.5098 66.429 55.875 66.6188 56.0576L67.5678 56.9706C67.7215 57.1185 67.8753 57.3863 67.8272 57.6768C67.8034 57.8207 67.7336 57.9527 67.6859 58.0905L67.6395 58.2244C67.5917 58.3622 67.5385 58.4992 67.4577 58.6206C67.2985 58.8596 67.1157 58.9791 66.8086 58.9791H65.48C65.1004 58.9791 64.9106 59.1617 64.9106 59.5269V61.5354C64.9106 61.9006 65.1004 62.0832 65.48 62.0832H66.8086C67.1447 62.0832 67.332 62.2264 67.5022 62.5126C67.5482 62.59 67.5826 62.6737 67.612 62.7587C67.7077 63.0348 67.878 63.3172 67.8131 63.6021C67.7691 63.7954 67.6684 63.9949 67.5678 64.0917L66.6188 65.0047C66.429 65.1873 66.429 65.5525 66.6188 65.7351L68.1372 67.1958C68.327 67.3784 68.7065 67.3784 68.8963 67.1958L69.8453 66.2829C69.9545 66.1778 70.1266 66.1332 70.3254 66.1142C70.6349 66.0848 70.945 66.1486 71.2411 66.2436L71.3637 66.2829C71.7433 66.4655 71.9331 66.6481 71.9331 67.0132V68.2914C71.9331 68.6566 72.1229 68.8392 72.5024 68.8392H74.5902C74.9698 68.8392 75.1596 68.6566 75.1596 68.2914V67.0132C75.1596 66.6481 75.3494 66.4655 75.729 66.2829C76.1036 66.1627 76.498 65.9619 76.8724 66.0827C77.0264 66.1324 77.1691 66.2076 77.2473 66.2829L78.1963 67.1958C78.3861 67.3784 78.7657 67.3784 78.9555 67.1958L80.4738 65.7351C80.6636 65.5525 80.6636 65.1873 80.4738 65.0047L79.5249 64.0917C79.4068 63.9781 79.3622 63.7939 79.3453 63.5829C79.324 63.3161 79.3798 63.0496 79.4674 62.7967C79.5057 62.6864 79.5493 62.5774 79.6113 62.4784C79.7761 62.2149 79.9616 62.0832 80.284 62.0832H81.6126C81.9922 62.0832 82.182 61.9006 82.182 61.5354V59.5269C82.182 59.3443 81.9922 59.1617 81.6126 59.1617ZM73.6412 63.1788C72.1228 63.1788 70.9841 62.0832 70.9841 60.6225C70.9841 59.1617 72.1228 58.0661 73.6412 58.0661C75.1596 58.0661 76.2983 59.1617 76.2983 60.6225C76.2983 62.0832 74.9698 63.1788 73.6412 63.1788Z" fill="#9792E3"/>
<path d="M274.065 39.8062C268.75 39.8062 264.385 44.0058 264.385 49.1184C264.385 52.572 268.802 60.1913 271.668 64.7727C272.792 66.5681 275.338 66.5681 276.461 64.7727C279.327 60.1913 283.744 52.572 283.744 49.1184C283.744 44.0058 279.379 39.8062 274.065 39.8062ZM274.065 52.4051C272.546 52.4051 271.218 51.127 271.218 49.6662C271.218 48.2055 272.546 46.9273 274.065 46.9273C275.583 46.9273 276.911 48.2055 276.911 49.6662C276.911 51.3096 275.583 52.4051 274.065 52.4051Z" fill="#9792E3"/>
</g>
<defs>
<clipPath id="clip0_9369_5964">
<rect width="398" height="214" fill="white"/>
</clipPath>
</defs>
</svg>
