<svg width="24" height="24" viewBox="0 0 24 24" fill="none" xmlns="http://www.w3.org/2000/svg">
<path d="M12 2C10.0222 2 8.08879 2.58649 6.4443 3.6853C4.79981 4.78412 3.51809 6.3459 2.76121 8.17316C2.00433 10.0004 1.8063 12.0111 2.19215 13.9509C2.578 15.8907 3.53041 17.6725 4.92894 19.0711C6.32746 20.4696 8.10929 21.422 10.0491 21.8078C11.9889 22.1937 13.9996 21.9957 15.8268 21.2388C17.6541 20.4819 19.2159 19.2002 20.3147 17.5557C21.4135 15.9112 22 13.9778 22 12C21.997 9.34874 20.9425 6.80692 19.0678 4.9322C17.1931 3.05747 14.6513 2.00296 12 2ZM15.9225 14.7442C16.0021 14.821 16.0656 14.913 16.1093 15.0147C16.1529 15.1163 16.1759 15.2257 16.1769 15.3363C16.1778 15.447 16.1568 15.5567 16.1149 15.6591C16.073 15.7615 16.0111 15.8546 15.9328 15.9328C15.8546 16.0111 15.7615 16.0729 15.6591 16.1149C15.5567 16.1568 15.447 16.1778 15.3363 16.1769C15.2257 16.1759 15.1163 16.1529 15.0147 16.1092C14.913 16.0656 14.821 16.0021 14.7442 15.9225L12 13.1784L9.25584 15.9225C9.09867 16.0743 8.88817 16.1583 8.66967 16.1564C8.45117 16.1545 8.24216 16.0669 8.08765 15.9123C7.93315 15.7578 7.84551 15.5488 7.84361 15.3303C7.84171 15.1118 7.92571 14.9013 8.0775 14.7442L10.8216 12L8.0775 9.25583C7.92571 9.09866 7.84171 8.88816 7.84361 8.66966C7.84551 8.45117 7.93315 8.24216 8.08765 8.08765C8.24216 7.93314 8.45117 7.8455 8.66967 7.8436C8.88817 7.84171 9.09867 7.9257 9.25584 8.0775L12 10.8216L14.7442 8.0775C14.9013 7.9257 15.1118 7.84171 15.3303 7.8436C15.5488 7.8455 15.7578 7.93314 15.9124 8.08765C16.0669 8.24216 16.1545 8.45117 16.1564 8.66966C16.1583 8.88816 16.0743 9.09866 15.9225 9.25583L13.1784 12L15.9225 14.7442Z" fill="#F5222D"/>
<path d="M15.9224 14.7404C16.002 14.8173 16.0655 14.9093 16.1092 15.0109C16.1529 15.1126 16.1758 15.222 16.1768 15.3326C16.1778 15.4433 16.1567 15.553 16.1148 15.6554C16.0729 15.7578 16.011 15.8509 15.9328 15.9291C15.8545 16.0073 15.7615 16.0692 15.6591 16.1111C15.5566 16.153 15.4469 16.1741 15.3363 16.1731C15.2256 16.1722 15.1163 16.1492 15.0146 16.1055C14.9129 16.0618 14.821 15.9984 14.7441 15.9188L11.9999 13.1747L9.25576 15.9188C9.0986 16.0706 8.8881 16.1546 8.6696 16.1527C8.4511 16.1508 8.24209 16.0631 8.08758 15.9086C7.93308 15.7541 7.84544 15.5451 7.84354 15.3266C7.84164 15.1081 7.92563 14.8976 8.07743 14.7404L10.8215 11.9963L8.07743 9.2521C7.92563 9.09493 7.84164 8.88443 7.84354 8.66594C7.84544 8.44744 7.93308 8.23843 8.08758 8.08392C8.24209 7.92941 8.4511 7.84177 8.6696 7.83988C8.8881 7.83798 9.0986 7.92197 9.25576 8.07377L11.9999 10.8179L14.7441 8.07377C14.9013 7.92197 15.1118 7.83798 15.3303 7.83988C15.5488 7.84177 15.7578 7.92941 15.9123 8.08392C16.0668 8.23843 16.1544 8.44744 16.1563 8.66594C16.1582 8.88443 16.0742 9.09493 15.9224 9.2521L13.1783 11.9963L15.9224 14.7404Z" fill="white"/>
</svg>
