<svg width="16" height="16" viewBox="0 0 16 16" fill="none" xmlns="http://www.w3.org/2000/svg">
<circle cx="8.00004" cy="8.00016" r="2.66667" stroke="white"/>
<path d="M6.53061 1.78567C7.19578 0.675641 8.8043 0.675641 9.46947 1.78567V1.78567C9.85739 2.43303 10.6233 2.75026 11.3553 2.56681V2.56681C12.6106 2.25225 13.748 3.38964 13.4334 4.64489V4.64489C13.2499 5.37695 13.5672 6.14282 14.2145 6.53073V6.53073C15.3246 7.1959 15.3246 8.80442 14.2145 9.46959V9.46959C13.5672 9.85751 13.2499 10.6234 13.4334 11.3554V11.3554C13.748 12.6107 12.6106 13.7481 11.3553 13.4335V13.4335C10.6233 13.2501 9.85739 13.5673 9.46947 14.2147V14.2147C8.8043 15.3247 7.19578 15.3247 6.53061 14.2147V14.2147C6.14269 13.5673 5.37682 13.2501 4.64477 13.4335V13.4335C3.38952 13.7481 2.25212 12.6107 2.56669 11.3554V11.3554C2.75014 10.6234 2.43291 9.85751 1.78555 9.46959V9.46959C0.675519 8.80442 0.675519 7.1959 1.78555 6.53073V6.53073C2.43291 6.14282 2.75014 5.37695 2.56669 4.64489V4.64489C2.25212 3.38964 3.38952 2.25225 4.64477 2.56681V2.56681C5.37682 2.75026 6.14269 2.43303 6.53061 1.78567V1.78567Z" stroke="white"/>
</svg>
