<svg width="16" height="16" viewBox="0 0 20 20" fill="none" xmlns="http://www.w3.org/2000/svg">
<path fill-rule="evenodd" clip-rule="evenodd" d="M11.734 5.13283C12.2063 4.67805 12.5002 4.03923 12.5002 3.33179C12.5002 1.95108 11.3809 0.831787 10.0002 0.831787C8.61948 0.831787 7.50019 1.95108 7.50019 3.33179C7.50019 4.03923 7.79403 4.67805 8.26634 5.13283L3.27271 15.1201C3.83241 15.3018 4.30555 15.6755 4.61436 16.1636L9.78482 5.82264C9.77138 5.82149 9.75796 5.82024 9.74458 5.81888C9.82862 5.82741 9.9139 5.83179 10.0002 5.83179C10.0727 5.83179 10.1446 5.8287 10.2156 5.82264L15.3859 16.1634C15.287 16.3198 15.2049 16.4879 15.1423 16.6651H4.85794C4.51469 15.6941 3.58852 14.9985 2.5 14.9985C1.11929 14.9985 0 16.1177 0 17.4985C0 18.8792 1.11929 19.9985 2.5 19.9985C3.58852 19.9985 4.51469 19.3028 4.85794 18.3318H15.1423C15.4855 19.3028 16.4115 19.9985 17.5 19.9985C18.8807 19.9985 20 18.8792 20 17.4985C20 16.1177 18.8807 14.9985 17.5 14.9985C17.2305 14.9985 16.9709 15.0411 16.7276 15.12L11.734 5.13283ZM10.8335 3.33179C10.8335 3.79202 10.4604 4.16512 10.0002 4.16512C9.53995 4.16512 9.16686 3.79202 9.16686 3.33179C9.16686 2.87155 9.53995 2.49845 10.0002 2.49845C10.4604 2.49845 10.8335 2.87155 10.8335 3.33179ZM3.33333 17.4985C3.33333 17.9587 2.96024 18.3318 2.5 18.3318C2.03976 18.3318 1.66667 17.9587 1.66667 17.4985C1.66667 17.0382 2.03976 16.6651 2.5 16.6651C2.96024 16.6651 3.33333 17.0382 3.33333 17.4985ZM18.3333 17.4985C18.3333 17.9587 17.9602 18.3318 17.5 18.3318C17.0398 18.3318 16.6667 17.9587 16.6667 17.4985C16.6667 17.0382 17.0398 16.6651 17.5 16.6651C17.9602 16.6651 18.3333 17.0382 18.3333 17.4985Z" fill="white"/>
</svg>