<svg width="15" height="14" viewBox="0 0 15 14" fill="none" xmlns="http://www.w3.org/2000/svg">
<path d="M2.97786 0.853516C1.79184 0.853516 0.666748 1.70022 0.666748 2.94424V11.2961C0.666748 12.5401 1.79184 13.3868 2.97786 13.3868H3.60008C3.96827 13.3868 4.26675 13.0884 4.26675 12.7202C4.26675 12.352 3.96827 12.0535 3.60008 12.0535H2.97786C2.34165 12.0535 2.00008 11.6301 2.00008 11.2961V2.94424C2.00008 2.61025 2.34165 2.18685 2.97786 2.18685H3.33341C3.7016 2.18685 4.00008 1.88837 4.00008 1.52018C4.00008 1.15199 3.7016 0.853516 3.33341 0.853516H2.97786Z" fill="#4E1C95"/>
<path d="M11.7334 0.853516C11.3652 0.853516 11.0668 1.15199 11.0668 1.52018C11.0668 1.88837 11.3652 2.18685 11.7334 2.18685H12.7567C13.1292 2.18685 13.4668 2.50201 13.4668 2.94669V11.2937C13.4668 11.7384 13.1292 12.0535 12.7567 12.0535H12.1241C11.7559 12.0535 11.4574 12.352 11.4574 12.7202C11.4574 13.0884 11.7559 13.3868 12.1241 13.3868H12.7567C13.9098 13.3868 14.8001 12.4297 14.8001 11.2937V2.94669C14.8001 1.81065 13.9098 0.853516 12.7567 0.853516H11.7334Z" fill="#4E1C95"/>
<path d="M3.7126 6.14594C4.00743 5.92539 4.42522 5.98561 4.64577 6.28043L8.15735 10.9747V10.6605C8.15735 10.2923 8.45582 9.99381 8.82401 9.99381C9.1922 9.99381 9.49068 10.2923 9.49068 10.6605V12.7088C9.49068 13.072 9.20025 13.3674 8.83896 13.3753L8.82378 13.3755H6.78514C6.41695 13.3755 6.11847 13.077 6.11847 12.7088C6.11847 12.3406 6.41695 12.0422 6.78514 12.0422H7.29075L3.57811 7.0791C3.35756 6.78428 3.41778 6.36648 3.7126 6.14594Z" fill="#4E1C95"/>
<path d="M8.22821 2.18685H7.74174L11.4545 7.15008C11.6751 7.4449 11.6148 7.8627 11.32 8.08324C11.0252 8.30379 10.6074 8.24358 10.3868 7.94875L6.87547 3.25474V3.60714C6.87547 3.97533 6.57699 4.2738 6.2088 4.2738C5.84061 4.2738 5.54213 3.97533 5.54213 3.60714V1.57812C5.54213 1.56842 5.54234 1.55876 5.54275 1.54915C5.54234 1.53955 5.54213 1.52989 5.54213 1.52018C5.54213 1.15199 5.84061 0.853516 6.2088 0.853516H8.22821C8.5964 0.853516 8.89488 1.15199 8.89488 1.52018C8.89488 1.88837 8.5964 2.18685 8.22821 2.18685Z" fill="#4E1C95"/>
</svg>
