<svg width="32" height="32" viewBox="0 0 32 32" fill="none" xmlns="http://www.w3.org/2000/svg">
<path d="M28.1935 23.3398C27.2157 22.3613 26.0733 21.5626 24.8185 20.9804C26.588 19.5468 27.7169 17.3593 27.7169 14.9062C27.7169 10.5781 24.1075 7.02728 19.7794 7.09369C15.5177 7.1601 12.0841 10.6328 12.0841 14.9062C12.0841 17.3593 13.2169 19.5468 14.9825 20.9804C13.7275 21.5622 12.5849 22.3609 11.6075 23.3398C9.47471 25.4765 8.26377 28.2968 8.18565 31.3046C8.1846 31.3463 8.19192 31.3878 8.20715 31.4266C8.22239 31.4654 8.24524 31.5008 8.27437 31.5307C8.30349 31.5605 8.33829 31.5842 8.37673 31.6004C8.41516 31.6166 8.45644 31.625 8.49815 31.6249H10.6856C10.8536 31.6249 10.9942 31.4921 10.9981 31.3242C11.0724 29.0585 11.9903 26.9374 13.6036 25.3281C14.4292 24.4981 15.4111 23.8402 16.4926 23.3923C17.5742 22.9444 18.7338 22.7154 19.9044 22.7187C22.2833 22.7187 24.5216 23.6445 26.2052 25.3281C27.8146 26.9374 28.7325 29.0585 28.8106 31.3242C28.8146 31.4921 28.9552 31.6249 29.1231 31.6249H31.3106C31.3524 31.625 31.3936 31.6166 31.4321 31.6004C31.4705 31.5842 31.5053 31.5605 31.5344 31.5307C31.5636 31.5008 31.5864 31.4654 31.6016 31.4266C31.6169 31.3878 31.6242 31.3463 31.6231 31.3046C31.545 28.2968 30.3341 25.4765 28.1935 23.3398ZM19.9044 19.9062C18.5685 19.9062 17.3106 19.3867 16.3692 18.4413C15.8968 17.9726 15.5236 17.4135 15.2719 16.7974C15.0203 16.1813 14.8953 15.5209 14.9044 14.8554C14.9161 13.5742 15.4278 12.3359 16.3224 11.4179C17.2599 10.457 18.5138 9.92181 19.8536 9.90619C21.1778 9.89447 22.463 10.4101 23.4083 11.3359C24.3771 12.2851 24.9083 13.5546 24.9083 14.9062C24.9083 16.2421 24.3888 17.496 23.4435 18.4413C22.9797 18.9073 22.4281 19.2767 21.8206 19.5282C21.2132 19.7796 20.5618 19.9081 19.9044 19.9062ZM10.1192 15.9374C10.0841 15.5976 10.0646 15.2538 10.0646 14.9062C10.0646 14.2851 10.1231 13.6796 10.2325 13.0898C10.2599 12.9492 10.1856 12.8046 10.0567 12.746C9.52549 12.5078 9.03721 12.1796 8.61533 11.7656C8.11822 11.2836 7.72705 10.7032 7.46676 10.0616C7.20647 9.41996 7.08279 8.73111 7.10361 8.039C7.13877 6.7851 7.64268 5.59369 8.52158 4.69525C9.48643 3.70697 10.7833 3.16791 12.1622 3.18353C13.4083 3.19525 14.6114 3.67572 15.5216 4.52728C15.8302 4.81635 16.0958 5.13666 16.3185 5.48041C16.3966 5.6015 16.5489 5.65228 16.6817 5.60541C17.3692 5.36713 18.0958 5.19916 18.8419 5.12103C19.0606 5.0976 19.1856 4.86322 19.088 4.66791C17.8185 2.15619 15.2247 0.421815 12.2247 0.37494C7.89268 0.308534 4.2833 3.85932 4.2833 8.18353C4.2833 10.6367 5.41221 12.8242 7.18174 14.2578C5.93955 14.832 4.79502 15.6249 3.80283 16.6171C1.66221 18.7538 0.45127 21.5742 0.373145 24.5859C0.372102 24.6276 0.379415 24.669 0.394652 24.7079C0.409889 24.7467 0.432742 24.7821 0.461865 24.8119C0.490988 24.8418 0.525791 24.8655 0.564224 24.8817C0.602656 24.8979 0.643941 24.9062 0.685645 24.9062H2.87705C3.04502 24.9062 3.18565 24.7734 3.18955 24.6054C3.26377 22.3398 4.18174 20.2187 5.79502 18.6093C6.94346 17.4609 8.34971 16.664 9.88486 16.2773C10.0372 16.2382 10.1388 16.0937 10.1192 15.9374Z" fill="#4E1C95"/>
</svg>
