<svg width="12" height="14" viewBox="0 0 12 14" fill="none" xmlns="http://www.w3.org/2000/svg">
    <path fill-rule="evenodd" clip-rule="evenodd" d="M6 3.397a1.75 1.75 0 1 0 0 3.5 1.75 1.75 0 0 0 0-3.5zm-.583 1.75a.583.583 0 1 1 1.166 0 .583.583 0 0 1-1.166 0z" fill="#777EA6"/>
    <path fill-rule="evenodd" clip-rule="evenodd" d="m5.668 12.627.332-.48-.332.48c.2.138.464.138.664 0L6 12.147l.332.48.002-.001.003-.003.012-.007a5.14 5.14 0 0 0 .178-.132 13.798 13.798 0 0 0 1.953-1.82c1.054-1.198 2.187-2.949 2.187-4.978a4.6 4.6 0 0 0-1.37-3.27A4.69 4.69 0 0 0 6 1.063a4.69 4.69 0 0 0-3.297 1.351 4.6 4.6 0 0 0-1.37 3.27c0 2.03 1.133 3.78 2.187 4.98a13.798 13.798 0 0 0 1.953 1.82 7.686 7.686 0 0 0 .179.13l.01.008.004.003h.002zM3.523 3.245A3.523 3.523 0 0 1 6 2.23c.93 0 1.821.365 2.477 1.014A3.433 3.433 0 0 1 9.5 5.685c0 1.606-.909 3.086-1.896 4.21A12.624 12.624 0 0 1 6 11.416a12.624 12.624 0 0 1-1.604-1.522C3.41 8.77 2.5 7.29 2.5 5.684c0-.913.367-1.792 1.023-2.44z" fill="#777EA6"/>
</svg>
