<svg width="12" height="13" viewBox="0 0 12 13" fill="none" xmlns="http://www.w3.org/2000/svg">
    <g clip-path="url(#c1lhrwauba)">
        <path fill-rule="evenodd" clip-rule="evenodd" d="M11.643 8.863a1.5 1.5 0 0 0-.747-1.468l-1.242-.71a1.5 1.5 0 0 0-1.805.242l-.318.319c-.126.126-.246.126-.312.095-.31-.147-.779-.43-1.304-.954-.525-.526-.808-.995-.954-1.304-.031-.066-.031-.186.095-.312l.318-.319a1.5 1.5 0 0 0 .242-1.805l-.71-1.242A1.5 1.5 0 0 0 3.44.66L1.705.85C1.02.927.405 1.496.488 2.286c.133 1.264.75 3.667 3.305 6.222 2.555 2.554 4.958 3.172 6.222 3.305.79.083 1.36-.533 1.435-1.216l.193-1.734zm-1.243-.6a.5.5 0 0 1 .249.49l-.193 1.733a.416.416 0 0 1-.126.264.26.26 0 0 1-.21.069c-1.062-.112-3.245-.644-5.62-3.018-2.375-2.375-2.906-4.558-3.017-5.62a.26.26 0 0 1 .068-.21.416.416 0 0 1 .264-.126l1.734-.192a.5.5 0 0 1 .49.248l.709 1.242a.5.5 0 0 1-.08.602l-.32.319c-.346.347-.546.908-.291 1.447.193.406.54.972 1.15 1.583.612.61 1.177.958 1.584 1.15.538.255 1.1.056 1.447-.291l.318-.319a.5.5 0 0 1 .602-.08l1.242.71z" fill="#777EA6"/>
    </g>
    <defs>
        <clipPath id="c1lhrwauba">
            <path fill="#fff" transform="translate(0 .169)" d="M0 0h12v12H0z"/>
        </clipPath>
    </defs>
</svg>
