<svg width="12" height="12" viewBox="0 0 12 12" fill="none" xmlns="http://www.w3.org/2000/svg">
    <path d="M1.929 2.571c.294 0 .546.105.756.315.21.21.315.462.315.757v7.286c0 .294-.105.546-.315.756-.21.21-.462.315-.756.315H1.07c-.294 0-.546-.105-.756-.315A1.032 1.032 0 0 1 0 10.93V3.643c0-.295.105-.547.315-.757.21-.21.462-.315.756-.315h.858zm9.214 1.092A1.734 1.734 0 0 1 12 5.143v5.143c0 .473-.167.877-.502 1.212a1.652 1.652 0 0 1-1.212.502H4.5c-.295 0-.547-.105-.757-.315a1.032 1.032 0 0 1-.314-.756V.643a.62.62 0 0 1 .187-.456A.62.62 0 0 1 4.071 0h4.5c.179 0 .375.045.59.134.214.09.384.196.509.321l1.018 1.018c.124.125.232.295.32.51.09.213.135.41.135.588v1.092zm-4.929 6.623v-.857a.209.209 0 0 0-.06-.154.209.209 0 0 0-.154-.06h-.857a.209.209 0 0 0-.154.06.209.209 0 0 0-.06.154v.857c0 .062.02.114.06.154.04.04.091.06.154.06H6c.063 0 .114-.02.154-.06.04-.04.06-.092.06-.154zm0-1.715v-.857a.209.209 0 0 0-.06-.154A.209.209 0 0 0 6 7.5h-.857a.209.209 0 0 0-.154.06.209.209 0 0 0-.06.154v.857c0 .063.02.114.06.154.04.04.091.06.154.06H6c.063 0 .114-.02.154-.06.04-.04.06-.091.06-.154zm0-1.714V6a.209.209 0 0 0-.06-.154.209.209 0 0 0-.154-.06h-.857a.209.209 0 0 0-.154.06.209.209 0 0 0-.06.154v.857c0 .063.02.114.06.154.04.04.091.06.154.06H6c.063 0 .114-.02.154-.06.04-.04.06-.091.06-.154zm1.715 3.429v-.857a.209.209 0 0 0-.06-.154.209.209 0 0 0-.155-.06h-.857a.209.209 0 0 0-.154.06.209.209 0 0 0-.06.154v.857c0 .062.02.114.06.154.04.04.092.06.154.06h.857c.063 0 .114-.02.154-.06.04-.04.06-.092.06-.154zm0-1.715v-.857a.209.209 0 0 0-.06-.154.209.209 0 0 0-.155-.06h-.857a.209.209 0 0 0-.154.06.209.209 0 0 0-.06.154v.857c0 .063.02.114.06.154.04.04.092.06.154.06h.857c.063 0 .114-.02.154-.06.04-.04.06-.091.06-.154zm0-1.714V6a.209.209 0 0 0-.06-.154.209.209 0 0 0-.155-.06h-.857a.209.209 0 0 0-.154.06.209.209 0 0 0-.06.154v.857c0 .063.02.114.06.154.04.04.092.06.154.06h.857c.063 0 .114-.02.154-.06.04-.04.06-.091.06-.154zm1.714 3.429v-.857a.209.209 0 0 0-.06-.154.209.209 0 0 0-.154-.06H8.57a.209.209 0 0 0-.154.06.209.209 0 0 0-.06.154v.857c0 .062.02.114.06.154.04.04.092.06.154.06h.858c.062 0 .113-.02.154-.06.04-.04.06-.092.06-.154zm0-1.715v-.857a.209.209 0 0 0-.06-.154.209.209 0 0 0-.154-.06H8.57a.209.209 0 0 0-.154.06.209.209 0 0 0-.06.154v.857c0 .063.02.114.06.154.04.04.092.06.154.06h.858c.062 0 .113-.02.154-.06.04-.04.06-.091.06-.154zm0-1.714V6a.209.209 0 0 0-.06-.154.209.209 0 0 0-.154-.06H8.57a.209.209 0 0 0-.154.06.209.209 0 0 0-.06.154v.857c0 .063.02.114.06.154.04.04.092.06.154.06h.858c.062 0 .113-.02.154-.06.04-.04.06-.091.06-.154zm.643-2.571V2.57H9.214a.62.62 0 0 1-.455-.187.62.62 0 0 1-.188-.455V.857H4.286v3.429h6z" fill="#777EA6"/>
</svg>
