<svg width="20" height="20" viewBox="0 0 20 20" fill="none" xmlns="http://www.w3.org/2000/svg">
<path d="M16.5 0H3.5C1.567 0 0 1.567 0 3.5V16.5C0 18.433 1.567 20 3.5 20H16.5C18.433 20 20 18.433 20 16.5V3.5C20 1.567 18.433 0 16.5 0Z" fill="#007FB5"/>
<path d="M5.63242 7.35547H2.81055V17.5805H5.63242V7.35547Z" fill="white"/>
<path d="M15.0633 7.35598C12.982 6.56223 11.4758 7.90598 10.832 8.65598V7.35598H8.01953V17.581H10.832V12.1872C10.816 11.5036 11.0658 10.8404 11.5289 10.3372C11.6611 10.1816 11.8239 10.055 12.0073 9.96518C12.1907 9.87539 12.3906 9.82438 12.5945 9.81535C12.8226 9.81097 13.0493 9.85273 13.2609 9.93811C13.4725 10.0235 13.6646 10.1507 13.8258 10.3122C14.1753 10.6775 14.3663 11.1661 14.357 11.6716V17.581H17.532V11.2497C17.532 11.2497 17.8852 8.41223 15.0633 7.35598Z" fill="white"/>
<path d="M4.21953 5.94297C5.19293 5.94297 5.98203 5.15387 5.98203 4.18047C5.98203 3.20707 5.19293 2.41797 4.21953 2.41797C3.24613 2.41797 2.45703 3.20707 2.45703 4.18047C2.45703 5.15387 3.24613 5.94297 4.21953 5.94297Z" fill="white"/>
</svg>
