<svg width="20" height="20" viewBox="0 0 20 20" fill="none" xmlns="http://www.w3.org/2000/svg">
<path d="M3.5 20L16.5 20C18.433 20 20 18.433 20 16.5L20 3.5C20 1.567 18.433 0 16.5 0L3.5 0C1.567 0 0 1.567 0 3.5L0 16.5C0 18.433 1.567 20 3.5 20Z" fill="#00AADE"/>
<path d="M14.75 6.49855C15.0483 6.34517 15.3127 6.13333 15.5275 5.87563C15.7422 5.61793 15.9029 5.31965 16 4.99855C15.5 5.49855 14.4375 5.66417 14.4375 5.66417C14.0701 5.21275 13.5567 4.90365 12.9859 4.79017C12.415 4.67669 11.8225 4.76595 11.3104 5.04255C10.7983 5.31915 10.3987 5.76576 10.1806 6.30538C9.96253 6.84499 9.93954 7.4438 10.1156 7.99855H10C8.98166 7.93102 7.98865 7.65152 7.08459 7.17797C6.18053 6.70441 5.38535 6.04724 4.75 5.24855C4.75 5.24855 3.25 7.24855 5.5 8.74855C5.5 8.74855 4.5 8.74855 4.25 8.49855C4.25 8.49855 4 9.99855 6.25 10.9985C6.09301 11.0701 5.92251 11.1071 5.75 11.1071C5.57749 11.1071 5.40699 11.0701 5.25 10.9985C5.25 11.9642 6.25625 12.7485 7.5 12.7485C7.5 13.4392 5.82188 13.9985 3.75 13.9985C7 16.2485 14.75 15.7485 15.25 7.24855L16.5 5.99855L14.75 6.49855Z" fill="white"/>
</svg>
