<svg width="10" height="10" viewBox="0 0 10 10" fill="none" xmlns="http://www.w3.org/2000/svg">
<path fill-rule="evenodd" clip-rule="evenodd" d="M0 4.99902C0 2.2376 2.23858 -0.000976562 5 -0.000976562C7.76142 -0.000976562 10 2.2376 10 4.99902C10 7.76045 7.76142 9.99902 5 9.99902C2.23858 9.99902 0 7.76045 0 4.99902ZM5 0.999023C2.79086 0.999023 1 2.78988 1 4.99902C1 7.20816 2.79086 8.99902 5 8.99902C7.20914 8.99902 9 7.20816 9 4.99902C9 2.78988 7.20914 0.999023 5 0.999023Z" fill="#41A036"/>
<path d="M7 3.74811C7.19526 3.94337 7.19526 4.25995 7 4.45521L5 6.45521C4.80474 6.65048 4.48816 6.65048 4.29289 6.45521L3.29289 5.45521C3.09763 5.25995 3.09763 4.94337 3.29289 4.74811C3.48816 4.55285 3.80474 4.55285 4 4.74811L4.64645 5.39455L6.29289 3.74811C6.48816 3.55285 6.80474 3.55285 7 3.74811Z" fill="#41A036"/>
</svg>
