<svg width="36" height="36" viewBox="0 0 36 36" fill="none" xmlns="http://www.w3.org/2000/svg">
<rect width="36" height="36" rx="5" fill="white"/>
<path fill-rule="evenodd" clip-rule="evenodd" d="M20.6667 17.9998C20.6667 19.4726 19.4728 20.6665 18.0001 20.6665C16.5273 20.6665 15.3334 19.4726 15.3334 17.9998C15.3334 16.5271 16.5273 15.3332 18.0001 15.3332C19.4728 15.3332 20.6667 16.5271 20.6667 17.9998ZM19.6667 17.9998C19.6667 18.9203 18.9206 19.6665 18.0001 19.6665C17.0796 19.6665 16.3334 18.9203 16.3334 17.9998C16.3334 17.0794 17.0796 16.3332 18.0001 16.3332C18.9206 16.3332 19.6667 17.0794 19.6667 17.9998Z" fill="#17082D"/>
<path fill-rule="evenodd" clip-rule="evenodd" d="M18.0001 10.6665C17.8215 10.6665 17.6444 10.6729 17.4689 10.6855C16.9598 10.7219 16.5719 11.0963 16.4606 11.5544L16.226 12.521C16.2133 12.5731 16.1663 12.6358 16.0764 12.6682C15.9107 12.728 15.7485 12.7953 15.5904 12.8697C15.5041 12.9103 15.4266 12.8993 15.3807 12.8714L14.5312 12.3538C14.1289 12.1086 13.5901 12.1181 13.2044 12.4518C12.9358 12.6841 12.6844 12.9356 12.4521 13.2041C12.1184 13.5899 12.1089 14.1286 12.354 14.5309L12.8716 15.3805C12.8996 15.4263 12.9105 15.5038 12.8699 15.5902C12.7955 15.7483 12.7282 15.9104 12.6684 16.0761C12.636 16.166 12.5734 16.213 12.5212 16.2257L11.5546 16.4604C11.0966 16.5716 10.7222 16.9596 10.6857 17.4686C10.6731 17.6441 10.6667 17.8213 10.6667 17.9998C10.6667 18.1784 10.6731 18.3555 10.6857 18.5311C10.7222 19.0401 11.0966 19.4281 11.5546 19.5393L12.5212 19.774C12.5734 19.7866 12.636 19.8337 12.6684 19.9235C12.7282 20.0893 12.7955 20.2514 12.8699 20.4095C12.9105 20.4958 12.8996 20.5733 12.8716 20.6192L12.354 21.4687C12.1089 21.8711 12.1184 22.4098 12.4521 22.7956C12.6844 23.0641 12.9358 23.3155 13.2044 23.5478C13.5901 23.8816 14.1289 23.891 14.5312 23.6459L15.3807 23.1283C15.4266 23.1004 15.5041 23.0894 15.5904 23.13C15.7485 23.2044 15.9107 23.2717 16.0764 23.3315C16.1663 23.3639 16.2133 23.4265 16.226 23.4787L16.4606 24.4453C16.5719 24.9034 16.9598 25.2777 17.4689 25.3142C17.6444 25.3268 17.8215 25.3332 18.0001 25.3332C18.1786 25.3332 18.3558 25.3268 18.5313 25.3142C19.0403 25.2777 19.4283 24.9034 19.5395 24.4453L19.7742 23.4787C19.7869 23.4265 19.8339 23.3639 19.9238 23.3315C20.0895 23.2717 20.2516 23.2044 20.4097 23.13C20.4961 23.0894 20.5736 23.1004 20.6194 23.1283L21.469 23.6459C21.8713 23.891 22.4101 23.8816 22.7958 23.5478C23.0643 23.3155 23.3158 23.0641 23.5481 22.7956C23.8818 22.4098 23.8913 21.8711 23.6461 21.4687L23.1286 20.6192C23.1006 20.5733 23.0896 20.4958 23.1302 20.4095C23.2046 20.2514 23.2719 20.0893 23.3317 19.9235C23.3642 19.8337 23.4268 19.7866 23.4789 19.774L24.4456 19.5393C24.9036 19.4281 25.278 19.0401 25.3144 18.5311C25.327 18.3555 25.3334 18.1784 25.3334 17.9998C25.3334 17.8213 25.327 17.6441 25.3144 17.4686C25.278 16.9596 24.9036 16.5716 24.4456 16.4604L23.4789 16.2257C23.4268 16.213 23.3642 16.166 23.3317 16.0761C23.2719 15.9104 23.2046 15.7483 23.1302 15.5902C23.0896 15.5038 23.1006 15.4263 23.1286 15.3805L23.6461 14.5309C23.8913 14.1286 23.8818 13.5899 23.5481 13.2041C23.3158 12.9356 23.0643 12.6841 22.7958 12.4518C22.4101 12.1181 21.8713 12.1086 21.469 12.3538L20.6194 12.8714C20.5736 12.8993 20.4961 12.9103 20.4097 12.8697C20.2516 12.7953 20.0895 12.728 19.9238 12.6682C19.8339 12.6358 19.7869 12.5731 19.7742 12.521L19.5395 11.5544C19.4283 11.0963 19.0403 10.7219 18.5313 10.6855C18.3558 10.6729 18.1786 10.6665 18.0001 10.6665ZM17.5403 11.6829C17.6921 11.672 17.8454 11.6665 18.0001 11.6665C18.1548 11.6665 18.3081 11.672 18.4598 11.6829C18.4968 11.6856 18.5498 11.7163 18.5677 11.7903L18.8024 12.7569C18.9039 13.1749 19.2192 13.4771 19.5843 13.6088C19.7206 13.658 19.854 13.7133 19.984 13.7745C20.3355 13.9399 20.7724 13.9492 21.1398 13.7253L21.9893 13.2078C22.0543 13.1682 22.1135 13.1838 22.1415 13.2081C22.3737 13.4089 22.591 13.6263 22.7918 13.8584C22.8161 13.8865 22.8318 13.9457 22.7922 14.0106L22.2746 14.8602C22.0507 15.2275 22.06 15.6644 22.2254 16.0159C22.2866 16.146 22.3419 16.2793 22.3911 16.4156C22.5229 16.7807 22.8251 17.096 23.243 17.1975L24.2096 17.4322C24.2836 17.4501 24.3144 17.5031 24.317 17.5401C24.3279 17.6918 24.3334 17.8452 24.3334 17.9998C24.3334 18.1545 24.3279 18.3078 24.317 18.4596C24.3144 18.4966 24.2836 18.5495 24.2096 18.5675L23.243 18.8022C22.8251 18.9037 22.5229 19.219 22.3911 19.5841C22.3419 19.7204 22.2866 19.8537 22.2254 19.9838C22.06 20.3353 22.0507 20.7721 22.2746 21.1395L22.7922 21.989C22.8318 22.054 22.8161 22.1132 22.7918 22.1413C22.591 22.3734 22.3737 22.5908 22.1415 22.7916C22.1135 22.8159 22.0543 22.8315 21.9893 22.7919L21.1398 22.2743C20.7724 22.0505 20.3355 22.0598 19.984 22.2251C19.854 22.2863 19.7206 22.3417 19.5843 22.3909C19.2192 22.5226 18.9039 22.8248 18.8024 23.2428L18.5677 24.2094C18.5498 24.2833 18.4968 24.3141 18.4598 24.3168C18.3081 24.3276 18.1548 24.3332 18.0001 24.3332C17.8454 24.3332 17.6921 24.3276 17.5403 24.3168C17.5033 24.3141 17.4504 24.2833 17.4324 24.2094L17.1977 23.2428C17.0962 22.8248 16.781 22.5226 16.4158 22.3909C16.2795 22.3417 16.1462 22.2863 16.0161 22.2251C15.6646 22.0598 15.2278 22.0505 14.8604 22.2743L14.0109 22.7919C13.9459 22.8315 13.8867 22.8159 13.8586 22.7916C13.6265 22.5908 13.4091 22.3734 13.2083 22.1413C13.184 22.1132 13.1684 22.054 13.208 21.989L13.7256 21.1395C13.9494 20.7721 13.9401 20.3353 13.7748 19.9838C13.7136 19.8537 13.6582 19.7204 13.6091 19.5841C13.4773 19.219 13.1751 18.9037 12.7572 18.8022L11.7905 18.5675C11.7166 18.5495 11.6858 18.4966 11.6832 18.4596C11.6723 18.3078 11.6667 18.1545 11.6667 17.9998C11.6667 17.8452 11.6723 17.6918 11.6832 17.5401C11.6858 17.5031 11.7166 17.4501 11.7905 17.4322L12.7572 17.1975C13.1751 17.096 13.4773 16.7807 13.6091 16.4156C13.6582 16.2793 13.7136 16.146 13.7748 16.0159C13.9401 15.6644 13.9494 15.2275 13.7256 14.8602L13.208 14.0106C13.1684 13.9457 13.184 13.8865 13.2083 13.8584C13.4091 13.6263 13.6265 13.4089 13.8586 13.2081C13.8867 13.1838 13.9459 13.1682 14.0109 13.2078L14.8604 13.7253C15.2278 13.9492 15.6646 13.9399 16.0161 13.7745C16.1462 13.7133 16.2795 13.658 16.4158 13.6088C16.781 13.4771 17.0962 13.1749 17.1977 12.7569L17.4324 11.7903C17.4504 11.7163 17.5033 11.6856 17.5403 11.6829Z" fill="#17082D"/>
</svg>
