<svg width="16" height="18" viewBox="0 0 16 18" fill="none" xmlns="http://www.w3.org/2000/svg">
<path d="M1.79657 3.77723C1.49704 4.13666 1.33301 4.58972 1.33301 5.0576V13.3335C1.33301 14.9904 2.67615 16.3335 4.33301 16.3335H11.6663C13.3232 16.3335 14.6663 14.9904 14.6663 13.3335V5.0576C14.6663 4.58972 14.5023 4.13666 14.2028 3.77723L13.0438 2.38646C12.6638 1.93048 12.1009 1.66683 11.5074 1.66683H4.49198C3.89842 1.66683 3.33553 1.93048 2.95554 2.38646L1.79657 3.77723Z" stroke="#A2A2BA" stroke-width="1.5"/>
<path d="M1.33301 4.6665H14.6663" stroke="#A2A2BA" stroke-width="1.5"/>
<path d="M10.6663 7.6665C10.6663 9.13926 9.47243 10.3332 7.99967 10.3332C6.52692 10.3332 5.33301 9.13926 5.33301 7.6665" stroke="#A2A2BA" stroke-width="1.5" stroke-linecap="round"/>
</svg>
