<svg width="16" height="16" viewBox="0 0 16 16" fill="none" xmlns="http://www.w3.org/2000/svg">
    <path d="M10.667 10.667a.667.667 0 0 0-.667.667v.001c0 .368.299.667.667.667h.001a.667.667 0 0 0 .667-.667v-.001a.667.667 0 0 0-.667-.667h-.001zM7.333 11.334c0-.368.299-.667.667-.667h.001c.369 0 .667.299.667.667v.001a.667.667 0 0 1-.667.667H8a.667.667 0 0 1-.667-.667v-.001zM5.333 10.667a.667.667 0 0 0-.666.667v.001c0 .368.298.667.666.667h.002A.667.667 0 0 0 6 11.335v-.001a.667.667 0 0 0-.666-.667h-.002zM10 8.667c0-.368.299-.666.667-.666h.001c.368 0 .667.298.667.666v.002a.667.667 0 0 1-.667.666h-.001A.667.667 0 0 1 10 8.67v-.002zM8 8a.667.667 0 0 0-.667.667v.002c0 .368.299.666.667.666h.001a.667.667 0 0 0 .667-.666v-.002a.667.667 0 0 0-.667-.666H8zM4.667 8.667c0-.368.298-.666.666-.666h.002c.368 0 .666.298.666.666v.002a.667.667 0 0 1-.666.666h-.002a.667.667 0 0 1-.666-.666v-.002z" fill="#8C8C8C"/>
    <path fill-rule="evenodd" clip-rule="evenodd" d="M10.667 1.334c.368 0 .666.298.666.667v.666h1.334c.736 0 1.333.597 1.333 1.334v9.333c0 .736-.597 1.333-1.333 1.333H3.333A1.333 1.333 0 0 1 2 13.334V4.001c0-.737.597-1.334 1.333-1.334h1.334v-.666A.667.667 0 1 1 6 2v.666h4v-.666c0-.369.299-.667.667-.667zM3.333 4.001v1.333h9.334V4.001H3.333zm0 2.666h9.334v6.667H3.333V6.667z" fill="#8C8C8C"/>
</svg>
