<svg width="96" height="32" viewBox="0 0 96 32" fill="none" xmlns="http://www.w3.org/2000/svg">
    <path d="m24.81 16 4.1-4.89a.124.124 0 0 0-.095-.204H27.57a.255.255 0 0 0-.193.09l-3.382 4.032-3.383-4.033a.25.25 0 0 0-.192-.089h-1.247a.124.124 0 0 0-.096.205L23.178 16l-4.102 4.89a.124.124 0 0 0 .096.204h1.247a.255.255 0 0 0 .192-.09l3.383-4.032 3.382 4.033a.25.25 0 0 0 .193.089h1.247a.124.124 0 0 0 .095-.205L24.809 16zM45.362 11.018c1.232 0 2.254.317 3.066.952.812.635 1.349 1.498 1.61 2.59h-2.072a2.696 2.696 0 0 0-1.008-1.26c-.448-.308-.99-.462-1.624-.462-.523 0-.994.13-1.414.392-.42.261-.747.635-.98 1.12-.233.485-.35 1.055-.35 1.708 0 .644.117 1.209.35 1.694.233.485.56.859.98 1.12.42.261.891.392 1.414.392.635 0 1.176-.154 1.624-.462a2.696 2.696 0 0 0 1.008-1.26h2.072c-.261 1.092-.798 1.955-1.61 2.59-.812.635-1.834.952-3.066.952-.943 0-1.778-.21-2.506-.63a4.446 4.446 0 0 1-1.68-1.792c-.392-.765-.588-1.633-.588-2.604 0-.98.196-1.853.588-2.618a4.35 4.35 0 0 1 1.68-1.778c.719-.43 1.554-.644 2.506-.644zm8.131-.378V21h-1.974V10.64h1.974zm5.37 2.506c.756 0 1.432.159 2.03.476a3.46 3.46 0 0 1 1.428 1.386c.345.597.518 1.302.518 2.114 0 .812-.173 1.517-.518 2.114a3.58 3.58 0 0 1-1.428 1.386c-.598.317-1.274.476-2.03.476-.756 0-1.438-.159-2.044-.476a3.605 3.605 0 0 1-1.414-1.386c-.346-.597-.518-1.302-.518-2.114 0-.812.172-1.517.518-2.114a3.483 3.483 0 0 1 1.414-1.386c.606-.317 1.288-.476 2.044-.476zm0 1.708c-.55 0-1.017.196-1.4.588-.383.383-.574.943-.574 1.68s.191 1.302.574 1.694c.383.383.85.574 1.4.574.55 0 1.017-.191 1.4-.574.383-.392.574-.957.574-1.694s-.192-1.297-.574-1.68a1.882 1.882 0 0 0-1.4-.588zm8.045-1.708c.943 0 1.699.238 2.268.714.57.476.924 1.11 1.064 1.904h-1.848a1.537 1.537 0 0 0-.504-.896c-.261-.224-.602-.336-1.022-.336-.336 0-.597.08-.784.238-.187.159-.28.373-.28.644 0 .215.075.387.224.518.15.13.336.233.56.308.224.075.546.163.966.266.588.13 1.064.27 1.428.42.373.14.69.369.952.686.27.308.406.728.406 1.26 0 .663-.261 1.2-.784 1.61-.513.41-1.209.616-2.086.616-1.008 0-1.815-.224-2.422-.672-.607-.457-.975-1.106-1.106-1.946h1.89c.047.383.215.686.504.91.29.215.667.322 1.134.322.336 0 .593-.08.77-.238a.848.848 0 0 0 .266-.644.694.694 0 0 0-.238-.546c-.15-.14-.34-.247-.574-.322a13.08 13.08 0 0 0-.966-.266c-.579-.13-1.05-.261-1.414-.392a2.372 2.372 0 0 1-.924-.658c-.252-.299-.378-.71-.378-1.232 0-.672.257-1.218.77-1.638.513-.42 1.223-.63 2.128-.63zm12.194 3.682c0 .196-.023.42-.07.672h-5.684c.028.69.215 1.2.56 1.526.345.327.775.49 1.288.49.457 0 .835-.112 1.134-.336.308-.224.504-.527.588-.91h2.086a3.338 3.338 0 0 1-.658 1.456c-.336.43-.77.765-1.302 1.008a4.106 4.106 0 0 1-1.75.364c-.756 0-1.428-.159-2.016-.476a3.442 3.442 0 0 1-1.372-1.386c-.327-.597-.49-1.302-.49-2.114 0-.812.163-1.517.49-2.114a3.33 3.33 0 0 1 1.372-1.386c.588-.317 1.26-.476 2.016-.476.765 0 1.433.159 2.002.476a3.283 3.283 0 0 1 1.33 1.316c.317.55.476 1.18.476 1.89zm-1.988-.196c.028-.635-.14-1.115-.504-1.442-.355-.327-.793-.49-1.316-.49-.532 0-.98.163-1.344.49-.364.327-.565.807-.602 1.442h3.766zM8 1h80v-2H8v2zm87 7v16h2V8h-2zm-7 23H8v2h80v-2zM1 24V8h-2v16h2zm7 7a7 7 0 0 1-7-7h-2a9 9 0 0 0 9 9v-2zm87-7a7 7 0 0 1-7 7v2a9 9 0 0 0 9-9h-2zM88 1a7 7 0 0 1 7 7h2a9 9 0 0 0-9-9v2zM8-1a9 9 0 0 0-9 9h2a7 7 0 0 1 7-7v-2z" fill="#4E1C95"/>
</svg>
