<svg width="168" height="157" viewBox="0 0 168 157" fill="none" xmlns="http://www.w3.org/2000/svg">
<path d="M121.377 42.7605C130.668 37.5992 130.802 27.6559 123.267 17.6602C115.813 23.9929 111.971 35.9386 121.377 42.7605Z" fill="#4E1C95"/>
<path d="M34.0828 102.673C23.2617 96.8828 13.5247 102.975 8.53711 116.542C19.3482 119.816 33.3468 116.072 34.0828 102.673Z" fill="#4E1C95"/>
<path d="M37.3685 102.069C39.8798 81.5377 24.3705 69.9588 0 70.4029C1.43965 89.3826 15.8561 109.086 37.3685 102.069Z" fill="#5D34B7"/>
<path d="M37.368 102.38C37.3031 102.38 37.237 102.36 37.1808 102.318C34.0158 99.9326 29.0706 95.4987 23.8347 90.804C17.4973 85.1212 10.3128 78.6799 4.57037 74.3133C4.43314 74.2098 4.40694 74.0139 4.51049 73.8766C4.61528 73.7407 4.80989 73.7132 4.94712 73.8168C10.7107 78.1983 17.904 84.6484 24.2514 90.3399C29.4773 95.0258 34.4125 99.451 37.5563 101.82C37.6936 101.924 37.721 102.12 37.6175 102.257C37.5563 102.338 37.4628 102.38 37.368 102.38Z" fill="#4E1C95"/>
<path d="M121.02 66.5069C112.631 47.6009 124.088 32.001 147.528 25.3164C151.687 43.8906 143.644 66.9436 121.02 66.5069Z" fill="#5D34B7"/>
<path d="M121.021 66.8173C120.957 66.8173 120.892 66.7973 120.837 66.7574C120.698 66.6563 120.668 66.4605 120.769 66.322C123.084 63.1394 126.515 57.4653 130.148 51.4594C134.559 44.1647 139.558 35.8969 143.792 30.0245C143.893 29.8848 144.088 29.8524 144.227 29.9534C144.367 30.0545 144.398 30.2491 144.298 30.3888C140.078 36.2413 135.087 44.4966 130.682 51.7813C127.043 57.7997 123.606 63.4837 121.274 66.6888C121.213 66.7724 121.118 66.8173 121.021 66.8173Z" fill="#4E1C95"/>
<path d="M46.3174 81.1488C49.6696 77.8926 55.2523 67.1359 48.1326 59.7913C44.9102 56.4664 43.8698 55.784 42.0072 55.8526C40.7946 55.8975 39.7966 56.55 39.0069 55.8102C37.5648 54.4553 42.631 49.0557 37.8654 43.6375C33.0999 38.2192 28.469 40.7019 27.1978 39.2235C25.9266 37.7451 27.5259 35.1376 24.4919 33.5045C21.4567 31.8702 18.6747 36.8031 14.4842 35.2411C10.1253 33.618 2.30457 32.5251 0.762618 36.6634C-0.77933 40.8004 2.64888 41.8883 3.51592 44.7865C4.38295 47.6859 1.13688 55.774 7.57538 58.1719C13.974 60.5561 16.6948 60.5024 16.7135 69.0522C16.7323 77.6032 23.9068 82.2854 28.0748 81.8911C32.2428 81.4969 30.9965 83.5766 28.7634 84.5972C26.5291 85.6177 29.6791 87.7024 32.7381 87.5864C35.797 87.4691 42.1095 85.2359 46.3174 81.1488Z" fill="#6C49CE"/>
<path d="M47.3764 83.5536C47.2542 83.5536 47.1382 83.4812 47.0883 83.3615C38.1372 61.9939 20.8913 47.18 7.73613 40.4417C7.58269 40.3631 7.52281 40.1748 7.60015 40.0213C7.67875 39.8678 7.86712 39.808 8.02057 39.8853C21.2743 46.6747 38.6487 61.5972 47.6646 83.1207C47.7307 83.2791 47.6559 83.4625 47.4974 83.5286C47.4575 83.5461 47.4164 83.5536 47.3764 83.5536Z" fill="#4E1C95"/>
<path d="M18.8188 47.3707C18.81 47.3707 18.8013 47.3707 18.7926 47.3694C18.6204 47.3557 18.4931 47.2047 18.5069 47.0338C18.5979 45.9035 19.576 41.3386 21.1766 39.0068C21.2739 38.8646 21.4685 38.8284 21.6107 38.9257C21.753 39.023 21.7891 39.2176 21.6918 39.3599C20.1811 41.5619 19.2155 46.0295 19.1294 47.0837C19.1157 47.2472 18.9797 47.3707 18.8188 47.3707Z" fill="#4E1C95"/>
<path d="M9.70003 47.9673C9.59898 47.9673 9.50043 47.9186 9.44054 47.8276C9.34573 47.6841 9.38441 47.4907 9.52787 47.3947C10.5596 46.7097 14.2797 45.0168 15.9888 44.7498C16.1572 44.7236 16.3182 44.8396 16.3456 45.0093C16.3718 45.179 16.2558 45.3386 16.0861 45.3661C14.4806 45.6181 10.8428 47.2712 9.87344 47.9149C9.81979 47.9511 9.75991 47.9673 9.70003 47.9673Z" fill="#4E1C95"/>
<path d="M29.6244 56.9226C29.4522 56.9226 29.3125 56.7828 29.3125 56.6107C29.3125 55.4142 29.3137 51.775 32.364 47.4146C32.4625 47.2737 32.6571 47.2387 32.7981 47.3373C32.9391 47.4359 32.974 47.6305 32.8754 47.7715C30.2432 51.5354 29.9375 54.6195 29.9363 56.6107C29.9363 56.7828 29.7965 56.9226 29.6244 56.9226Z" fill="#4E1C95"/>
<path d="M17.03 55.5375C16.9115 55.5375 16.7992 55.4702 16.7468 55.3554C16.6757 55.1982 16.7443 55.0136 16.9003 54.9424C18.9824 53.9905 24.0012 52.2477 25.6218 52.3737C25.7939 52.3874 25.9224 52.5371 25.9087 52.708C25.895 52.8802 25.7403 53.0062 25.5743 52.995C24.1048 52.8814 19.2394 54.5582 17.1598 55.5088C17.1173 55.5276 17.0737 55.5375 17.03 55.5375Z" fill="#4E1C95"/>
<path d="M30.459 67.7033C30.3405 67.7033 30.2282 67.6359 30.1746 67.5211C30.1034 67.3639 30.1721 67.1793 30.328 67.1082C30.6124 66.9784 30.9168 66.8325 31.2362 66.6778C32.9017 65.8756 34.9738 64.8787 36.9512 64.875C37.1233 64.875 37.263 65.0147 37.263 65.1869C37.263 65.3591 37.1246 65.4988 36.9512 65.4988C35.1148 65.5025 33.1137 66.4657 31.5057 67.2404C31.1826 67.3964 30.8744 67.5436 30.5875 67.6758C30.5463 67.6946 30.5027 67.7033 30.459 67.7033Z" fill="#4E1C95"/>
<path d="M40.5923 70.7077C40.4388 70.7077 40.3041 70.5942 40.2842 70.437C39.9947 68.2537 40.9491 64.1466 42.4137 61.2797C42.4923 61.1262 42.6794 61.0651 42.8329 61.1437C42.9863 61.2223 43.0475 61.4094 42.9689 61.5629C41.5542 64.3338 40.6272 68.2787 40.9029 70.3547C40.9254 70.5256 40.8056 70.6828 40.6347 70.7052C40.6197 70.7077 40.606 70.7077 40.5923 70.7077Z" fill="#4E1C95"/>
<path d="M128.478 92.3244C129.828 93.6555 147.523 91.3612 147.307 87.9478C147.138 85.2904 144.315 85.4102 143.294 85.5337C141.685 85.7296 137.845 86.4519 137.888 85.238C137.968 83.041 147.914 82.4534 150.328 82.1602C152.742 81.867 157.35 80.6431 158.516 78.2191C159.683 75.795 159.877 74.6772 155.681 75.4245C151.485 76.1705 143.404 78.6732 145.012 76.0046C146.619 73.336 153.343 72.8544 157.095 71.1627C160.847 69.4709 167.414 64.9771 164.772 63.3827C162.409 61.9579 152.154 68.4804 151.898 66.3707C151.694 64.6839 155.141 63.9803 159.857 61.3154C164.574 58.6518 168.999 56.088 167.675 53.1387C166.61 50.7708 163.951 53.115 161.389 54.5198C158.828 55.9233 155.187 57.7448 155.41 56.1005C155.635 54.4562 168.823 48.7996 167.956 44.5927C167.383 41.8093 164.954 43.9103 161.881 45.3762C158.81 46.8421 157.619 47.1291 157.533 46.4267C157.449 45.7243 161.272 43.0731 163.409 41.6721C165.547 40.271 168.135 37.5326 166.9 35.494C165.663 33.4567 162.47 36.0554 161.513 37.2893C160.555 38.5232 159.118 39.2917 158.753 39.0035C158.388 38.7153 161.258 34.4186 158.815 33.2883C156.369 32.1579 154.027 36.532 154.35 39.2031C154.674 41.8742 155.018 45.4947 154.044 45.6132C153.07 45.7305 152.694 42.639 152.399 40.2012C152.103 37.7634 151.429 36.8626 150.779 36.9425C148.614 37.2045 147.171 40.5979 147.388 42.3782C147.604 44.1598 150.114 53.9846 148.676 54.1592C147.236 54.3339 146.684 50.5487 146.445 48.58C146.207 46.6113 145.651 42.0189 143.237 42.3121C140.823 42.604 140.273 48.9493 140.96 52.6696C141.647 56.3912 143.215 62.336 142.101 62.4707C140.987 62.6054 138.928 58.0517 138.638 55.6626C138.349 53.2722 139.039 48.8607 136.067 49.2213C133.095 49.5818 132.935 53.3046 133.505 57.9968C133.743 59.9581 134.38 64.8062 136.348 67.239C138.588 70.0087 139.251 71.7565 138.632 72.3092C137.399 73.4096 135.753 70.7086 135.017 68.5153C134.279 66.322 132.401 59.3679 129.217 61.0859C126.033 62.8038 128.974 68.0113 129.948 70.2233C130.922 72.4365 135.034 79.927 133.401 80.8378C131.769 81.7485 130.654 77.2235 130.16 75.8561C129.665 74.49 127.736 71.9898 126.901 73.0653C126.062 74.1419 126.071 89.9514 128.478 92.3244Z" fill="#6C49CE"/>
<path d="M90.3155 31.0279C90.2905 31.0279 90.2643 31.0254 90.2394 31.0179C90.0722 30.9755 89.9712 30.8058 90.0136 30.6386C91.3547 25.3176 94.4959 12.8567 106.029 2.19599C106.155 2.07997 106.352 2.08621 106.47 2.21346C106.587 2.33947 106.578 2.53784 106.452 2.65386C95.0548 13.1898 91.946 25.5247 90.6174 30.7921C90.5824 30.9343 90.4552 31.0279 90.3155 31.0279Z" fill="#4E1C95"/>
<path d="M105.574 9.66195C105.535 9.66195 105.496 9.65446 105.458 9.63949C103.1 8.68758 101.058 8.90092 100.528 9.05063C100.362 9.09804 100.19 9.00073 100.142 8.8348C100.096 8.66887 100.192 8.4967 100.358 8.44929C100.983 8.27213 103.159 8.03758 105.691 9.05936C105.851 9.12424 105.928 9.30514 105.864 9.46483C105.815 9.58834 105.698 9.66195 105.574 9.66195Z" fill="#807DFB"/>
<path d="M101.552 7.67804C101.384 7.67804 101.246 7.54455 101.24 7.37612C101.187 5.75924 100.951 3.52979 100.56 2.45312C100.501 2.29093 100.585 2.11252 100.747 2.05389C100.909 1.99525 101.087 2.07884 101.146 2.24103C101.623 3.551 101.821 6.07363 101.863 7.35616C101.87 7.52833 101.734 7.67305 101.562 7.67804C101.559 7.67804 101.555 7.67804 101.552 7.67804Z" fill="#4E1C95"/>
<path d="M97.1603 13.853C96.9919 13.853 96.8534 13.7195 96.8484 13.5498C96.8147 12.3109 96.297 9.61239 95.8079 8.92746C95.7081 8.78773 95.7405 8.5931 95.8803 8.49205C96.02 8.39099 96.2146 8.42468 96.3157 8.56441C96.9282 9.42151 97.4397 12.3396 97.4722 13.5323C97.4772 13.7045 97.3412 13.848 97.169 13.853C97.1665 13.853 97.1628 13.853 97.1603 13.853Z" fill="#4E1C95"/>
<path d="M95.7177 16.3847C95.6079 16.3847 95.5006 16.3261 95.4445 16.2225C95.3622 16.0716 95.417 15.8819 95.568 15.7996C95.6503 15.7547 95.7402 15.7023 95.8375 15.6461C96.8367 15.0672 98.698 13.9893 101.435 14.9175C101.599 14.9724 101.686 15.1496 101.63 15.313C101.575 15.4765 101.398 15.5638 101.234 15.5076C98.7654 14.6693 97.1274 15.6187 96.1493 16.1851C96.047 16.245 95.9522 16.2986 95.8674 16.346C95.82 16.3722 95.7676 16.3847 95.7177 16.3847Z" fill="#807DFB"/>
<path d="M93.6408 20.7572C93.4773 20.7572 93.3401 20.6312 93.3301 20.4653L93.3089 20.1185C93.2278 18.7287 93.1156 16.8248 91.8418 16.206C91.6871 16.1312 91.6223 15.944 91.6971 15.7893C91.772 15.6334 91.9591 15.5698 92.1138 15.6446C93.7169 16.4244 93.8404 18.5378 93.9302 20.081L93.9514 20.4229C93.9626 20.5951 93.8329 20.7435 93.6607 20.7547C93.6545 20.7572 93.6483 20.7572 93.6408 20.7572Z" fill="#4E1C95"/>
<path d="M92.8259 22.8076C92.7311 22.8076 92.6376 22.7652 92.5764 22.6841C92.4729 22.5468 92.5003 22.351 92.6376 22.2474C93.7217 21.4302 95.069 20.4135 97.7462 20.774C97.9172 20.7977 98.0369 20.9537 98.0132 21.1246C97.9895 21.2955 97.8323 21.414 97.6627 21.3916C95.2412 21.0647 94.0573 21.958 93.0131 22.7452C92.9569 22.7864 92.8908 22.8076 92.8259 22.8076Z" fill="#4E1C95"/>
<path d="M91.8376 25.6301C91.6979 25.6301 91.5706 25.5353 91.5357 25.3931C91.0928 23.6003 90.2121 22.1131 89.3438 21.6902C89.1891 21.6153 89.1242 21.4282 89.1991 21.2735C89.2739 21.1188 89.4611 21.0539 89.6158 21.1288C90.8808 21.7438 91.749 23.6564 92.1408 25.2421C92.1819 25.4093 92.0796 25.5789 91.9125 25.6201C91.8875 25.6264 91.8626 25.6301 91.8376 25.6301Z" fill="#4E1C95"/>
<path d="M90.5703 30.0183C90.4917 30.0183 90.4132 29.9884 90.352 29.9297C90.2285 29.81 90.226 29.6116 90.347 29.4881C91.1579 28.6559 93.3124 26.7795 95.78 27.301C95.9484 27.3372 96.0557 27.5019 96.0208 27.6703C95.9846 27.8388 95.8187 27.946 95.6515 27.9111C93.4858 27.452 91.5334 29.1649 90.7936 29.9235C90.7325 29.9871 90.6514 30.0183 90.5703 30.0183Z" fill="#4E1C95"/>
<path d="M108.561 1.76656C108.717 0.961862 108.192 0.183364 107.388 0.0274144C106.583 -0.128535 105.804 0.396702 105.649 1.20015C105.493 2.00485 106.018 2.78335 106.822 2.9393C107.626 3.09649 108.404 2.57126 108.561 1.76656Z" fill="#9F9CFF"/>
<path d="M101.982 2.34574C102.102 1.72943 101.699 1.13308 101.084 1.01331C100.468 0.893539 99.8713 1.29526 99.7515 1.91157C99.6318 2.52789 100.035 3.12424 100.65 3.244C101.266 3.36377 101.864 2.96205 101.982 2.34574Z" fill="#9F9CFF"/>
<path d="M107.326 9.791C107.446 9.17469 107.043 8.57834 106.428 8.45857C105.811 8.3388 105.215 8.74178 105.095 9.35684C104.976 9.97315 105.378 10.5695 105.995 10.6893C106.61 10.809 107.206 10.4073 107.326 9.791Z" fill="#9F9CFF"/>
<path d="M96.7107 8.45506C96.8305 7.83875 96.4275 7.2424 95.8125 7.12263C95.1962 7.00286 94.5998 7.40584 94.4801 8.02215C94.3603 8.63846 94.7633 9.23481 95.3783 9.35458C95.9946 9.47435 96.5909 9.07138 96.7107 8.45506Z" fill="#9F9CFF"/>
<path d="M99.2009 21.1074C99.3207 20.4911 98.9177 19.8947 98.3027 19.775C97.6864 19.6552 97.0901 20.0582 96.9703 20.6745C96.8505 21.2908 97.2535 21.8872 97.8698 22.0069C98.4848 22.1254 99.0811 21.7237 99.2009 21.1074Z" fill="#9F9CFF"/>
<path d="M90.1025 21.2637C90.2223 20.6474 89.8193 20.051 89.2031 19.9313C88.5868 19.8115 87.9904 20.2132 87.8707 20.8295C87.7509 21.4459 88.1539 22.0422 88.7702 22.162C89.3864 22.2818 89.9828 21.88 90.1025 21.2637Z" fill="#9F9CFF"/>
<path d="M102.696 15.6161C102.831 14.9249 102.379 14.2562 101.688 14.1214C100.997 13.9867 100.328 14.4383 100.194 15.1295C100.059 15.8207 100.511 16.4894 101.202 16.6241C101.893 16.7576 102.562 16.306 102.696 15.6161Z" fill="#9F9CFF"/>
<path d="M92.9638 15.827C93.0985 15.1358 92.6469 14.4671 91.9558 14.3324C91.2647 14.1976 90.596 14.6493 90.4613 15.3404C90.3265 16.0316 90.7781 16.7003 91.4693 16.835C92.1604 16.9698 92.8291 16.5182 92.9638 15.827Z" fill="#9F9CFF"/>
<path d="M97.5729 28.0571C97.7064 27.3659 97.256 26.6972 96.5649 26.5625C95.8737 26.429 95.205 26.8794 95.0703 27.5705C94.9368 28.2617 95.3872 28.9317 96.0783 29.0652C96.7695 29.1999 97.4394 28.7483 97.5729 28.0571Z" fill="#9F9CFF"/>
<path d="M65.4011 43.5044C65.426 43.5044 65.4522 43.5019 65.4772 43.4944C65.6444 43.452 65.7454 43.2824 65.703 43.1152C64.3619 37.7942 61.2206 25.3332 49.6872 14.6726C49.5612 14.5565 49.3641 14.5628 49.2468 14.69C49.1296 14.816 49.1383 15.0144 49.2643 15.1304C60.6617 25.6663 63.7706 38.0013 65.0992 43.2686C65.1341 43.4109 65.2614 43.5044 65.4011 43.5044Z" fill="#4E1C95"/>
<path d="M50.1405 22.1385C50.1792 22.1385 50.2191 22.131 50.2565 22.116C52.6144 21.1641 54.6566 21.3775 55.1868 21.5272C55.3527 21.5746 55.5249 21.4773 55.5723 21.3114C55.6184 21.1454 55.5224 20.9733 55.3565 20.9259C54.7314 20.7487 52.5557 20.5141 50.0232 21.5359C49.8636 21.6008 49.7862 21.7817 49.8511 21.9414C49.8997 22.0649 50.017 22.1385 50.1405 22.1385Z" fill="#807DFB"/>
<path d="M54.1637 20.1546C54.3308 20.1546 54.4693 20.0211 54.4755 19.8527C54.5279 18.2358 54.7637 16.0064 55.1554 14.9297C55.2141 14.7675 55.1305 14.5891 54.9683 14.5304C54.8061 14.4718 54.6277 14.5554 54.5691 14.7176C54.0925 16.0276 53.8942 18.5502 53.8518 19.8327C53.8455 20.0049 53.9815 20.1496 54.1537 20.1546C54.1574 20.1546 54.1599 20.1546 54.1637 20.1546Z" fill="#4E1C95"/>
<path d="M58.5581 26.3295C58.7265 26.3295 58.865 26.196 58.87 26.0263C58.9037 24.7875 59.4214 22.0889 59.9104 21.404C60.0102 21.2643 59.9778 21.0697 59.8381 20.9686C59.6984 20.8676 59.5037 20.9012 59.4027 21.041C58.7902 21.8981 58.2787 24.8162 58.2462 26.0089C58.2412 26.1811 58.3772 26.3245 58.5494 26.3295C58.5519 26.3295 58.5556 26.3295 58.5581 26.3295Z" fill="#4E1C95"/>
<path d="M59.9955 28.8613C60.1052 28.8613 60.2125 28.8026 60.2687 28.6991C60.351 28.5481 60.2961 28.3585 60.1452 28.2761C60.0628 28.2312 59.973 28.1788 59.8757 28.1227C58.8764 27.5438 57.0151 26.4659 54.278 27.3941C54.1146 27.449 54.0273 27.6261 54.0834 27.7896C54.1383 27.953 54.3155 28.0403 54.4789 27.9855C56.9477 27.1471 58.5858 28.0965 59.5638 28.6629C59.6661 28.7228 59.7609 28.7764 59.8458 28.8238C59.8944 28.8488 59.9456 28.8613 59.9955 28.8613Z" fill="#807DFB"/>
<path d="M62.075 33.2338C62.2384 33.2338 62.3756 33.1078 62.3856 32.9419L62.4068 32.595C62.4879 31.2052 62.6002 29.3014 63.8739 28.6826C64.0286 28.6077 64.0935 28.4206 64.0186 28.2659C63.9437 28.1099 63.7566 28.0463 63.6019 28.1212C61.9989 28.9009 61.8754 31.0143 61.7856 32.5576L61.7643 32.8995C61.7531 33.0716 61.8829 33.2201 62.055 33.2313C62.0613 33.2338 62.0675 33.2338 62.075 33.2338Z" fill="#4E1C95"/>
<path d="M62.8914 35.2841C62.9862 35.2841 63.0798 35.2417 63.1409 35.1606C63.2445 35.0234 63.217 34.8275 63.0798 34.724C61.9957 33.9068 60.6483 32.89 57.9711 33.2506C57.8002 33.2743 57.6805 33.4302 57.7042 33.6011C57.7279 33.7721 57.8851 33.8906 58.0547 33.8681C60.4762 33.5413 61.6601 34.4345 62.7043 35.2218C62.7592 35.2629 62.8253 35.2841 62.8914 35.2841Z" fill="#4E1C95"/>
<path d="M63.8787 38.1067C64.0184 38.1067 64.1456 38.0118 64.1806 37.8696C64.6234 36.0768 65.5042 34.5897 66.3725 34.1667C66.5272 34.0919 66.592 33.9048 66.5172 33.7501C66.4423 33.5953 66.2552 33.5305 66.1005 33.6053C64.8355 34.2204 63.9672 36.133 63.5755 37.7187C63.5343 37.8858 63.6366 38.0555 63.8038 38.0967C63.8288 38.1029 63.8537 38.1067 63.8787 38.1067Z" fill="#4E1C95"/>
<path d="M65.1426 42.4949C65.2212 42.4949 65.2998 42.4649 65.3609 42.4063C65.4844 42.2865 65.4869 42.0882 65.3659 41.9646C64.555 41.1325 62.4005 39.2561 59.9329 39.7776C59.7645 39.8138 59.6572 39.9785 59.6921 40.1469C59.7283 40.3153 59.8942 40.4226 60.0614 40.3877C62.2271 39.9286 64.1795 41.6415 64.9193 42.4001C64.9804 42.4637 65.0615 42.4949 65.1426 42.4949Z" fill="#4E1C95"/>
<path d="M47.1563 14.2431C47.0004 13.4384 47.5256 12.6599 48.3303 12.504C49.1349 12.348 49.9134 12.8733 50.0693 13.6767C50.2253 14.4814 49.7001 15.2599 48.8966 15.4159C48.0907 15.5731 47.3123 15.0478 47.1563 14.2431Z" fill="#9F9CFF"/>
<path d="M53.734 14.8223C53.6142 14.206 54.0172 13.6096 54.6322 13.4899C55.2485 13.3701 55.8448 13.7718 55.9646 14.3881C56.0843 15.0045 55.6814 15.6008 55.0663 15.7206C54.4501 15.8403 53.8537 15.4386 53.734 14.8223Z" fill="#9F9CFF"/>
<path d="M48.3883 22.2676C48.2685 21.6513 48.6715 21.0549 49.2865 20.9351C49.9028 20.8154 50.4991 21.2183 50.6188 21.8334C50.7386 22.4497 50.3357 23.0461 49.7194 23.1658C49.1043 23.2856 48.508 22.8839 48.3883 22.2676Z" fill="#9F9CFF"/>
<path d="M59.0054 20.9316C58.8857 20.3153 59.2886 19.719 59.9037 19.5992C60.52 19.4794 61.1163 19.8824 61.236 20.4987C61.3558 21.115 60.9541 21.7114 60.3378 21.8311C59.7215 21.9509 59.1252 21.5479 59.0054 20.9316Z" fill="#9F9CFF"/>
<path d="M56.5133 33.584C56.3935 32.9677 56.7965 32.3713 57.4115 32.2515C58.0278 32.1318 58.6241 32.5347 58.7439 33.1498C58.8636 33.7661 58.4607 34.3625 57.8444 34.4822C57.2293 34.602 56.633 34.2003 56.5133 33.584Z" fill="#9F9CFF"/>
<path d="M65.6109 33.7403C65.4912 33.124 65.8941 32.5276 66.5104 32.4078C67.1267 32.2881 67.723 32.6898 67.8428 33.3061C67.9625 33.9224 67.5596 34.5188 66.9433 34.6385C66.327 34.7583 65.7307 34.3566 65.6109 33.7403Z" fill="#9F9CFF"/>
<path d="M53.0199 28.0926C52.8851 27.4014 53.3367 26.7327 54.0279 26.598C54.719 26.4633 55.3877 26.9149 55.5224 27.6061C55.6571 28.2972 55.2055 28.9659 54.5144 29.1007C53.8233 29.2342 53.1546 28.7825 53.0199 28.0926Z" fill="#9F9CFF"/>
<path d="M62.7523 28.3036C62.6176 27.6124 63.0692 26.9437 63.7603 26.8089C64.4514 26.6742 65.1201 27.1258 65.2548 27.817C65.3896 28.5082 64.938 29.1769 64.2468 29.3116C63.5557 29.4463 62.8858 28.9947 62.7523 28.3036Z" fill="#9F9CFF"/>
<path d="M58.1426 40.534C58.0091 39.8429 58.4594 39.1741 59.1506 39.0394C59.8417 38.9047 60.5104 39.3563 60.6451 40.0475C60.7786 40.7386 60.3282 41.4086 59.6371 41.5421C58.946 41.6768 58.2761 41.2252 58.1426 40.534Z" fill="#9F9CFF"/>
<path d="M86.9544 156.801C127.969 156.801 161.217 154.887 161.217 152.526C161.217 150.164 127.969 148.25 86.9544 148.25C45.9401 148.25 12.6914 150.164 12.6914 152.526C12.6914 154.887 45.9401 156.801 86.9544 156.801Z" fill="#E9EDF7"/>
<path d="M140.158 152.525H33.7552C31.6681 152.525 29.9752 150.833 29.9752 148.744L29.9727 89.0558L143.937 89.0508V148.744C143.937 150.832 142.245 152.525 140.158 152.525Z" fill="#FCBA06"/>
<path d="M29.9727 89.0539L84.0644 45.7262C85.7548 44.3725 88.1575 44.3725 89.8467 45.7262L143.936 89.0576L29.9727 89.0539Z" fill="#FFD03E"/>
<path d="M29.9727 89.0545L83.9795 134.447C85.6999 135.893 88.2111 135.893 89.9315 134.447L143.937 89.0508L86.9574 89.0583L29.9727 89.0545Z" fill="#ED9F00"/>
<path d="M118.671 28.75H35.2715V54.4379H118.671V28.75Z" fill="#E9EDF7"/>
<path d="M83.9785 134.45C85.6989 135.896 88.2101 135.896 89.9305 134.45L128.654 101.899V39.9805H45.2539V101.901L83.9785 134.45Z" fill="#F6F6FB"/>
<path d="M83.9785 129.927L45.2539 97.3787V101.901L83.9785 134.448C85.6989 135.894 88.2101 135.894 89.9305 134.448L128.654 101.898V97.375L89.9305 129.926C88.2101 131.373 85.6989 131.373 83.9785 129.927Z" fill="#DDE2F8"/>
<path d="M35.2715 54.4401L45.2517 39.9805V54.4401H35.2715Z" fill="#CED3F8"/>
<path d="M98.2475 102.172C104.484 95.9348 104.484 85.823 98.2475 79.5862C92.011 73.3494 81.8997 73.3494 75.6632 79.5862C69.4268 85.823 69.4268 95.9348 75.6632 102.172C81.8997 108.408 92.011 108.408 98.2475 102.172Z" stroke="#CED3F8" stroke-width="10" stroke-miterlimit="10"/>
<path d="M86.9549 96.213C86.7154 96.213 86.4758 96.1219 86.2937 95.9385L78.6863 88.3307C78.3207 87.9651 78.3207 87.3725 78.6863 87.007C79.0518 86.6414 79.6444 86.6414 80.0099 87.007L86.9561 93.9536L101.51 79.3992C101.875 79.0336 102.468 79.0336 102.833 79.3992C103.199 79.7647 103.199 80.3573 102.833 80.7229L87.6173 95.9385C87.4339 96.1207 87.1944 96.213 86.9549 96.213Z" fill="#4E1C95"/>
<path d="M79.4346 54.9698C80.2205 54.1839 80.2205 52.9098 79.4346 52.1239C78.6488 51.3381 77.3747 51.3381 76.5889 52.1239C75.8031 52.9098 75.8031 54.1839 76.5889 54.9698C77.3747 55.7557 78.6488 55.7557 79.4346 54.9698Z" fill="#BBC0E6"/>
<path d="M88.9193 53.9631C89.1467 52.8753 88.4492 51.8091 87.3614 51.5817C86.2736 51.3543 85.2075 52.0518 84.9801 53.1397C84.7527 54.2275 85.4502 55.2937 86.538 55.5211C87.6258 55.7485 88.6919 55.051 88.9193 53.9631Z" fill="#BBC0E6"/>
<path d="M97.1587 55.1097C98.0248 54.4132 98.1623 53.1464 97.4658 52.2803C96.7693 51.4142 95.5026 51.2767 94.6365 51.9732C93.7705 52.6697 93.633 53.9365 94.3295 54.8026C95.0259 55.6687 96.2926 55.8062 97.1587 55.1097Z" fill="#BBC0E6"/>
<path d="M111.187 61.0328H62.7175C62.3732 61.0328 62.0938 60.7533 62.0938 60.409C62.0938 60.0646 62.3732 59.7852 62.7175 59.7852H111.187C111.531 59.7852 111.81 60.0646 111.81 60.409C111.81 60.7533 111.531 61.0328 111.187 61.0328Z" fill="#CED3F8"/>
<path d="M103.848 65.2437H70.0632C69.7189 65.2437 69.4395 64.9642 69.4395 64.6199C69.4395 64.2756 69.7189 63.9961 70.0632 63.9961H103.848C104.192 63.9961 104.471 64.2756 104.471 64.6199C104.471 64.9642 104.192 65.2437 103.848 65.2437Z" fill="#CED3F8"/>
</svg>
