<svg width="69" height="100" viewBox="0 0 69 100" fill="none" xmlns="http://www.w3.org/2000/svg">
<path d="M5.77767 99.4589H49.391C52.2406 99.4589 54.5417 97.1406 54.5417 94.2997V23.8799C54.5417 21.0256 52.2272 18.7207 49.391 18.7207H5.77767C2.92808 18.7207 0.627011 21.039 0.627011 23.8799V94.2863C0.613633 97.1406 2.92808 99.4589 5.77767 99.4589Z" fill="#4E1C95"/>
<path d="M8.72097 99.4589H52.3343C55.1839 99.4589 57.485 97.1406 57.485 94.2997V23.8799C57.485 21.0256 55.1705 18.7207 52.3343 18.7207H8.72097C5.87139 18.7207 3.57031 21.039 3.57031 23.8799V94.2863C3.57031 97.1406 5.87139 99.4589 8.72097 99.4589Z" fill="url(#paint0_linear_6407_1231)"/>
<path d="M30.5276 97.0476C31.5546 97.0476 32.3871 96.2137 32.3871 95.1849C32.3871 94.1562 31.5546 93.3223 30.5276 93.3223C29.5005 93.3223 28.668 94.1562 28.668 95.1849C28.668 96.2137 29.5005 97.0476 30.5276 97.0476Z" fill="#17082D"/>
<path opacity="0.6" d="M7.8524 90.6387L68.2422 90.6387L68.2422 12.0579L7.8524 12.0579L7.8524 90.6387Z" fill="#E2E2EE"/>
<path d="M44.9134 11.964C45.0152 10.1091 43.9853 8.54423 42.613 8.46867C41.2408 8.39311 40.0459 9.8355 39.9441 11.6903C39.8423 13.5452 40.8722 15.1101 42.2444 15.1856C43.6166 15.2612 44.8116 13.8188 44.9134 11.964Z" fill="#17082D"/>
<path d="M44.2187 11.9277C44.3205 10.0728 43.4462 8.51649 42.2657 8.45149C41.0853 8.38649 40.0459 9.83744 39.9441 11.6923C39.8423 13.5471 40.7167 15.1035 41.8971 15.1685C43.0775 15.2335 44.1169 13.7825 44.2187 11.9277Z" fill="#17082D"/>
<path d="M44.1204 7.25001C44.0535 8.69727 43.5852 9.94352 43.0501 9.91672C42.4748 9.88992 41.6989 8.60346 41.7658 7.1428C41.8327 5.68214 42.1939 5.17292 43.0233 5.21312C43.8796 5.25333 44.1873 5.78935 44.1204 7.25001Z" fill="#17082D"/>
<path d="M28.5078 28.2084C28.5078 26.3323 32.8156 23.4512 35.5047 23.4512C39.264 23.4512 42.9029 25.6891 42.9029 28.3156C42.9029 30.9421 39.2774 32.9522 35.5047 32.9522C31.732 32.9656 28.5078 30.8349 28.5078 28.2084Z" fill="#4E1C95"/>
<path d="M53.9278 77.4291C53.5933 74.3738 50.7036 65.583 50.7036 65.583H29.4588L24.7764 70.4072L23.666 90.5616L54.2489 90.575C54.3693 85.59 54.3158 80.873 53.9278 77.4291Z" fill="#34175E"/>
<path d="M41.4727 30.6609L31.2383 30.6743L31.9072 22.1516L32.3487 12.5166L40.4693 21.0259L41.4727 30.6609Z" fill="url(#paint1_linear_6407_1231)"/>
<path d="M43.6259 11.7801C43.6392 12.6511 43.0372 13.3614 42.288 13.3748C41.5389 13.3882 40.9101 12.6913 40.8967 11.8337C40.8833 10.9627 41.4853 10.2524 42.2345 10.239C42.9837 10.2122 43.6125 10.9091 43.6259 11.7801Z" fill="url(#paint2_linear_6407_1231)"/>
<path d="M39.7736 21.8836C39.2117 21.897 38.2752 21.9104 37.526 21.9238C35.72 21.9506 33.7266 20.3693 33.3252 17.8366C33.1246 16.5636 32.7767 13.8031 32.7767 13.8031L31.9473 3.94027L43.4125 3.73926L43.0646 18.7613C43.0379 20.4765 41.5797 21.8568 39.7736 21.8836Z" fill="#FFD0CE"/>
<path d="M40.816 7.1963C38.1403 7.51791 36.5082 6.24486 33.7121 6.36547C31.8793 6.44587 30.8224 4.7708 31.09 3.48435C31.6786 0.643433 36.254 1.16605 38.0065 1.25986C42.2073 1.50107 43.8261 0.81764 44.7894 0.415624C45.2576 0.214616 45.766 0.549629 45.7526 1.05885C45.6322 5.28002 43.5585 6.86129 40.816 7.1963Z" fill="#17082D"/>
<path d="M33.1915 7.98751C32.8972 8.85855 33.0176 11.3912 32.2015 11.5521C31.3721 11.7129 29.459 10.9356 29.459 6.55365C29.459 4.94559 30.5426 2.26548 32.4557 3.00251C35.8271 4.28896 33.914 5.83002 33.1915 7.98751Z" fill="#17082D"/>
<path d="M41.8725 28.209C41.8725 28.209 38.4744 30.8489 32.4141 29.3748L35.5847 50.3065L34.9024 67.6468L35.1165 68.759L51.5317 67.6334L45.1368 42.8558L41.8725 28.209Z" fill="#E2E2EE"/>
<path d="M22.2598 29.7763L28.3335 26.4932L31.4239 27.6188L41.4711 52.4366V82.9362C41.4711 82.9362 37.0295 83.9011 36.7351 83.9011C36.4408 83.9011 22.2598 83.0434 22.2598 83.0434L24.5608 60.3027L23.3033 41.4884L22.2598 29.7763Z" fill="#9792E3"/>
<path d="M41.2578 25.4619L45.6192 46.675L49.3116 59.0571L49.9671 44.9195L50.8902 31.3314L41.2578 25.4619Z" fill="#9792E3"/>
<path d="M50.8893 31.3311C52.4412 31.8001 53.0432 35.1771 53.4981 38.4334C54.0867 42.534 54.9563 80.2967 54.9563 80.2967C54.9563 80.2967 51.6118 74.3871 50.7422 73.0738C50.1669 72.1894 49.5649 69.8845 49.4177 68.7723C48.2137 59.4857 47.8525 30.4065 50.8893 31.3311Z" fill="#9792E3"/>
<path d="M32.8835 10.8684C32.6829 10.8282 32.4688 10.8014 32.2547 10.8282C31.3183 10.9354 30.6226 11.7126 30.7296 12.5702C30.8233 13.4279 31.6661 14.0443 32.6026 13.9371C32.8166 13.9103 33.0173 13.8567 33.1912 13.7629L32.8835 10.8684Z" fill="url(#paint3_linear_6407_1231)"/>
<path d="M27.8126 27.4445C27.3845 28.8784 25.5918 35.1364 25.5918 35.1364L28.6153 35.7931L26.1136 38.031L41.4719 52.4365C41.4719 52.4365 31.1973 25.9973 30.9966 25.1396C30.9966 25.1396 28.7625 26.0375 28.2139 26.4931C28.0668 26.6003 27.9196 27.0827 27.8126 27.4445Z" fill="#4E1C95"/>
<path d="M47.1575 30.3121L45.3515 31.7728L47.8532 32.4294L46.9435 51.0964C46.9435 51.0964 44.7628 44.0477 43.1976 37.0928C42.0336 31.9336 41.338 26.2652 40.8965 25.0859C40.8965 25.0859 42.2343 25.6622 42.6892 25.9436C42.9835 26.1312 47.1575 30.3121 47.1575 30.3121Z" fill="#4E1C95"/>
<path d="M41.1381 1.26021C40.1079 0.48298 38.4758 -0.25405 36.0409 0.25517C31.5859 1.17981 31.0775 8.68411 31.0508 8.99233L31.9605 9.03253C31.9605 8.96552 32.4555 1.89004 36.2282 1.11281C37.6463 0.817993 38.6095 0.951999 39.4524 1.31381C39.4925 1.31381 41.1916 1.28701 41.1381 1.26021Z" fill="#9792E3"/>
<path d="M39.3716 18.172H38.0739C37.8063 18.172 37.5923 18.3462 37.512 18.5874C36.0002 18.4668 34.6089 17.6225 33.8196 16.3093L32.8028 14.6074L32.3613 14.8754L33.3781 16.5773C34.2477 18.038 35.7996 18.9894 37.4852 19.11C37.5521 19.3646 37.7796 19.5522 38.0605 19.5522H39.3582C39.6927 19.5522 39.9602 19.2842 39.9602 18.9492V18.7884C39.9736 18.44 39.6927 18.172 39.3716 18.172Z" fill="#17082D"/>
<path d="M31.7824 15.4724C33.1488 15.3247 34.0951 13.7078 33.8961 11.8609C33.6971 10.014 32.4281 8.63661 31.0618 8.78431C29.6955 8.93202 28.7492 10.5489 28.9482 12.3958C29.1472 14.2426 30.4161 15.6201 31.7824 15.4724Z" fill="#17082D"/>
<path d="M31.4347 15.5137C32.61 15.3866 33.4015 13.7864 33.2025 11.9396C33.0035 10.0927 31.8894 8.69854 30.7141 8.8256C29.5387 8.95266 28.7473 10.5528 28.9462 12.3997C29.1452 14.2465 30.2593 15.6407 31.4347 15.5137Z" fill="#17082D"/>
<path d="M31.0905 14.8335C32.1629 14.7175 32.9051 13.4425 32.7481 11.9856C32.5912 10.5288 31.5945 9.44171 30.522 9.55765C29.4495 9.67359 28.7073 10.9486 28.8643 12.4055C29.0213 13.8624 30.018 14.9494 31.0905 14.8335Z" fill="#9792E3"/>
<path d="M30.6686 14.8075C31.5721 14.7099 32.1806 13.4795 32.0275 12.0594C31.8745 10.6393 31.018 9.56726 30.1145 9.66494C29.211 9.76261 28.6026 10.993 28.7556 12.4131C28.9086 13.8332 29.7651 14.9052 30.6686 14.8075Z" fill="#4E1C95"/>
<path d="M50.4228 44.9598C50.4228 44.9598 50.2222 31.8273 50.57 31.4923C51.1051 30.9697 52.5098 32.0953 53.152 32.8323C54.9313 34.8424 63.4266 53.2548 61.5402 60.2498C61.2593 61.3219 58.1154 62.4877 58.1154 62.4877C58.1154 62.4877 53.54 57.9316 53.3661 57.5295C52.2021 54.836 50.7573 46.1123 50.7573 46.1123C50.5432 45.7773 50.4094 45.3753 50.4228 44.9598Z" fill="#9792E3"/>
<path d="M25.351 45.04C25.351 45.04 23.5717 29.8706 23.1302 29.5624C22.4345 29.0934 19.3174 32.1353 18.5815 33.3547C16.548 36.7183 15.0229 44.6246 14.4209 48.0685C13.6985 52.2227 13.1366 59.4188 13.7921 63.2379C13.9928 64.4172 15.1968 68.0354 15.1968 68.0354L23.3844 55.68L25.351 45.04Z" fill="#9792E3"/>
<path d="M31.1445 66.5338H49.9143L54.1285 39.8936H35.3587L31.1445 66.5338Z" fill="#E2E2EE"/>
<path d="M53.9674 57.8909L50.489 55.9076C50.489 55.9076 48.1478 54.8758 47.6394 54.5006C47.2515 54.2192 44.2815 52.1957 44.1878 51.1236C44.1744 50.9896 44.3751 50.4536 44.3751 50.4536C44.3751 50.4536 44.1477 49.8372 44.0273 49.6764C43.8935 49.5022 44.4688 49.1135 45.1511 49.1805C45.1912 49.1805 45.7263 49.2877 46.3417 49.4084C47.2782 49.596 48.8836 49.4352 48.8836 49.4352C48.8836 49.4352 47.8267 48.8187 46.917 48.6579C46.4354 48.5775 45.3116 48.5507 44.9905 48.1085C44.8969 47.9879 44.9905 47.3983 45.7932 47.2375C46.4889 47.1035 50.2348 47.5993 52.5359 48.1085C52.8168 48.1755 53.0844 46.4736 53.0844 46.4736C53.7935 46.4736 54.9039 47.6395 55.2517 48.1487C56.0143 49.2609 56.8303 53.8841 56.8303 53.8841L53.9674 57.8909Z" fill="#FFD0CE"/>
<path d="M50.9707 56.8189L56.9909 52.6514C56.9909 52.6514 61.9944 56.9529 62.0078 58.9764C62.0078 59.8609 60.7235 61.6833 59.8405 62.2462C59.2519 62.6214 57.7 62.9296 57.0578 62.7688C54.7969 62.1925 50.9707 56.8189 50.9707 56.8189Z" fill="#9792E3"/>
<path d="M30.5817 60.0755L36.2943 58.3736C36.2943 58.3736 38.2207 58.0788 38.7291 57.7036C39.1171 57.4222 42.0871 55.3987 42.1807 54.3266C42.1941 54.1926 41.9934 53.6566 41.9934 53.6566C41.9934 53.6566 42.2209 53.0402 42.3413 52.8794C42.475 52.7052 41.8998 52.3166 41.2175 52.3836C41.1774 52.3836 40.6422 52.4908 40.0268 52.6114C39.0903 52.799 37.4849 52.6382 37.4849 52.6382C37.4849 52.6382 38.5686 52.1691 39.4783 52.0083C39.9599 51.9279 41.0837 51.9011 41.4048 51.4589C41.4984 51.3383 41.4048 50.7487 40.6021 50.5879C39.9064 50.4539 36.0802 50.6013 33.8326 51.3115C33.6721 51.3651 33.5116 51.2177 33.5517 51.0435L33.7658 50.1055C32.4681 50.1725 32.1871 51.0033 31.8125 51.4723C30.9697 52.531 27.7188 55.9749 27.7188 55.9749L30.5817 60.0755Z" fill="#FFD0CE"/>
<path d="M32.5209 61.0132L28.387 53.71L23.2363 55.9076L17.0288 62.4069C17.0288 62.4069 14.7277 67.6465 15.1826 68.0619C15.7043 68.5443 20.3868 67.3651 21.4303 67.0301C24.6544 65.9982 32.5209 61.0132 32.5209 61.0132Z" fill="#9792E3"/>
<defs>
<linearGradient id="paint0_linear_6407_1231" x1="57.4959" y1="59.0871" x2="3.56856" y2="59.0871" gradientUnits="userSpaceOnUse">
<stop stop-color="#4E1C95"/>
<stop offset="1" stop-color="#9792E3"/>
</linearGradient>
<linearGradient id="paint1_linear_6407_1231" x1="36.3765" y1="31.0196" x2="35.042" y2="12.3278" gradientUnits="userSpaceOnUse">
<stop stop-color="#FFD0CE"/>
<stop offset="1" stop-color="#F4AAA7"/>
</linearGradient>
<linearGradient id="paint2_linear_6407_1231" x1="40.8913" y1="11.8243" x2="43.6276" y2="11.7768" gradientUnits="userSpaceOnUse">
<stop stop-color="#FFD0CE"/>
<stop offset="1" stop-color="#F4AAA7"/>
</linearGradient>
<linearGradient id="paint3_linear_6407_1231" x1="30.7228" y1="12.5771" x2="34.1289" y2="12.2001" gradientUnits="userSpaceOnUse">
<stop stop-color="#FFD0CE"/>
<stop offset="1" stop-color="#F4AAA7"/>
</linearGradient>
</defs>
</svg>
