<svg width="16" height="16" viewBox="0 0 16 16" fill="none" xmlns="http://www.w3.org/2000/svg">
    <path d="M10.797 8.642a.5.5 0 0 0-.817-.163l-2.646 2.647L6.188 9.98a.5.5 0 0 0-.708.708l1.5 1.5a.5.5 0 0 0 .708 0l3-3a.5.5 0 0 0 .109-.545z" fill="#8C8C8C"/>
    <path fill-rule="evenodd" clip-rule="evenodd" d="M11.125 2.875h2.625a.5.5 0 0 1 .5.5V13.75a.5.5 0 0 1-.5.5H2.25a.5.5 0 0 1-.5-.5V3.375a.5.5 0 0 1 .5-.5h2.625v-1c0-.069.056-.125.125-.125h.875c.069 0 .125.056.125.125v1h4v-1c0-.069.056-.125.125-.125H11c.069 0 .125.056.125.125v1zm-8.25 10.25h10.25V7.187H2.875v5.938zm0-9.125v2.125h10.25V4h-2v.75a.125.125 0 0 1-.125.125h-.875A.125.125 0 0 1 10 4.75V4H6v.75a.125.125 0 0 1-.125.125H5a.125.125 0 0 1-.125-.125V4h-2z" fill="#8C8C8C"/>
</svg>
