<svg width="60" height="60" viewBox="0 0 60 60" fill="none" xmlns="http://www.w3.org/2000/svg">
    <path fill-rule="evenodd" clip-rule="evenodd" d="M24.23 4h-.121c-.497-.001-.995-.002-1.443.174-.39.153-.734.402-1.003.723-.308.368-.465.842-.62 1.313l-.039.115L19.28 11.5H5a1 1 0 1 0 0 2h4.057l1.417 24.09.002.04c.169 2.86.298 5.062.531 6.826.236 1.782.585 3.192 1.23 4.455a13 13 0 0 0 6.357 5.995c1.299.57 2.727.835 4.52.965 1.774.13 3.98.13 6.845.13h.081c2.867 0 5.072 0 6.846-.13 1.793-.13 3.221-.396 4.52-.965a13 13 0 0 0 6.358-5.995c.644-1.263.993-2.673 1.229-4.455.233-1.764.362-3.965.53-6.826l.003-.04 1.417-24.09H55a1 1 0 1 0 0-2H40.72l-1.724-5.175-.038-.115c-.156-.471-.313-.945-.621-1.313a2.499 2.499 0 0 0-1.003-.723c-.448-.176-.946-.175-1.443-.174H24.23zm15.747 9.5h8.962l-1.41 23.972c-.17 2.91-.297 5.039-.519 6.722-.22 1.673-.529 2.83-1.028 3.808a11 11 0 0 1-5.38 5.072c-1.004.441-2.178.68-3.861.803C35.047 54 32.915 54 30 54c-2.915 0-5.047 0-6.741-.123-1.683-.123-2.857-.362-3.862-.803a11 11 0 0 1-5.38-5.072c-.498-.977-.806-2.135-1.027-3.808-.222-1.683-.348-3.812-.52-6.722L11.06 13.5h28.917zm-1.364-2-1.515-4.542c-.223-.671-.264-.74-.296-.778a.5.5 0 0 0-.2-.145C36.556 6.017 36.478 6 35.77 6H24.23c-.707 0-.786.017-.832.035a.5.5 0 0 0-.2.145c-.032.037-.073.107-.296.778L21.387 11.5h17.226zM26 25a1 1 0 1 0-2 0v17.5a1 1 0 1 0 2 0V25zm9-1a1 1 0 0 1 1 1v10a1 1 0 1 1-2 0V25a1 1 0 0 1 1-1z" fill="#F5222D"/>
</svg>
