<svg width="16" height="16" viewBox="0 0 16 16" fill="none" xmlns="http://www.w3.org/2000/svg">
    <path d="M6.668 7.666c.368 0 .667.298.667.667v2a.667.667 0 0 1-1.333 0v-2c0-.369.298-.667.666-.667zM9.335 7.666c.368 0 .667.298.667.667v2a.667.667 0 1 1-1.334 0v-2c0-.369.299-.667.667-.667z" fill="#F5222D"/>
    <path fill-rule="evenodd" clip-rule="evenodd" d="M4.668 3.666v.667H2.002a.667.667 0 0 0 0 1.333h.737l.328 6.142a2.667 2.667 0 0 0 2.663 2.525h4.543a2.667 2.667 0 0 0 2.663-2.525l.328-6.142h.738a.667.667 0 1 0 0-1.333h-2.667v-.667a2 2 0 0 0-2-2H6.668a2 2 0 0 0-2 2zm1.334 0v.667h4v-.667a.667.667 0 0 0-.667-.667H6.668a.667.667 0 0 0-.666.667zm-1.604 8.071-.323-6.071h7.854l-.324 6.071a1.333 1.333 0 0 1-1.332 1.262H5.73a1.333 1.333 0 0 1-1.332-1.262z" fill="#F5222D"/>
</svg>
