<svg width="40" height="40" viewBox="0 0 40 40" fill="none" xmlns="http://www.w3.org/2000/svg">
<rect width="40" height="40" rx="20" fill="#FFF1F0"/>
<path fill-rule="evenodd" clip-rule="evenodd" d="M19.2447 28.0397C19.3035 28.1738 19.4393 28.2609 19.5896 28.2609C20.5751 28.2609 21.3399 27.4277 21.2252 26.4791L20.893 23.7313C20.7368 22.4392 21.7785 21.3043 23.1208 21.3043H26.4097C27.5521 21.3043 28.4037 20.2834 28.1643 19.2008L26.6262 13.1139C26.4489 12.312 25.7177 11.7391 24.8715 11.7391H16.2807V21.2807L19.2447 28.0397ZM14.4862 19.6652C14.2497 19.5998 14.0016 19.5652 13.7477 19.5652H13.589C12.5979 19.5652 11.7945 18.7866 11.7945 17.8261V13.4783C11.7945 12.5178 12.5979 11.7391 13.589 11.7391H14.4862V19.6652ZM19.5896 30C18.7195 30 17.9335 29.4961 17.5932 28.72L14.5734 21.8338C14.4326 21.5128 14.1076 21.3043 13.7477 21.3043H13.589C11.6068 21.3043 10 19.7471 10 17.8261V13.4783C10 11.5573 11.6068 10 13.589 10H24.8715C26.5639 10 28.0262 11.1457 28.3808 12.7495L29.919 18.8364C30.3977 21.0017 28.6946 23.0435 26.4097 23.0435H23.1208C22.8524 23.0435 22.644 23.2705 22.6753 23.5289L23.0075 26.2767C23.2472 28.2589 21.6489 30 19.5896 30Z" fill="#F5222D"/>
</svg>
