<svg width="17" height="18" viewBox="0 0 17 18" fill="none" xmlns="http://www.w3.org/2000/svg">
<path d="M1 7.12287C1 8.52813 2.13919 9.66732 3.54445 9.66732V9.66732C4.22488 9.66732 4.83947 10.0739 5.10561 10.7001L7.25543 15.7585C7.40372 16.1074 7.74615 16.334 8.12527 16.334V16.334C9.25643 16.334 10.1344 15.3472 10.0027 14.2237L9.79545 12.4552C9.70471 11.6808 10.3098 11.0007 11.0895 11.0007H12.6224C14.5323 11.0007 15.956 9.2396 15.5558 7.37206L14.8415 4.03873C14.5451 2.65552 13.3227 1.66732 11.9081 1.66732H4C2.34314 1.66732 1 3.01046 1 4.66732V7.12287Z" stroke="#FA541C" stroke-width="1.5"/>
<path d="M5 10.334V1.66732" stroke="#FA541C" stroke-width="1.5"/>
</svg>
