<svg width="71" height="87" viewBox="0 0 71 87" fill="none" xmlns="http://www.w3.org/2000/svg">
<path d="M70.0553 17.101L53.7428 0.788452C53.2298 0.279536 52.5352 -0.00406335 51.8125 1.47707e-05H8.3125C3.80787 1.47707e-05 0.15625 3.65164 0.15625 8.15626V78.8438C0.15625 83.3484 3.80787 87 8.3125 87H62.6875C67.1921 87 70.8437 83.3484 70.8437 78.8438V19.0313C70.848 18.3086 70.5642 17.6141 70.0553 17.101ZM65.4062 78.8438C65.4062 80.3454 64.1891 81.5625 62.6875 81.5625H8.3125C6.8109 81.5625 5.59375 80.3454 5.59375 78.8438V8.15626C5.59375 6.65466 6.8109 5.43751 8.3125 5.43751H49.0937V16.3125C49.0937 19.3155 51.5282 21.75 54.5312 21.75H65.4062V78.8438Z" fill="#B5B5B5"/>
<path d="M59.9688 65.25H54.5312V70.6875H59.9688V65.25Z" fill="#B5B5B5"/>
<path d="M59.9688 38.0625H11.0312V43.5H59.9688V38.0625Z" fill="#B5B5B5"/>
<path d="M59.9688 51.6563H11.0312V57.0938H59.9688V51.6563Z" fill="#B5B5B5"/>
<path d="M49.0938 65.25H11.0312V70.6875H49.0938V65.25Z" fill="#B5B5B5"/>
</svg>
