<svg width="32" height="32" viewBox="0 0 32 32" fill="none" xmlns="http://www.w3.org/2000/svg">
<path d="M27.5852 8.7625V29.9375C27.5852 31.075 26.6602 32 25.5227 32H6.47266C5.33516 32 4.41016 31.075 4.41016 29.9375V2.0625C4.41016 0.925 5.33516 0 6.47266 0H18.8227L27.5852 8.7625Z" fill="#E2E2EE"/>
<path d="M20.0176 8.575L27.5863 11.6938V8.7625L23.2988 7.5L20.0176 8.575Z" fill="#8E8E9B"/>
<path d="M27.5887 8.7625H20.8887C19.7512 8.7625 18.8262 7.8375 18.8262 6.7V0L27.5887 8.7625Z" fill="#C1C1D1"/>
<path d="M15.8602 25.275C19.3879 25.275 22.2477 22.4152 22.2477 18.8875C22.2477 15.3598 19.3879 12.5 15.8602 12.5C12.3324 12.5 9.47266 15.3598 9.47266 18.8875C9.47266 22.4152 12.3324 25.275 15.8602 25.275Z" fill="#31AF91"/>
<path d="M14.8937 22.2059L11.95 19.2621C11.9125 19.2246 11.9125 19.1621 11.95 19.1246L12.8 18.2746C12.8375 18.2371 12.9 18.2371 12.9375 18.2746L14.9625 20.2996L18.775 16.4871C18.8125 16.4496 18.875 16.4496 18.9125 16.4871L19.7625 17.3371C19.8 17.3746 19.8 17.4371 19.7625 17.4746L15.0312 22.2059C14.9937 22.2434 14.9312 22.2434 14.8937 22.2059Z" fill="white"/>
</svg>
