<svg width="12" height="12" viewBox="0 0 12 12" fill="#a2a2ba" xmlns="http://www.w3.org/2000/svg">
    <path d="M6 9.33333C5.82044 9.33333 5.65745 9.26234 5.53759 9.1469L5.52859 9.13807L2.86193 6.4714C2.60158 6.21106 2.60158 5.78895 2.86193 5.5286C3.12228 5.26825 3.54439 5.26825 3.80474 5.5286L5.33333 7.05719L5.33333 0.666667C5.33333 0.298477 5.63181 0 6 0C6.36819 0 6.66667 0.298477 6.66667 0.666667L6.66667 7.05719L8.19526 5.5286C8.45561 5.26825 8.87772 5.26825 9.13807 5.5286C9.39842 5.78895 9.39842 6.21106 9.13807 6.47141L6.4714 9.13807L6.46709 9.14234C6.34681 9.26047 6.18191 9.33333 6 9.33333Z" fill="#a2a2ba"/>
    <path d="M1.33333 8C1.33333 7.63181 1.03486 7.33333 0.666667 7.33333C0.298477 7.33333 0 7.63181 0 8V10C0 10.5304 0.210714 11.0391 0.585786 11.4142C0.960859 11.7893 1.46957 12 2 12H10C10.5304 12 11.0391 11.7893 11.4142 11.4142C11.7893 11.0391 12 10.5304 12 10V8C12 7.63181 11.7015 7.33333 11.3333 7.33333C10.9651 7.33333 10.6667 7.63181 10.6667 8V10C10.6667 10.1768 10.5964 10.3464 10.4714 10.4714C10.3464 10.5964 10.1768 10.6667 10 10.6667H2C1.82319 10.6667 1.65362 10.5964 1.5286 10.4714C1.40357 10.3464 1.33333 10.1768 1.33333 10V8Z" fill="#a2a2ba"/>
</svg>