<svg width="14" height="18" viewBox="0 0 14 18" fill="none" xmlns="http://www.w3.org/2000/svg">
<path fill-rule="evenodd" clip-rule="evenodd" d="M7.83194 0.666505L2.00016 0.666506C1.07969 0.666506 0.333496 1.4127 0.333496 2.33317L0.333497 15.6665C0.333498 16.587 1.07969 17.3332 2.00016 17.3332H12.0002C12.9206 17.3332 13.6668 16.587 13.6668 15.6665V6.3264C13.6668 5.90653 13.5084 5.50213 13.2231 5.19405L9.52567 1.20083C9.21024 0.860162 8.76701 0.666505 8.30273 0.666505L7.83506 0.666505C7.83454 0.666504 7.83402 0.666504 7.8335 0.666504C7.83298 0.666504 7.83246 0.666504 7.83194 0.666505ZM11.3892 5.6665L8.66683 5.6665V2.7264L11.3892 5.6665ZM12.0002 7.33317L12.0002 15.6665H2.00016L2.00016 2.33317L7.00016 2.33317V5.6665C7.00016 6.58698 7.74636 7.33317 8.66683 7.33317L12.0002 7.33317ZM7.00016 8.1665C7.4604 8.1665 7.8335 8.5396 7.8335 8.99984V12.4427L9.03791 11.6398C9.42085 11.3845 9.93825 11.488 10.1935 11.8709C10.4488 12.2539 10.3454 12.7713 9.96241 13.0265L7.46241 14.6932C7.1825 14.8798 6.81783 14.8798 6.53791 14.6932L4.03791 13.0265C3.65497 12.7713 3.5515 12.2539 3.80679 11.8709C4.06208 11.488 4.57947 11.3845 4.96241 11.6398L6.16683 12.4427V8.99984C6.16683 8.5396 6.53993 8.1665 7.00016 8.1665Z" fill="#8C8C8C"/>
</svg>
