<svg width="13" height="12" viewBox="0 0 13 12" fill="none" xmlns="http://www.w3.org/2000/svg">
<path d="M6.00183 9.33333C5.82227 9.33333 5.65929 9.26234 5.53942 9.1469L5.53043 9.13807L2.86376 6.4714C2.60341 6.21106 2.60341 5.78895 2.86376 5.5286C3.12411 5.26825 3.54622 5.26825 3.80657 5.5286L5.33516 7.05719L5.33517 0.666667C5.33517 0.298477 5.63364 0 6.00183 0C6.37002 0 6.6685 0.298477 6.6685 0.666667L6.6685 7.05719L8.19709 5.5286C8.45744 5.26825 8.87955 5.26825 9.1399 5.5286C9.40025 5.78895 9.40025 6.21106 9.1399 6.47141L6.47324 9.13807L6.46892 9.14234C6.34864 9.26047 6.18374 9.33333 6.00183 9.33333Z" fill="#4E1C95"/>
<path d="M1.33516 8C1.33516 7.63181 1.03669 7.33333 0.668498 7.33333C0.300308 7.33333 0.00183105 7.63181 0.00183105 8V10C0.00183105 10.5304 0.212545 11.0391 0.587617 11.4142C0.96269 11.7893 1.4714 12 2.00183 12H10.0018C10.5323 12 11.041 11.7893 11.416 11.4142C11.7911 11.0391 12.0018 10.5304 12.0018 10V8C12.0018 7.63181 11.7034 7.33333 11.3352 7.33333C10.967 7.33333 10.6685 7.63181 10.6685 8V10C10.6685 10.1768 10.5983 10.3464 10.4732 10.4714C10.3482 10.5964 10.1786 10.6667 10.0018 10.6667H2.00183C1.82502 10.6667 1.65545 10.5964 1.53043 10.4714C1.4054 10.3464 1.33516 10.1768 1.33516 10V8Z" fill="#4E1C95"/>
</svg>
