<svg width="16" height="16" viewBox="0 0 16 16" fill="none" xmlns="http://www.w3.org/2000/svg">
    <path fill-rule="evenodd" clip-rule="evenodd" d="M8.665 1.333H4c-.737 0-1.333.597-1.333 1.333v10.667c0 .736.596 1.333 1.333 1.333h8c.736 0 1.333-.597 1.333-1.333V5.861c0-.336-.127-.66-.355-.906L10.02 1.76a1.333 1.333 0 0 0-.978-.427h-.376zm2.846 4H9.333V2.981l2.178 2.352zM12 6.666v6.667H4V2.666h4v2.667c0 .736.597 1.333 1.333 1.333H12zm-4 .667c.368 0 .666.298.666.667v2.754l.964-.642a.667.667 0 0 1 .74 1.109l-2 1.333a.667.667 0 0 1-.74 0l-2-1.333a.667.667 0 1 1 .74-1.11l.963.643V8c0-.369.299-.667.667-.667z" fill="#4E1C95"/>
</svg>
