<svg width="40" height="40" viewBox="0 0 40 40" fill="none" xmlns="http://www.w3.org/2000/svg">
<rect width="40" height="40" rx="20" fill="white" fill-opacity="0.4"/>
<path d="M25.0009 19.999C25.0009 21.1036 25.8963 21.999 27.0009 21.999C28.1054 21.999 29.0009 21.1036 29.0009 19.999C29.0009 18.8945 28.1054 17.999 27.0009 17.999C25.8963 17.999 25.0009 18.8945 25.0009 19.999Z" fill="white"/>
<path d="M20.0009 21.999C18.8963 21.999 18.0009 21.1036 18.0009 19.999C18.0009 18.8945 18.8963 17.999 20.0009 17.999C21.1054 17.999 22.0009 18.8945 22.0009 19.999C22.0009 21.1036 21.1054 21.999 20.0009 21.999Z" fill="white"/>
<path d="M12.999 21.999C11.8945 21.999 10.999 21.1036 10.999 19.999C10.999 18.8945 11.8945 17.999 12.999 17.999C14.1036 17.999 14.999 18.8945 14.999 19.999C14.999 21.1036 14.1036 21.999 12.999 21.999Z" fill="white"/>
</svg>
