<svg width="17" height="16" viewBox="0 0 17 16" fill="none" xmlns="http://www.w3.org/2000/svg">
<path fill-rule="evenodd" clip-rule="evenodd" d="M14.9954 1.00657C13.3556 -0.633257 11.4735 0.223926 11.4735 0.223926L0.516444 11.181L0.00562317 15.4378C-0.0331576 15.761 0.240979 16.0351 0.564153 15.9963L4.82099 15.4855L15.778 4.52847C15.778 4.52847 16.6352 2.6464 14.9954 1.00657ZM2.22886 13.7731L2.42841 12.1102L10.1051 4.43353L11.5684 5.89684L3.89171 13.5735L2.22886 13.7731ZM12.989 4.47622L13.985 3.48022C13.9893 3.44084 13.9922 3.39877 13.9928 3.35475C13.9959 3.12442 13.9474 2.79984 13.5748 2.42719C13.2021 2.05455 12.8775 2.00601 12.6472 2.00918C12.6032 2.00979 12.5611 2.01263 12.5217 2.01691L11.5257 3.01291L12.989 4.47622Z" fill="#1890FF"/>
</svg>
