<svg width="16" height="16" viewBox="0 0 16 16" fill="none" xmlns="http://www.w3.org/2000/svg">
    <path fill-rule="evenodd" clip-rule="evenodd" d="M8.667 1.334h.375c.372 0 .726.155.979.427l2.958 3.195c.228.246.355.57.355.906v7.472c0 .736-.597 1.333-1.334 1.333H4a1.333 1.333 0 0 1-1.333-1.333V2.667c0-.736.597-1.333 1.333-1.333h4.667zM8 2.667H4v10.667h8V6.667H9.334A1.333 1.333 0 0 1 8 5.334V2.667zm3.511 2.667H9.335V2.982l2.178 2.352zM7.623 7.451a.664.664 0 0 1 .374-.117h.007c.139 0 .267.044.374.117l1.992 1.328a.667.667 0 1 1-.74 1.11l-.963-.643v2.755a.667.667 0 0 1-1.333 0V9.246l-.964.643a.667.667 0 0 1-.74-1.11l1.993-1.328z" fill="#4E1C95"/>
</svg>
