<svg width="134" height="102" viewBox="0 0 134 102" fill="none" xmlns="http://www.w3.org/2000/svg">
<path d="M133.125 37.7662L103.955 4.94342C102.555 2.70615 100.511 1.35352 98.3576 1.35352H35.6424C33.489 1.35352 31.4449 2.70615 30.0447 4.94056L0.875 37.7691V64.134H133.125V37.7662Z" stroke="#4E1C95"/>
<path d="M94.6374 46.8152C94.6374 42.2351 97.4951 38.454 101.04 38.4512H133.125V90.208C133.125 96.2663 129.33 101.232 124.644 101.232H9.35625C4.67 101.232 0.875 96.2634 0.875 90.208V38.4512H32.96C36.5049 38.4512 39.3626 42.2266 39.3626 46.8067V46.8695C39.3626 51.4496 42.252 55.1479 45.794 55.1479H88.206C91.748 55.1479 94.6374 51.4153 94.6374 46.8352V46.8152Z" fill="#CCC5E1" stroke="#4E1C95"/>
</svg>
