<svg width="95" height="59" viewBox="0 0 95 59" fill="none" xmlns="http://www.w3.org/2000/svg">
<path d="M47.5 58.9999C73.7335 58.9999 95 54.4899 95 48.9267C95 43.3634 73.7335 38.8535 47.5 38.8535C21.2665 38.8535 0 43.3634 0 48.9267C0 54.4899 21.2665 58.9999 47.5 58.9999Z" fill="#22294F" fill-opacity="0.05"/>
<path d="M81.6406 19.8009L66.5802 3.24926C65.8573 2.12106 64.8019 1.43896 63.6901 1.43896H31.3099C30.1981 1.43896 29.1427 2.12106 28.4198 3.24782L13.3594 19.8024V33.0975H81.6406V19.8009Z" stroke="#8C8C8C"/>
<path d="M61.7693 24.3643C61.7693 22.0546 63.2448 20.1479 65.075 20.1465H81.6406V46.2461C81.6406 49.3011 79.6813 51.805 77.2617 51.805H17.7383C15.3187 51.805 13.3594 49.2997 13.3594 46.2461V20.1465H29.925C31.7552 20.1465 33.2307 22.0503 33.2307 24.3599V24.3916C33.2307 26.7012 34.7225 28.5662 36.5513 28.5662H58.4487C60.2775 28.5662 61.7693 26.684 61.7693 24.3743V24.3643Z" fill="#F5F5F5" stroke="#8C8C8C"/>
</svg>
