<svg width="280" height="225" viewBox="0 0 280 225" fill="none" xmlns="http://www.w3.org/2000/svg">
<path d="M140 225C217.32 225 280 214.803 280 202.225C280 189.647 217.32 179.45 140 179.45C62.6801 179.45 0 189.647 0 202.225C0 214.803 62.6801 225 140 225Z" fill="#AAAABC"/>
<g opacity="0.53">
<path opacity="0.53" d="M130.76 208.485C145.405 208.485 157.277 206.392 157.277 203.811C157.277 201.23 145.405 199.138 130.76 199.138C116.115 199.138 104.243 201.23 104.243 203.811C104.243 206.392 116.115 208.485 130.76 208.485Z" fill="#50514F"/>
</g>
<path d="M261.951 84.569C252.62 74.8847 234.279 68.2221 232.374 67.537C232.374 67.537 218.454 60.9964 227.221 45.2595C230.036 40.2109 231.257 34.8526 229.943 29.7759C227.108 18.8248 203.52 8.01443 178.749 6.51299C147.388 4.61743 120.608 17.3703 101.526 26.454C82.4803 35.5189 83.9634 36.7294 65.5939 44.0395C38.6546 54.7748 28.3013 53.6581 19.6281 64.6561C8.10147 79.2764 12.5601 98.8045 13.0388 100.747C17.8916 120.613 34.4776 129.377 36.9463 130.635H242.173C246.857 129.65 250.33 128.026 252.545 126.797C260.806 122.208 270.061 112.796 270.014 102.089C270.004 99.6866 269.526 97.5376 269.169 96.2332C267.545 90.387 264.063 86.7648 261.951 84.569Z" fill="#F8F8FC"/>
<path d="M131.006 204.636C143.929 204.636 154.406 202.544 154.406 199.963C154.406 197.382 143.929 195.29 131.006 195.29C118.082 195.29 107.605 197.382 107.605 199.963C107.605 202.544 118.082 204.636 131.006 204.636Z" fill="#17082D"/>
<path d="M135.406 155.079C133.247 153.418 128.958 154.225 125.119 157.566L126.686 198.771C130.328 201.314 133.613 198.771 133.613 198.771C134.702 185.033 135.8 171.304 136.889 157.566C136.523 156.111 135.838 155.417 135.406 155.079Z" fill="#4E1C95"/>
<path d="M159.429 90.9209C106.611 100.586 113.36 155.914 113.36 155.914C172.26 167.372 168.675 124.15 170.993 107.136C173.321 90.1233 159.429 90.9209 159.429 90.9209Z" fill="#34175E"/>
<path d="M247.652 46.3755C241.101 42.1246 240.688 39.0185 238.031 39.2625C233.882 39.6566 229.377 47.7643 231.113 54.9431C232.531 60.7705 238.097 66.1006 244.602 65.9692C250.224 65.8566 253.857 61.7089 254.645 60.7518C255.715 59.4568 258.513 56.0504 257.527 52.8786C256.626 49.9883 253.444 50.1385 247.652 46.3755Z" fill="#F8F8FC"/>
<path d="M150.871 8.53906H150.355C150.195 8.53906 150.073 8.67044 150.073 8.82058V23.0185C150.073 23.1781 150.205 23.3001 150.355 23.3001H150.871C151.031 23.3001 151.153 23.1687 151.153 23.0185V8.82058C151.162 8.67044 151.031 8.53906 150.871 8.53906Z" fill="#132F3F"/>
<g opacity="0.3">
<path opacity="0.3" d="M142.706 35.9781L112.387 139.174L191.178 135.11L158.682 35.6121C158.682 35.6121 147.005 29.0339 142.706 35.9781Z" fill="#AAAABC"/>
</g>
<path d="M150.76 39.7779C152.683 39.7779 154.242 38.2276 154.242 36.3152C154.242 34.4028 152.683 32.8525 150.76 32.8525C148.837 32.8525 147.278 34.4028 147.278 36.3152C147.278 38.2276 148.837 39.7779 150.76 39.7779Z" fill="white"/>
<path d="M156.655 26.4153C156.073 25.9742 155.116 25.3737 153.745 24.9326H147.118C146.105 25.3361 144.988 25.9367 143.927 26.8657C139.609 30.6568 139.956 36.7095 140.032 37.7511C143.251 38.0045 146.78 38.1359 150.591 38.0702C154.374 38.0045 157.885 37.7511 161.076 37.3945C161.104 36.7001 161.104 35.6491 160.907 34.4011C160.682 33.0122 160.034 28.9396 156.655 26.4153Z" fill="#376F91"/>
<path d="M152.503 22.0702C151.705 21.4508 150.832 21.4133 150.551 21.4133C150.081 21.4039 149.133 21.479 148.307 22.1453C147.049 23.1681 147.106 24.754 147.115 24.9323C147.735 25.2044 148.683 25.5329 149.875 25.6173C151.649 25.7393 153.029 25.242 153.733 24.9323C153.751 24.6226 153.751 24.0127 153.46 23.3464C153.367 23.1118 153.113 22.5488 152.503 22.0702Z" fill="#376F91"/>
<path d="M151.932 24.9422H147.117C152.505 25.8619 156.353 29.334 156.738 33.1814C156.813 33.9696 156.841 35.7338 155.536 37.8921C156.484 37.9109 157.536 37.8828 158.69 37.7702C159.554 37.6857 160.342 37.5543 161.074 37.4136C161.074 37.4136 161.431 32.3181 158.549 28.3299C155.677 24.3229 151.932 24.9422 151.932 24.9422Z" fill="#2F5C79"/>
<g opacity="0.53">
<path opacity="0.53" d="M56.4152 208.597C75.7361 208.597 91.3988 205.067 91.3988 200.714C91.3988 196.361 75.7361 192.832 56.4152 192.832C37.0943 192.832 21.4316 196.361 21.4316 200.714C21.4316 205.067 37.0943 208.597 56.4152 208.597Z" fill="#50514F"/>
</g>
<path d="M73.9293 193.113L69.3769 191.499L66.2699 185.953C63.163 180.407 57.9253 185.212 57.9253 185.212C57.9253 185.156 56.2733 194.267 58.7044 194.042C61.1543 193.817 64.6367 196.961 64.6367 196.961C64.6367 196.961 69.5083 198.687 73.6383 196.961C77.759 195.234 73.9293 193.113 73.9293 193.113Z" fill="#17082D"/>
<path d="M90.948 189.434L86.9869 187.82L84.2836 182.274C81.5803 176.729 77.0278 181.533 77.0278 181.533C77.0278 181.477 75.5917 190.589 77.7036 190.363C79.8344 190.138 82.8662 193.282 82.8662 193.282C82.8662 193.282 87.1089 195.009 90.6946 193.282C94.2802 191.555 90.948 189.434 90.948 189.434Z" fill="#17082D"/>
<path d="M53.8242 100.578L55.7297 136.518L57.3535 185.963C57.3535 185.963 60.4229 187.323 66.2707 185.963L72.7568 110.337H74.5027L76.549 183.41C76.6522 183.542 76.84 183.757 77.1216 183.945C77.5909 184.255 78.2479 184.461 81.1765 184.076C82.4343 183.908 82.6972 183.823 82.9318 183.72C83.7954 183.335 84.3492 182.735 84.6402 182.331C86.4424 155.005 88.2446 127.679 90.0468 100.362C90.0562 100.362 59.1745 52.8603 53.8242 100.578Z" fill="#2E3252"/>
<path d="M78.1803 100.728C76.9507 100.728 75.9557 99.7426 75.9557 98.5414C75.9557 97.3403 76.9507 96.355 78.1803 96.355C79.41 96.355 80.4049 97.3403 80.4049 98.5414C80.4049 99.7426 79.41 100.728 78.1803 100.728ZM78.1803 96.6271C77.1103 96.6271 76.2373 97.4811 76.2373 98.5321C76.2373 99.5831 77.1103 100.437 78.1803 100.437C79.2504 100.437 80.1233 99.5831 80.1233 98.5321C80.1233 97.4811 79.2504 96.6271 78.1803 96.6271Z" fill="#1D1D1B"/>
<path d="M96.4363 44.2834C93.2261 37.3299 88.974 36.3164 88.974 36.3164L89.8281 73.111L98.1634 79.8862C98.1634 79.8862 105.87 72.0131 105.729 70.0706C105.598 68.1187 99.6465 51.2275 96.4363 44.2834Z" fill="#34175E"/>
<path d="M68.6017 22.0244L68.0291 29.9633C68.658 31.9151 69.6436 34.6928 71.1361 37.9115C73.6235 43.2885 74.4964 43.3917 74.7874 43.3823C76.6178 43.3166 77.7535 37.4423 78.0633 35.725V26.7915C76.7492 23.3006 68.6017 22.0244 68.6017 22.0244Z" fill="#F5A988"/>
<path d="M68.5961 22.0244C68.5961 22.0244 69.976 32.6095 78.0484 33.2758V26.7914C78.0578 26.7914 76.4714 19.3499 68.5961 22.0244Z" fill="#E95925"/>
<path d="M91.2301 76.1138V85.7511L98.8613 79.0322L95.0504 73.1484L91.2301 76.1138Z" fill="#E95925"/>
<path d="M66.8164 11.148L68.0367 20.8041C68.0367 20.8041 71.5472 29.916 78.9813 28.3113C86.4155 26.7067 83.5807 11.1574 83.5807 11.1574C85.7772 -4.75782 66.8164 11.148 66.8164 11.148Z" fill="#F5A988"/>
<path d="M92.1764 65.0313C91.7071 65.6037 91.4161 66.148 91.2378 66.5421C90.6089 68.1937 89.7641 69.179 89.0695 69.7889C88.2904 70.4834 87.6897 70.7086 87.4362 71.4968C87.1922 72.2569 87.333 73.3079 88.0464 74.0117C88.5438 74.4997 89.1258 74.6405 89.3886 74.678C90.4962 74.9501 95.4054 76.2545 96.4567 79.8392C96.5412 80.1301 96.6069 80.4491 96.635 80.787C96.4567 81.0122 96.2502 81.2468 96.0249 81.4908C95.6494 81.8849 95.2834 82.2133 94.9361 82.4855C96.4942 83.0954 97.8271 82.889 98.2026 82.5981C98.6625 82.2415 98.9629 81.7254 98.9629 81.7254C99.0098 81.6315 99.0568 81.5283 99.1037 81.4157C99.1037 81.4157 100.286 78.9571 101.075 79.4169C101.863 79.8767 102.886 75.5789 102.736 74.434C102.586 73.2892 98.3621 63.7175 92.1764 65.0313Z" fill="#17082D"/>
<path d="M66.9925 12.4346L67.5745 17.0421C67.6496 17.1078 67.7246 17.1829 67.7997 17.2579C67.7997 17.2579 70.8222 15.1278 70.5406 11.7589C70.5406 11.7589 75.2996 14.743 78.1061 12.078C78.7726 12.5378 81.1192 14.0392 83.9164 13.5325C83.8225 12.8381 83.7475 12.4252 83.7475 12.4252C85.9533 -3.46189 66.9925 12.4346 66.9925 12.4346Z" fill="#E95925"/>
<path d="M86.8101 2.92798C85.1487 1.93328 82.9523 3.37841 82.9523 3.37841C82.9523 3.37841 79.4511 -2.83378 74.8986 1.99897C74.8986 1.99897 70.0739 -3.46251 65.9157 3.66932C65.9157 3.66932 62.0109 5.26459 63.4752 8.04225C61.673 8.64283 61.0629 9.66568 60.9033 9.97536C59.8614 11.9554 61.0253 15.1365 64.2355 17.1823C64.2543 16.957 64.3012 16.6286 64.4514 16.2532C64.5547 16.0093 64.8175 15.3993 65.2962 15.1647C65.9157 14.8644 66.8731 15.1741 67.6241 15.9623C67.6241 15.9623 70.6465 13.8322 70.3649 10.4633C70.3649 10.4633 75.1239 13.4474 77.9305 10.7824C78.6251 11.261 81.1688 12.8938 84.1444 12.1524C84.8014 11.9929 86.0968 11.6457 87.1293 10.4352C88.5279 8.79297 88.8846 6.20299 88.0022 4.35435C87.7769 3.92269 87.4484 3.31273 86.8101 2.92798Z" fill="#17082D"/>
<path d="M65.2776 14.9491C64.17 15.3808 64.2263 17.0136 64.2357 17.1825C64.292 18.2148 64.9397 18.8998 65.3245 19.3221C66.2725 20.3262 67.4365 20.6734 68.0278 20.7954L67.6242 15.972C67.6242 15.972 66.2819 14.555 65.2776 14.9491Z" fill="#F5A988"/>
<path d="M85.1001 14.2076C84.7059 13.9824 84.2366 14.0762 83.9456 14.1607C84.0019 14.705 84.0582 15.268 84.0864 15.8592C84.1427 17.0322 84.1239 18.1207 84.0582 19.1248C84.4619 18.8339 85.2691 18.1489 85.5882 17.0228C85.8135 16.2252 85.9449 14.6862 85.1001 14.2076Z" fill="#E95925"/>
<path d="M74.9289 41.3084C74.9101 41.3741 74.835 41.6274 74.6755 41.665C74.0841 41.787 73.1736 38.8404 72.2256 37.0199C71.3057 35.2651 69.5129 32.9566 65.6362 30.9297L64.2377 44.2831L65.6362 50.7956L74.9571 52.6067L81.95 47.0795C81.7998 42.0497 81.6496 37.0293 81.4995 31.9995C76.9376 37.7518 75.2199 40.3606 74.9289 41.3084Z" fill="#17082D"/>
<path d="M90.9935 59.7394C91.0593 56.5582 90.9935 53.1049 90.7213 49.417C90.374 44.6124 89.7358 40.2207 88.9754 36.317L80.2648 30.9399C80.2366 40.3239 78.4344 47.5965 75.7311 48.0188C72.9057 48.4598 68.5973 41.5063 65.6312 30.9399L55.8035 36.317L52.1521 92.3299C52.1521 92.3299 51.6828 95.7457 50.6034 97.219C49.5239 98.6923 52.1521 100.597 52.1521 100.597C54.3392 101.254 57.5963 102.024 61.5762 102.117C66.4947 102.23 70.071 101.263 72.014 100.813C76.5946 99.7526 83.4092 98.9738 92.9647 100.419C91.2001 76.9871 90.8715 65.6794 90.9935 59.7394Z" fill="#97B6C8"/>
<path d="M75.4479 81.0598C68.9337 86.1928 62.5133 88.6702 58.4302 89.8901C58.4302 89.8901 52.3477 92.9774 58.4302 95.4642C64.5126 97.9509 79.1087 84.682 87.0121 68.1943C84.872 71.6007 81.2207 76.5085 75.4479 81.0598Z" fill="#50758B"/>
<path d="M87.6272 82.0627C87.3738 81.9126 86.6698 82.3067 84.8582 84.4181C84.8582 84.4181 78.8414 93.9803 71.3791 95.463C70.6282 95.6131 69.6708 96.0824 69.7083 96.2606C69.8116 96.7017 76.4478 97.246 81.5447 93.5205C86.895 89.6074 88.4344 82.5413 87.6272 82.0627Z" fill="#50758B"/>
<path d="M75.609 50.233C73.957 50.233 72.1736 48.6471 71.1035 47.6994C70.4652 47.1363 69.8645 46.4701 69.2637 45.663C68.3532 44.4525 67.2268 42.5851 65.7625 37.9775C65.1149 35.9412 64.5611 33.8298 64.1011 31.7184L64.3733 31.6621C64.8333 33.7641 65.3871 35.8661 66.0348 37.8931C67.4803 42.4631 68.5973 44.3023 69.489 45.4941C70.0804 46.2824 70.6717 46.9299 71.2912 47.4835C72.3331 48.4032 74.0696 49.9421 75.609 49.9421C77.1296 49.9421 78.7911 48.3656 80.1615 45.6349C81.4756 43.0074 82.3486 39.6385 82.5081 36.6169C82.5832 35.1623 82.4987 33.6984 82.2547 32.2533L82.5363 32.2064C82.7803 33.6703 82.8742 35.1623 82.7991 36.6356C82.48 42.8009 79.2041 50.233 75.609 50.233Z" fill="#3F6664"/>
<path d="M65.5772 16.7695C65.2862 17.1542 65.4833 17.6704 65.5584 17.8674C65.8494 18.6369 66.6566 18.9091 66.8068 18.9654C66.788 18.1302 66.7692 17.295 66.7505 16.4598C66.2718 16.3285 65.8118 16.4504 65.5772 16.7695Z" fill="#E95925"/>
<path d="M78.1436 19.04C78.1436 20.091 78.1436 21.142 78.1436 22.1931C78.1436 22.1931 79.1386 22.1931 79.2606 21.7895C79.3075 21.63 79.2043 21.4705 79.1573 21.3954C78.9039 21.0013 78.5754 20.3163 78.1436 19.04Z" fill="#17082D"/>
<path d="M79.2684 24.6321L75.4575 23.9658C75.4575 23.9565 77.1283 26.5746 79.2684 24.6321Z" fill="#17082D"/>
<path d="M70.9286 15.5685L70.6752 15.4559C71.2384 14.189 73.9041 13.9357 74.0168 13.9263L74.0449 14.2078C74.0074 14.2078 71.4261 14.4518 70.9286 15.5685Z" fill="#501216"/>
<path d="M83.0599 14.4703C82.4967 13.851 80.9479 13.8416 80.9385 13.8416V13.5601C81.0042 13.5601 82.6281 13.5694 83.2758 14.2732L83.0599 14.4703Z" fill="#501216"/>
<path d="M73.329 16.375C72.9442 16.375 72.6344 16.9568 72.6344 17.6794C72.6344 18.4019 72.9442 18.9837 73.329 18.9837C73.7139 18.9837 74.0236 18.4019 74.0236 17.6794C74.0236 16.9568 73.7139 16.375 73.329 16.375Z" fill="#501216"/>
<path d="M82.219 15.8774C81.8811 15.8774 81.6089 16.4592 81.6089 17.1818C81.6089 17.9044 81.8811 18.4862 82.219 18.4862C82.5568 18.4862 82.829 17.9044 82.829 17.1818C82.829 16.4686 82.5568 15.8774 82.219 15.8774Z" fill="#501216"/>
<path d="M61.4174 141.539L61.3799 141.257C66.7114 140.488 68.7014 136.218 68.7201 136.171L68.9736 136.284C68.9454 136.33 66.9085 140.75 61.4174 141.539Z" fill="white"/>
<path d="M81.355 141.558C81.233 141.558 81.1109 141.548 80.9889 141.539L81.0171 141.257C83.6265 141.511 86.0294 138.733 86.0482 138.705L86.2641 138.883C86.2359 138.912 85.6352 139.625 84.6778 140.31C83.542 141.135 82.3969 141.558 81.355 141.558Z" fill="white"/>
<path d="M74.5686 110.468H72.5881L74.3621 100.239L74.3809 100.211C74.4185 100.155 75.404 98.7939 76.6337 98.7751C77.2438 98.7657 77.807 99.0848 78.2951 99.7323L78.3326 99.7886L76.23 108.14L74.5686 110.468ZM72.926 110.186H74.4278L75.9672 108.028L78.0229 99.8543C77.6005 99.3194 77.1405 99.0472 76.6337 99.0566C75.6293 99.0754 74.7657 100.173 74.625 100.352L72.926 110.186Z" fill="white"/>
<path d="M59.2231 183.776L58.4158 141.417L57.2331 107.963L57.3552 107.944C59.3826 107.625 62.1423 106.865 63.8225 105.035C64.8268 103.947 64.9676 102.971 64.9676 102.961L65.2492 102.999C65.2398 103.046 65.099 104.05 64.0477 105.204C62.3488 107.072 59.5798 107.869 57.5147 108.198L58.688 141.398L59.4953 183.758L59.2231 183.776Z" fill="white"/>
<path d="M68.0272 28.4995C67.3889 27.5892 65.6242 30.9299 65.6242 30.9299L66.1217 44.2833C66.1217 44.2833 70.3832 39.1315 71.4814 39.2347C72.5796 39.3379 74.945 42.7537 74.945 42.7537L74.4945 41.0458C73.1334 35.4154 68.0272 28.4995 68.0272 28.4995Z" fill="#34175E"/>
<path d="M79.5141 29.7848C78.7256 28.7995 78.2375 28.9684 78.0685 29.3156C78.0404 29.6815 78.1061 30.329 78.0591 30.9296C77.618 36.1002 76.6793 37.0198 76.6793 37.0198L74.6612 41.6649C78.4252 36.1565 81.4946 43.6543 81.4946 43.6543V31.99C81.4946 31.99 80.7343 31.2862 79.5141 29.7848Z" fill="#17082D"/>
<path d="M76.0994 57.3266L74.4943 73.0166L97.3505 71.2055C99.0588 60.4515 100.777 49.6881 102.485 38.934C94.4688 38.8777 86.4433 38.8214 78.4272 38.7651C77.6576 44.9492 76.8785 51.1426 76.0994 57.3266Z" fill="white"/>
<path d="M93.2796 43.2883H87.4693C86.3241 43.2883 85.3198 42.5564 85.0851 41.5523L84.4093 38.6245H96.6399L95.645 41.7025C95.3446 42.6409 94.3684 43.2883 93.2796 43.2883ZM84.766 38.906L85.3667 41.496C85.5732 42.3781 86.4556 43.0162 87.4787 43.0162H93.289C94.2558 43.0162 95.1193 42.4438 95.3821 41.618L96.2551 38.906H84.766Z" fill="#17082D"/>
<path d="M75.1138 66.9736L74.4943 73.0075L97.3504 71.1964L102.485 38.9248C102.494 38.9342 88.3582 65.1625 75.1138 66.9736Z" fill="#D3ECFB"/>
<path d="M61.4738 48.4777C60.4788 42.181 57.2686 38.0051 55.7949 36.3066C54.7999 37.123 53.3263 38.4743 51.9464 40.4356C49.9471 43.2602 49.3276 45.6906 47.2813 53.104C46.8777 54.5585 46.0986 57.4018 45.0473 61.146C44.043 62.9665 43.5173 64.5993 43.2264 65.7723C42.0061 70.6144 42.5975 72.191 42.8227 72.6132C43.1137 73.1481 43.461 73.5235 43.7051 73.7487C44.2026 74.415 44.7 75.0906 45.1881 75.7569C45.6481 76.1416 46.5116 76.7609 47.76 77.0988C48.8395 77.3897 49.7594 77.3615 50.3319 77.2958C52.0872 76.9956 53.3732 77.2208 54.2555 77.4929C55.2505 77.812 55.748 78.2061 56.5646 78.0184C57.3531 77.8401 58.1885 77.1832 58.4419 76.2167C58.6109 75.5504 58.4419 74.978 58.348 74.734C57.8505 69.3007 58.3011 65.2374 59.221 64.787C59.7185 64.543 60.338 64.3272 60.338 64.3272C60.8918 64.1301 61.3705 64.0175 61.7366 63.9424C61.5864 63.7548 61.2672 63.4169 60.7416 63.1917C60.0845 62.9102 59.4932 62.9853 59.2585 63.0228C60.2066 61.0616 62.5907 55.5719 61.4738 48.4777Z" fill="#34175E"/>
<path d="M81.947 52.6069L78.183 55.9007L76.0992 57.3365C76.0147 56.9423 75.9396 56.2948 76.0617 55.5254C76.1743 54.8497 76.4183 54.3242 76.6061 53.9864C76.6061 53.5359 76.5685 52.9823 76.3339 52.9166C75.9678 52.8134 75.3295 53.9864 74.8508 54.8591C74.006 56.3887 73.8464 57.1394 73.0861 58.5376C72.6637 59.3165 72.2695 59.9171 72.0161 60.283C70.7113 60.7522 69.4066 61.2214 68.0925 61.6906C65.1264 62.7229 62.1696 63.7645 59.2034 64.7967C58.6121 64.7123 55.8712 64.3463 54.5759 65.8383C53.0271 67.6307 53.7499 71.891 57.7016 75.1473C63.2209 71.6001 68.7308 68.053 74.2501 64.4964C76.3902 63.3985 78.5303 62.31 80.6705 61.212C81.7311 59.8514 82.8012 58.4907 83.8619 57.1206C83.8525 57.13 83.5709 52.7008 81.947 52.6069Z" fill="#F5A988"/>
<path d="M57.7002 75.1467L60.8728 73.101C56.0294 71.3181 61.7645 63.8672 61.7645 63.8672C50.3787 66.6073 57.7002 75.1467 57.7002 75.1467Z" fill="#E95925"/>
<path d="M60.7725 63.1918C60.3314 63.0041 59.9183 62.976 59.6274 62.9854C59.5147 62.9948 59.4115 63.0041 59.2894 63.0229C59.2894 63.0229 56.5486 63.2575 56.5486 62.3566C56.5486 61.4558 52.2871 62.7602 51.3766 63.464C50.4661 64.1677 44.2898 72.6509 48.5794 77.2678C49.321 77.3804 49.9405 77.3522 50.3629 77.3053C52.1182 77.005 53.4041 77.2302 54.2864 77.5024C55.2814 77.8214 55.7789 78.2155 56.5955 78.0279C57.384 77.8496 58.2194 77.1927 58.4728 76.2261C58.6418 75.5599 58.4728 74.9875 58.379 74.7435C57.8815 69.3102 58.332 65.2469 59.2519 64.7965C59.7494 64.5525 60.3689 64.3367 60.3689 64.3367C60.9227 64.1396 61.4014 64.027 61.7675 63.9519C61.6173 63.7642 61.2982 63.417 60.7725 63.1918Z" fill="#17082D"/>
<path d="M55.7936 36.3066C58.8066 42.0684 59.7453 46.995 60.0738 50.0917C60.4211 53.301 60.8341 57.796 58.1871 59.9167C57.7929 60.2264 57.4174 60.4235 57.1546 60.5455C56.0845 60.217 53.6534 59.6446 50.9032 60.5549C49.8331 60.9115 48.979 61.3994 48.3501 61.8498C56.0564 59.1285 59.1352 62.8258 59.1352 62.8258C60.1301 60.9021 62.2796 56.1069 61.6789 49.782C60.9937 42.5939 57.1922 37.8832 55.7936 36.3066Z" fill="#17082D"/>
<g opacity="0.53">
<path opacity="0.53" d="M189.929 215.278C209.25 215.278 224.913 211.816 224.913 207.546C224.913 203.275 209.25 199.813 189.929 199.813C170.609 199.813 154.946 203.275 154.946 207.546C154.946 211.816 170.609 215.278 189.929 215.278Z" fill="#50514F"/>
</g>
<path d="M194.941 200.095L189.065 203.868C189.065 203.868 185.207 206.326 184.259 206.401C183.311 206.476 182.635 208.137 183.198 210.53C183.761 212.923 191.984 210.924 191.984 210.924C191.984 210.924 194.462 209.048 196.17 209.094C197.879 209.151 198.517 209.873 198.517 209.873C198.517 209.873 200.779 209.723 201.098 209.432C201.417 209.141 201.915 200.48 201.915 200.48C201.915 200.48 196.687 196.773 194.941 200.095Z" fill="#17082D"/>
<path d="M164.416 194.54L157.62 196.182C157.62 196.182 153.162 197.243 152.242 196.999C151.322 196.764 150.139 198.106 149.867 200.546C149.604 202.986 158.024 203.793 158.024 203.793C158.024 203.793 160.99 202.826 162.586 203.436C164.182 204.046 164.548 204.938 164.548 204.938C164.548 204.938 166.735 205.538 167.129 205.369C167.523 205.2 170.874 197.177 170.874 197.177C170.874 197.177 167.157 191.969 164.416 194.54Z" fill="#17082D"/>
<path d="M188.13 118.689L162.673 195C162.673 195 164.185 198.434 171.065 197.233C171.065 197.233 188.186 162.259 189.594 158.093C191.002 153.926 191.405 150.013 191.405 150.013L213.82 119.337C213.802 119.327 191.696 108.001 188.13 118.689Z" fill="#735343"/>
<path d="M193.208 121.251V124.995L199.872 127.735C197.573 152.265 195.282 176.785 192.983 201.315C199.403 201.606 202.81 201.756 202.81 201.756C204.218 192.879 204.753 189.782 204.753 189.782C206.931 177.161 208.095 175.434 208.827 167.852C209.259 163.385 209.268 159.772 209.231 157.651C212.995 144.523 216.768 131.395 220.532 118.267C220.542 118.295 200.783 93.7277 193.208 121.251Z" fill="#946B58"/>
<path d="M201.863 61.7749L193.715 64.2523L187.886 63.1637L185.943 87.0741L187.886 118.726C195.442 123.259 213.802 119.374 213.802 119.374L210.367 61.7843H201.863V61.7749Z" fill="white"/>
<path d="M199.155 52.7385C189.966 50.2611 193.007 62.0755 193.007 62.0755L193.617 67.5557C201.051 70.6431 202.243 63.0233 202.243 63.0233L199.521 53.9302L199.155 52.7385Z" fill="#AD542D"/>
<path d="M192.575 56.3141C191.946 58.1158 193.364 64.6658 193.364 64.6658C199.54 62.8547 199.146 52.7388 199.146 52.7388C199.146 52.7388 193.204 54.5217 192.575 56.3141Z" fill="#78341C"/>
<path d="M198.884 46.132L193.947 39.6289L181.585 45.522L182.195 50.1483C182.195 50.1483 183.002 63.8865 190.436 62.5446C197.87 61.2027 199.156 52.3536 199.156 52.3536C199.156 52.3536 202.47 52.8885 202.939 48.6C203.408 44.3209 200.095 43.6452 198.884 46.132Z" fill="#AD542D"/>
<path d="M193.948 41.7124C189.921 43.6267 185.904 45.5505 181.877 47.4648C182.055 48.8255 182.234 50.1768 182.412 51.5374C183.135 51.3873 184.392 51.0213 185.641 50.0642C186.439 49.4448 186.974 48.7879 187.321 48.2812C187.321 48.6378 187.321 48.9944 187.321 49.351C187.64 50.0266 187.997 50.2706 188.288 50.3644C189.649 50.7867 191.827 48.5252 193.873 44.7997C196.708 48.3375 197.881 48.8818 198.416 48.6284C198.453 48.6096 198.491 48.619 198.491 48.619C198.838 48.5252 198.876 47.6806 198.876 47.1176C197.243 45.3159 195.6 43.5141 193.948 41.7124Z" fill="#78341C"/>
<path d="M200.64 37.8557C198.237 35.5284 194.66 36.2322 194.285 36.3167C194.435 36.2135 194.67 36.0727 194.98 36.007C195.224 35.9507 195.327 35.9789 195.806 35.9789C196.819 35.9789 196.979 35.8569 197.054 35.7818C197.251 35.5847 197.251 35.3032 197.251 35.2375C197.232 34.7496 196.744 34.4211 196.378 34.3085C196.369 34.3085 196.359 34.2991 196.341 34.2991C195.824 34.1584 195.364 34.2428 195.158 34.2898C194.323 34.4587 193.647 35.0217 193.403 35.2282C193.149 35.444 192.802 35.7724 192.464 36.2604C192.455 35.9976 192.408 35.566 192.182 35.1155C191.694 34.1396 190.559 33.4077 189.545 33.5766C189.423 33.5953 188.719 33.7173 188.55 34.2147C188.447 34.515 188.569 34.8434 188.738 35.0499C189.01 35.3783 189.385 35.3877 189.817 35.5191C190.23 35.641 190.784 35.9038 191.375 36.5231C186.813 35.6035 184.758 36.4481 183.735 37.4897C182.693 38.5595 181.51 39.1319 180.693 41.0181C180.29 41.9565 179.407 42.0879 178.534 42.4257C177.652 42.7635 178.309 44.3212 178.309 44.3212L178.403 44.3025C178.309 44.3212 176.61 44.6778 176.094 46.1136C175.831 46.8362 176.038 47.4461 176.038 47.4461C177.183 50.3927 180.43 47.4461 180.43 47.4461C180.308 47.6995 180.064 48.2907 180.177 49.0226C180.224 49.3417 180.337 49.6044 180.43 49.7921C180.928 49.886 181.491 49.9235 182.101 49.8672C185.039 49.5951 186.86 47.2115 187.32 46.5734C187.32 46.93 187.32 47.2866 187.32 47.6432C187.639 48.3188 187.996 48.5628 188.287 48.6567C189.648 49.0789 191.826 46.8174 193.872 43.0919C196.707 46.6297 197.88 47.174 198.415 46.9206C198.462 46.9018 198.575 46.9957 198.866 46.5077C200.152 44.4339 201.7 45.2972 201.7 45.2972C202.461 42.9887 202.517 41.5623 202.188 40.4363C202.048 39.9202 201.635 38.8128 200.64 37.8557Z" fill="#501216"/>
<path d="M172.796 122.106L167.521 122.866L160.359 127.755H177.386C177.386 127.755 181.423 125.005 180.897 122.49C180.362 119.966 172.796 122.106 172.796 122.106Z" fill="#F08867"/>
<g opacity="0.63">
<path opacity="0.63" d="M198.266 93.381C194.512 95.8865 190.907 97.3786 188.054 98.2982L187.547 102.258C190.128 101.967 193.442 101.235 196.868 99.4149C207.54 93.747 210.431 82.2704 210.985 79.8774C208.958 83.312 205.053 88.8579 198.266 93.381Z" fill="#B7A9A2"/>
</g>
<g opacity="0.63">
<path opacity="0.63" d="M188.343 111.276C188.343 111.276 193.233 119.271 209.237 106.35C209.237 106.35 194.829 115.461 188.343 111.276Z" fill="#B7A9A2"/>
</g>
<path d="M180.703 50.1394C180.3 50.3646 180.253 50.937 180.234 51.1998C180.084 53.0015 182.365 54.7282 182.919 55.1223C182.919 55.1223 182.393 52.0631 182.196 50.5241C181.67 50.0831 181.088 49.9236 180.703 50.1394Z" fill="#AD542D"/>
<path d="M182.77 64.7315C182.45 65.0975 182.253 65.4635 181.944 66.2142C179.315 72.6328 181.578 75.9642 179.156 79.9993C177.682 82.4485 174.979 83.1992 175.974 84.8414C176.452 85.639 177.401 87.9194 177.401 88.7264C177.401 89.5334 177.804 90.7345 177.269 92.2829C176.725 93.8313 176.725 94.9761 176.997 96.1397C177.269 97.3127 173.618 119.384 173.618 119.384L172.811 122.105C172.811 122.105 179.297 123.841 182.131 122.105L184.835 112.796L181.578 127.745H186.862C190.598 115.611 190.861 106.415 190.335 100.109C189.978 95.83 188.946 88.9704 190.176 81.3224C190.391 79.9805 190.983 77.0527 191.903 71.7695C192.475 68.457 192.926 65.7262 193.226 63.9245C191.152 63.3427 185.266 61.8788 182.77 64.7315Z" fill="#97B6C8"/>
<path d="M182.919 71.0381C182.919 71.0381 183.886 105.749 181.586 113.707C179.287 121.665 173.026 121.355 173.026 121.355C173.026 121.355 172.801 122.096 175.973 122.697C179.146 123.297 182.131 122.096 182.131 122.096L184.637 113.707C184.637 113.707 186.524 100.316 185.106 89.5902C183.68 78.8643 182.919 71.0381 182.919 71.0381Z" fill="#50758B"/>
<path d="M195.549 99.9585L190.771 97.9784C190.771 97.9784 187.814 98.1098 186.716 97.9784C185.618 97.8471 184.726 98.213 185.618 98.9638C186.51 99.7145 187.993 99.9209 188.199 100.315C188.406 100.719 188.537 101.235 188.537 101.235L184.689 101.854C184.689 101.854 180.906 101.253 180.568 100.578C180.23 99.9115 178.268 99.9115 179.554 101.854L184.961 105.767L195.586 104.679C195.586 104.688 197.989 101.619 195.549 99.9585Z" fill="#F5A988"/>
<path d="M226.451 82.6919C226.32 78.4034 223.344 78.6662 220.641 70.0892C217.938 61.5122 214.024 61.6436 209.828 61.7656C205.641 61.8876 201.859 61.7656 201.859 61.7656C201.859 61.7656 205.632 73.0358 205.989 76.2545C206.336 79.4732 204.356 89.317 203.567 96.1298L194.941 97.6031C195.26 98.5227 195.579 99.7145 195.701 101.122C195.898 103.318 195.56 105.138 195.222 106.34C197.945 105.964 200.667 105.598 203.389 105.223C203.586 114.954 204.44 127.735 204.44 127.735H222.931L222.124 103.599C229.155 101.995 229.286 93.9433 229.014 92.273C228.742 90.6026 226.583 86.9898 226.451 82.6919Z" fill="#97B6C8"/>
<path d="M203.407 105.233C203.435 105.984 203.454 106.744 203.482 107.494C207.555 106.875 210.916 106.715 213.347 106.687C217.458 106.65 220.95 106.997 221.926 105.214C222.227 104.66 222.208 104.05 222.133 103.609L203.407 105.233Z" fill="#50758B"/>
<path d="M206.854 127.745H222.933L222.379 111.276C222.389 111.276 217.808 125.07 206.854 127.745Z" fill="#50758B"/>
<path d="M211.588 72.2383C209.288 74.7813 210.368 85.3759 210.368 88.9793C210.368 92.5828 203.572 96.1393 203.572 96.1393L214.902 91.0438C214.564 88.6602 211.588 84.8504 211.588 84.8504V72.2383Z" fill="#50758B"/>
<path d="M225.08 86.1276C225.08 86.1276 216.266 85.4238 215.055 90.4817C215.055 90.4817 219.58 87.2443 223.738 88.0044C227.906 88.7645 225.08 86.1276 225.08 86.1276Z" fill="#50758B"/>
<path d="M221.591 90.7721C215.508 90.5375 213.8 91.5322 213.8 91.5322C220.474 90.988 227.26 93.2964 227.26 93.2964C227.26 93.2964 227.673 91.0067 221.591 90.7721Z" fill="#95222F"/>
<path d="M209.239 61.7937L201.871 61.7749C201.871 61.7749 205.297 72.2099 206.001 76.2638C206.696 80.3176 204.114 92.1133 204.114 92.1133L210.375 79.9235L208.517 73.6926L209.239 61.7937Z" fill="#50758B"/>
<path d="M187.884 63.0332V75.589L185.622 80.7126L189.827 94.7417C189.827 94.7417 189.001 87.9758 190.033 82.1672C191.066 76.3585 193.206 63.9247 193.206 63.9247C192.436 63.6901 191.545 63.4743 190.55 63.3053C189.583 63.1458 188.682 63.0707 187.884 63.0332Z" fill="#50758B"/>
<path d="M184.637 51.0972C184.233 51.0972 183.904 51.6133 183.904 52.2514C183.904 52.8895 184.233 53.4056 184.637 53.4056C185.04 53.4056 185.369 52.8895 185.369 52.2514C185.369 51.6133 185.04 51.0972 184.637 51.0972Z" fill="#501216"/>
<path d="M192.532 50.252C192.128 50.2707 191.828 50.8056 191.856 51.4343C191.884 52.0725 192.231 52.5698 192.635 52.5604C193.038 52.5417 193.339 52.0068 193.311 51.378C193.283 50.7399 192.926 50.2332 192.532 50.252Z" fill="#501216"/>
<path d="M188.326 53.9209C188.28 53.9209 188.289 54.2963 188.035 54.8218C187.895 55.1314 187.716 55.366 187.576 55.5256C187.848 56.0135 188.101 56.3514 188.27 56.3138C188.693 56.22 188.458 53.9303 188.326 53.9209Z" fill="#501216"/>
<path d="M194.499 49.9141L194.424 49.8109C193.917 49.1164 192.359 49.0977 191.805 49.154L191.664 49.1634L191.608 48.666L191.748 48.6566C191.983 48.6379 194.086 48.4689 194.846 49.5293L194.93 49.6513L194.499 49.9141Z" fill="#501216"/>
<path d="M182.896 50.421L182.633 49.9893L182.764 49.9237C182.849 49.8861 184.801 48.9196 186.059 49.7454L186.19 49.8298L185.881 50.2333L185.768 50.1583C184.764 49.5014 183.018 50.3647 182.999 50.3741L182.896 50.421Z" fill="#501216"/>
<path d="M192.284 57.9004L187.581 58.6042C190.97 62.02 192.284 57.9004 192.284 57.9004Z" fill="#501216"/>
<path d="M201.396 47.9243C201.04 47.6052 200.43 47.5958 199.866 47.8492C199.895 48.8908 199.913 49.9324 199.941 50.9647C200.148 50.899 200.955 50.6269 201.378 49.8104C201.425 49.726 202.044 48.5061 201.396 47.9243Z" fill="#AD542D"/>
<path d="M203.491 151.815C202.946 156.235 209.235 160.974 209.235 160.974V157.671C204.157 156.151 203.491 151.815 203.491 151.815Z" fill="#735343"/>
<path d="M200.967 199.833L200.685 199.795L206.618 157.867L211.658 127.942L211.94 127.989L206.899 157.914L200.967 199.833Z" fill="white"/>
<path d="M193.182 199.284L193.171 199.565L203.133 199.949L203.143 199.667L193.182 199.284Z" fill="white"/>
<path d="M167.721 195.872L167.467 195.76L188.211 147.188L188.221 147.179L199.747 127.669L199.991 127.82L188.465 147.31L167.721 195.872Z" fill="#D4D4D3"/>
<path d="M170.835 197.008C169.173 196.464 162.622 194.306 162.622 194.306L162.706 194.043C162.706 194.043 169.258 196.201 170.919 196.746L170.835 197.008Z" fill="#D4D4D3"/>
<path d="M102.036 188.863C98.8731 186.282 94.6585 191.462 94.6585 191.462C94.6585 191.462 94.6585 193.649 94.6585 196.52C94.6585 196.52 92.8563 200.245 92.1617 200.499C91.4765 200.752 91.1292 203.549 91.8144 204.055C92.4996 204.562 98.6853 204.055 99.1171 204.055C99.5489 204.055 101.614 202.113 101.098 199.908C100.581 197.712 103.247 194.578 103.247 194.578C103.247 194.578 105.2 191.443 102.036 188.863Z" fill="#17082D"/>
<path d="M103.012 193.967C103.012 193.967 100.347 197.101 100.863 199.297C101.379 201.493 99.3141 203.445 98.8823 203.445C98.4505 203.445 92.2648 203.952 91.5796 203.445C91.5326 203.407 91.4857 203.36 91.4482 203.295C91.4857 203.755 91.5983 204.13 91.8142 204.289C92.4995 204.796 98.6852 204.289 99.117 204.289C99.5487 204.289 101.614 202.347 101.098 200.142C100.581 197.946 103.247 194.812 103.247 194.812C103.247 194.812 104.336 193.066 103.566 191.105C103.81 192.7 103.012 193.967 103.012 193.967Z" fill="white"/>
<path d="M112.706 133.159C112.706 133.159 86.7901 140.46 85.8233 143.116C84.8565 145.781 93.7549 190.458 93.7549 190.458C93.7549 190.458 99.9407 191.65 102.259 187.277L99.2273 152.781L133.779 138.865C133.788 138.865 140.359 124.714 112.706 133.159Z" fill="#1C3158"/>
<path d="M90.0568 146.391C90.0568 146.391 98.1198 151.899 99.8188 159.35L99.2368 152.781C99.2368 152.781 96.1393 147.498 90.0568 146.391Z" fill="#17082D"/>
<path d="M81.3367 194.85L73.743 197.59C73.743 197.59 68.7587 199.363 67.6417 199.279C66.5247 199.194 65.4077 200.715 65.5767 203.173C65.7457 205.632 75.7141 205.031 75.7141 205.031C75.7141 205.031 78.9806 203.595 80.9612 203.933C82.9418 204.271 83.5425 205.097 83.5425 205.097C83.5425 205.097 86.2083 205.332 86.64 205.097C87.0718 204.862 89.3903 196.407 89.3903 196.407C89.3903 196.407 84.0306 191.866 81.3367 194.85Z" fill="#17082D"/>
<path d="M86.6401 205.106C86.2083 205.341 83.5426 205.106 83.5426 205.106C83.5426 205.106 82.9418 204.28 80.9613 203.942C78.9807 203.604 75.7142 205.04 75.7142 205.04C75.7142 205.04 65.7457 205.631 65.5768 203.182C65.5392 202.713 65.558 202.281 65.6143 201.887C65.2295 202.563 65.0136 203.539 65.0887 204.74C65.2576 207.189 75.2261 206.598 75.2261 206.598C75.2261 206.598 78.4926 205.162 80.4732 205.5C82.4537 205.838 83.0545 206.664 83.0545 206.664C83.0545 206.664 85.7202 206.898 86.152 206.664C86.3304 206.57 86.8279 205.068 87.3535 203.332C87.0344 204.327 86.7621 205.04 86.6401 205.106Z" fill="white"/>
<path d="M134.208 84.578L134.997 89.589C141.286 90.7714 142.975 86.2014 142.975 86.2014L142.356 77.5118C134.086 73.0544 134.208 84.578 134.208 84.578Z" fill="#F5A988"/>
<path d="M123.45 134.848L107.484 138.864C101.298 139.117 100.651 142.543 100.651 142.543L79.3807 195.965C80.5446 197.551 82.8631 198.124 84.8906 198.293C86.43 198.424 87.7253 198.405 88.664 198.246C92.9161 191.808 96.5205 186.206 99.374 181.711C105.334 172.327 107.418 168.752 109.549 164.116C111.623 159.612 112.975 155.765 113.801 153.203C145.387 153.963 150.925 144.579 150.925 144.579C142.289 135.185 123.45 134.848 123.45 134.848Z" fill="#0E284F"/>
<path d="M123.458 134.848C127.494 137.719 131.099 139.765 133.849 141.163C135.332 141.914 137.022 142.777 139.396 143.725C139.396 143.725 141.537 144.579 148.68 146.803C148.961 146.587 149.262 146.343 149.571 146.071C150.125 145.564 150.585 145.048 150.942 144.588C150.942 144.579 142.776 135.495 123.458 134.848Z" fill="#17082D"/>
<path d="M104.008 150.032C104.966 150.06 106.984 150.257 108.908 151.618C109.64 152.134 110.551 152.781 111.039 153.935C111.677 155.456 111.095 156.732 110.231 159.866C109.875 161.161 109.396 163.047 108.945 165.412C109.856 163.629 110.776 161.649 111.649 159.463C112.531 157.248 113.235 155.146 113.808 153.204C113.808 153.204 108.777 150.032 107.753 150.032C106.73 150.032 104.008 150.032 104.008 150.032Z" fill="#17082D"/>
<path d="M134.211 84.5787L134.493 86.3522C138.003 87.6941 142.471 79.0139 142.471 79.0139L142.368 77.5125C132.325 73.5055 134.211 84.5787 134.211 84.5787Z" fill="#E95925"/>
<path d="M146.545 86.033L146.611 86.0141C146.611 86.0141 146.309 85.9574 146.545 86.033Z" fill="#F9B555"/>
<path d="M153.508 87.9189C148.336 86.5582 146.872 86.1453 146.544 86.0327L133.271 88.9981C133.271 88.9981 125.668 91.7851 124.119 93.9434C122.57 96.1017 95.1148 127.51 95.1148 127.51L115.746 127.144C114.902 128.617 114.16 130.569 113.813 133.159C113.813 133.159 118.966 134.557 124.513 134.933C130.061 135.317 135.862 139.756 139.982 142.036C144.103 144.317 150.936 144.57 150.936 144.57C152.185 142.956 153.705 140.591 154.822 137.476C156.437 132.981 156.456 128.964 156.23 126.403L158.934 126.356C158.934 126.356 161.252 124.263 160.67 121.973C160.088 119.693 160.764 120.829 160.764 120.829C160.764 120.829 162.219 117.779 162.219 116.071C162.219 114.363 161.637 114.166 162.219 111.501C162.801 108.836 162.219 104.435 162.219 104.435L162.473 96.083C162.473 96.1017 162.21 90.1992 153.508 87.9189Z" fill="#F9B555"/>
<path d="M143.709 71.3558C143.286 71.2151 142.704 71.2995 142.413 71.5529C142.216 71.7312 142.16 71.9283 142.16 71.9283C142.16 71.9283 141.728 64.1865 135.148 64.1208C128.559 64.0551 123.988 68.8128 125.536 73.8895C127.329 80.524 131.187 84.9251 134.698 84.8219C136.115 84.7749 137.448 83.9961 137.945 83.7052C141.362 81.6876 142.348 78.1029 142.573 77.1551C142.939 76.883 143.455 76.4326 143.934 75.7663C144.394 75.1188 145.079 74.1523 144.882 73.0074C144.845 72.876 144.619 71.6561 143.709 71.3558Z" fill="#F5A988"/>
<path d="M135.47 65.3595C130.082 64.4399 124.769 71.1025 125.858 75.1282C125.961 75.5224 126.083 75.9165 126.205 76.3012C128.345 75.3159 130.326 70.0984 130.326 70.0984C130.326 70.0984 130.758 69.5072 129.81 71.4497C128.861 73.3922 130.673 73.6456 130.673 73.6456C131.537 73.3922 132.898 72.8292 133.921 71.5529C134.869 70.38 135.226 68.963 135.31 68.6345C135.31 68.6345 135.338 68.5219 135.695 66.8891C135.714 67.5929 135.845 68.7847 136.502 69.9764C136.925 70.7272 137.356 71.1307 137.769 71.506C137.919 71.6374 138.22 71.9002 138.68 72.0221C138.858 72.0691 139.205 72.1629 139.412 71.9846C139.534 71.8814 139.553 71.7219 139.562 71.628C139.628 71.0181 139.553 70.2767 139.515 69.9201C139.553 70.2017 139.637 70.6239 139.816 71.1119C140.078 71.8157 140.341 72.5195 140.979 72.7447C141.13 72.801 141.486 72.8949 142.031 72.6978C141.28 68.8785 138.614 65.9038 135.47 65.3595Z" fill="#E95925"/>
<path d="M139.807 59.4761C138.53 58.8192 137.592 58.8098 137.291 58.8192C136.831 58.838 136.475 58.9224 135.94 59.0538C135.292 59.2133 134.428 59.4761 133.443 59.9453C133.246 59.7107 132.936 59.3353 132.598 58.8474C131.988 57.9653 131.866 57.5711 131.378 57.3647C130.965 57.1864 130.373 57.177 130.176 57.4491C129.895 57.8433 130.486 58.7347 131.04 59.2227C131.706 59.8045 132.476 59.9453 132.842 59.9828C129.2 59.767 127.285 60.7148 126.206 61.7001C125.004 62.798 123.258 65.3598 121.672 65.6507C121.531 65.6789 120.996 65.754 120.555 66.1575C120.058 66.6173 119.964 67.2366 119.954 67.3399C119.935 67.49 119.87 68.0249 120.095 68.3346C120.489 68.8788 121.86 68.8319 123.399 68.0155C123.146 68.1656 122.78 68.3815 122.367 68.6911C121.588 69.273 121.015 69.7046 120.649 70.3803C120.311 71.0184 119.879 72.3884 120.621 73.0453C121.24 73.6084 122.31 73.2987 122.451 73.2518C122.301 73.5896 122.104 74.1995 122.367 74.6875C122.864 75.6165 124.798 75.4476 125.887 75.0535C128.365 74.162 129.106 71.1498 129.209 70.6899C129.341 70.399 129.463 70.1081 129.463 70.1081C129.463 70.1081 129.378 70.4835 129.36 70.5586C129.284 70.9058 129.181 71.3843 129.35 71.7503C129.575 72.2289 130.195 72.3697 130.355 72.4072C134.569 71.7316 135.94 65.3035 135.94 65.3035C136.024 69.5357 137.404 70.4647 138.605 70.9715C139.807 71.4782 139.206 68.6911 139.206 68.6911C139.366 69.348 139.75 70.4553 140.67 71.5157C141.14 72.0506 141.628 72.4354 142.031 72.7075C142.379 71.8254 143.073 71.3187 143.665 71.4031C144.106 71.4688 144.387 71.8442 144.472 71.9662C144.988 72.6606 144.829 73.5427 144.772 73.8523C144.387 75.8324 142.435 76.9866 142.576 77.1555C142.66 77.2587 143.411 76.7801 143.468 76.7426C144.134 76.3016 144.556 75.7948 144.791 75.457C145.298 74.772 145.476 74.04 145.824 72.5855C145.964 72.0131 146.086 71.2061 146.34 69.6202C146.499 68.6255 146.574 68.1281 146.593 67.9498C146.978 64.5247 141.975 60.5928 139.807 59.4761Z" fill="#501216"/>
<path d="M124.255 96.2334C120.003 105.627 124.912 111.923 123.41 111.717C121.908 111.511 120.388 107.4 120.388 107.4C120.134 109.174 122.838 112.477 123.795 113.491C124.753 114.504 126.442 122.631 126.442 122.631C126.442 122.631 125.278 113.491 124.255 108.16C123.223 102.83 124.255 96.2334 124.255 96.2334Z" fill="#E9912D"/>
<path d="M146.614 113.866C146.417 116.785 144.774 117.423 144.774 117.423C144.774 117.423 126.574 116.531 127.606 119.45C128.639 122.368 126.442 122.622 126.442 122.622H128.798C128.798 122.622 128.376 120.341 128.798 119.45C129.221 118.558 145.393 118.052 145.393 118.052L146.614 116.907L149.261 116.4C149.261 116.4 147.459 111.323 148.36 108.658C149.261 105.993 148.36 107.007 148.36 102.953C148.36 98.8895 151.842 92.7993 151.842 92.7993C145.394 101.564 146.811 110.948 146.614 113.866Z" fill="#E9912D"/>
<path d="M128.796 122.621H127.004C127.004 122.621 128.618 123.447 128.796 126.9H131.303C131.293 126.91 130.758 123.006 128.796 122.621Z" fill="#B86322"/>
<path d="M145.388 118.06C150.71 118.82 154.587 124.197 154.587 124.197H156.474C156.474 124.197 156.558 123.437 154.756 120.809C152.954 118.182 145.388 118.06 145.388 118.06Z" fill="#E5782C"/>
<path d="M148.583 107.907C148.63 107.701 148.677 107.513 148.723 107.344C148.723 107.335 148.648 107.579 148.583 107.907Z" fill="#E5782C"/>
<path d="M156.041 116.324C155.619 115.986 154.953 115.555 154.061 115.395C152.221 115.057 150.625 116.577 150.109 115.564C149.762 114.888 149.508 113.79 149.246 113.537C148.992 113.284 148.711 109.802 148.476 109.436C148.326 109.202 148.457 108.451 148.57 107.916C148.467 108.376 148.354 108.929 148.269 109.568C148.241 109.774 148.138 110.515 148.119 111.163C148.119 111.163 148.025 113.725 149.255 116.418C149.255 116.418 148.936 116.484 148.298 116.606C147.734 116.709 147.171 116.821 146.608 116.925C149.546 116.455 151.573 116.962 152.953 117.6C154.84 118.482 156.257 119.965 156.821 119.543C156.821 119.543 157.008 119.402 156.905 117.262C156.614 116.943 156.332 116.634 156.041 116.324Z" fill="#E5782C"/>
<path d="M132.624 114.626C130.559 115.686 126.992 117.037 126.992 117.037C126.992 117.037 128.747 117.225 130.85 117.15C132.267 117.094 134.398 116.859 136.801 115.639C137.232 115.414 139.448 114.269 141.428 111.829C141.926 111.21 142.545 110.347 143.315 108.845C144.235 107.043 145.493 104.059 146.197 99.8647C143.681 104.36 140.95 107.522 138.95 109.549C136.838 111.679 135.261 113.274 132.624 114.626Z" fill="#E9912D"/>
<path d="M131.939 89.5144C132.587 100.559 146.611 86.0142 146.611 86.0142L133.272 88.9983L131.939 89.5144Z" fill="#E9912D"/>
<path d="M127.004 122.621H121.335C121.335 122.621 117.383 124.779 117.12 125.623C116.867 126.468 116.351 127.125 116.351 127.125L128.797 126.9C128.797 126.909 128.891 123.512 127.004 122.621Z" fill="#F5A988"/>
<path d="M126.016 75.4858C125.875 75.514 125.011 75.6735 124.814 76.2553C124.748 76.443 124.777 76.6213 124.824 76.7808C125.18 78.226 126.316 79.0612 126.316 79.0612C126.494 79.1832 126.691 79.3146 126.926 79.4272C127.32 79.6242 127.696 79.7462 127.996 79.8213C127.78 79.4553 127.564 79.08 127.358 78.6764C126.776 77.5503 126.344 76.4806 126.016 75.4858Z" fill="#E95925"/>
<path d="M144.014 136.331C140.513 137.045 135.726 135.571 135.726 135.571C135.726 135.571 142.484 138.236 146.201 137.476C149.909 136.716 151.843 140.141 151.843 140.141C151.843 140.141 152.875 139.25 151.843 137.091C150.81 134.933 147.516 135.618 144.014 136.331Z" fill="#E5782C"/>
<path d="M144.768 81.2557C143.876 81.5841 142.214 83.1325 142.214 83.1325C140.469 84.9811 137.052 86.1729 135.165 85.6943C134.855 85.6192 133.795 85.2908 133.4 85.7412C133.316 85.8351 133.288 85.9383 133.269 86.0134V89.7857C133.269 89.7857 136.423 95.9135 146.607 86.0134L145.556 81.5091C145.556 81.5091 145.218 81.0868 144.768 81.2557Z" fill="#F9B555"/>
<path d="M134.521 88.2381C134.737 89.9272 134.85 91.2222 134.85 91.2222C134.85 91.2222 134.953 87.9378 135.206 87.3936C135.46 86.8399 135.432 85.7607 135.432 85.7607C135.432 85.7607 134.305 86.549 134.521 88.2381Z" fill="#B86322"/>
<path d="M138.06 86.248C138.06 86.248 138.632 87.7964 138.294 88.4533C137.956 89.1102 138.078 90.7336 138.078 90.7336L138.313 91.4749C138.313 91.4749 138.416 90.1893 138.933 88.6597C139.449 87.1395 138.313 85.4316 138.313 85.4316L138.06 86.248Z" fill="#B86322"/>
<path d="M141.121 84.062C141.121 84.062 141.731 85.0661 142.126 85.7511C142.51 86.4361 142.642 89.3546 142.642 89.3546C142.642 89.3546 142.745 86.6989 142.642 85.7511C142.539 84.8127 141.121 84.062 141.121 84.062Z" fill="#B86322"/>
<path d="M143.653 81.9321L144.451 83.1333L145.249 87.281C145.249 87.281 145.042 83.3679 144.77 82.7767C144.498 82.1855 143.653 81.9321 143.653 81.9321Z" fill="#B86322"/>
<path d="M142.395 73.3458C142.217 73.571 142.282 73.8056 142.339 74.7815C142.367 75.2225 142.376 75.5885 142.376 75.8231C142.611 75.7105 142.949 75.5134 143.24 75.1475C143.737 74.5187 144.019 73.4677 143.597 73.1299C143.306 72.8953 142.658 73.0079 142.395 73.3458Z" fill="#E95925"/>
<path d="M129.703 78.1231C130.04 78.0179 130.142 77.3873 129.932 76.7146C129.721 76.0419 129.278 75.5819 128.941 75.687C128.605 75.7922 128.503 76.4228 128.713 77.0955C128.924 77.7682 129.367 78.2282 129.703 78.1231Z" fill="#501216"/>
<path d="M135.441 73.5898C135.057 73.7118 134.916 74.3499 135.122 75.0162C135.329 75.6918 135.817 76.1329 136.202 76.0202C136.587 75.9076 136.727 75.2601 136.521 74.5939C136.305 73.9182 135.826 73.4772 135.441 73.5898Z" fill="#501216"/>
<path d="M132.213 76.6675C132.354 77.4557 132.317 78.0751 132.26 78.4974C132.204 78.9196 132.101 79.2293 132.288 79.5108C132.476 79.7924 132.936 80.0176 133.218 79.8111C133.405 79.6704 133.471 79.3513 133.349 79.0322C132.964 78.244 132.589 77.4557 132.213 76.6675Z" fill="#B93543"/>
<path d="M133.96 81.8193L133.951 81.5378C133.979 81.5378 137.011 81.3689 137.508 78.9854L137.78 79.0417C137.236 81.641 133.988 81.8193 133.96 81.8193Z" fill="#501216"/>
<path d="M136.194 72.1719C135.959 71.7684 135.687 71.5432 135.396 71.4962C134.964 71.4399 134.598 71.7965 134.589 71.7965L134.392 71.5995C134.41 71.5807 134.861 71.1397 135.434 71.2241C135.818 71.2804 136.156 71.5526 136.438 72.0311L136.194 72.1719Z" fill="#501216"/>
<path d="M127.671 74.5846L127.399 74.5189C127.699 73.3083 128.807 73.4397 128.816 73.4397L128.778 73.7213C128.741 73.7119 127.906 73.618 127.671 74.5846Z" fill="#501216"/>
<path d="M113.785 153.25C111.231 151.898 106.848 149.308 106.228 147.15C106.078 146.643 106.228 146.38 106.228 146.371L106.313 146.418C106.313 146.418 106.181 146.653 106.322 147.131C106.942 149.252 111.288 151.823 113.822 153.165L113.785 153.25Z" fill="white"/>
<path d="M112.989 153.757C112.267 153.757 111.168 153.438 109.732 152.791C108.296 152.153 107.029 151.411 107.01 151.402L107.057 151.317C107.104 151.346 112.107 154.245 113.571 153.551L113.609 153.635C113.449 153.72 113.233 153.757 112.989 153.757Z" fill="white"/>
<path d="M68.9843 98.2881L78.3896 127.895L122.919 127.416L116.161 97.6875L68.9843 98.2881Z" fill="#9792E3"/>
<path d="M83.5492 127.895L122.907 127.416L116.158 97.6875C116.158 97.6875 104.819 123.625 83.5492 127.895Z" fill="#4E1C95"/>
<path d="M92.6115 108.63C93.8556 108.63 94.8642 107.751 94.8642 106.668C94.8642 105.585 93.8556 104.707 92.6115 104.707C91.3673 104.707 90.3587 105.585 90.3587 106.668C90.3587 107.751 91.3673 108.63 92.6115 108.63Z" fill="white"/>
<path d="M242.289 127.022H34.4149C33.3354 127.022 32.4625 127.895 32.4625 128.974V132.408C32.4625 133.487 33.3354 134.36 34.4149 134.36H242.289C243.368 134.36 244.241 133.487 244.241 132.408V128.974C244.241 127.895 243.368 127.022 242.289 127.022Z" fill="#50514F"/>
<path d="M32.451 204.486H38.74L58.9304 134.36H48.2016L32.451 204.486Z" fill="#50514F"/>
<path d="M217.077 134.36L236.986 204.487H243.19L227.656 134.36H217.077Z" fill="#50514F"/>
<path d="M47.4521 137.739C49.5077 137.56 52.0797 137.138 54.905 136.134C56.435 135.59 57.7773 134.98 58.9318 134.37H48.203C47.959 135.486 47.7055 136.612 47.4521 137.739Z" fill="#17082D"/>
<path d="M216.792 134.36C217.946 134.97 219.289 135.589 220.819 136.124C223.644 137.128 226.225 137.55 228.272 137.729C228.018 136.603 227.765 135.477 227.511 134.36H216.792Z" fill="#17082D"/>
<path d="M219.854 91.0902C219.16 90.8462 218.202 91.0714 217.676 91.6626C217.442 91.9348 217.245 92.3383 217.207 93.2298C217.104 95.9793 218.803 98.1282 219.103 98.4942C219.507 98.9915 220.155 99.6859 221.14 100.333C221.835 98.2971 221.825 96.6267 221.741 95.6508C221.647 94.4684 221.412 91.6345 219.854 91.0902Z" fill="#44B2BB"/>
<path d="M229.633 83.7895C229.323 83.8458 228.976 84.0241 228.554 84.634C227.258 86.5108 227.709 88.9225 227.793 89.3542C227.906 89.9172 228.141 90.7618 228.657 91.7471C230.131 90.6961 230.863 89.5231 231.229 88.8005C231.67 87.9184 232.721 85.7977 231.68 84.5777C231.22 84.0147 230.328 83.6487 229.633 83.7895Z" fill="#44B2BB"/>
<path d="M227.89 95.4912C228.078 96.5422 228.312 97.49 228.538 98.4096C229.007 100.305 229.41 101.938 229.213 103.852C229.082 105.072 228.566 106.63 228.031 108.282C227.298 110.515 226.538 112.823 226.538 114.766V118.839H226.914V114.766C226.914 112.88 227.665 110.599 228.387 108.394C228.941 106.724 229.457 105.147 229.589 103.89C229.795 101.919 229.382 100.249 228.904 98.3251C228.678 97.4149 228.444 96.4765 228.265 95.4349C227.721 92.31 230.931 86.0603 230.959 85.9946L230.631 85.8257C230.49 86.0884 227.327 92.2443 227.89 95.4912Z" fill="#009D84"/>
<path d="M223.664 108.807C223.776 107.549 223.88 106.358 223.532 105.072C223.317 104.256 222.81 103.28 222.275 102.238C221.58 100.877 220.857 99.4792 220.66 98.2499L220.238 95.5942L219.872 95.6505L220.294 98.3062C220.501 99.5918 221.233 101.018 221.946 102.407C222.472 103.42 222.96 104.387 223.176 105.166C223.504 106.386 223.401 107.493 223.288 108.769C223.232 109.389 223.176 110.036 223.166 110.749C223.129 112.955 225.842 116.661 225.954 116.821L226.255 116.605C226.226 116.567 223.495 112.842 223.532 110.759C223.551 110.064 223.608 109.426 223.664 108.807Z" fill="#009D84"/>
<path d="M218.05 101.806C217.365 102.032 216.689 102.717 216.539 103.42C216.473 103.74 216.492 104.124 216.877 104.762C218.059 106.714 220.415 107.24 220.838 107.334C221.392 107.446 222.236 107.559 223.335 107.465C222.969 105.673 222.199 104.528 221.683 103.899C221.054 103.13 219.561 101.309 218.05 101.806Z" fill="#44B2BB"/>
<path d="M224.565 96.5234C224.255 96.5797 223.908 96.758 223.486 97.3679C222.19 99.2447 222.641 101.656 222.725 102.088C222.838 102.651 223.073 103.496 223.589 104.481C225.062 103.43 225.795 102.257 226.161 101.534C226.602 100.652 227.653 98.5315 226.611 97.3116C226.151 96.7486 225.26 96.3826 224.565 96.5234Z" fill="#ACD1D6"/>
<path d="M232.993 92.8165C232.674 92.7695 232.298 92.8258 231.707 93.2575C229.886 94.6088 229.557 97.0486 229.501 97.4803C229.435 98.0527 229.388 98.9254 229.567 100.033C231.294 99.5166 232.355 98.6533 232.927 98.0809C233.622 97.3865 235.293 95.7349 234.682 94.2334C234.429 93.5578 233.697 92.9197 232.993 92.8165Z" fill="#ACD1D6"/>
<path d="M233.828 104.669C233.556 104.5 233.19 104.388 232.477 104.547C230.28 105.026 229.003 107.118 228.778 107.494C228.487 107.982 228.102 108.77 227.821 109.849C229.604 110.093 230.918 109.736 231.669 109.455C232.58 109.108 234.767 108.282 234.814 106.668C234.842 105.936 234.429 105.054 233.828 104.669Z" fill="#ACD1D6"/>
<path d="M223.718 88.4535C223.004 88.538 222.216 89.0822 221.925 89.7485C221.794 90.0488 221.747 90.4335 222 91.1279C222.788 93.2768 225.004 94.2528 225.398 94.4217C225.914 94.6469 226.731 94.919 227.829 95.041C227.81 93.2111 227.275 91.9349 226.881 91.2124C226.412 90.3397 225.295 88.2564 223.718 88.4535Z" fill="#ACD1D6"/>
<path d="M225.165 107.719C224.93 107.766 224.667 107.897 224.348 108.357C223.363 109.783 223.71 111.632 223.776 111.951C223.86 112.383 224.039 113.021 224.433 113.771C225.559 112.974 226.113 112.082 226.394 111.519C226.732 110.844 227.54 109.23 226.742 108.301C226.366 107.897 225.691 107.615 225.165 107.719Z" fill="#44B2BB"/>
<path d="M220.286 110.177C219.769 110.365 219.272 110.9 219.168 111.435C219.122 111.679 219.15 111.97 219.45 112.448C220.389 113.903 222.191 114.25 222.51 114.316C222.933 114.391 223.58 114.456 224.406 114.362C224.087 113.011 223.486 112.157 223.083 111.688C222.595 111.116 221.431 109.764 220.286 110.177Z" fill="#ACD1D6"/>
<path d="M225.007 98.0808C224.294 98.1652 223.505 98.7095 223.214 99.3758C223.083 99.6761 223.036 100.061 223.29 100.755C224.078 102.904 226.293 103.88 226.687 104.049C227.204 104.274 228.02 104.546 229.119 104.668C229.1 102.838 228.565 101.562 228.171 100.84C227.701 99.967 226.584 97.8931 225.007 98.0808Z" fill="#44B2BB"/>
<path d="M219.212 104.293L219.1 104.641C219.128 104.65 222.085 105.579 223.164 107.54L223.493 107.362C222.338 105.279 219.334 104.331 219.212 104.293Z" fill="#009D84"/>
<path d="M225.237 100.211L225.049 100.53C225.077 100.549 228.231 102.435 228.935 104.725L229.292 104.622C228.541 102.191 225.368 100.296 225.237 100.211Z" fill="#009D84"/>
<path d="M223.731 90.499L223.543 90.8181C223.571 90.8368 226.725 92.723 227.429 95.0127L227.786 94.9095C227.025 92.4696 223.862 90.5741 223.731 90.499Z" fill="#009D84"/>
<path d="M220.293 111.238L220.181 111.585C220.209 111.594 223.166 112.523 224.245 114.485L224.574 114.306C223.429 112.223 220.425 111.285 220.293 111.238Z" fill="#009D84"/>
<path d="M229.522 99.9383L229.879 100.051C229.888 100.013 231.099 96.3724 233.051 95.19L232.854 94.8804C230.789 96.1284 229.578 99.7882 229.522 99.9383Z" fill="#009D84"/>
<path d="M227.952 109.474C227.98 109.446 230.908 107.034 233.17 107.1L233.18 106.734C230.768 106.659 227.83 109.098 227.708 109.202L227.952 109.474Z" fill="#009D84"/>
<path d="M224.333 113.5L224.709 113.518C224.709 113.49 224.896 110.619 225.919 109.446L225.638 109.202C224.53 110.469 224.343 113.368 224.333 113.5Z" fill="#009D84"/>
<path d="M218.584 115.92C217.683 125.811 222.348 127.199 222.348 127.199H228.9C233.94 124.966 232.739 115.92 232.739 115.92H218.584Z" fill="#F9B555"/>
<path d="M233.847 115.92H217.487C217.177 115.92 216.933 116.173 216.933 116.474V117.45C216.933 117.759 217.186 118.003 217.487 118.003H233.847C234.157 118.003 234.401 117.75 234.401 117.45V116.474C234.401 116.173 234.157 115.92 233.847 115.92Z" fill="white"/>
</svg>
