<svg width="16" height="16" viewBox="0 0 16 16" fill="none" xmlns="http://www.w3.org/2000/svg">
    <path fill-rule="evenodd" clip-rule="evenodd" d="M6.845 2.55a1.333 1.333 0 0 1 2.31 0l5.773 10c.514.888-.128 2-1.154 2H2.227a1.333 1.333 0 0 1-1.155-2l5.773-10zM8 3.215l-5.773 10h11.547L8 3.216zm0 2.667c.368 0 .667.298.667.666v2.667a.667.667 0 0 1-1.334 0V6.55c0-.368.299-.666.667-.666zm-.7 5.333c0-.368.299-.666.667-.666h.067c.368 0 .666.298.666.666v.067a.667.667 0 0 1-.666.667h-.067a.667.667 0 0 1-.667-.667v-.067z" fill="#F5222D"/>
</svg>
