<svg width="24" height="24" viewBox="0 0 24 24" fill="none" xmlns="http://www.w3.org/2000/svg">
    <path fill-rule="evenodd" clip-rule="evenodd" d="M13 2h.563a2 2 0 0 1 1.468.641l4.437 4.792A2 2 0 0 1 20 8.792V20a2 2 0 0 1-2 2H6a2 2 0 0 1-2-2V4a2 2 0 0 1 2-2h7zm-1 2H6v16h12V10h-4a2 2 0 0 1-2-2V4zm5.267 4H14V4.472L17.267 8zm-5.833 3.175a.996.996 0 0 1 .56-.175h.011a.996.996 0 0 1 .561.175l2.989 1.993a1 1 0 0 1-1.11 1.664L13 13.868V18a1 1 0 1 1-2 0v-4.132l-1.445.964a1 1 0 0 1-1.11-1.664l2.989-1.992z" fill="#8C8C8C"/>
</svg>
