<svg width="32" height="32" viewBox="0 0 32 32" fill="none" xmlns="http://www.w3.org/2000/svg">
    <path opacity=".15" d="M9.33 21.356 8 29.334h11.867c2.89 0 4.334 0 5.506-.526a6 6 0 0 0 2.54-2.152c.711-1.069.949-2.494 1.424-5.344l.709-4.252c.213-1.282.32-1.923.134-2.422a2 2 0 0 0-.88-1.039c-.462-.265-1.111-.265-2.411-.265h-8.09c-2.89 0-4.334 0-5.506.526a6 6 0 0 0-2.54 2.152c-.711 1.069-.948 2.494-1.423 5.344z" fill="#4E1C95"/>
    <path fill-rule="evenodd" clip-rule="evenodd" d="M9.32 1.666h-.057c-.536 0-.867 0-1.139.021a7 7 0 0 0-6.436 6.437c-.022.271-.022.582-.021 1.083v10.57c0 1.643 0 2.937.085 3.978.086 1.062.267 1.95.677 2.756a7 7 0 0 0 3.06 3.059c.591.301 1.226.479 1.943.586a1 1 0 0 0 .568.177h11.907c1.411 0 2.526 0 3.433-.068.927-.07 1.71-.216 2.442-.545a7 7 0 0 0 2.964-2.51c.445-.67.717-1.417.939-2.32.216-.884.4-1.983.632-3.374l.006-.04.709-4.252.007-.042c.1-.606.187-1.122.22-1.549.036-.445.025-.898-.141-1.344a3 3 0 0 0-1.32-1.558c-.413-.237-.858-.323-1.303-.361a12.15 12.15 0 0 0-.907-.035 6.335 6.335 0 0 0-6.255-5.336h-3.345l-.214-.001a2 2 0 0 1-1.672-1.034 5.896 5.896 0 0 1-.097-.19l-.01-.02c-.105-.211-.171-.343-.239-.465a7 7 0 0 0-5.852-3.617c-.14-.006-.3-.006-.557-.006h-.026zm16.23 10.667a4.335 4.335 0 0 0-4.217-3.334H17.969c-.111 0-.194 0-.274-.003a4 4 0 0 1-3.47-2.31l-.008-.017a12.658 12.658 0 0 0-.213-.415 5 5 0 0 0-4.18-2.584 14.49 14.49 0 0 0-.503-.004c-.612 0-.859 0-1.042.015a5 5 0 0 0-4.597 4.598c-.015.183-.015.41-.015.98v10.474c0 1.696 0 2.909.078 3.859.077.939.223 1.533.466 2.01a5 5 0 0 0 2.186 2.186c.23.117.488.212.799.288l1.147-6.886.007-.04c.232-1.39.415-2.49.632-3.373.221-.904.494-1.651.938-2.32a7 7 0 0 1 2.964-2.51c.733-.33 1.515-.475 2.443-.545.906-.069 2.021-.069 3.432-.069h6.792zm-5.524 16H12.267c-1.266 0-2.262 0-3.081-.033l1.13-6.78c.24-1.44.411-2.466.608-3.267.194-.788.396-1.288.662-1.689a5 5 0 0 1 2.117-1.793c.439-.197.965-.314 1.774-.375.823-.062 1.862-.063 3.322-.063h8.09c.668 0 1.104 0 1.434.03.32.027.431.075.48.103a1 1 0 0 1 .44.519c.02.053.048.17.023.49-.026.33-.097.761-.207 1.42l-.709 4.252c-.24 1.44-.411 2.465-.608 3.266-.193.788-.395 1.288-.662 1.689a5 5 0 0 1-2.116 1.793c-.44.197-.965.314-1.775.375-.793.06-1.786.063-3.163.063z" fill="#4E1C95"/>
</svg>
