<svg width="24" height="24" viewBox="0 0 24 24" fill="none" xmlns="http://www.w3.org/2000/svg">
<path fill-rule="evenodd" clip-rule="evenodd" d="M13 2H6C4.89543 2 4 2.89543 4 4V20C4 21.1046 4.89543 22 6 22H18C19.1046 22 20 21.1046 20 20V8.79187C20 8.28803 19.8098 7.80275 19.4675 7.43305L15.0306 2.64118C14.6521 2.23239 14.1202 2 13.5631 2H13ZM12 4L6 4L6 20H18L18 10L14 10C12.8954 10 12 9.10457 12 8V4ZM17.2668 8L14 8V4.47187L17.2668 8ZM9 16C8.44771 16 8 16.4477 8 17C8 17.5523 8.44771 18 9 18H15C15.5523 18 16 17.5523 16 17C16 16.4477 15.5523 16 15 16H9ZM8 14C8 13.4477 8.44771 13 9 13H15C15.5523 13 16 13.4477 16 14C16 14.5523 15.5523 15 15 15H9C8.44771 15 8 14.5523 8 14Z" fill="#41A036"/>
</svg>
