<svg width="106" height="238" viewBox="0 0 106 238" fill="none" xmlns="http://www.w3.org/2000/svg">
<g clip-path="url(#clip0_906_130967)">
<path d="M40.5988 83.335H22.0981V118.256H40.5988V83.335Z" fill="#DC9964"/>
<path d="M22.3056 170.437C22.4582 170.512 22.6109 170.577 22.7635 170.609C22.6436 170.642 22.5128 170.653 22.3819 170.653C22.0985 170.653 21.815 170.577 21.5425 170.437C24.0281 169.131 25.936 162.06 25.936 153.532C25.936 145.005 24.039 137.934 21.5425 136.628C21.815 136.477 22.0876 136.412 22.3819 136.412C22.5128 136.412 22.6327 136.423 22.7635 136.455C22.6109 136.488 22.4582 136.552 22.3056 136.628C24.7913 137.934 26.6991 145.005 26.6991 153.532C26.6991 162.06 24.8022 169.131 22.3056 170.437Z" fill="#E6E6E6"/>
<path d="M27.6149 153.532C27.6149 162.567 25.4781 169.983 22.7635 170.609C22.6109 170.577 22.4583 170.512 22.3057 170.437C24.7913 169.13 26.6992 162.06 26.6992 153.532C26.6992 145.004 24.8022 137.934 22.3057 136.628C22.4583 136.552 22.6109 136.487 22.7635 136.455C25.4781 137.081 27.6149 144.486 27.6149 153.532Z" fill="#CCCCCC"/>
<path d="M20.8446 170.437C20.9646 170.502 21.0845 170.545 21.2044 170.588C21.0518 170.631 20.8882 170.663 20.7247 170.663C20.4413 170.663 20.1578 170.588 19.8853 170.448C22.3709 169.141 24.2788 162.071 24.2788 153.543C24.2788 145.015 22.3818 137.945 19.8853 136.639C20.1578 136.488 20.4304 136.423 20.7247 136.423C20.8882 136.423 21.0409 136.444 21.2044 136.498C21.0845 136.531 20.9646 136.585 20.8446 136.65C23.3303 137.956 25.2381 145.026 25.2381 153.554C25.2272 162.06 23.3303 169.131 20.8446 170.437Z" fill="#E6E6E6"/>
<path d="M25.9469 153.532C25.9469 162.459 23.8646 169.8 21.2045 170.588C21.0846 170.555 20.9646 170.501 20.8447 170.436C23.3304 169.13 25.2382 162.06 25.2382 153.532C25.2382 145.004 23.3413 137.934 20.8447 136.628C20.9646 136.563 21.0846 136.52 21.2045 136.477C23.8646 137.265 25.9469 144.605 25.9469 153.532Z" fill="#CCCCCC"/>
<path d="M21.1173 163.668C12.1886 163.668 4.94971 170.836 4.94971 179.666C4.94971 184.739 7.33724 189.273 11.0657 192.198C13.8239 194.368 17.3126 195.663 21.1173 195.663C24.9112 195.663 28.4108 194.368 31.169 192.198C34.8975 189.262 37.285 184.739 37.285 179.666C37.285 170.825 30.0461 163.668 21.1173 163.668ZM21.1173 179.428C17.596 179.428 14.7288 176.6 14.7288 173.102C14.7288 169.616 17.5851 166.777 21.1173 166.777C24.6387 166.777 27.5059 169.605 27.5059 173.102C27.5059 176.6 24.6496 179.428 21.1173 179.428Z" fill="#F2F2F2"/>
<path d="M21.1173 163.668C12.1886 163.668 4.94971 170.836 4.94971 179.666C4.94971 184.739 7.33724 189.273 11.0657 192.198C13.8239 194.368 17.3126 195.663 21.1173 195.663C24.9112 195.663 28.4108 194.368 31.169 192.198C34.8975 189.262 37.285 184.739 37.285 179.666C37.285 170.825 30.0461 163.668 21.1173 163.668ZM21.1173 179.428C17.596 179.428 14.7288 176.6 14.7288 173.102C14.7288 169.616 17.5851 166.777 21.1173 166.777C24.6387 166.777 27.5059 169.605 27.5059 173.102C27.5059 176.6 24.6496 179.428 21.1173 179.428Z" fill="#D9D9D9"/>
<path d="M21.161 161.423C11.033 161.401 2.82385 169.389 2.69303 179.428C2.62761 184.383 4.54636 188.884 7.72974 192.209C8.81994 193.353 10.0628 194.357 11.4255 195.188C12.8101 196.041 13.6495 197.542 13.6495 199.15V233.294L17.6178 237.352C18.0103 237.763 18.5663 237.989 19.1332 237.989C19.4058 237.989 19.6565 237.935 19.9073 237.849C20.1471 237.752 20.376 237.611 20.5723 237.439L24.5951 233.736V228.134L23.6248 227.702V222.65L24.5951 222.218V219.455L23.8211 219.023V213.863L24.5951 213.431V211.111L27.0372 206.89V204.17L28.607 202.421V199.15C28.607 197.531 29.4574 196.03 30.842 195.178C32.1938 194.347 33.4366 193.343 34.5268 192.198C37.6448 188.928 39.5635 184.523 39.5635 179.666C39.5526 169.605 31.3216 161.434 21.161 161.423ZM31.169 192.198C28.4108 194.368 24.9222 195.663 21.1174 195.663C17.3235 195.663 13.824 194.368 11.0658 192.198C7.33727 189.262 4.94974 184.739 4.94974 179.666C4.94974 170.825 12.1887 163.668 21.1174 163.668C30.0461 163.668 37.2741 170.836 37.2741 179.666C37.285 184.739 34.8975 189.273 31.169 192.198Z" fill="white"/>
<path opacity="0.2" d="M19.1005 197.315V238C18.7953 238 18.5009 237.925 18.2393 237.806V205.174L18.8171 197.575C18.828 197.402 18.9588 197.315 19.1005 197.315Z" fill="#262626"/>
<path opacity="0.08" d="M19.9618 205.163V236.802L19.1333 237.99C19.1224 237.99 19.1115 237.99 19.1006 237.99V197.305C19.2314 197.305 19.3622 197.391 19.384 197.564L19.9618 205.163Z" fill="#262626"/>
<path d="M21.1176 166.788C17.5962 166.788 14.729 169.616 14.729 173.114C14.729 176.6 17.5853 179.439 21.1176 179.439C24.6389 179.439 27.5061 176.611 27.5061 173.114C27.5061 169.616 24.6498 166.788 21.1176 166.788ZM21.1176 177.82C18.4902 177.82 16.3534 175.704 16.3534 173.103C16.3534 170.501 18.4902 168.386 21.1176 168.386C23.7449 168.386 25.8817 170.501 25.8817 173.103C25.8817 175.704 23.7558 177.82 21.1176 177.82Z" fill="#F2F2F2"/>
<path opacity="0.2" d="M27.9309 173.524C27.9309 177.01 25.0746 179.849 21.5423 179.849C19.6781 179.849 17.9883 179.051 16.8218 177.788C17.9556 178.802 19.4601 179.428 21.1172 179.428C24.6385 179.428 27.5057 176.6 27.5057 173.103C27.5057 171.462 26.8734 169.972 25.8486 168.85C27.1242 170.015 27.9309 171.678 27.9309 173.524Z" fill="#262626"/>
<path opacity="0.2" d="M32.7607 168.558C29.8498 165.784 25.9033 164.078 21.5425 164.078C12.6138 164.078 5.37488 171.246 5.37488 180.087C5.37488 184.394 7.0974 188.312 9.88831 191.184C6.84665 188.269 4.94971 184.189 4.94971 179.666C4.94971 170.825 12.1886 163.657 21.1174 163.657C25.6962 163.657 29.8171 165.546 32.7607 168.558Z" fill="#262626"/>
<path opacity="0.2" d="M39.5528 179.666C39.5528 184.523 37.645 188.928 34.5161 192.198C33.4259 193.343 32.1831 194.346 30.8313 195.178C29.4467 196.03 28.5963 197.531 28.5963 199.15V202.421L27.0265 204.17V206.89L24.5844 211.111V213.431L23.8104 213.863V219.023L23.189 218.678V213.248L23.9521 212.816V210.495L26.3941 206.275V203.554L27.964 201.806V198.535C27.964 196.916 28.8144 195.415 30.1989 194.562C31.5508 193.731 32.7936 192.727 33.8838 191.583C37.0018 188.312 38.9205 183.908 38.9205 179.05C38.9205 174.161 36.98 169.724 33.8184 166.442C37.3506 169.767 39.5528 174.463 39.5528 179.666Z" fill="#262626"/>
<path opacity="0.2" d="M24.5844 219.455V222.218L23.6141 222.65V227.702L22.9927 227.432V222.035L23.963 221.603V219.109L24.5844 219.455Z" fill="#262626"/>
<path opacity="0.2" d="M24.5845 228.134V233.737L20.5616 237.439C20.3763 237.601 20.1801 237.741 19.9511 237.828C19.9293 237.838 19.9184 237.849 19.8966 237.849C19.6568 237.946 19.3951 238 19.1226 238L19.9511 236.813L23.963 233.121V227.864L24.5845 228.134Z" fill="#262626"/>
<path d="M7.3916 117.273L19.8308 140.773L46.0609 135.333L57.7261 110.84L19.0567 92.7803L7.3916 117.273ZM18.8387 137.416C18.2064 135.678 19.1221 133.757 20.8774 133.131C22.6326 132.505 24.5731 133.411 25.2054 135.149C25.8378 136.887 24.922 138.809 23.1668 139.435C21.4116 140.061 19.471 139.154 18.8387 137.416Z" fill="white"/>
<path d="M28.3376 106.321L21.6172 120.428L34.5532 126.469L41.2736 112.362L28.3376 106.321Z" fill="#FA541C"/>
<path opacity="0.25" d="M32.0083 98.8253C31.5504 103.931 29.7952 112.448 20.2559 112.027C16.3421 111.854 13.5839 110.699 11.5889 108.465L19.0567 92.7803L32.0083 98.8253Z" fill="#262626"/>
<path opacity="0.25" d="M57.7367 110.84L49.7564 127.593C48.6662 128.025 47.467 128.273 46.1479 128.273C33.6215 128.273 34.1993 111.607 34.1993 111.607C34.014 106.403 34.0467 101.967 33.9268 99.7324L57.7367 110.84Z" fill="#262626"/>
<path d="M0 139.283L7.44606 142.759L8.95053 139.586L8.14378 139.208L10.7276 133.778L17.1597 146.397L46.3225 139.877L48.8191 134.598L19.9179 140.589L6.23594 114.736L3.71758 120.026L7.05358 126.567L2.32212 136.488L1.51538 136.11L0 139.283Z" fill="#FA541C"/>
<path opacity="0.25" d="M24.0824 138.938C23.2647 140.374 22.6106 142.576 22.1963 145.264L18.7949 146.02C19.1438 143.591 19.7216 141.033 20.5828 139.305C21.3678 139.673 22.2836 139.737 23.1666 139.424C23.5155 139.316 23.8207 139.144 24.0824 138.938Z" fill="#262626"/>
<path opacity="0.25" d="M22.0985 168.493C21.1173 168.288 20.0816 168.396 19.144 168.817C18.9369 168.385 18.7406 167.878 18.5771 167.306C18.5989 167.295 18.5989 167.295 18.5771 167.306C18.0865 165.6 17.8903 163.485 17.8467 161.704C18.9151 161.52 20.0053 161.423 21.1282 161.423C21.15 163.603 21.3571 166.453 22.0985 168.493Z" fill="#262626"/>
<path d="M23.2216 136.628C21.1176 137.74 19.4278 142.975 18.9699 149.722C18.9372 150.154 18.5774 150.488 18.1413 150.488C17.9887 150.488 17.847 150.445 17.7271 150.38C17.956 150.251 18.1195 150.003 18.1413 149.722C18.6101 142.975 20.289 137.729 22.3931 136.628C22.2623 136.552 22.1205 136.498 21.9788 136.466C22.1096 136.434 22.2514 136.412 22.3822 136.412C22.6766 136.412 22.9491 136.477 23.2216 136.628Z" fill="#E6E6E6"/>
<path d="M21.0846 170.609C20.9647 170.631 20.8448 170.652 20.7249 170.652C18.2501 170.652 16.1896 165.018 15.6445 157.461C15.6118 156.986 15.9934 156.576 16.4731 156.576C16.6039 156.576 16.7238 156.609 16.8329 156.652C16.5276 156.792 16.3314 157.105 16.3532 157.461C16.8656 164.661 18.7734 170.102 21.0846 170.609Z" fill="white"/>
<path d="M21.5536 170.437C21.401 170.523 21.2375 170.577 21.0739 170.621C18.7627 170.113 16.8658 164.662 16.3425 157.462C16.3207 157.117 16.5169 156.803 16.8222 156.652C16.8985 156.685 16.9748 156.739 17.0293 156.793C17.1819 156.933 17.28 157.117 17.2909 157.343C17.7706 164.09 19.4495 169.325 21.5536 170.437Z" fill="#E6E6E6"/>
<path d="M22.8073 170.599C22.6656 170.631 22.5347 170.653 22.393 170.653C19.8856 170.653 17.7815 164.845 17.2909 157.095C17.2255 156.112 17.0074 155.162 16.6586 154.245L16.3097 153.327C15.7864 151.946 15.5684 150.467 15.6992 149.009C16.3097 141.755 18.3266 136.423 20.7359 136.423C20.8776 136.423 21.0194 136.444 21.1502 136.477C18.9262 137.038 17.0947 142.176 16.5277 149.02C16.4078 150.488 16.615 151.967 17.1383 153.338L17.4871 154.256C17.836 155.173 18.054 156.134 18.1194 157.105C18.5773 164.413 20.4852 170.005 22.8073 170.599Z" fill="white"/>
<path d="M23.2213 170.436C23.0796 170.512 22.9378 170.566 22.807 170.609C20.4849 170.015 18.588 164.424 18.1083 157.105C18.0429 156.123 17.8248 155.173 17.476 154.255L17.1271 153.338C16.6038 151.956 16.3858 150.477 16.5166 149.02C17.0835 142.176 18.915 137.049 21.139 136.477C21.2807 136.509 21.4225 136.574 21.5533 136.649C19.5255 137.718 17.8902 142.619 17.356 149.02C17.2361 150.488 17.4432 151.967 17.9665 153.349L18.3154 154.266C18.6643 155.184 18.8823 156.155 18.9477 157.137C19.3947 163.97 21.0954 169.314 23.2213 170.436Z" fill="#E6E6E6"/>
<path d="M22.6982 136.445C22.6001 136.51 22.4911 136.574 22.393 136.628C20.2889 137.74 18.5991 142.976 18.1412 149.722C18.1194 150.003 17.9559 150.24 17.7269 150.381C17.4762 150.24 17.3018 149.97 17.3018 149.668C17.3018 149.647 17.3018 149.625 17.3018 149.614C17.8142 142.468 19.6893 137.049 21.9787 136.477C22.1095 136.445 22.2513 136.423 22.3821 136.423C22.4911 136.412 22.6001 136.423 22.6982 136.445Z" fill="#F2F2F2"/>
<path d="M99.0448 39.2277L18.2065 31.1425L28.6943 0H95.1855L99.0448 39.2277Z" fill="#DC9964"/>
<path d="M57.9113 100.984C58.1947 98.9653 58.3909 96.7524 58.4891 94.3452C58.4891 94.3452 67.7885 98.5335 74.8965 88.3002L79.301 82.1256C79.301 82.1256 85.1553 87.6957 92.536 82.8489C94.8472 81.3268 96.6569 79.1571 97.8343 76.6636C99.6986 72.7127 103.198 64.9298 103.885 60.7739C104.844 55.0311 106.24 44.8086 105.978 42.6065C105.716 40.4044 105.498 30.7864 97.6599 28.1093C89.8105 25.4322 83.629 16.5051 80.4893 15.6847C77.3495 14.8643 73.2613 14.3462 68.2899 12.7917C63.3186 11.2373 61.6615 4.5986 54.7388 4.25317C47.8051 3.90775 46.0717 6.4121 38.0914 7.31885C38.0914 7.31885 30.9397 7.27567 26.4154 6.84388C21.8802 6.4121 17.2141 10.3413 14.3905 13.882C11.556 17.4226 5.28738 30.0631 4.67687 35.8491C4.06636 41.635 3.1942 75.9835 4.67687 88.2354C6.15954 100.487 9.03766 106.122 18.0972 106.532C27.7237 106.964 29.4244 98.296 29.8605 93.2009C29.8605 93.2009 31.5503 92.1323 31.7029 93.46C31.91 95.2843 31.8228 100.217 32.0408 106.111C32.0408 106.111 31.463 122.778 43.9894 122.778C56.494 122.757 57.9113 100.984 57.9113 100.984Z" fill="#F0AE74"/>
<path opacity="0.49" d="M31.5505 58.1074C31.5287 58.4852 31.496 58.8523 31.4742 59.2301C31.387 60.6118 30.7002 72.9069 30.0242 84.0037C29.8389 87.1126 29.7953 93.4598 29.828 93.2116C29.3919 98.3066 27.6803 106.953 18.0648 106.521C12.4284 106.262 9.19054 103.995 7.18457 99.3645C21.5752 103.769 26.4375 98.4901 28.0946 78.995C29.2393 65.4586 30.7329 60.1152 31.5505 58.1074Z" fill="#DC9964"/>
<path opacity="0.49" d="M60.5058 61.1514C60.3968 62.4575 60.2987 63.7529 60.2224 65.0158C60.1243 66.5919 59.2521 82.3412 58.4998 94.3449H58.489C58.4017 96.7629 58.1946 98.965 57.9111 100.984C57.9111 100.984 56.4939 122.756 43.9675 122.756C34.8425 122.756 32.673 113.926 32.1606 109.123C33.905 111.962 36.7286 114.196 41.3183 114.196C53.8447 114.196 55.2729 92.4234 55.2729 92.4234C55.5454 90.4048 55.7525 88.1919 55.8507 85.7847C55.8507 85.7739 56.1777 67.0129 60.5058 61.1514Z" fill="#DC9964"/>
<path opacity="0.49" d="M103.874 60.7734C103.176 64.9401 99.6878 72.7122 97.8235 76.6631C96.6461 79.1566 94.8473 81.3264 92.5252 82.8484C85.1445 87.706 79.2902 82.1252 79.2902 82.1252L74.8967 88.3105C69.8599 95.5645 63.7112 95.5645 60.5605 94.9492C60.7132 92.5312 60.8658 89.9621 61.0184 87.3714C64.1582 87.7492 70.0562 86.7776 74.7985 82.3195C82.2555 75.3137 85.428 58.1071 85.428 58.1071C85.428 58.1071 85.0682 70.2511 85.3299 71.0607C86.1475 73.5003 88.3933 78.0016 93.2011 74.7524C95.1743 73.4139 96.657 71.4817 97.5183 69.2688C99.0336 65.3935 102.021 57.535 102.98 53.3575C103.885 49.4498 105.008 43.5991 105.586 39.4756C105.804 40.8789 105.869 42.0123 105.945 42.606C106.229 44.8081 104.833 55.0414 103.874 60.7734Z" fill="#DC9964"/>
<path d="M35.5732 114.984C35.5732 114.984 37.7972 120.425 43.9242 120.425C50.0511 120.425 52.2751 114.984 52.2751 114.984C51.9916 98.2201 35.8458 98.2201 35.5732 114.984Z" fill="#F6E2CA"/>
<path opacity="0.39" d="M52.2751 114.984C52.2751 114.984 50.0511 120.425 43.9242 120.425C37.7972 120.425 35.5732 114.984 35.5732 114.984C35.5841 114.714 35.5841 114.445 35.595 114.186C35.7586 114.607 38.0371 119.95 43.9242 119.95C49.7349 119.95 52.0352 114.768 52.2533 114.25C52.2642 114.488 52.2751 114.736 52.2751 114.984Z" fill="white"/>
<path opacity="0.39" d="M49.1352 105C47.6198 105.529 45.8319 105.82 43.924 105.82C42.0162 105.82 40.2283 105.518 38.7129 105C41.6891 101.556 46.1481 101.556 49.1352 105Z" fill="white"/>
<path d="M9.51728 99.9906C9.51728 99.9906 11.9157 105.215 17.9118 104.978C23.897 104.729 25.8594 99.3213 25.8594 99.3213C24.9 82.9459 9.10301 83.5936 9.51728 99.9906Z" fill="#F6E2CA"/>
<path opacity="0.39" d="M25.8486 99.3316C25.8486 99.3316 23.8971 104.74 17.901 104.988C11.9158 105.236 9.50651 100.001 9.50651 100.001C9.50651 99.731 9.49561 99.472 9.49561 99.2237C9.67004 99.6231 12.123 104.761 17.8792 104.524C23.5701 104.286 25.6087 99.1373 25.7941 98.6084C25.8268 98.8351 25.8377 99.0834 25.8486 99.3316Z" fill="white"/>
<path opacity="0.39" d="M22.3711 89.6815C20.9102 90.2537 19.1768 90.6207 17.3126 90.6962C15.4483 90.7718 13.6822 90.5559 12.1777 90.1025C14.9577 86.6159 19.3185 86.4432 22.3711 89.6815Z" fill="white"/>
<path d="M38.0477 27.0624C38.0259 27.1596 36.0417 37.123 35.0933 44.0856C34.4936 48.5222 33.8722 54.1138 33.567 59.1333C33.4471 60.936 32.3569 80.7873 31.5501 93.05C31.1358 92.3592 29.8276 93.1796 29.8276 93.1796C29.784 93.6869 29.8276 87.1561 30.0129 83.9933C30.6889 72.8964 31.3757 60.6014 31.4629 59.2196C31.7791 54.0814 32.4005 48.3387 33.0219 43.8049C33.9703 36.7776 35.9763 26.7494 35.9981 26.6522C36.1071 26.0909 36.6631 25.7239 37.23 25.8426C37.7969 25.9614 38.1676 26.5011 38.0477 27.0624Z" fill="#DC9964"/>
<path d="M58.293 97.584C58.3584 96.6773 58.4129 95.7274 58.4783 94.7559C58.4347 95.7274 58.3693 96.6773 58.293 97.584Z" fill="#DC9964"/>
<path d="M66.8073 32.8593C66.7855 32.9564 64.8014 42.9199 63.8529 49.8824C63.2533 54.319 62.6319 59.9106 62.3266 64.9301C62.2285 66.5493 61.3345 82.7736 60.5605 94.95C59.3395 94.7125 58.5763 94.3886 58.5 94.3563C59.2522 82.3526 60.1244 66.6033 60.2225 65.0273C60.5387 59.889 61.1601 54.1463 61.7815 49.6125C62.73 42.5852 64.7359 32.557 64.7577 32.4599C64.8668 31.8985 65.4228 31.5315 65.9897 31.6503C66.5457 31.7582 66.9163 32.2979 66.8073 32.8593Z" fill="#DC9964"/>
<path d="M87.5756 43.9454C87.532 44.8629 86.5726 66.4414 85.3298 72.2058C84.5121 75.9947 82.5061 80.5068 81.0889 83.3998C80.1404 82.86 79.5299 82.3419 79.3555 82.1908C80.7182 79.3842 82.5497 75.2067 83.2911 71.7848C84.4903 66.1931 85.4824 44.0857 85.4933 43.8698C85.5151 43.2977 86.0057 42.8551 86.5835 42.8767C87.1504 42.8983 87.5974 43.3841 87.5756 43.9454Z" fill="#DC9964"/>
</g>
<defs>
<clipPath id="clip0_906_130967">
<rect width="106" height="238" fill="white"/>
</clipPath>
</defs>
</svg>
