<svg width="185" height="117" viewBox="0 0 185 117" fill="none" xmlns="http://www.w3.org/2000/svg">
<g clip-path="url(#clip0_158_9252)">
<path d="M92.5 117C143.31 117 184.5 108.057 184.5 97.0244C184.5 85.9922 143.31 77.0488 92.5 77.0488C41.6898 77.0488 0.5 85.9922 0.5 97.0244C0.5 108.057 41.6898 117 92.5 117Z" fill="#22294F" fill-opacity="0.05"/>
<path d="M158.625 39.2663L129.455 6.44354C128.055 4.20627 126.011 2.85364 123.858 2.85364H61.1424C58.989 2.85364 56.9449 4.20627 55.5447 6.44069L26.375 39.2692V65.6341H158.625V39.2663Z" stroke="#8C8C8C"/>
<path d="M120.137 48.3152C120.137 43.7351 122.995 39.954 126.54 39.9512H158.625V91.708C158.625 97.7663 154.83 102.732 150.144 102.732H34.8562C30.17 102.732 26.375 97.7634 26.375 91.708V39.9512H58.46C62.0049 39.9512 64.8626 43.7266 64.8626 48.3067V48.3695C64.8626 52.9496 67.752 56.6479 71.294 56.6479H113.706C117.248 56.6479 120.137 52.9153 120.137 48.3352V48.3152Z" fill="#FAFAFA" stroke="#8C8C8C"/>
</g>
<defs>
<clipPath id="clip0_158_9252">
<rect width="184" height="117" fill="white" transform="translate(0.5)"/>
</clipPath>
</defs>
</svg>
