<svg width="16" height="16" viewBox="0 0 16 16" fill="none" xmlns="http://www.w3.org/2000/svg">
<path d="M8.75 4.54544C8.75 4.13123 8.41421 3.79544 8 3.79544C7.58579 3.79544 7.25 4.13123 7.25 4.54544V9.04544C7.25 9.24435 7.32902 9.43512 7.46967 9.57577L9.34467 11.4508C9.63756 11.7437 10.1124 11.7437 10.4053 11.4508C10.6982 11.1579 10.6982 10.683 10.4053 10.3901L8.75 8.73478V4.54544Z" fill="#8C8C8C"/>
<path fill-rule="evenodd" clip-rule="evenodd" d="M8 0.5C3.85786 0.5 0.5 3.85786 0.5 8C0.5 12.1421 3.85786 15.5 8 15.5C12.1421 15.5 15.5 12.1421 15.5 8C15.5 3.85786 12.1421 0.5 8 0.5ZM2 8C2 4.68629 4.68629 2 8 2C11.3137 2 14 4.68629 14 8C14 11.3137 11.3137 14 8 14C4.68629 14 2 11.3137 2 8Z" fill="#8C8C8C"/>
</svg>
