<svg width="32" height="32" viewBox="0 0 32 32" fill="none" xmlns="http://www.w3.org/2000/svg">
<path d="M27.586 8.7625V29.9375C27.586 31.075 26.661 32 25.5235 32H6.47351C5.33601 32 4.41101 31.075 4.41101 29.9375V2.0625C4.41101 0.925 5.33601 0 6.47351 0H18.8235L27.586 8.7625Z" fill="#E2E2EE"/>
<path d="M20.0181 8.575L27.5868 11.6938V8.7625L23.2993 7.5L20.0181 8.575Z" fill="#8E8E9B"/>
<path d="M27.5882 8.7625H20.8882C19.7507 8.7625 18.8257 7.8375 18.8257 6.7V0L27.5882 8.7625Z" fill="#C1C1D1"/>
<path d="M15.861 25.275C19.3887 25.275 22.2485 22.4152 22.2485 18.8875C22.2485 15.3598 19.3887 12.5 15.861 12.5C12.3333 12.5 9.47351 15.3598 9.47351 18.8875C9.47351 22.4152 12.3333 25.275 15.861 25.275Z" fill="#31AF91"/>
<path d="M14.8937 22.2068L11.95 19.2631C11.9125 19.2256 11.9125 19.1631 11.95 19.1256L12.8 18.2756C12.8375 18.2381 12.9 18.2381 12.9375 18.2756L14.9625 20.3006L18.775 16.4881C18.8125 16.4506 18.875 16.4506 18.9125 16.4881L19.7625 17.3381C19.8 17.3756 19.8 17.4381 19.7625 17.4756L15.0312 22.2068C14.9937 22.2443 14.9312 22.2443 14.8937 22.2068Z" fill="white"/>
</svg>
