<svg width="16" height="16" viewBox="0 0 16 16" fill="none" xmlns="http://www.w3.org/2000/svg">
<path fill-rule="evenodd" clip-rule="evenodd" d="M7.99967 0.666992C5.54532 0.666992 3.33301 2.37729 3.33301 4.66699V7.69292C3.33301 8.12068 3.20639 8.53886 2.96912 8.89477L1.50293 11.0941C1.39213 11.2603 1.33301 11.4555 1.33301 11.6553C1.33301 12.214 1.78597 12.667 2.34474 12.667H5.66634C5.66634 13.9557 6.71101 15.0003 7.99967 15.0003C9.28834 15.0003 10.333 13.9557 10.333 12.667H13.6546C14.2134 12.667 14.6663 12.214 14.6663 11.6553C14.6663 11.4555 14.6072 11.2603 14.4964 11.0941L13.0302 8.89477C12.793 8.53886 12.6663 8.12068 12.6663 7.69292V4.66699C12.6663 2.37729 10.454 0.666992 7.99967 0.666992ZM4.33301 4.66699C4.33301 3.0907 5.92137 1.66699 7.99967 1.66699C10.078 1.66699 11.6663 3.0907 11.6663 4.66699V7.69292C11.6663 8.3181 11.8514 8.92929 12.1982 9.44947L13.6644 11.6488C13.6657 11.6507 13.6663 11.6529 13.6663 11.6553C13.6663 11.6578 13.6656 11.6597 13.6656 11.6597C13.6656 11.6597 13.6643 11.6621 13.6629 11.6636C13.6615 11.665 13.659 11.6663 13.659 11.6663C13.659 11.6663 13.6572 11.667 13.6546 11.667H2.34474C2.34219 11.667 2.34032 11.6663 2.34032 11.6663C2.34032 11.6663 2.33787 11.665 2.33644 11.6636C2.33502 11.6621 2.33372 11.6597 2.33372 11.6597C2.33372 11.6597 2.33301 11.6578 2.33301 11.6553C2.33301 11.6529 2.33369 11.6507 2.33498 11.6488L3.80117 9.44947C4.14795 8.92929 4.33301 8.3181 4.33301 7.69292V4.66699ZM9.33301 12.667H6.66634C6.66634 13.4034 7.2633 14.0003 7.99967 14.0003C8.73605 14.0003 9.33301 13.4034 9.33301 12.667Z" fill="#F8F8FC"/>
</svg>
