<svg width="18" height="18" viewBox="0 0 18 18" fill="none" xmlns="http://www.w3.org/2000/svg">
<path d="M9 0C4.00909 0 0 4.00909 0 9C0 13.9909 4.00909 18 9 18C13.9909 18 18 13.9909 18 9C18 4.00909 13.9909 0 9 0ZM14.4818 10.4727C14.4 10.8 14.0727 10.9636 13.7455 10.8818L9.16364 9.98182C9 9.98182 8.83636 9.81818 8.67273 9.73636C8.34546 9.57273 8.18182 9.32727 8.18182 9L8.34545 2.45455C8.34545 2.04545 8.67273 1.8 9 1.8C9.32727 1.8 9.65455 2.12727 9.65455 2.45455L9.73636 8.1L13.9909 9.57273C14.4 9.65454 14.5636 10.0636 14.4818 10.4727Z" fill="#B7B7BC"/>
</svg>
