<svg width="36" height="36" viewBox="0 0 36 36" fill="none" xmlns="http://www.w3.org/2000/svg">
<rect width="36" height="36" rx="5" fill="white"/>
<path fill-rule="evenodd" clip-rule="evenodd" d="M17.9999 10.6665C15.5456 10.6665 13.3333 12.3768 13.3333 14.6665V17.6924C13.3333 18.1202 13.2066 18.5384 12.9694 18.8943L11.5032 21.0936C11.3924 21.2598 11.3333 21.455 11.3333 21.6548C11.3333 22.2135 11.7862 22.6665 12.345 22.6665H15.6666C15.6666 23.9552 16.7113 24.9998 17.9999 24.9998C19.2886 24.9998 20.3333 23.9552 20.3333 22.6665H23.6549C24.2136 22.6665 24.6666 22.2135 24.6666 21.6548C24.6666 21.455 24.6075 21.2598 24.4967 21.0936L23.0305 18.8943C22.7932 18.5384 22.6666 18.1202 22.6666 17.6924V14.6665C22.6666 12.3768 20.4543 10.6665 17.9999 10.6665ZM14.3333 14.6665C14.3333 13.0902 15.9216 11.6665 17.9999 11.6665C20.0782 11.6665 21.6666 13.0902 21.6666 14.6665V17.6924C21.6666 18.3176 21.8516 18.9288 22.1984 19.449L23.6646 21.6483C23.6659 21.6502 23.6666 21.6525 23.6666 21.6548C23.6666 21.6573 23.6659 21.6592 23.6659 21.6592C23.6659 21.6592 23.6646 21.6616 23.6632 21.6631C23.6617 21.6645 23.6593 21.6658 23.6593 21.6658C23.6593 21.6658 23.6574 21.6665 23.6549 21.6665H12.345C12.3424 21.6665 12.3406 21.6658 12.3406 21.6658C12.3406 21.6658 12.3381 21.6645 12.3367 21.6631C12.3353 21.6616 12.334 21.6592 12.334 21.6592C12.334 21.6592 12.3333 21.6573 12.3333 21.6548C12.3333 21.6525 12.3339 21.6502 12.3352 21.6483L13.8014 19.449C14.1482 18.9288 14.3333 18.3176 14.3333 17.6924V14.6665ZM19.3333 22.6665H16.6666C16.6666 23.4029 17.2635 23.9998 17.9999 23.9998C18.7363 23.9998 19.3333 23.4029 19.3333 22.6665Z" fill="#17082D"/>
<circle cx="21" cy="15" r="5" fill="#FB3307"/>
<path d="M20.2383 14.6562H20.8398C21.1263 14.6562 21.3385 14.5846 21.4766 14.4414C21.6146 14.2982 21.6836 14.1081 21.6836 13.8711C21.6836 13.6419 21.6146 13.4635 21.4766 13.3359C21.3411 13.2083 21.1536 13.1445 20.9141 13.1445C20.6979 13.1445 20.5169 13.2044 20.3711 13.3242C20.2253 13.4414 20.1523 13.5951 20.1523 13.7852H19.0234C19.0234 13.4883 19.1029 13.2227 19.2617 12.9883C19.4232 12.7513 19.6471 12.5664 19.9336 12.4336C20.2227 12.3008 20.5404 12.2344 20.8867 12.2344C21.4883 12.2344 21.9596 12.3789 22.3008 12.668C22.6419 12.9544 22.8125 13.3503 22.8125 13.8555C22.8125 14.1159 22.7331 14.3555 22.5742 14.5742C22.4154 14.793 22.207 14.9609 21.9492 15.0781C22.2695 15.1927 22.5078 15.3646 22.6641 15.5938C22.8229 15.8229 22.9023 16.0938 22.9023 16.4062C22.9023 16.9115 22.7174 17.3164 22.3477 17.6211C21.9805 17.9258 21.4935 18.0781 20.8867 18.0781C20.319 18.0781 19.8542 17.9284 19.4922 17.6289C19.1328 17.3294 18.9531 16.9336 18.9531 16.4414H20.082C20.082 16.6549 20.1615 16.8294 20.3203 16.9648C20.4818 17.1003 20.6797 17.168 20.9141 17.168C21.1823 17.168 21.3919 17.0977 21.543 16.957C21.6966 16.8138 21.7734 16.625 21.7734 16.3906C21.7734 15.8229 21.4609 15.5391 20.8359 15.5391H20.2383V14.6562Z" fill="white"/>
</svg>
