<svg width="32" height="33" viewBox="0 0 32 33" fill="none" xmlns="http://www.w3.org/2000/svg">
<g clip-path="url(#clip0_6183_8661)">
<path d="M27.5866 9.58305V30.7569C27.5866 31.8955 26.663 32.8183 25.5252 32.8183H6.47159C5.33291 32.8183 4.41016 31.8955 4.41016 30.7569V2.8798C4.41009 1.74111 5.33284 0.818359 6.47159 0.818359H18.8219L27.5866 9.58305Z" fill="#9792E3"/>
<path d="M21.9258 16.8838H10.0742V18.2007H21.9258V16.8838Z" fill="white"/>
<path d="M21.9258 19.8252H10.0742V21.1421H21.9258V19.8252Z" fill="white"/>
<path d="M21.9258 22.7666H10.0742V24.0835H21.9258V22.7666Z" fill="white"/>
<path d="M18.5027 25.707H10.0742V27.024H18.5027V25.707Z" fill="white"/>
<path d="M20.0215 9.39303L27.5904 12.5112V9.58347L23.299 8.31641L20.0215 9.39303Z" fill="#4E1C95"/>
<path d="M27.5889 9.58305H20.8857C19.7469 9.58305 18.8242 8.6603 18.8242 7.52161V0.818359L27.5889 9.58305Z" fill="#B2ACFC"/>
</g>
<defs>
<clipPath id="clip0_6183_8661">
<rect width="32" height="32" fill="white" transform="translate(0 0.818359)"/>
</clipPath>
</defs>
</svg>
