<svg width="16" height="16" viewBox="0 0 16 16" fill="none" xmlns="http://www.w3.org/2000/svg">
<path fill-rule="evenodd" clip-rule="evenodd" d="M10.667 8.00033C10.667 9.47308 9.47308 10.667 8.00033 10.667C6.52757 10.667 5.33366 9.47308 5.33366 8.00033C5.33366 6.52757 6.52757 5.33366 8.00033 5.33366C9.47308 5.33366 10.667 6.52757 10.667 8.00033ZM9.66699 8.00033C9.66699 8.9208 8.9208 9.66699 8.00033 9.66699C7.07985 9.66699 6.33366 8.9208 6.33366 8.00033C6.33366 7.07985 7.07985 6.33366 8.00033 6.33366C8.9208 6.33366 9.66699 7.07985 9.66699 8.00033Z" fill="#F8F8FC"/>
<path fill-rule="evenodd" clip-rule="evenodd" d="M8.00033 0.666992C7.82177 0.666992 7.64462 0.673383 7.46911 0.685959C6.96007 0.722434 6.5721 1.09681 6.46089 1.55484L6.2262 2.52146C6.21353 2.57363 6.16651 2.63624 6.07662 2.66868C5.9109 2.72849 5.74879 2.79578 5.59069 2.87016C5.50433 2.91079 5.42683 2.8998 5.38096 2.87185L4.53142 2.35426C4.1291 2.10913 3.59034 2.1186 3.2046 2.45232C2.93608 2.68462 2.68462 2.93608 2.45232 3.2046C2.1186 3.59034 2.10913 4.1291 2.35426 4.53142L2.87185 5.38096C2.8998 5.42683 2.91079 5.50433 2.87016 5.59069C2.79578 5.74879 2.72849 5.9109 2.66868 6.07662C2.63624 6.16651 2.57363 6.21353 2.52146 6.2262L1.55484 6.46089C1.09681 6.5721 0.722434 6.96007 0.685959 7.46911C0.673383 7.64462 0.666992 7.82177 0.666992 8.00033C0.666992 8.17888 0.673383 8.35603 0.685959 8.53154C0.722434 9.04058 1.09681 9.42855 1.55484 9.53976L2.52146 9.77445C2.57363 9.78712 2.63624 9.83414 2.66868 9.92403C2.72849 10.0898 2.79578 10.2519 2.87016 10.41C2.91079 10.4963 2.8998 10.5738 2.87185 10.6197L2.35426 11.4692C2.10913 11.8716 2.1186 12.4103 2.45232 12.7961C2.68462 13.0646 2.93608 13.316 3.2046 13.5483C3.59035 13.8821 4.1291 13.8915 4.53142 13.6464L5.38096 13.1288C5.42683 13.1009 5.50433 13.0899 5.59069 13.1305C5.74879 13.2049 5.9109 13.2722 6.07662 13.332C6.16651 13.3644 6.21353 13.427 6.2262 13.4792L6.46089 14.4458C6.5721 14.9038 6.96007 15.2782 7.46911 15.3147C7.64462 15.3273 7.82177 15.3337 8.00033 15.3337C8.17888 15.3337 8.35603 15.3273 8.53154 15.3147C9.04058 15.2782 9.42855 14.9038 9.53976 14.4458L9.77445 13.4792C9.78712 13.427 9.83414 13.3644 9.92403 13.332C10.0897 13.2722 10.2519 13.2049 10.41 13.1305C10.4963 13.0899 10.5738 13.1009 10.6197 13.1288L11.4692 13.6464C11.8716 13.8915 12.4103 13.8821 12.7961 13.5483C13.0646 13.316 13.316 13.0646 13.5483 12.7961C13.8821 12.4103 13.8915 11.8716 13.6464 11.4692L13.1288 10.6197C13.1009 10.5738 13.0899 10.4963 13.1305 10.41C13.2049 10.2519 13.2722 10.0897 13.332 9.92403C13.3644 9.83414 13.427 9.78712 13.4792 9.77445L14.4458 9.53976C14.9038 9.42855 15.2782 9.04058 15.3147 8.53154C15.3273 8.35603 15.3337 8.17888 15.3337 8.00033C15.3337 7.82177 15.3273 7.64462 15.3147 7.46911C15.2782 6.96007 14.9038 6.5721 14.4458 6.46089L13.4792 6.2262C13.427 6.21353 13.3644 6.16651 13.332 6.07662C13.2722 5.9109 13.2049 5.74879 13.1305 5.59069C13.0899 5.50433 13.1009 5.42683 13.1288 5.38096L13.6464 4.53142C13.8915 4.1291 13.8821 3.59034 13.5483 3.2046C13.316 2.93608 13.0646 2.68462 12.7961 2.45232C12.4103 2.1186 11.8716 2.10913 11.4692 2.35426L10.6197 2.87185C10.5738 2.8998 10.4963 2.91079 10.41 2.87016C10.2519 2.79578 10.0898 2.72849 9.92403 2.66868C9.83414 2.63624 9.78712 2.57363 9.77445 2.52146L9.53976 1.55484C9.42855 1.09681 9.04058 0.722434 8.53154 0.685959C8.35603 0.673383 8.17888 0.666992 8.00033 0.666992ZM7.54058 1.6834C7.69233 1.67253 7.84564 1.66699 8.00033 1.66699C8.15501 1.66699 8.30832 1.67253 8.46007 1.6834C8.49709 1.68605 8.55004 1.71683 8.56799 1.79079L8.80269 2.75741C8.90416 3.17534 9.21945 3.47754 9.58459 3.60931C9.72086 3.65848 9.8542 3.71383 9.98427 3.77503C10.3358 3.94039 10.7726 3.94966 11.14 3.72583L11.9895 3.20824C12.0545 3.16865 12.1137 3.18429 12.1418 3.20859C12.3739 3.40938 12.5913 3.62676 12.7921 3.85886C12.8164 3.88694 12.832 3.94615 12.7924 4.01112L12.2748 4.86065C12.051 5.22803 12.0603 5.66487 12.2256 6.01638C12.2868 6.14645 12.3422 6.27979 12.3913 6.41606C12.5231 6.7812 12.8253 7.09649 13.2432 7.19796L14.2099 7.43266C14.2838 7.45062 14.3146 7.50356 14.3172 7.54058C14.3281 7.69233 14.3337 7.84564 14.3337 8.00033C14.3337 8.15501 14.3281 8.30832 14.3172 8.46007C14.3146 8.49709 14.2838 8.55004 14.2099 8.56799L13.2432 8.80269C12.8253 8.90416 12.5231 9.21945 12.3913 9.58459C12.3422 9.72086 12.2868 9.8542 12.2256 9.98427C12.0603 10.3358 12.051 10.7726 12.2748 11.14L12.7924 11.9895C12.832 12.0545 12.8164 12.1137 12.7921 12.1418C12.5913 12.3739 12.3739 12.5913 12.1418 12.7921C12.1137 12.8164 12.0545 12.832 11.9895 12.7924L11.14 12.2748C10.7726 12.051 10.3358 12.0603 9.98427 12.2256C9.8542 12.2868 9.72086 12.3422 9.58459 12.3913C9.21945 12.5231 8.90416 12.8253 8.80269 13.2432L8.56799 14.2099C8.55004 14.2838 8.49709 14.3146 8.46007 14.3172C8.30832 14.3281 8.15501 14.3337 8.00033 14.3337C7.84564 14.3337 7.69233 14.3281 7.54058 14.3172C7.50356 14.3146 7.45062 14.2838 7.43266 14.2099L7.19796 13.2432C7.09649 12.8253 6.7812 12.5231 6.41606 12.3913C6.27979 12.3422 6.14645 12.2868 6.01638 12.2256C5.66487 12.0603 5.22803 12.051 4.86065 12.2748L4.01112 12.7924C3.94615 12.832 3.88694 12.8164 3.85886 12.7921C3.62676 12.5913 3.40938 12.3739 3.20859 12.1418C3.18429 12.1137 3.16865 12.0545 3.20824 11.9895L3.72583 11.14C3.94966 10.7726 3.94039 10.3358 3.77503 9.98427C3.71383 9.8542 3.65848 9.72086 3.60931 9.58459C3.47754 9.21945 3.17534 8.90416 2.75741 8.80269L1.79079 8.56799C1.71683 8.55004 1.68605 8.49709 1.6834 8.46007C1.67253 8.30832 1.66699 8.15501 1.66699 8.00033C1.66699 7.84564 1.67253 7.69233 1.6834 7.54058C1.68605 7.50356 1.71683 7.45062 1.79079 7.43266L2.75741 7.19796C3.17534 7.09649 3.47754 6.7812 3.60931 6.41606C3.65848 6.27979 3.71383 6.14645 3.77503 6.01638C3.94039 5.66487 3.94966 5.22803 3.72583 4.86065L3.20824 4.01112C3.16865 3.94615 3.18429 3.88694 3.20859 3.85886C3.40938 3.62676 3.62676 3.40938 3.85886 3.20859C3.88694 3.18429 3.94615 3.16865 4.01112 3.20824L4.86065 3.72583C5.22803 3.94966 5.66487 3.94039 6.01638 3.77503C6.14645 3.71383 6.27979 3.65848 6.41606 3.60931C6.7812 3.47754 7.09649 3.17534 7.19796 2.75741L7.43266 1.79079C7.45062 1.71683 7.50356 1.68605 7.54058 1.6834Z" fill="#F8F8FC"/>
</svg>
