<svg width="52" height="53" viewBox="0 0 52 53" fill="none" xmlns="http://www.w3.org/2000/svg">
<path d="M27 17.998C27 18.5503 26.5523 18.998 26 18.998C25.4477 18.998 25 18.5503 25 17.998C25 17.4458 25.4477 16.998 26 16.998C26.5523 16.998 27 17.4458 27 17.998Z" fill="#1890FF"/>
<path d="M26 20.998C26.5523 20.998 27 21.4458 27 21.998V37.998C27 38.5503 26.5523 38.998 26 38.998C25.4477 38.998 25 38.5503 25 37.998V21.998C25 21.4458 25.4477 20.998 26 20.998Z" fill="#1890FF"/>
<path fill-rule="evenodd" clip-rule="evenodd" d="M52 26.998C52 41.3574 40.3594 52.998 26 52.998C11.6406 52.998 0 41.3574 0 26.998C0 12.6386 11.6406 0.998047 26 0.998047C40.3594 0.998047 52 12.6386 52 26.998ZM50 26.998C50 40.2529 39.2548 50.998 26 50.998C12.7452 50.998 2 40.2529 2 26.998C2 13.7432 12.7452 2.99805 26 2.99805C39.2548 2.99805 50 13.7432 50 26.998Z" fill="#1890FF"/>
</svg>
