<svg width="22" height="22" viewBox="0 0 22 22" fill="none" xmlns="http://www.w3.org/2000/svg">
<path d="M0 11C0 4.92487 4.92487 0 11 0C17.0751 0 22 4.92487 22 11C22 17.0751 17.0751 22 11 22C4.92487 22 0 17.0751 0 11Z" fill="#1890FF"/>
<path d="M13.8391 6.116V13.088C13.8391 14.04 13.5731 14.782 13.0411 15.314C12.5184 15.8367 11.7904 16.098 10.8571 16.098C9.8491 16.098 9.0511 15.8087 8.4631 15.23C7.8751 14.6513 7.5811 13.8253 7.5811 12.752H9.5271C9.5271 13.256 9.62977 13.6433 9.8351 13.914C10.0498 14.1847 10.3624 14.32 10.7731 14.32C11.1464 14.32 11.4218 14.2127 11.5991 13.998C11.7764 13.774 11.8651 13.4707 11.8651 13.088V6.116H13.8391Z" fill="white"/>
</svg>
