<svg width="40" height="40" viewBox="0 0 40 40" fill="none" xmlns="http://www.w3.org/2000/svg">
<rect width="40" height="40" rx="20" fill="#EAFBE8"/>
<path fill-rule="evenodd" clip-rule="evenodd" d="M19.2447 11.9603C19.3035 11.8262 19.4393 11.7391 19.5896 11.7391C20.5751 11.7391 21.3399 12.5723 21.2252 13.5209L20.893 16.2687C20.7368 17.5608 21.7785 18.6957 23.1208 18.6957H26.4097C27.5521 18.6957 28.4037 19.7166 28.1643 20.7992L26.6262 26.8861C26.4489 27.688 25.7177 28.2609 24.8715 28.2609H16.2807V18.7193L19.2447 11.9603ZM14.4862 20.3348C14.2497 20.4002 14.0016 20.4348 13.7477 20.4348H13.589C12.5979 20.4348 11.7945 21.2134 11.7945 22.1739V26.5217C11.7945 27.4822 12.5979 28.2609 13.589 28.2609H14.4862V20.3348ZM19.5896 10C18.7195 10 17.9335 10.5039 17.5932 11.28L14.5734 18.1662C14.4326 18.4872 14.1076 18.6957 13.7477 18.6957H13.589C11.6068 18.6957 10 20.2529 10 22.1739V26.5217C10 28.4427 11.6068 30 13.589 30H24.8715C26.5639 30 28.0262 28.8543 28.3808 27.2505L29.919 21.1636C30.3977 18.9983 28.6946 16.9565 26.4097 16.9565H23.1208C22.8524 16.9565 22.644 16.7295 22.6753 16.4711L23.0075 13.7233C23.2472 11.7411 21.6489 10 19.5896 10Z" fill="#41A036"/>
</svg>
