<svg width="17" height="18" viewBox="0 0 17 18" fill="none" xmlns="http://www.w3.org/2000/svg">
<path d="M1 10.8771C1 9.47187 2.13919 8.33268 3.54445 8.33268V8.33268C4.22488 8.33268 4.83947 7.92609 5.10561 7.29987L7.25543 2.24147C7.40372 1.89256 7.74615 1.66602 8.12527 1.66602V1.66602C9.25643 1.66602 10.1344 2.65283 10.0027 3.7763L9.79545 5.5448C9.70471 6.31917 10.3098 6.99935 11.0895 6.99935H12.6224C14.5323 6.99935 15.956 8.7604 15.5558 10.6279L14.8415 13.9613C14.5451 15.3445 13.3227 16.3327 11.9081 16.3327H4C2.34314 16.3327 1 14.9895 1 13.3327V10.8771Z" stroke="#41A036" stroke-width="1.5"/>
<path d="M5 7.66602V16.3327" stroke="#41A036" stroke-width="1.5"/>
</svg>
