<svg width="24" height="24" viewBox="0 0 24 24" fill="none" xmlns="http://www.w3.org/2000/svg">
<path fill-rule="evenodd" clip-rule="evenodd" d="M13.0965 2.87855C15.2455 0.729611 18.7296 0.72961 20.8785 2.87855C23.0275 5.02749 23.0275 8.51161 20.8785 10.6606L17.3468 14.1923C15.1979 16.3412 11.7138 16.3412 9.56484 14.1923C9.37619 14.0036 9.20409 13.8047 9.04856 13.5972C8.59508 12.9924 9.0894 12.2233 9.84463 12.1909C10.2425 12.1738 10.6091 12.3812 10.8791 12.674C10.9116 12.7092 10.9449 12.7439 10.9791 12.778C12.3469 14.1459 14.5647 14.1459 15.9326 12.778L19.4643 9.24634C20.8322 7.87845 20.8322 5.66066 19.4643 4.29276C18.0964 2.92487 15.8786 2.92487 14.5108 4.29277L12.1884 6.61511C11.9832 6.82027 11.7086 6.94101 11.4187 6.95344L9.86215 7.02022C9.51887 7.03495 9.32188 6.65322 9.56484 6.41026L13.0965 2.87855ZM14.1663 10.2578C14.6913 10.8642 14.1861 11.6964 13.3845 11.7237L13.2881 11.727C12.9804 11.7375 12.6926 11.5919 12.4749 11.3742C11.0756 9.97486 8.80672 9.97486 7.40734 11.3742L3.98966 14.7919C2.59028 16.1913 2.59028 18.4601 3.98966 19.8595C5.38904 21.2589 7.65788 21.2589 9.05726 19.8595L11.1216 17.7951C11.3227 17.594 11.5927 17.4768 11.8769 17.4671L13.6781 17.4058C13.9271 17.3973 14.0653 17.6799 13.8892 17.8561L10.4715 21.2737C8.29104 23.4542 4.75587 23.4542 2.57544 21.2737C0.395018 19.0933 0.395018 15.5581 2.57544 13.3777L5.99313 9.96003C8.17355 7.7796 11.7087 7.7796 13.8892 9.96003C13.9858 10.0567 14.0782 10.156 14.1663 10.2578Z" fill="#2F54EB"/>
</svg>
