<svg width="10" height="12" viewBox="0 0 10 12" fill="none" xmlns="http://www.w3.org/2000/svg">
<path fill-rule="evenodd" clip-rule="evenodd" d="M5.00004 2.3973C4.03354 2.3973 3.25004 3.1808 3.25004 4.1473C3.25004 5.1138 4.03354 5.8973 5.00004 5.8973C5.96654 5.8973 6.75004 5.1138 6.75004 4.1473C6.75004 3.1808 5.96654 2.3973 5.00004 2.3973ZM4.41671 4.1473C4.41671 3.82513 4.67788 3.56397 5.00004 3.56397C5.32221 3.56397 5.58337 3.82513 5.58337 4.1473C5.58337 4.46946 5.32221 4.73063 5.00004 4.73063C4.67788 4.73063 4.41671 4.46946 4.41671 4.1473Z" fill="#777EA6"/>
<path fill-rule="evenodd" clip-rule="evenodd" d="M4.66767 11.6267C4.66767 11.6267 4.668 11.6269 5.00004 11.1473L4.66767 11.6267C4.86743 11.765 5.13232 11.7652 5.33208 11.6269L5.00004 11.1473C5.33208 11.6269 5.33208 11.6269 5.33208 11.6269L5.33396 11.6256L5.33732 11.6233L5.3484 11.6155C5.3577 11.6089 5.37077 11.5996 5.38736 11.5876C5.42054 11.5637 5.46784 11.529 5.52725 11.4841C5.646 11.3943 5.81347 11.2634 6.01343 11.0953C6.41252 10.7598 6.94538 10.2725 7.47979 9.66469C8.53383 8.46587 9.66671 6.71536 9.66671 4.68576C9.66671 3.45789 9.17346 2.28163 8.29759 1.41538C7.42193 0.549355 6.23565 0.0639648 5.00004 0.0639648C3.76443 0.0639648 2.57815 0.549355 1.70249 1.41538C0.826623 2.28163 0.333374 3.45789 0.333374 4.68576C0.333374 6.71536 1.46626 8.46587 2.52029 9.66469C3.0547 10.2725 3.58756 10.7598 3.98665 11.0953C4.18661 11.2634 4.35408 11.3943 4.47283 11.4841C4.53224 11.529 4.57954 11.5637 4.61272 11.5876C4.62932 11.5996 4.64239 11.6089 4.65168 11.6155L4.66276 11.6233L4.66612 11.6256L4.66767 11.6267ZM2.52288 2.24489C3.17878 1.5962 4.06972 1.23063 5.00004 1.23063C5.93037 1.23063 6.82131 1.5962 7.4772 2.24489C8.13288 2.89336 8.50004 3.7715 8.50004 4.68576C8.50004 6.29078 7.59126 7.77104 6.60362 8.89433C6.1172 9.44757 5.62923 9.89415 5.26269 10.2023C5.16551 10.284 5.07718 10.3557 5.00004 10.4168C4.9229 10.3557 4.83457 10.284 4.73739 10.2023C4.37085 9.89415 3.88288 9.44757 3.39646 8.89433C2.40883 7.77104 1.50004 6.29078 1.50004 4.68576C1.50004 3.7715 1.86721 2.89336 2.52288 2.24489Z" fill="#777EA6"/>
</svg>
