<svg width="24" height="24" viewBox="0 0 24 24" fill="none" xmlns="http://www.w3.org/2000/svg">
<path fill-rule="evenodd" clip-rule="evenodd" d="M10.2438 18.2137C10.4 18.3698 10.6117 18.4575 10.8325 18.4575C10.9917 18.4593 11.1479 18.415 11.2825 18.33L15.3625 15.6975C15.4786 15.6219 15.5739 15.5185 15.6399 15.3967C15.7059 15.2749 15.7405 15.1385 15.7405 15C15.7405 14.8615 15.7059 14.7251 15.6399 14.6033C15.5739 14.4815 15.4786 14.3781 15.3625 14.3025L11.2825 11.6775C11.1569 11.5968 11.012 11.5514 10.8629 11.546C10.7137 11.5405 10.5659 11.5753 10.4347 11.6466C10.3036 11.7179 10.1941 11.8231 10.1176 11.9513C10.0411 12.0794 10.0005 12.2258 10 12.375V17.625C10 17.8458 10.0877 18.0576 10.2438 18.2137ZM11.5 16.395V13.59L13.675 15L11.5 16.395Z" fill="#F5222D"/>
<path fill-rule="evenodd" clip-rule="evenodd" d="M1 6C1 3.79086 2.79086 2 5 2H19C21.2091 2 23 3.79086 23 6V18C23 20.2091 21.2091 22 19 22H5C2.79086 22 1 20.2091 1 18V6ZM5 4C3.89543 4 3 4.89543 3 6V8H4.33333L6 4H5ZM6.5 8H10.3333L12 4H8.16667L6.5 8ZM12.5 8H15.8333L17.5 4H14.1667L12.5 8ZM18 8H21V6C21 5.11375 20.4236 4.36214 19.6251 4.09964L18 8ZM21 10H3V18C3 19.1046 3.89543 20 5 20H19C20.1046 20 21 19.1046 21 18V10Z" fill="#F5222D"/>
</svg>
