<svg width="16" height="16" viewBox="0 0 20 20" fill="none" xmlns="http://www.w3.org/2000/svg">
<mask id="path-1-inside-1_814_153629" fill="white">
<path d="M14.4871 15.8779C14.2429 15.2993 13.8884 14.7737 13.4434 14.3304C12.9998 13.8859 12.4743 13.5314 11.8959 13.2867C11.8907 13.2841 11.8856 13.2828 11.8804 13.2802C12.6871 12.6975 13.2116 11.7483 13.2116 10.6773C13.2116 8.90323 11.7742 7.46582 10.0001 7.46582C8.22598 7.46582 6.78857 8.90323 6.78857 10.6773C6.78857 11.7483 7.31303 12.6975 8.1198 13.2815C8.11462 13.2841 8.10944 13.2854 8.10426 13.288C7.52411 13.5327 7.00354 13.8837 6.55677 14.3317C6.11222 14.7753 5.75778 15.3008 5.51303 15.8792C5.27258 16.4454 5.1429 17.0525 5.13101 17.6676C5.13067 17.6814 5.13309 17.6951 5.13814 17.708C5.14319 17.7209 5.15077 17.7326 5.16043 17.7425C5.17008 17.7524 5.18162 17.7603 5.19436 17.7656C5.2071 17.771 5.22079 17.7738 5.23461 17.7738H6.01159C6.06857 17.7738 6.11389 17.7284 6.11519 17.6727C6.14109 16.673 6.54253 15.7368 7.25217 15.0271C7.98641 14.2929 8.96152 13.8889 10.0001 13.8889C11.0387 13.8889 12.0138 14.2929 12.748 15.0271C13.4576 15.7368 13.8591 16.673 13.885 17.6727C13.8863 17.7297 13.9316 17.7738 13.9886 17.7738H14.7656C14.7794 17.7738 14.7931 17.771 14.8058 17.7656C14.8186 17.7603 14.8301 17.7524 14.8397 17.7425C14.8494 17.7326 14.857 17.7209 14.862 17.708C14.8671 17.6951 14.8695 17.6814 14.8692 17.6676C14.8562 17.0486 14.728 16.4464 14.4871 15.8779ZM10.0001 12.9047C9.4057 12.9047 8.84627 12.6729 8.42541 12.252C8.00454 11.8312 7.77275 11.2717 7.77275 10.6773C7.77275 10.0829 8.00454 9.52352 8.42541 9.10266C8.84627 8.68179 9.4057 8.44999 10.0001 8.44999C10.5945 8.44999 11.1539 8.68179 11.5748 9.10266C11.9956 9.52352 12.2274 10.0829 12.2274 10.6773C12.2274 11.2717 11.9956 11.8312 11.5748 12.252C11.1539 12.6729 10.5945 12.9047 10.0001 12.9047Z"/>
</mask>
<path d="M14.4871 15.8779C14.2429 15.2993 13.8884 14.7737 13.4434 14.3304C12.9998 13.8859 12.4743 13.5314 11.8959 13.2867C11.8907 13.2841 11.8856 13.2828 11.8804 13.2802C12.6871 12.6975 13.2116 11.7483 13.2116 10.6773C13.2116 8.90323 11.7742 7.46582 10.0001 7.46582C8.22598 7.46582 6.78857 8.90323 6.78857 10.6773C6.78857 11.7483 7.31303 12.6975 8.1198 13.2815C8.11462 13.2841 8.10944 13.2854 8.10426 13.288C7.52411 13.5327 7.00354 13.8837 6.55677 14.3317C6.11222 14.7753 5.75778 15.3008 5.51303 15.8792C5.27258 16.4454 5.1429 17.0525 5.13101 17.6676C5.13067 17.6814 5.13309 17.6951 5.13814 17.708C5.14319 17.7209 5.15077 17.7326 5.16043 17.7425C5.17008 17.7524 5.18162 17.7603 5.19436 17.7656C5.2071 17.771 5.22079 17.7738 5.23461 17.7738H6.01159C6.06857 17.7738 6.11389 17.7284 6.11519 17.6727C6.14109 16.673 6.54253 15.7368 7.25217 15.0271C7.98641 14.2929 8.96152 13.8889 10.0001 13.8889C11.0387 13.8889 12.0138 14.2929 12.748 15.0271C13.4576 15.7368 13.8591 16.673 13.885 17.6727C13.8863 17.7297 13.9316 17.7738 13.9886 17.7738H14.7656C14.7794 17.7738 14.7931 17.771 14.8058 17.7656C14.8186 17.7603 14.8301 17.7524 14.8397 17.7425C14.8494 17.7326 14.857 17.7209 14.862 17.708C14.8671 17.6951 14.8695 17.6814 14.8692 17.6676C14.8562 17.0486 14.728 16.4464 14.4871 15.8779ZM10.0001 12.9047C9.4057 12.9047 8.84627 12.6729 8.42541 12.252C8.00454 11.8312 7.77275 11.2717 7.77275 10.6773C7.77275 10.0829 8.00454 9.52352 8.42541 9.10266C8.84627 8.68179 9.4057 8.44999 10.0001 8.44999C10.5945 8.44999 11.1539 8.68179 11.5748 9.10266C11.9956 9.52352 12.2274 10.0829 12.2274 10.6773C12.2274 11.2717 11.9956 11.8312 11.5748 12.252C11.1539 12.6729 10.5945 12.9047 10.0001 12.9047Z" fill="white"/>
<path d="M14.4871 15.8779L13.8763 16.1358L13.8767 16.1366L14.4871 15.8779ZM13.4434 14.3304L12.9741 14.7988L12.9755 14.8002L13.4434 14.3304ZM11.8959 13.2867L11.5994 13.8797L11.6182 13.8891L11.6375 13.8973L11.8959 13.2867ZM11.8804 13.2802L11.4922 12.7427L10.6048 13.3837L11.5839 13.8732L11.8804 13.2802ZM8.1198 13.2815L8.41631 13.8745L9.39423 13.3856L8.50859 12.7444L8.1198 13.2815ZM8.10426 13.288L8.36197 13.8989L8.38166 13.8906L8.40077 13.881L8.10426 13.288ZM6.55677 14.3317L7.02511 14.8011L7.02628 14.7999L6.55677 14.3317ZM5.51303 15.8792L6.12331 16.1384L6.12363 16.1376L5.51303 15.8792ZM5.13101 17.6676L5.79384 17.6841L5.79391 17.6804L5.13101 17.6676ZM5.23461 17.7738V17.1107H5.2344L5.23461 17.7738ZM6.11519 17.6727L5.45239 17.6556L5.45234 17.6573L6.11519 17.6727ZM7.25217 15.0271L7.721 15.496L7.25217 15.0271ZM12.748 15.0271L12.2792 15.496L12.748 15.0271ZM13.885 17.6727L14.5478 17.6577L14.5478 17.6556L13.885 17.6727ZM14.7656 17.7738L14.7658 17.1107H14.7656V17.7738ZM14.8692 17.6676L14.2063 17.6814L14.2063 17.6841L14.8692 17.6676ZM15.098 15.62C14.8202 14.9622 14.4172 14.3647 13.9113 13.8607L12.9755 14.8002C13.3595 15.1827 13.6655 15.6364 13.8763 16.1358L15.098 15.62ZM13.9127 13.8621C13.4086 13.357 12.8115 12.9542 12.1543 12.6761L11.6375 13.8973C12.1371 14.1087 12.5909 14.4148 12.9741 14.7988L13.9127 13.8621ZM12.1924 12.6937C12.1715 12.6832 12.1537 12.6756 12.1416 12.6707C12.1355 12.6682 12.1305 12.6663 12.1271 12.665C12.124 12.6638 12.1212 12.6628 12.1209 12.6626C12.1199 12.6623 12.1214 12.6628 12.1232 12.6635C12.1253 12.6643 12.1291 12.6658 12.1338 12.6677C12.1433 12.6715 12.1586 12.678 12.1769 12.6872L11.5839 13.8732C11.6048 13.8837 11.6226 13.8913 11.6347 13.8962C11.6408 13.8987 11.6458 13.9006 11.6492 13.9019C11.6523 13.9031 11.6551 13.9042 11.6554 13.9043C11.6564 13.9046 11.6549 13.9041 11.6531 13.9034C11.651 13.9026 11.6472 13.9012 11.6425 13.8992C11.633 13.8954 11.6177 13.8889 11.5994 13.8797L12.1924 12.6937ZM12.2686 13.8177C13.2408 13.1155 13.8746 11.9698 13.8746 10.6773H12.5486C12.5486 11.5267 12.1335 12.2795 11.4922 12.7427L12.2686 13.8177ZM13.8746 10.6773C13.8746 8.53706 12.1404 6.8028 10.0001 6.8028V8.12884C11.408 8.12884 12.5486 9.26941 12.5486 10.6773H13.8746ZM10.0001 6.8028C7.85981 6.8028 6.12555 8.53706 6.12555 10.6773H7.45159C7.45159 9.26941 8.59216 8.12884 10.0001 8.12884V6.8028ZM6.12555 10.6773C6.12555 11.9699 6.75944 13.1152 7.731 13.8186L8.50859 12.7444C7.86662 12.2797 7.45159 11.5266 7.45159 10.6773H6.12555ZM7.82328 12.6885C7.84162 12.6793 7.85686 12.6728 7.86636 12.669C7.87111 12.6671 7.87486 12.6656 7.87693 12.6648C7.87875 12.6641 7.88022 12.6636 7.87922 12.6639C7.87892 12.6641 7.87616 12.6651 7.87304 12.6663C7.86968 12.6676 7.86463 12.6695 7.85859 12.672C7.8465 12.6769 7.82867 12.6845 7.80774 12.695L8.40077 13.881C8.38243 13.8902 8.3672 13.8967 8.35769 13.9005C8.35294 13.9024 8.34919 13.9039 8.34712 13.9047C8.34531 13.9054 8.34383 13.9059 8.34483 13.9056C8.34513 13.9054 8.3479 13.9044 8.35101 13.9032C8.35437 13.9019 8.35942 13.9 8.36546 13.8975C8.37756 13.8926 8.39538 13.885 8.41631 13.8745L7.82328 12.6885ZM7.84654 12.6771C7.18697 12.9554 6.59452 13.3549 6.08727 13.8636L7.02628 14.7999C7.41255 14.4125 7.86125 14.1101 8.36197 13.8989L7.84654 12.6771ZM6.08844 13.8624C5.5833 14.3665 5.18054 14.9636 4.90243 15.6208L6.12363 16.1376C6.33502 15.6381 6.64115 15.1842 7.0251 14.8011L6.08844 13.8624ZM4.90275 15.6201C4.62918 16.2643 4.48164 16.955 4.46811 17.6547L5.79391 17.6804C5.80417 17.15 5.91598 16.6266 6.12331 16.1384L4.90275 15.6201ZM4.4682 17.651C4.46564 17.7533 4.48358 17.855 4.52096 17.9502L5.75533 17.4658C5.78261 17.5353 5.7957 17.6095 5.79383 17.6841L4.4682 17.651ZM4.52096 17.9502C4.55834 18.0455 4.6144 18.1323 4.68585 18.2055L5.63501 17.2795C5.68714 17.3329 5.72805 17.3963 5.75533 17.4658L4.52096 17.9502ZM4.68585 18.2055C4.75729 18.2787 4.84267 18.3369 4.93695 18.3766L5.45177 17.1546C5.52057 17.1836 5.58287 17.2261 5.63501 17.2795L4.68585 18.2055ZM4.93695 18.3766C5.03123 18.4164 5.13251 18.4368 5.23482 18.4368L5.2344 17.1107C5.30906 17.1107 5.38297 17.1256 5.45177 17.1546L4.93695 18.3766ZM5.23461 18.4368H6.01159V17.1107H5.23461V18.4368ZM6.01159 18.4368C6.43226 18.4368 6.76845 18.1004 6.77803 17.6882L5.45234 17.6573C5.45934 17.3565 5.70488 17.1107 6.01159 17.1107V18.4368ZM6.77799 17.6899C6.79949 16.8601 7.13147 16.0855 7.721 15.496L6.78334 14.5583C5.95358 15.3881 5.48269 16.486 5.45239 17.6556L6.77799 17.6899ZM7.721 15.496C8.33093 14.886 9.13741 14.5519 10.0001 14.5519V13.2258C8.78564 13.2258 7.6419 13.6997 6.78334 14.5583L7.721 15.496ZM10.0001 14.5519C10.8628 14.5519 11.6692 14.886 12.2792 15.496L13.2168 14.5583C12.3583 13.6997 11.2145 13.2258 10.0001 13.2258V14.5519ZM12.2792 15.496C12.8687 16.0855 13.2007 16.8601 13.2222 17.6899L14.5478 17.6556C14.5175 16.486 14.0466 15.3881 13.2168 14.5583L12.2792 15.496ZM13.2221 17.6878C13.2317 18.1073 13.5736 18.4368 13.9886 18.4368V17.1107C14.2896 17.1107 14.5409 17.3522 14.5478 17.6577L13.2221 17.6878ZM13.9886 18.4368H14.7656V17.1107H13.9886V18.4368ZM14.7654 18.4368C14.8677 18.4368 14.9689 18.4164 15.0632 18.3766L14.5484 17.1546C14.6172 17.1256 14.6911 17.1107 14.7658 17.1107L14.7654 18.4368ZM15.0632 18.3766C15.1575 18.3369 15.2429 18.2787 15.3143 18.2055L14.3652 17.2795C14.4173 17.2261 14.4796 17.1836 14.5484 17.1546L15.0632 18.3766ZM15.3143 18.2055C15.3858 18.1323 15.4418 18.0455 15.4792 17.9502L14.2448 17.4658C14.2721 17.3962 14.313 17.3329 14.3652 17.2795L15.3143 18.2055ZM15.4792 17.9502C15.5166 17.855 15.5345 17.7532 15.532 17.651L14.2063 17.6841C14.2045 17.6095 14.2176 17.5353 14.2448 17.4658L15.4792 17.9502ZM15.532 17.6537C15.5173 16.9511 15.3716 16.2658 15.0976 15.6193L13.8767 16.1366C14.0844 16.627 14.1951 17.146 14.2063 17.6814L15.532 17.6537ZM10.0001 12.2417C9.58173 12.2417 9.19089 12.0798 8.89424 11.7832L7.95658 12.7208C8.50165 13.2659 9.22967 13.5677 10.0001 13.5677V12.2417ZM8.89424 11.7832C8.59758 11.4865 8.43577 11.0957 8.43577 10.6773H7.10972C7.10972 11.4478 7.41151 12.1758 7.95658 12.7208L8.89424 11.7832ZM8.43577 10.6773C8.43577 10.259 8.59758 9.86814 8.89424 9.57149L7.95658 8.63383C7.41151 9.1789 7.10972 9.90692 7.10972 10.6773H8.43577ZM8.89424 9.57149C9.19089 9.27483 9.58173 9.11302 10.0001 9.11302V7.78697C9.22967 7.78697 8.50165 8.08876 7.95658 8.63383L8.89424 9.57149ZM10.0001 9.11302C10.4184 9.11302 10.8093 9.27483 11.1059 9.57149L12.0436 8.63383C11.4985 8.08876 10.7705 7.78697 10.0001 7.78697V9.11302ZM11.1059 9.57149C11.4026 9.86814 11.5644 10.259 11.5644 10.6773H12.8905C12.8905 9.90692 12.5887 9.1789 12.0436 8.63383L11.1059 9.57149ZM11.5644 10.6773C11.5644 11.0957 11.4026 11.4865 11.1059 11.7832L12.0436 12.7208C12.5887 12.1758 12.8905 11.4478 12.8905 10.6773H11.5644ZM11.1059 11.7832C10.8093 12.0798 10.4184 12.2417 10.0001 12.2417V13.5677C10.7705 13.5677 11.4985 13.2659 12.0436 12.7208L11.1059 11.7832Z" fill="white" mask="url(#path-1-inside-1_814_153629)"/>
<path fill-rule="evenodd" clip-rule="evenodd" d="M15.1933 12.58C15.8644 13.2486 16.3991 14.0413 16.7675 14.914C17.1308 15.7714 17.3242 16.6796 17.3437 17.6132C17.3442 17.634 17.3406 17.6548 17.3329 17.6742C17.3253 17.6936 17.3139 17.7113 17.2993 17.7262C17.2848 17.7411 17.2674 17.753 17.2482 17.7611C17.2289 17.7692 17.2083 17.7733 17.1875 17.7733H16.0156C15.9296 17.7733 15.8613 17.7069 15.8593 17.621C15.8203 16.1132 15.2148 14.7011 14.1445 13.6308C13.5318 13.0181 12.808 12.5579 12.0183 12.269C12.3344 11.8477 12.5217 11.3243 12.5217 10.7571C12.5217 10.3324 12.4167 9.93217 12.2312 9.58105C12.2802 9.53736 12.3282 9.49209 12.375 9.44526C13.0097 8.8105 13.3594 7.96676 13.3594 7.07028C13.3594 6.1738 13.0097 5.33006 12.375 4.6953C11.7402 4.06053 10.8965 3.71093 10 3.71093C9.10352 3.71093 8.25978 4.06053 7.62502 4.6953C6.99025 5.33006 6.64065 6.1738 6.64065 7.07028C6.64065 7.96676 6.99025 8.8105 7.62502 9.44526C7.67204 9.49229 7.72021 9.53775 7.76947 9.58162C7.58416 9.9326 7.47925 10.3326 7.47925 10.7571C7.47925 11.3242 7.66646 11.8475 7.98246 12.2687C7.19245 12.5576 6.46834 13.0179 5.8555 13.6308C4.78519 14.7011 4.17973 16.1132 4.14066 17.621C4.13871 17.705 4.07035 17.7733 3.98442 17.7733H2.81255C2.7917 17.7733 2.77105 17.7692 2.75184 17.7611C2.73262 17.753 2.71522 17.7411 2.70066 17.7262C2.6861 17.7113 2.67467 17.6936 2.66705 17.6742C2.65943 17.6548 2.65578 17.634 2.6563 17.6132C2.67423 16.6855 2.86982 15.7699 3.23247 14.9159C3.60161 14.0436 4.13619 13.251 4.80668 12.582C5.4805 11.9062 6.26565 11.3769 7.14064 11.0078C7.14455 11.0058 7.14846 11.0043 7.15236 11.0029C7.15627 11.0014 7.16018 10.9999 7.16408 10.998C5.94729 10.1171 5.15628 8.6855 5.15628 7.07028C5.15628 4.39452 7.32424 2.22656 10 2.22656C12.6758 2.22656 14.8437 4.39452 14.8437 7.07028C14.8437 8.6855 14.0527 10.1171 12.8359 10.996C12.8398 10.998 12.8437 10.9995 12.8476 11.0009C12.8515 11.0024 12.8555 11.0038 12.8594 11.0058C13.7317 11.3749 14.5243 11.9095 15.1933 12.58Z" fill="white"/>
</svg>
