<svg width="479" height="368" viewBox="0 0 479 368" fill="none" xmlns="http://www.w3.org/2000/svg">
<g clip-path="url(#clip0_689_122172)">
<path d="M442.009 1.8042H362.974V132.626H442.009V1.8042Z" fill="#E0E0E0"/>
<path d="M439.375 1.8042H360.34V132.626H439.375V1.8042Z" fill="#EBEBEB"/>
<path d="M436.001 4.45361H363.702V129.969H436.001V4.45361Z" fill="white"/>
<path d="M421.931 20.7656H377.472V113.665H421.931V20.7656Z" fill="#EBEBEB"/>
<path d="M377.473 80.7879C377.369 72.074 385.177 63.6389 393.768 62.4277C397.864 61.8526 402.221 62.663 406.046 61.0945C412.878 58.2886 415.057 49.2087 421.932 46.5161L422.246 113.665H377.473V80.7879Z" fill="#E0E0E0"/>
<path d="M383.509 288.493C379.851 286.201 375.716 284.779 371.423 284.336C369.453 284.136 367.292 284.188 365.715 285.39C365.533 285.495 365.382 285.646 365.277 285.828C365.173 286.01 365.12 286.217 365.123 286.427C365.213 286.727 365.412 286.981 365.68 287.142C370.595 290.898 378.028 291.368 383.509 288.493Z" fill="#E0E0E0"/>
<path d="M383.195 288.153C380.397 286.102 377.787 283.807 375.396 281.295C372.994 278.765 371.304 275.644 370.499 272.25C370.342 271.747 370.296 271.217 370.363 270.695C370.431 270.173 370.611 269.672 370.891 269.226C377.104 274.08 381.993 280.362 383.195 288.161" fill="#E0E0E0"/>
<path d="M383.438 288.448C382.859 285.052 382.909 281.579 383.586 278.201C384.28 274.798 386.227 271.781 389.041 269.748C390.113 272.266 389.651 275.159 388.893 277.782C387.717 281.836 385.889 285.67 383.482 289.137" fill="#E0E0E0"/>
<path d="M389.541 299.367C385.838 299.82 382.613 301.772 379.851 304.273C377.074 306.803 375.139 310.124 374.309 313.789C377.943 313.562 381.019 311 383.25 308.133C385.48 305.266 387.031 302.112 389.489 299.419" fill="#E0E0E0"/>
<path d="M390.864 301.119C389.408 297.419 388.897 293.415 389.378 289.468C389.859 285.522 391.316 281.757 393.617 278.515C395.726 286.018 394.951 294.488 390.864 301.119Z" fill="#E0E0E0"/>
<path d="M398.917 310.712C395.528 310.492 392.15 311.277 389.205 312.968C386.26 314.659 383.879 317.181 382.361 320.219C382.16 320.628 381.977 321.151 382.256 321.517C382.399 321.653 382.573 321.753 382.762 321.809C382.951 321.865 383.151 321.875 383.345 321.84C386.604 321.622 389.489 319.67 391.867 317.483C394.246 315.295 396.329 312.673 398.952 310.747" fill="#E0E0E0"/>
<path d="M398.665 310.19C396.929 304.605 396.82 298.642 398.352 292.997C398.962 290.793 399.972 288.458 402.02 287.421C402.095 287.368 402.18 287.335 402.27 287.323C402.36 287.311 402.452 287.321 402.537 287.351C402.623 287.382 402.699 287.433 402.761 287.5C402.823 287.566 402.868 287.647 402.892 287.734C403.58 289.283 403.879 290.976 403.763 292.666C403.639 294.349 403.38 296.019 402.987 297.659C402.343 300.709 402.003 303.986 400.33 306.617C399.933 307.25 399.578 307.908 399.267 308.587C398.944 309.258 398.944 309.458 398.657 310.024" fill="#E0E0E0"/>
<path d="M419.98 313.362C418.403 307.358 420.085 300.073 423.866 295.141C424.145 294.784 424.52 294.391 424.973 294.435C425.67 294.496 425.844 295.428 425.844 296.125C425.562 302.306 423.538 308.281 420.006 313.362" fill="#E0E0E0"/>
<path d="M421.905 314.678C425.639 315.561 429.521 315.624 433.282 314.861C437.043 314.098 440.594 312.528 443.689 310.26C440.052 308.425 435.89 307.913 431.917 308.813C427.978 309.685 424.388 311.471 421.939 314.678" fill="#E0E0E0"/>
<path d="M423.524 310.677C427.611 304.011 435.453 299.663 443.261 299.262C442.389 302.443 439.775 304.909 436.804 306.399C433.79 307.758 430.602 308.694 427.332 309.179C426.068 309.423 424.343 309.693 423.524 310.686" fill="#E0E0E0"/>
<path d="M420.386 291.263C421.625 287.506 422.472 283.631 422.913 279.699C423.345 275.742 422.542 271.749 420.613 268.267C416.787 275.656 416.404 284.292 420.273 291.655" fill="#E0E0E0"/>
<path d="M433.252 284.78C437.713 276.667 446.828 270.184 456.047 269.269C452.492 278.131 442.793 284.954 433.252 284.78Z" fill="#E0E0E0"/>
<path d="M430.437 286.357C437.103 287.368 442.776 291.586 448.998 294.2C450.303 294.831 451.751 295.111 453.198 295.01C453.87 295.001 454.523 294.787 455.069 294.395C455.615 294.004 456.028 293.455 456.252 292.821C456.476 292.187 456.501 291.5 456.322 290.853C456.144 290.205 455.771 289.627 455.254 289.198C454.373 288.382 453.335 287.754 452.204 287.351C445.425 284.527 438.157 284.458 431.012 286.165" fill="#E0E0E0"/>
<path d="M426.546 291.028C428.054 291.455 428.568 292.239 429.762 293.259C433.846 296.717 438.674 299.183 443.87 300.465C444.41 300.605 445.116 300.657 445.386 300.169C445.656 299.681 445.316 299.228 445.02 298.853C442.756 296.203 439.822 294.211 436.524 293.084C433.273 291.873 430.424 290.418 426.581 290.732" fill="#E0E0E0"/>
<path d="M422.237 262.813C424.966 265.335 428.192 267.258 431.708 268.459C435.224 269.66 438.953 270.111 442.654 269.784C442.994 269.788 443.325 269.67 443.586 269.453C444.101 268.895 443.482 268.032 442.881 267.562C436.877 262.882 429.609 260.939 422.237 262.839" fill="#E0E0E0"/>
<path d="M427.42 260.921C431.034 258.26 435.227 256.492 439.656 255.762C444.084 255.032 448.622 255.361 452.9 256.721C449.566 259.814 445.286 261.69 440.752 262.045C436.277 262.457 431.764 262.077 427.42 260.921Z" fill="#E0E0E0"/>
<path d="M425.339 247.955C424.755 241.968 425.139 237.237 424.721 231.215C424.721 230.736 424.581 230.152 424.137 229.978C423.509 229.743 422.987 230.51 422.777 231.146C421.903 233.936 421.678 236.89 422.12 239.781C422.563 242.672 423.661 245.423 425.331 247.824" fill="#E0E0E0"/>
<path d="M424.911 248.618C428.827 246.093 432.201 242.814 434.836 238.972C436.797 236.288 438.452 233.072 438.008 229.787C436.627 229.82 435.269 230.156 434.032 230.77C432.794 231.384 431.707 232.262 430.845 233.342C429.132 235.508 427.888 238.007 427.194 240.679C426.401 243.294 425.843 246.03 424.911 248.618Z" fill="#E0E0E0"/>
<path d="M434.66 245.907C443.586 242.596 451.848 237.718 459.059 231.503C456.14 230.327 452.794 231.032 449.883 232.209C443.26 234.719 437.788 239.571 434.503 245.846" fill="#E0E0E0"/>
<path d="M427.657 251.902C432.162 252.39 436.745 252.713 441.216 251.963C445.686 251.214 449.773 249.488 453.886 247.754C454.25 247.658 454.563 247.424 454.757 247.101C454.822 246.911 454.828 246.706 454.774 246.513C454.719 246.32 454.607 246.148 454.452 246.02C454.136 245.771 453.766 245.598 453.372 245.515C448.901 244.26 444.083 244.853 439.682 246.334C435.495 247.764 431.471 249.63 427.674 251.902" fill="#E0E0E0"/>
<path d="M401.894 262.995C398.818 256.791 399.019 249.541 401.676 243.136C403.55 245.986 403.776 249.619 403.419 253.009C403.062 256.399 402.042 259.902 401.973 263.309" fill="#E0E0E0"/>
<path d="M389.61 256.817C385.758 256.771 381.938 257.529 378.396 259.043C374.853 260.557 371.665 262.794 369.036 265.61C372.917 266.078 376.849 265.348 380.303 263.518C383.732 261.689 386.964 259.514 389.95 257.027" fill="#E0E0E0"/>
<path d="M381.349 254.055C377.585 253.75 373.969 253.279 370.361 254.386C368.537 254.9 366.846 255.8 365.401 257.025C363.956 258.251 362.792 259.773 361.987 261.488C365.536 261.768 369.094 261.084 372.287 259.51C375.466 257.955 378.499 256.118 381.349 254.02" fill="#E0E0E0"/>
<path d="M393.583 254.177C390.202 251.963 386.725 249.706 382.795 248.791C378.865 247.876 374.291 248.547 371.546 251.519C374.735 253.384 378.604 253.61 382.299 253.601C385.993 253.593 390.516 253.558 394.001 254.795" fill="#E0E0E0"/>
<path d="M393.604 254.359C387.826 248.678 385.631 238.482 387.957 230.727C392.519 237.713 394.515 246.066 393.604 254.359Z" fill="#E0E0E0"/>
<path d="M409.493 238.274C410.582 235.747 411.349 233.045 412.325 230.501C413.217 227.883 414.588 225.454 416.368 223.338C418.174 221.211 420.743 219.878 423.522 219.626C422.633 223.536 420.939 227.217 418.547 230.436C416.156 233.654 413.119 236.338 409.632 238.317" fill="#E0E0E0"/>
<path d="M406.622 241.629C404.818 239.145 402.735 235.773 400.287 233.917C397.838 232.061 394.658 230.945 391.695 231.625C393.239 234.336 395.396 236.649 397.992 238.379C400.587 240.11 403.552 241.211 406.648 241.594" fill="#E0E0E0"/>
<path d="M407.193 238.483C405.893 235.523 404.937 232.424 404.344 229.246C403.749 226.045 404.256 222.737 405.782 219.861C408.962 225.856 409.982 232.296 407.35 238.553" fill="#E0E0E0"/>
<path d="M409.521 219.862C411.316 213.919 416.762 209.536 422.644 207.532C423.371 207.231 424.161 207.112 424.944 207.183C425.334 207.229 425.702 207.389 426.002 207.641C426.302 207.893 426.522 208.228 426.635 208.603C426.853 209.614 426.016 210.521 425.232 211.218C420.643 215.137 415.307 218.086 409.547 219.888" fill="#E0E0E0"/>
<path d="M409.593 214.999C409.82 211.165 410.055 207.278 411.336 203.671C412.617 200.063 414.987 196.63 418.481 195.044C419.083 198.913 417.375 202.764 415.31 206.093C413.244 209.422 410.77 212.576 409.532 216.288" fill="#E0E0E0"/>
<path d="M409.494 217.683C408.004 213.326 407.855 207.845 405.259 204.072C403.446 201.458 400.544 199.637 398.976 196.839C398.036 199.521 398.167 202.461 399.342 205.048C400.527 207.603 402.152 209.93 404.143 211.923C406.06 213.971 407.707 215.513 409.494 217.683Z" fill="#E0E0E0"/>
<path d="M409.522 345.237C409.409 345.237 409.304 316.333 409.296 280.684C409.287 245.036 409.383 216.123 409.496 216.123C409.609 216.123 409.714 245.027 409.714 280.684C409.714 316.342 409.636 345.237 409.522 345.237Z" fill="#E0E0E0"/>
<path d="M434.784 258.639C434.435 258.809 434.07 258.946 433.695 259.048L430.706 260.05C428.179 260.922 424.72 262.159 420.955 263.701C417.191 265.244 413.723 266.594 411.727 268.32C410.929 268.986 410.294 269.827 409.871 270.777C409.584 271.457 409.531 271.875 409.497 271.866C409.462 271.858 409.497 271.762 409.497 271.561C409.542 271.265 409.615 270.973 409.714 270.69C410.095 269.685 410.714 268.788 411.518 268.076C412.725 267.056 414.076 266.219 415.527 265.592C417.13 264.843 418.908 264.059 420.755 263.283C424.528 261.741 428.022 260.538 430.567 259.745C431.848 259.353 432.885 259.057 433.608 258.874C433.991 258.757 434.385 258.678 434.784 258.639Z" fill="#E0E0E0"/>
<path d="M443.107 238.318C443.018 238.437 442.916 238.545 442.802 238.64L441.878 239.512L438.392 242.657L426.873 252.922C422.368 256.922 418.481 260.765 415.789 263.632C414.438 265.07 413.375 266.246 412.652 267.117L411.78 268.076C411.688 268.195 411.583 268.303 411.466 268.398C411.537 268.265 411.622 268.139 411.719 268.024C411.893 267.788 412.146 267.448 412.495 267.013C413.183 266.141 414.237 264.93 415.536 263.458C419.015 259.651 422.691 256.029 426.55 252.609C431.064 248.618 435.168 245.028 438.157 242.44L441.704 239.39L442.688 238.579C442.816 238.475 442.957 238.387 443.107 238.318Z" fill="#E0E0E0"/>
<path d="M421.982 256.991C421.868 256.939 422.809 254.769 423.724 252.024C424.639 249.279 425.119 246.961 425.232 246.988C425.137 248.76 424.763 250.507 424.125 252.164C423.72 253.35 423.252 254.513 422.722 255.649C422.544 256.131 422.294 256.583 421.982 256.991Z" fill="#E0E0E0"/>
<path d="M409.545 274.489C409.286 274.245 409.055 273.974 408.857 273.678C408.386 273.077 407.785 272.319 407.114 271.404C405.624 269.478 403.559 266.812 401.25 263.901C398.94 260.991 396.806 258.377 395.272 256.486L393.433 254.281C393.192 254.015 392.981 253.723 392.806 253.41C393.08 253.633 393.332 253.885 393.555 254.159C394.017 254.664 394.671 255.396 395.472 256.32C397.067 258.167 399.228 260.755 401.572 263.666C403.916 266.576 405.929 269.278 407.349 271.256C408.064 272.24 408.639 273.051 409.022 273.609C409.228 273.882 409.403 274.177 409.545 274.489Z" fill="#E0E0E0"/>
<path d="M404.017 267.352C402.895 266.112 402.096 264.616 401.69 262.995C401.26 261.585 401.083 260.11 401.167 258.638H401.35C401.272 258.969 401.211 259.143 401.176 259.143C401.141 259.143 401.176 258.952 401.176 258.603H401.359C401.456 260.045 401.704 261.474 402.1 262.864C402.621 264.408 403.262 265.908 404.017 267.352Z" fill="#E0E0E0"/>
<path d="M396.86 258.386C396.363 258.004 395.818 257.687 395.239 257.445C393.783 257.01 392.25 256.888 390.743 257.087C389.215 257.202 387.699 257.447 386.212 257.819C385.602 258.011 384.978 258.16 384.347 258.264C384.902 257.931 385.504 257.684 386.133 257.532C387.62 257.069 389.155 256.777 390.708 256.66C392.274 256.451 393.867 256.622 395.353 257.157C395.982 257.381 396.514 257.815 396.86 258.386Z" fill="#E0E0E0"/>
<path d="M395.179 256.206C395.179 256.267 394.23 255.823 392.696 255.335C388.673 253.963 384.368 253.633 380.183 254.377C378.588 254.664 377.621 254.969 377.569 254.899C377.773 254.771 377.996 254.677 378.231 254.621C378.843 254.402 379.469 254.224 380.104 254.089C384.329 253.167 388.73 253.503 392.766 255.056C393.361 255.291 393.943 255.559 394.508 255.858C394.749 255.939 394.975 256.056 395.179 256.206Z" fill="#E0E0E0"/>
<path d="M409.494 246.988C408.756 244.931 408.151 242.83 407.681 240.696C407.077 238.6 406.608 236.466 406.278 234.309C407.015 236.363 407.621 238.461 408.091 240.592C408.692 242.692 409.16 244.829 409.494 246.988Z" fill="#E0E0E0"/>
<path d="M409.606 246.988C409.03 245.687 408.36 244.429 407.602 243.224C406.754 242.083 405.761 241.058 404.648 240.174C405.069 240.281 405.46 240.484 405.79 240.766C406.627 241.377 407.355 242.126 407.942 242.98C408.842 244.145 409.416 245.528 409.606 246.988Z" fill="#E0E0E0"/>
<path d="M409.523 329.831C409.523 329.831 409.392 329.134 409.069 327.905C408.59 326.179 407.942 324.503 407.135 322.903C405.139 318.817 401.506 313.649 396.887 308.464C394.604 305.85 392.382 303.384 390.5 301.023C388.806 298.946 387.277 296.74 385.925 294.426C385.019 292.865 384.247 291.23 383.616 289.538C383.407 288.937 383.25 288.466 383.163 288.135C383.105 287.975 383.067 287.808 383.05 287.638C383.05 287.638 383.294 288.3 383.773 289.477C384.451 291.136 385.255 292.741 386.178 294.278C387.56 296.553 389.103 298.725 390.796 300.779C392.687 303.114 394.909 305.571 397.201 308.186C401.837 313.414 405.462 318.642 407.405 322.773C408.193 324.402 408.804 326.111 409.226 327.87C409.338 328.347 409.423 328.83 409.479 329.317C409.515 329.486 409.53 329.658 409.523 329.831Z" fill="#E0E0E0"/>
<path d="M432.343 304.045C431.963 304.3 431.563 304.524 431.149 304.716C430.068 305.328 429.031 306.016 428.047 306.773C426.595 307.901 425.234 309.142 423.977 310.485C422.539 311.993 421.067 313.753 419.568 315.635C416.562 319.399 413.747 322.737 412.065 325.403C411.194 326.728 410.584 327.843 410.183 328.619C409.992 329.038 409.771 329.443 409.521 329.83C409.543 329.712 409.581 329.598 409.634 329.49C409.721 329.272 409.843 328.95 410.035 328.549C410.55 327.414 411.132 326.312 411.778 325.246C414.064 321.817 416.542 318.521 419.202 315.374C420.71 313.483 422.2 311.731 423.664 310.215C424.95 308.872 426.346 307.639 427.837 306.529C428.846 305.784 429.919 305.131 431.044 304.577C431.436 304.377 431.759 304.255 431.977 304.159C432.093 304.106 432.216 304.067 432.343 304.045Z" fill="#E0E0E0"/>
<path d="M432.798 312.412C431.965 312.593 431.121 312.715 430.271 312.778C428.238 312.987 426.228 313.383 424.267 313.963C422.332 314.591 420.517 315.543 418.899 316.777C417.662 317.736 417.078 318.52 417.026 318.477C416.974 318.433 417.122 318.25 417.401 317.893C417.794 317.403 418.235 316.954 418.717 316.551C420.316 315.212 422.159 314.197 424.145 313.562C426.13 312.969 428.177 312.606 430.245 312.481C431.092 312.381 431.947 312.358 432.798 312.412Z" fill="#E0E0E0"/>
<path d="M417.759 317.562C417.628 317.484 418.769 315.741 419.65 313.406C420.53 311.07 420.678 308.97 420.826 308.996C420.888 309.446 420.874 309.903 420.782 310.347C420.66 311.437 420.415 312.51 420.05 313.545C419.663 314.57 419.17 315.551 418.578 316.473C418.37 316.881 418.093 317.25 417.759 317.562Z" fill="#E0E0E0"/>
<path d="M439.741 281.59C439.613 281.678 439.475 281.751 439.331 281.808L438.146 282.348C437.623 282.575 436.996 282.854 436.281 283.22C435.567 283.586 434.73 283.969 433.868 284.492L432.491 285.276C432.011 285.546 431.532 285.878 431.035 286.191C430.016 286.81 428.996 287.568 427.907 288.344C423.252 291.813 419.19 296.016 415.882 300.787C415.141 301.902 414.418 302.948 413.834 303.985C413.538 304.499 413.233 304.978 412.963 305.466L412.222 306.878C411.734 307.749 411.351 308.621 411.037 309.335C410.723 310.05 410.427 310.695 410.227 311.226C410.026 311.758 409.852 312.098 409.721 312.429C409.591 312.76 409.538 312.847 409.521 312.838C409.552 312.691 409.593 312.545 409.643 312.403L410.07 311.165C410.253 310.625 410.497 309.972 410.828 309.24C411.159 308.508 411.482 307.645 411.961 306.739L412.675 305.318C412.928 304.822 413.233 304.334 413.547 303.811C414.122 302.756 414.836 301.702 415.577 300.569C418.876 295.737 422.972 291.5 427.689 288.039C428.787 287.263 429.824 286.505 430.853 285.895C431.367 285.59 431.846 285.268 432.334 285.024L433.737 284.257C434.608 283.751 435.48 283.385 436.194 283.037C436.909 282.688 437.562 282.418 438.094 282.218L439.314 281.747C439.45 281.68 439.593 281.627 439.741 281.59Z" fill="#E0E0E0"/>
<path d="M421.679 293.694C421.85 293.112 422.197 292.598 422.673 292.221C423.782 291.251 425.199 290.705 426.672 290.679C428.119 290.686 429.55 290.982 430.881 291.55C431.448 291.728 431.986 291.989 432.476 292.326C431.9 292.207 431.334 292.041 430.785 291.829C429.467 291.377 428.083 291.144 426.69 291.141C425.305 291.17 423.965 291.64 422.864 292.483C422.441 292.857 422.045 293.262 421.679 293.694Z" fill="#E0E0E0"/>
<path d="M418.978 296.483C420.182 294.156 420.492 291.468 419.849 288.928C420.087 289.244 420.248 289.611 420.32 290C420.567 290.922 420.635 291.883 420.52 292.832C420.402 293.781 420.106 294.701 419.649 295.542C419.326 296.178 419.021 296.509 418.978 296.483Z" fill="#E0E0E0"/>
<path d="M389.557 333.97C390.185 345.019 393.513 356.251 398.629 367.605H420.893C425.781 356.364 428.874 345.141 429.423 333.97H389.557Z" fill="#E0E0E0"/>
<path d="M425.814 351.877C425.814 351.99 418.486 352.086 409.45 352.086C400.413 352.086 393.076 351.99 393.076 351.877C393.076 351.764 400.405 351.668 409.45 351.668C418.495 351.668 425.814 351.729 425.814 351.877Z" fill="#FAFAFA"/>
<path d="M425.318 355.842C425.318 355.964 418.452 356.051 409.973 356.051C401.494 356.051 394.628 355.964 394.628 355.842C394.628 355.72 401.494 355.633 409.973 355.633C418.452 355.633 425.318 355.729 425.318 355.842Z" fill="#FAFAFA"/>
<path d="M398.987 341.22C399.266 344.633 399.266 348.063 398.987 351.476C398.708 348.063 398.708 344.633 398.987 341.22Z" fill="#FAFAFA"/>
<path d="M410.914 341.22C411.193 344.755 411.193 348.307 410.914 351.842C410.636 348.307 410.636 344.755 410.914 341.22Z" fill="#FAFAFA"/>
<path d="M422.12 341.133C422.399 344.738 422.399 348.359 422.12 351.964C421.841 348.359 421.841 344.738 422.12 341.133Z" fill="#FAFAFA"/>
<path d="M428.717 341.22C428.717 341.333 420.125 341.429 409.546 341.429C398.967 341.429 390.375 341.333 390.375 341.22C390.375 341.107 398.967 341.011 409.546 341.011C420.125 341.011 428.717 341.107 428.717 341.22Z" fill="#FAFAFA"/>
<path d="M209.844 64.6154L253.897 62.784C255.796 62.7044 257.692 63.0044 259.474 63.6664C261.255 64.3283 262.887 65.3391 264.274 66.6393C265.66 67.9396 266.773 69.5034 267.548 71.2391C268.323 72.9748 268.744 74.8476 268.786 76.7479L270.342 144.791C270.424 148.382 269.15 151.872 266.774 154.566C264.399 157.261 261.096 158.962 257.523 159.332C256.325 159.456 255.22 160.032 254.431 160.942C253.642 161.851 253.228 163.027 253.274 164.23L258.814 307.99C258.993 312.697 257.302 317.283 254.112 320.749C250.921 324.214 246.489 326.276 241.783 326.486L73.4839 333.958C72.8572 333.986 72.2311 333.89 71.6418 333.674C71.0526 333.459 70.512 333.128 70.0513 332.703C69.5905 332.277 69.2189 331.764 68.9578 331.193C68.6967 330.623 68.5513 330.006 68.5302 329.379L61.1041 79.7879C61.068 78.5645 61.5061 77.3746 62.3269 76.4667C63.1477 75.5589 64.2877 75.0035 65.5085 74.9166L209.844 64.6154Z" fill="#F9AF43"/>
<g opacity="0.3">
<path opacity="0.3" d="M68.4005 324.563L68.547 329.278L249.72 312.622L246.259 63.0767C246.259 63.0767 202.307 69.7427 201.483 69.7427C200.659 69.7427 68.4005 324.563 68.4005 324.563Z" fill="black"/>
</g>
<path d="M186.908 51.2195L239.486 48.0146L244.916 306.662L59.8601 325.433L32.61 68.1409L186.908 51.2195Z" fill="#EBEBEB"/>
<path d="M186.953 51.2202C186.953 51.2202 186.037 51.3393 184.206 51.5407L176.203 52.4564L145.464 55.8718L32.6272 68.3156L32.7829 68.1234C40.1082 137.054 49.6036 226.606 60.0971 325.425L59.8316 325.214L101.311 321.011L244.896 306.461L244.686 306.69C242.369 193.597 240.464 100.84 239.375 48.0337L239.494 48.1436L200.368 50.4785L190.295 51.0554L186.889 51.2385C186.889 51.2385 188.034 51.147 190.286 51.0005L200.358 50.3595L239.485 47.9238H239.595V48.0337C240.73 100.849 242.717 193.624 245.143 306.69V306.892H244.942L101.366 321.46L59.8865 325.672H59.6484V325.443C49.2099 226.634 39.7419 137.082 32.4532 68.1417V67.9585H32.6272L145.428 55.6887L176.176 52.3648L184.179 51.5132C185.982 51.3026 186.953 51.2202 186.953 51.2202Z" fill="#150547"/>
<path d="M23.4066 59.5528L48.4592 319.858L242.278 301.599L214.322 41.4868L23.4066 59.5528Z" fill="white"/>
<path d="M23.4058 59.5436L214.303 41.2944H214.496V41.4867C222.361 114.502 232.04 204.475 242.497 301.599V301.837H242.258L240.885 301.965L48.4766 320.077H48.266V319.857C33.5422 165.751 23.5889 61.4482 23.4058 59.5436C23.5889 61.4482 33.7161 165.761 48.6781 319.839L48.44 319.647L240.876 301.498L242.249 301.361L242.039 301.627C231.609 204.475 221.967 114.529 214.129 41.505L214.34 41.679L23.4058 59.5436Z" fill="#150547"/>
<path d="M172.046 256.97C172.061 251.32 173.75 245.801 176.901 241.111C180.052 236.421 184.522 232.771 189.748 230.622C194.973 228.473 200.718 227.921 206.257 229.037C211.795 230.153 216.879 232.886 220.864 236.89C224.85 240.895 227.558 245.992 228.648 251.536C229.737 257.08 229.158 262.822 226.983 268.037C224.809 273.252 221.137 277.705 216.432 280.833C211.728 283.961 206.201 285.624 200.551 285.611C192.975 285.587 185.718 282.557 180.373 277.187C175.029 271.817 172.034 264.546 172.046 256.97ZM228.652 257.107C228.667 251.559 227.036 246.131 223.965 241.511C220.895 236.89 216.523 233.284 211.402 231.148C206.282 229.013 200.643 228.443 195.199 229.513C189.755 230.582 184.751 233.242 180.819 237.156C176.887 241.07 174.204 246.062 173.11 251.501C172.016 256.94 172.559 262.582 174.671 267.712C176.783 272.842 180.37 277.23 184.976 280.322C189.583 283.413 195.003 285.069 200.551 285.08C207.979 285.088 215.108 282.151 220.375 276.913C225.642 271.675 228.619 264.563 228.652 257.134V257.107Z" fill="#E0E0E0"/>
<path d="M175.305 256.978C175.318 252.05 176.792 247.237 179.54 243.147C182.288 239.056 186.188 235.873 190.745 233.999C195.303 232.125 200.313 231.645 205.144 232.618C209.975 233.592 214.408 235.976 217.883 239.47C221.359 242.963 223.72 247.409 224.669 252.244C225.618 257.08 225.112 262.088 223.214 266.636C221.317 271.184 218.114 275.067 214.009 277.794C209.905 280.521 205.084 281.97 200.156 281.957C193.55 281.935 187.222 279.293 182.563 274.609C177.903 269.926 175.293 263.584 175.305 256.978ZM221.455 257.088C221.466 252.886 220.23 248.775 217.904 245.275C215.579 241.776 212.268 239.044 208.39 237.427C204.511 235.809 200.241 235.378 196.118 236.188C191.994 236.998 188.204 239.012 185.226 241.976C182.248 244.94 180.215 248.721 179.386 252.84C178.557 256.96 178.968 261.232 180.567 265.118C182.166 269.004 184.882 272.328 188.37 274.67C191.859 277.012 195.964 278.267 200.166 278.276C205.789 278.284 211.186 276.063 215.176 272.101C219.166 268.138 221.423 262.757 221.455 257.134V257.088Z" fill="#E0E0E0"/>
<path d="M181.459 257.345C181.465 254.481 182.142 251.659 183.437 249.104L186.715 250.761C185.673 252.809 185.134 255.075 185.14 257.372C185.15 259.986 185.853 262.55 187.178 264.803C188.502 267.056 190.401 268.917 192.68 270.197C194.96 271.476 197.537 272.127 200.151 272.085C202.764 272.042 205.319 271.307 207.555 269.954L209.478 273.085C206.683 274.784 203.487 275.709 200.216 275.765C196.946 275.821 193.72 275.006 190.868 273.404C188.017 271.802 185.642 269.471 183.989 266.649C182.336 263.827 181.462 260.616 181.459 257.345Z" fill="#E0E0E0"/>
<path d="M191.358 241.037C194.949 239.167 199.057 238.532 203.045 239.23C207.033 239.928 210.681 241.919 213.425 244.897C216.168 247.875 217.855 251.674 218.224 255.706C218.593 259.738 217.624 263.78 215.467 267.206L212.363 265.247C214.078 262.503 214.844 259.272 214.543 256.05C214.242 252.829 212.891 249.795 210.698 247.417C208.504 245.038 205.59 243.446 202.403 242.885C199.217 242.325 195.934 242.827 193.061 244.315L191.358 241.037Z" fill="#E0E0E0"/>
<path d="M79.9844 84.3946C79.9086 83.6962 79.9771 82.9896 80.1856 82.3187C80.3942 81.6478 80.7384 81.027 81.1969 80.4946C81.6554 79.9623 82.2184 79.5299 82.8509 79.2242C83.4835 78.9185 84.1721 78.746 84.8741 78.7175C85.6721 78.5994 86.4867 78.6659 87.255 78.9119C88.0233 79.158 88.7249 79.577 89.3059 80.1368L87.6943 81.9681C87.385 81.6399 87.0048 81.3867 86.5826 81.228C86.1604 81.0693 85.7076 81.0093 85.2587 81.0524C84.8889 81.0897 84.5301 81.1995 84.2028 81.3754C83.8754 81.5513 83.5859 81.79 83.3508 82.0778C83.1157 82.3657 82.9396 82.697 82.8326 83.0528C82.7255 83.4087 82.6896 83.7822 82.7269 84.152C82.7641 84.5217 82.8739 84.8805 83.0498 85.2079C83.2257 85.5352 83.4644 85.8247 83.7523 86.0598C84.0401 86.2949 84.3714 86.471 84.7273 86.5781C85.0831 86.6851 85.4566 86.721 85.8264 86.6838C86.2853 86.6357 86.7265 86.4806 87.1146 86.2309C87.5026 85.9812 87.8267 85.6439 88.0606 85.2462L89.9926 86.6655C89.5428 87.3337 88.9439 87.8883 88.2432 88.2855C87.5424 88.6828 86.7589 88.9118 85.9546 88.9546C85.2595 89.0751 84.5471 89.0507 83.8619 88.8828C83.1768 88.7149 82.5338 88.4072 81.9732 87.979C81.4126 87.5509 80.9466 87.0114 80.6043 86.3946C80.2621 85.7778 80.051 85.0969 79.9844 84.3946Z" fill="#150547"/>
<path d="M90.1593 83.3496C89.8572 80.4012 91.9907 77.993 95.1039 77.6725C98.2172 77.352 100.799 79.2749 101.102 82.2508C101.404 85.2267 99.2702 87.6074 96.1569 87.9279C93.0437 88.2484 90.4615 86.3072 90.1593 83.3496ZM98.2904 82.5163C98.2073 82.0009 97.9752 81.5211 97.6226 81.1361C97.27 80.7511 96.8125 80.4777 96.3063 80.3497C95.8002 80.2217 95.2677 80.2447 94.7745 80.4158C94.2813 80.5869 93.8489 80.8986 93.5308 81.3126C93.2127 81.7265 93.0227 82.2245 92.9843 82.7451C92.9459 83.2658 93.0607 83.7863 93.3146 84.2424C93.5686 84.6985 93.9505 85.0704 94.4133 85.312C94.876 85.5536 95.3994 85.6545 95.9188 85.6021C96.2831 85.5695 96.6366 85.4617 96.9571 85.2856C97.2775 85.1095 97.558 84.8689 97.7809 84.579C98.0037 84.289 98.1641 83.956 98.2518 83.601C98.3394 83.246 98.3526 82.8767 98.2904 82.5163Z" fill="#150547"/>
<path d="M111.429 76.1992L112.436 86.0518L110.147 86.2807L105.257 81.4826L105.798 86.7294L103.051 87.004L102.043 77.1607L104.332 76.9226L109.222 81.7298L108.682 76.4831L111.429 76.1992Z" fill="#150547"/>
<path d="M115.723 77.9932L112.701 78.3045L112.472 76.0978L121.29 75.1821L121.519 77.3889L118.506 77.7002L119.285 85.3368L116.538 85.6207L115.723 77.9932Z" fill="#150547"/>
<path d="M127.38 81.8755L125.86 82.0311L126.125 84.6499L123.378 84.9338L122.371 75.0812L126.867 74.6234C129.559 74.3487 131.39 75.5391 131.619 77.8191C131.71 78.4679 131.606 79.1293 131.319 79.7183C131.032 80.3073 130.575 80.797 130.007 81.1246L132.452 84.009L129.467 84.3111L127.38 81.8755ZM126.885 76.8393L125.338 76.995L125.64 79.8793L127.187 79.7237C128.341 79.6046 128.863 79.0094 128.771 78.1121C128.68 77.2147 128.039 76.7478 126.885 76.8393Z" fill="#150547"/>
<path d="M140.153 81.3255L135.987 81.7467L135.41 83.7428L132.571 84.0359L135.904 73.7438L138.651 73.46L144.017 82.8638L141.169 83.1568L140.153 81.3255ZM139.127 79.3568L137.507 76.2894L136.591 79.5674L139.127 79.3568Z" fill="#150547"/>
<path d="M143.651 77.8842C143.349 74.8809 145.427 72.5276 148.55 72.2071C149.346 72.0897 150.159 72.1566 150.926 72.4027C151.693 72.6487 152.393 73.0674 152.972 73.6264L151.361 75.4577C151.052 75.1289 150.672 74.8754 150.249 74.7167C149.827 74.5579 149.374 74.4982 148.925 74.5421C148.178 74.6186 147.493 74.9886 147.019 75.5707C146.545 76.1528 146.321 76.8994 146.398 77.6462C146.474 78.3929 146.844 79.0787 147.427 79.5527C148.009 80.0266 148.755 80.2499 149.502 80.1734C149.951 80.1263 150.383 79.9761 150.764 79.7347C151.145 79.4933 151.465 79.1671 151.7 78.7816L153.641 80.2009C153.188 80.8683 152.587 81.4221 151.885 81.8192C151.183 82.2163 150.399 82.4458 149.594 82.49C148.897 82.6064 148.184 82.5773 147.499 82.4047C146.815 82.2321 146.173 81.9197 145.615 81.4871C145.057 81.0545 144.594 80.5111 144.256 79.8911C143.918 79.271 143.712 78.5878 143.651 77.8842Z" fill="#150547"/>
<path d="M156.279 73.8453L153.258 74.1566L153.074 71.9498L161.892 71.0342L162.121 73.2409L159.109 73.5523L159.887 81.1889L157.14 81.4727L156.279 73.8453Z" fill="#150547"/>
<path d="M209.734 108.448C209.734 108.585 173.172 112.111 128.057 116.405C82.9424 120.699 46.3342 124.014 46.3251 123.877C46.3159 123.74 82.8783 120.214 128.011 115.929C173.144 111.644 209.725 108.32 209.734 108.448Z" fill="#150547"/>
<path d="M121.026 106.407C121.026 106.535 104.16 108.238 83.3285 110.207C62.4971 112.175 45.6032 113.659 45.594 113.53C45.5848 113.402 62.4514 111.699 83.2918 109.73C104.132 107.762 121.026 106.278 121.026 106.407Z" fill="#150547"/>
<path d="M210.448 119.061C210.448 119.189 173.885 122.723 128.761 127.009C83.6375 131.294 47.0476 134.618 47.0293 134.49C47.011 134.361 83.5826 130.827 128.725 126.533C173.867 122.238 210.429 118.923 210.448 119.061Z" fill="#150547"/>
<path d="M211.162 129.665C211.162 129.793 174.6 133.327 129.476 137.613C84.3521 141.898 47.7714 145.222 47.7714 145.094C47.7714 144.965 84.3246 141.431 129.458 137.146C174.591 132.86 211.144 129.537 211.162 129.665Z" fill="#150547"/>
<path d="M211.87 140.268C211.87 140.405 175.307 143.93 130.193 148.225C85.0779 152.519 48.4697 155.834 48.4606 155.697C48.4514 155.559 85.0139 152.034 130.147 147.749C175.28 143.463 211.861 140.14 211.87 140.268Z" fill="#150547"/>
<path d="M212.594 150.917C212.594 151.045 176.031 154.579 130.917 158.865C85.8019 163.15 49.1846 166.483 49.1754 166.309C49.1663 166.135 85.7287 162.646 130.862 158.352C175.995 154.057 212.594 150.743 212.594 150.917Z" fill="#150547"/>
<path d="M213.296 161.485C213.296 161.613 176.733 165.147 131.619 169.433C86.504 173.718 49.8958 177.042 49.8866 176.913C49.8774 176.785 86.4399 173.251 131.573 168.966C176.706 164.68 213.287 161.356 213.296 161.485Z" fill="#150547"/>
<path d="M214.011 172.087C214.011 172.224 177.925 175.75 133.433 179.944C88.9408 184.137 52.7813 187.452 52.7629 187.315C52.7446 187.177 88.8401 183.652 133.387 179.467C177.934 175.283 213.993 171.977 214.011 172.087Z" fill="#150547"/>
<path d="M151.039 192.487C151.039 192.625 129.264 194.694 102.371 197.066C75.4783 199.437 53.6764 201.388 53.6672 201.278C53.6581 201.168 75.4417 199.08 102.335 196.699C129.228 194.319 151.03 192.359 151.039 192.487Z" fill="#150547"/>
<path d="M124.58 280.153C124.58 280.291 111.33 281.518 94.9673 282.9C78.6044 284.283 65.3181 285.309 65.309 285.18C65.2998 285.052 78.5586 283.816 94.9307 282.433C111.303 281.051 124.571 280.025 124.58 280.153Z" fill="black"/>
<path d="M99.1143 290.281C99.1143 290.418 91.6791 291.151 82.495 291.929C73.3109 292.708 65.8483 293.239 65.8391 293.11C65.83 292.982 73.2651 292.195 82.4584 291.462C91.6517 290.73 99.096 290.153 99.1143 290.281Z" fill="black"/>
<path d="M97.0698 215.636C97.0698 215.764 88.3252 216.735 77.5204 217.806C66.7156 218.878 57.9344 219.638 57.916 219.491C57.8977 219.345 66.6606 218.392 77.4746 217.33C88.2886 216.268 97.0515 215.508 97.0698 215.636Z" fill="#4E1C95"/>
<g opacity="0.3">
<path opacity="0.3" d="M44.4653 275.814L62.2566 272.371L72.2099 257.373L43.8518 266.685L44.4653 275.814Z" fill="black"/>
</g>
<path d="M13.2603 256.649L60.7649 252.144L72.2106 257.372L63.0815 267.646L14.826 272.847L13.2603 256.649Z" fill="#31AF91"/>
<path d="M34.5952 259.633L35.1995 265.722L33.7894 265.869L33.5422 263.369L30.7952 263.644L31.0424 266.144L29.6323 266.281L29.0188 260.192L30.4289 260.054L30.6762 262.454L33.4231 262.179L33.1851 259.771L34.5952 259.633Z" fill="white"/>
<path d="M40.9152 263.177L37.3716 263.525C37.4736 263.811 37.6753 264.049 37.9395 264.198C38.2038 264.346 38.5127 264.393 38.8092 264.331C39.0262 264.32 39.2385 264.264 39.4324 264.167C39.6264 264.069 39.7978 263.931 39.9355 263.764L40.7413 264.478C40.5183 264.751 40.2398 264.975 39.924 265.132C39.6083 265.29 39.2626 265.379 38.9099 265.393C38.5763 265.46 38.2323 265.457 37.9001 265.383C37.5679 265.309 37.2548 265.167 36.9807 264.965C36.7066 264.764 36.4776 264.507 36.3084 264.212C36.1393 263.917 36.0336 263.589 35.9981 263.251C35.9601 262.926 35.9892 262.597 36.0835 262.284C36.1779 261.97 36.3355 261.68 36.5467 261.43C36.7579 261.18 37.018 260.977 37.3111 260.831C37.6042 260.686 37.924 260.603 38.2507 260.586C38.5726 260.536 38.9016 260.553 39.2163 260.638C39.5309 260.723 39.8242 260.873 40.0772 261.079C40.3301 261.284 40.5371 261.54 40.6846 261.831C40.8321 262.122 40.917 262.44 40.9336 262.765C40.9152 262.912 40.9152 263.058 40.9152 263.177ZM37.2526 262.738L39.5601 262.509C39.4916 262.236 39.3275 261.997 39.0976 261.836C38.8677 261.674 38.5873 261.6 38.3076 261.628C38.0279 261.656 37.7674 261.783 37.5738 261.987C37.3801 262.191 37.2661 262.457 37.2526 262.738Z" fill="white"/>
<path d="M44.475 259.991L44.6032 261.245H44.2919C44.1163 261.246 43.9432 261.287 43.786 261.366C43.6288 261.444 43.4918 261.558 43.3856 261.697C43.2794 261.837 43.2067 262 43.1734 262.172C43.14 262.345 43.1467 262.523 43.1931 262.692L43.4129 264.899L42.0577 265.036L41.5815 260.357L42.8818 260.229L42.9459 260.842C43.1136 260.588 43.3401 260.378 43.6063 260.229C43.8725 260.081 44.1705 259.999 44.475 259.991Z" fill="white"/>
<path d="M50.079 262.252L46.5354 262.609C46.6389 262.893 46.8409 263.131 47.1047 263.279C47.3685 263.427 47.6766 263.475 47.973 263.415C48.1896 263.403 48.4013 263.346 48.595 263.248C48.7888 263.15 48.9604 263.014 49.0992 262.847L49.905 263.552C49.6833 263.827 49.405 264.052 49.089 264.21C48.773 264.368 48.4267 264.456 48.0737 264.468C47.7399 264.536 47.3955 264.534 47.0627 264.461C46.7299 264.388 46.4162 264.246 46.1418 264.044C45.8673 263.842 45.6383 263.584 45.4695 263.288C45.3008 262.992 45.1959 262.664 45.1619 262.325C45.1252 262.001 45.1553 261.672 45.2501 261.359C45.345 261.047 45.5028 260.757 45.7137 260.507C45.9246 260.258 46.1842 260.054 46.4767 259.909C46.7691 259.763 47.0882 259.679 47.4144 259.661C47.7369 259.612 48.0661 259.631 48.3807 259.717C48.6954 259.803 48.9886 259.954 49.2413 260.16C49.4941 260.366 49.7008 260.623 49.8483 260.914C49.9957 261.205 50.0805 261.523 50.0973 261.849C50.079 261.987 50.079 262.142 50.079 262.252ZM46.4163 261.822L48.7238 261.584C48.6602 261.312 48.4971 261.074 48.2666 260.916C48.0361 260.758 47.7549 260.693 47.4785 260.732C47.2007 260.751 46.9399 260.873 46.7482 261.075C46.5565 261.277 46.4478 261.543 46.4438 261.822H46.4163Z" fill="white"/>
<path d="M157.304 214.464C157.36 214.477 157.416 214.495 157.468 214.519C157.632 214.575 157.788 214.649 157.935 214.739C158.51 215.085 159.026 215.521 159.465 216.03C161.127 217.999 162.429 220.246 163.31 222.668C164.845 226.456 165.527 230.536 165.307 234.618C165.217 235.858 164.999 237.085 164.656 238.28C164.273 239.539 163.786 240.764 163.201 241.943C161.922 244.504 160.205 246.822 158.128 248.792C155.855 250.979 153.194 252.721 150.281 253.929C147.11 255.239 143.672 255.77 140.254 255.476C136.486 255.077 132.886 253.71 129.802 251.509C126.719 249.308 124.257 246.347 122.655 242.914C121.796 241.077 121.257 239.108 121.062 237.09C120.799 235.023 121.018 232.923 121.703 230.955C122.33 228.891 123.617 227.09 125.365 225.827C126.279 225.215 127.323 224.826 128.415 224.692C129.515 224.569 130.63 224.697 131.674 225.067C133.781 225.83 135.555 227.303 136.692 229.234C137.811 231.182 138.492 233.35 138.688 235.588C139.134 240.117 138.457 244.687 136.72 248.893C135.023 253.128 132.248 256.847 128.671 259.679C125.154 262.386 120.959 264.071 116.548 264.551C112.295 265.062 107.984 264.36 104.113 262.527C100.425 260.696 97.3489 257.833 95.2583 254.286C93.2299 250.945 92.1945 247.096 92.2733 243.188C92.2771 241.306 92.6376 239.442 93.3354 237.694C93.9949 235.99 95.0717 234.479 96.467 233.299C97.1484 232.726 97.9411 232.3 98.7952 232.047C99.6493 231.795 100.546 231.723 101.43 231.834C103.128 232.111 104.676 232.972 105.807 234.27C106.907 235.481 107.665 236.963 108.004 238.564C108.296 240.076 108.296 241.63 108.004 243.142C107.394 245.94 106.291 248.607 104.745 251.017C103.428 253.194 101.894 255.231 100.166 257.097C97.4142 260.103 94.2069 262.659 90.6617 264.67C88.4369 265.956 86.079 266.997 83.6294 267.774C81.9538 268.305 81.0472 268.488 81.0472 268.488L81.6974 268.287C82.1277 268.14 82.7778 267.994 83.6019 267.682C86.0288 266.868 88.3641 265.803 90.5701 264.505C94.0707 262.517 97.2403 259.996 99.9648 257.033C101.662 255.166 103.171 253.135 104.47 250.971C105.993 248.591 107.073 245.954 107.656 243.188C107.945 241.707 107.945 240.183 107.656 238.701C107.321 237.166 106.588 235.745 105.532 234.581C104.452 233.357 102.985 232.542 101.375 232.274C100.542 232.173 99.6974 232.246 98.8939 232.487C98.0904 232.728 97.3453 233.132 96.7051 233.674C95.3615 234.811 94.3281 236.27 93.7017 237.914C93.036 239.609 92.6883 241.413 92.6762 243.234C92.613 247.064 93.6386 250.833 95.6338 254.103C97.6838 257.564 100.697 260.355 104.305 262.133C108.1 263.929 112.325 264.615 116.493 264.111C120.825 263.639 124.944 261.982 128.396 259.322C131.907 256.538 134.63 252.886 136.298 248.728C138.01 244.589 138.671 240.09 138.221 235.634C138.036 233.467 137.38 231.367 136.298 229.481C135.223 227.64 133.534 226.237 131.528 225.516C130.553 225.163 129.51 225.038 128.479 225.15C127.461 225.282 126.487 225.645 125.631 226.212C123.968 227.418 122.746 229.135 122.151 231.101C121.493 233.009 121.276 235.041 121.52 237.044C121.715 239.012 122.238 240.934 123.067 242.73C124.631 246.091 127.034 248.993 130.044 251.156C133.054 253.319 136.57 254.671 140.254 255.083C143.609 255.37 146.985 254.849 150.097 253.563C152.973 252.38 155.603 250.672 157.853 248.527C159.914 246.589 161.618 244.305 162.889 241.778C163.474 240.621 163.961 239.417 164.345 238.18C164.686 237.012 164.907 235.812 165.004 234.599C165.248 230.54 164.598 226.476 163.1 222.696C162.242 220.284 160.975 218.038 159.355 216.057C158.924 215.55 158.425 215.106 157.871 214.739C157.687 214.637 157.498 214.546 157.304 214.464Z" fill="black"/>
<path d="M171.936 86.3716C171.936 86.3716 171.936 86.216 171.872 85.9229C171.808 85.6299 171.79 85.1813 171.726 84.6227C171.598 83.4598 171.405 81.775 171.158 79.5865C170.682 75.1914 169.986 68.7909 169.107 60.6964L169.272 60.8246L70.3894 71.254L70.6 70.9885C71.5157 79.8063 72.4314 88.3861 73.2829 96.682L73.0266 96.4714L143.588 89.2102L164.373 87.1041L169.977 86.5456L171.442 86.4082H171.946L171.469 86.4723L170.041 86.6372L164.501 87.2507L143.78 89.4757L73.0723 96.975H72.8434V96.7461C71.9827 88.5051 71.0762 79.8704 70.1605 71.1075V70.8694H70.3986L169.29 60.6323H169.437V60.7697C170.252 68.9099 170.893 75.347 171.332 79.7605C171.552 81.9398 171.708 83.6155 171.827 84.7692C171.872 85.3186 171.918 85.749 171.946 86.0511L171.936 86.3716Z" fill="#455A64"/>
<path d="M336.244 362.272H316.697C316.14 362.272 315.688 362.725 315.688 363.282V366.701C315.688 367.259 316.14 367.711 316.697 367.711H336.244C336.802 367.711 337.254 367.259 337.254 366.701V363.282C337.254 362.725 336.802 362.272 336.244 362.272Z" fill="#150547"/>
<path d="M345.488 257.985C345.488 257.985 338.483 280.127 338.483 285.441C338.483 290.755 338.483 304.235 335.108 316.307C331.734 328.379 327.252 341.274 326.978 342.673C326.802 343.599 326.707 344.539 326.694 345.481C326.694 345.481 336.233 359.227 336.233 361.193C336.233 363.159 334.267 363.717 333.151 363.717H316.872C316.872 363.717 315.756 363.159 315.189 358.102C314.622 353.045 316.075 343.798 316.075 342.673C316.075 341.549 314.392 326.403 311.868 317.706C309.344 309.009 309.344 294.422 309.627 290.773C309.911 287.124 311.31 281.234 311.31 279.259V264.114L345.488 257.985Z" fill="#FFD8BF" stroke="#150547" stroke-width="0.550466" stroke-linecap="round" stroke-linejoin="round"/>
<path d="M326.817 357.5C326.817 357.5 329.474 360.157 329.129 361.538C328.927 362.295 328.6 363.014 328.163 363.664" stroke="#150547" stroke-width="0.550466" stroke-linecap="round" stroke-linejoin="round"/>
<path d="M330.474 357.5C330.474 357.5 332.981 358.846 332.591 360.963C332.451 361.873 332.258 362.775 332.016 363.664" stroke="#150547" stroke-width="0.550466" stroke-linecap="round" stroke-linejoin="round"/>
<path d="M333.169 357.304C333.169 357.304 336.065 360.386 334.94 361.927C334.482 362.651 333.879 363.272 333.169 363.751" stroke="#150547" stroke-width="0.550466" stroke-linecap="round" stroke-linejoin="round"/>
<path d="M315.578 269.746C315.578 269.746 337.72 271.517 342.813 266.31L343.955 261.722L313.842 264.875L315.578 269.746Z" fill="#150547" stroke="#150547" stroke-width="0.550466" stroke-linecap="round" stroke-linejoin="round"/>
<path d="M322.54 358.244C322.54 358.244 323.346 358.04 324.958 359.245C326.57 360.449 327.181 362.469 325.365 363.275" stroke="#150547" stroke-width="0.550466" stroke-linecap="round" stroke-linejoin="round"/>
<path d="M333.744 356.25C332.859 354.842 331.902 353.301 330.946 351.822C325.786 350.522 320.394 350.443 315.198 351.591C315.119 352.778 315.065 353.974 315.065 355.134C321.261 353.6 327.776 353.989 333.744 356.25Z" fill="#150547"/>
<path d="M306.819 362.272H285.864C285.306 362.272 284.854 362.725 284.854 363.282V366.701C284.854 367.259 285.306 367.711 285.864 367.711H306.819C307.377 367.711 307.829 367.259 307.829 366.701V363.282C307.829 362.725 307.377 362.272 306.819 362.272Z" fill="#150547"/>
<path d="M281.595 257.188C281.595 257.188 290.319 276.557 289.345 283.66C288.371 290.764 283.863 306.263 287.414 317.564C290.966 328.865 295.164 342.106 295.81 344.046C296.457 345.986 288.061 357.969 286.484 360.511C284.908 363.053 289.07 364.053 291.657 364.053H305.172C305.172 364.053 307.112 363.407 307.112 360.511C307.112 357.614 304.207 345.658 305.818 338.236C307.43 330.814 310.982 314.323 314.534 298.841C318.085 283.359 317.12 264.609 317.12 264.609L281.595 257.188Z" fill="#FFD8BF" stroke="#150547" stroke-width="0.550466" stroke-linecap="round" stroke-linejoin="round"/>
<path d="M290.212 359.492C290.212 359.492 287.369 362.574 288.255 363.539" stroke="#150547" stroke-width="0.550466" stroke-linecap="round" stroke-linejoin="round"/>
<path d="M292.915 359.686C292.915 359.686 290.409 362.192 291.374 363.733" stroke="#150547" stroke-width="0.550466" stroke-linecap="round" stroke-linejoin="round"/>
<path d="M296.227 359.492C296.227 359.492 293.57 362.379 295.076 363.734" stroke="#150547" stroke-width="0.550466" stroke-linecap="round" stroke-linejoin="round"/>
<path d="M285.757 267.745C285.757 267.745 306.686 272.899 317.004 268.631L317.119 264.636L284.349 262.865L285.757 267.745Z" fill="#150547" stroke="#150547" stroke-width="0.550466" stroke-linecap="round" stroke-linejoin="round"/>
<path d="M300.169 358.244C299.452 358.914 298.9 359.742 298.557 360.662C297.751 362.433 298.354 363.275 299.771 363.682" stroke="#150547" stroke-width="0.550466" stroke-linecap="round" stroke-linejoin="round"/>
<path d="M306.59 356.241C306.422 355.125 306.227 353.876 306.05 352.539C299.646 350.652 295.094 350.971 292.109 351.822C290.967 353.655 289.745 355.515 288.699 357.082C289.14 357.083 289.562 356.911 289.877 356.604C289.931 356.56 294.616 352.194 306.59 356.241Z" fill="#150547"/>
<path d="M265.811 189.947C265.811 189.947 260.762 201.311 263.286 219.405C265.811 237.499 274.233 261.492 274.233 261.492C287.286 264.881 300.719 266.577 314.204 266.541C336.93 266.541 347.86 261.067 347.86 261.067C347.86 261.067 356.274 229.085 356.274 211.407C356.274 193.729 351.642 183.641 351.642 183.641C351.642 183.641 311.246 192.498 273.79 179.851L265.811 189.947Z" fill="#150547" stroke="#150547" stroke-width="0.550466" stroke-linecap="round" stroke-linejoin="round"/>
<path d="M318.627 243.035L320.061 245.098" stroke="#787878" stroke-width="0.550466" stroke-linecap="round" stroke-linejoin="round"/>
<path d="M300.486 217.03L316.942 240.634" stroke="#787878" stroke-width="0.550466" stroke-linecap="round" stroke-linejoin="round"/>
<path d="M314.65 229.9L324.18 242.521" stroke="#787878" stroke-width="0.550466" stroke-linecap="round" stroke-linejoin="round"/>
<path d="M287.369 264.406C287.369 264.406 312.336 269.552 342.981 263.379" stroke="#787878" stroke-width="0.550466" stroke-linecap="round" stroke-linejoin="round"/>
<path d="M306.634 99.0497L287.698 97.7832C287.698 97.7832 292.33 128.507 285.59 147.443C278.85 166.379 273.811 179.85 273.811 179.85L269.179 188.707C278.99 192.178 289.149 194.575 299.478 195.854C315.057 197.537 329.36 198.387 336.933 196.696C342.08 195.489 347.143 193.945 352.087 192.072C352.087 192.072 337.774 155.441 337.774 135.664C337.809 123.936 336.287 112.255 333.248 100.927L325.959 100.042L306.634 99.0497Z" fill="white" stroke="#150547" stroke-width="0.550466" stroke-linecap="round" stroke-linejoin="round"/>
<path d="M325.496 121.635L319.669 197.511L324.77 198.237L325.496 121.635Z" fill="#150547" stroke="#150547" stroke-width="0.550466" stroke-linecap="round" stroke-linejoin="round"/>
<path d="M305.374 77.7925C306.26 79.2184 305.321 91.9633 305.188 94.5229C305.055 97.0825 303.913 98.9513 301.167 98.2074C295.259 96.5423 296.535 100.519 296.535 100.519C296.535 100.519 295.693 109.783 300.317 117.347C304.94 124.911 317.366 126.39 323.043 122.82C328.72 119.251 329.571 101.865 329.571 101.865L325.957 100.094C325.024 99.6276 324.244 98.9049 323.707 98.0107C323.171 97.1166 322.9 96.0879 322.928 95.0455L323.468 84.9753C323.468 84.9753 311.051 86.6315 305.374 77.7925Z" fill="#FFD8BF" stroke="#150547" stroke-width="0.550466" stroke-linecap="round" stroke-linejoin="round"/>
<path d="M323.47 84.9488C323.47 84.9488 311.07 86.6315 305.375 77.7925C306.208 79.1033 305.473 89.8554 305.234 93.655C306.9 95.0192 308.888 95.9339 311.008 96.312C315.198 96.7903 319.591 95.0366 323.054 92.8313L323.47 84.9488Z" fill="#150547" stroke="#150547" stroke-width="0.550466" stroke-linecap="round" stroke-linejoin="round"/>
<path d="M303.489 97.5792C303.489 97.5792 292.958 97.1629 283.49 96.9504C274.022 96.7378 269.39 97.588 265.777 99.4834C262.163 101.379 238.843 123.042 237.373 126.621C235.903 130.199 234.388 134.459 243.44 134.671C252.492 134.884 271.25 129.145 271.25 129.145C271.25 129.145 278.229 147.443 277.627 155.653C277.025 163.863 271.525 176.272 266.893 183.641C262.261 191.009 262.261 194.366 262.261 194.366C262.261 194.366 267.318 202.576 280.568 205.729C288.368 207.611 296.332 208.738 304.348 209.095L302.24 161.755L303.489 97.5792Z" fill="#F58A07" stroke="#150547" stroke-width="0.550466" stroke-linecap="round" stroke-linejoin="round"/>
<path d="M267.929 119.616L271.286 129.137L266.282 122.902" stroke="#150547" stroke-width="0.550466" stroke-linecap="round" stroke-linejoin="round"/>
<path d="M263.288 119.252L237.072 132.838C238.019 133.883 239.941 134.61 243.475 134.663C246.386 134.631 249.288 134.335 252.146 133.777L263.288 119.252Z" fill="#150547" stroke="#150547" stroke-width="0.550466" stroke-linecap="round" stroke-linejoin="round"/>
<path d="M295.076 97.5259C295.076 103.726 295.076 125.921 296.112 136.921C296.998 146.167 300.443 157.584 302.312 163.261L302.241 161.755L303.49 97.579C303.49 97.579 299.929 97.579 295.076 97.5259Z" fill="#F58A07" stroke="#150547" stroke-width="0.550466" stroke-linecap="round" stroke-linejoin="round"/>
<path d="M325.958 100.068C325.958 100.068 324.524 148.497 324.098 155.441C323.673 162.385 321.362 209.724 321.362 209.724C328.065 209.716 334.682 208.203 340.723 205.296C350.819 200.451 356.293 196.873 357.55 194.774C358.808 192.675 356.497 188.672 354.601 182.569C352.706 176.467 349.969 167.203 349.34 164.05C348.711 160.897 349.128 153.112 349.128 153.112C349.128 153.112 359.233 162.996 362.174 162.154C365.114 161.313 384.9 166.999 385.325 165.52C385.75 164.041 368.905 133.751 363.015 120.492C357.125 107.233 348.711 103.753 343.025 102.486C337.339 101.22 325.958 100.068 325.958 100.068Z" fill="#F58A07" stroke="#150547" stroke-width="0.550466" stroke-linecap="round" stroke-linejoin="round"/>
<path d="M333.25 100.927C329.291 100.413 325.961 100.042 325.961 100.042C325.961 100.042 324.526 148.47 324.101 155.414C323.994 157.132 323.773 161.33 323.507 166.68C325.385 160.941 329.707 147.062 331.044 137.736C332.373 128.286 332.966 108.119 333.25 100.927Z" fill="#F58A07" stroke="#150547" stroke-width="0.550466" stroke-linecap="round" stroke-linejoin="round"/>
<path d="M339.884 113.353L324.73 161.126L327.255 163.012L343.037 114.832L339.884 113.353Z" fill="#150547" stroke="#150547" stroke-width="0.550466" stroke-linecap="round" stroke-linejoin="round"/>
<path d="M343.037 114.832L371.865 125.353L355.241 168.07L327.254 163.012L343.037 114.832Z" fill="#31AF91" stroke="#150547" stroke-width="0.550466" stroke-linecap="round" stroke-linejoin="round"/>
<path d="M341.143 120.51L325.998 168.274L328.522 170.17L344.305 121.989L341.143 120.51Z" fill="#150547" stroke="#150547" stroke-width="0.550466" stroke-linecap="round" stroke-linejoin="round"/>
<path d="M344.301 121.988L373.13 132.501L356.505 175.217L328.518 170.169L344.301 121.988Z" fill="#31AF91" stroke="#150547" stroke-width="0.550466" stroke-linecap="round" stroke-linejoin="round"/>
<path d="M340.511 135.238C340.511 135.238 334.834 131.873 332.939 131.696C332.524 131.622 332.099 131.638 331.69 131.741C331.282 131.844 330.9 132.032 330.57 132.293C330.239 132.554 329.968 132.882 329.773 133.255C329.579 133.628 329.465 134.039 329.44 134.459C329.405 135.363 329.544 136.264 329.848 137.116C329.848 137.116 327.793 137.665 326.836 143.103C326.5 145.016 325.57 146.469 326.836 147.948C328.855 150.187 331.625 151.608 334.621 151.942C337.754 152.415 340.848 153.12 343.877 154.05C348.367 158.686 353.16 163.017 358.225 167.016C365.797 172.906 372.528 179.637 378.214 178.583C383.901 177.529 387.47 171.011 385.371 165.537C383.272 160.064 353.176 147.868 352.122 147.443C351.135 146.927 350.216 146.29 349.386 145.548C349.386 145.548 349.386 140.924 348.332 138.816C347.278 136.709 343.903 133.556 343.903 130.615C343.903 127.675 344.116 126.399 342.433 126.824C340.75 127.25 339.67 132.502 340.511 135.238Z" fill="#FFD8BF" stroke="#150547" stroke-width="0.550466" stroke-linecap="round" stroke-linejoin="round"/>
<path d="M300.424 60.0344C300.424 60.0344 297.767 53.3387 295.81 57.8025C293.418 63.3291 298.041 68.8115 299.237 69.5554C300.433 70.2994 300.424 60.0344 300.424 60.0344Z" fill="#FFBB96" stroke="#150547" stroke-width="0.550466" stroke-linecap="round" stroke-linejoin="round"/>
<path d="M338.846 64.8092C338.846 64.8092 342.256 60.6111 343.274 64.2866C344.293 67.9622 341.175 71.6377 338.846 73.2143C336.517 74.7908 335.693 76.8898 335.693 74.0025C335.693 71.1152 338.846 64.8092 338.846 64.8092Z" fill="#FFBB96" stroke="#150547" stroke-width="0.550466" stroke-linecap="round" stroke-linejoin="round"/>
<path d="M319.175 8.40945C319.175 8.40945 313.666 4.39733 309.946 9.00285C306.226 13.6084 310.097 17.0448 307.413 18.081C304.73 19.1173 302.985 14.3612 297.449 18.9667C291.914 23.5722 295.518 27.3009 295.811 28.9306C296.103 30.5602 295.067 30.5691 290.904 32.3582C286.741 34.1472 284.51 38.4516 290.018 42.9154C295.527 47.3793 298.202 40.9847 298.946 43.9605C299.69 46.9364 298.946 49.4695 302.666 49.2746C306.386 49.0798 313.825 43.0217 318.44 45.847C323.054 48.6723 328.103 55.8198 331.53 53.5879C334.958 51.356 336.145 47.4855 339.12 49.4252C342.096 51.3648 346.259 52.2505 348.641 46.1482C351.024 40.0458 346.259 37.9645 347.003 34.6964C347.747 31.4282 351.91 27.1061 348.34 22.0489C344.771 16.9917 341.202 22.3412 337.482 17.6205C333.762 12.8998 337.632 7.9489 332.868 5.26529C331.724 4.60707 330.461 4.18175 329.152 4.01387C327.843 3.84598 326.514 3.93885 325.241 4.28712C323.968 4.63538 322.777 5.23216 321.736 6.04304C320.695 6.85393 319.824 7.86287 319.175 9.01171" fill="#150547"/>
<path d="M306.29 42.4462C306.29 42.4462 300.772 47.1757 300.249 53.216C299.727 59.2563 297.362 73.6929 299.984 79.2106C302.605 84.7284 309.159 92.4958 314.952 93.1246C323.091 94.0634 332.019 86.5618 333.329 83.6744C334.64 80.7871 341.761 60.3014 340.158 51.1081C338.059 39.0363 317.839 31.1538 306.29 42.4462Z" fill="#FFD8BF" stroke="#150547" stroke-width="0.550466" stroke-linecap="round" stroke-linejoin="round"/>
<path d="M340.155 51.1081C338.056 39.0363 317.836 31.1538 306.287 42.4462C306.287 42.4462 300.769 47.1757 300.247 53.216C300.096 54.9253 299.804 57.3078 299.511 59.9737C301.14 58.6074 302.162 56.6526 302.355 54.5356C302.656 50.8158 305.782 46.9454 317.686 45.3069C329.589 43.6684 336.285 52.4543 337.321 55.5719C338.357 58.6895 336.878 62.861 337.622 64.9512C337.688 65.2483 337.815 65.5285 337.995 65.774C338.175 66.0194 338.404 66.2248 338.667 66.3772C339.978 60.7177 340.82 54.9342 340.155 51.1081Z" fill="#150547"/>
<path d="M316.357 27.744C316.233 27.8716 316.117 28.0077 316.012 28.1514C315.029 29.5508 314.24 29.6394 312.619 29.0902C309.077 27.9034 306.074 29.5419 306.225 32.5178C306.375 35.4937 307.713 35.042 305.038 36.9462C302.363 38.8504 300.123 40.2232 301.61 43.7925C303.098 47.3618 306.854 45.4576 306.854 47.9817C306.854 50.5059 306.703 53.7829 310.396 53.7829C314.09 53.7829 316.649 49.3545 317.694 51.7016C318.74 54.0486 319.926 57.5028 323.194 56.9005C326.463 56.2983 328.252 51.0993 331.529 53.6324C334.806 56.1654 336.586 58.3884 338.375 56.2894C340.164 54.1903 338.224 51.0816 340.607 49.7442C342.989 48.4069 345.212 47.8135 343.875 43.3496C342.538 38.8858 340.607 41.1177 339.119 37.6902C337.631 34.2626 337.923 30.5516 335.098 29.9582C332.273 29.3648 330.935 31.2956 328.252 31.0033C325.967 30.7465 325.063 27.9654 323.132 27.0355C321.202 26.1055 317.969 26.1498 316.357 27.744Z" fill="#150547" stroke="#787878" stroke-width="0.550466" stroke-linecap="round" stroke-linejoin="round"/>
<path d="M320.528 63.7378C320.528 63.7378 319.218 67.4134 319.74 69.7781C320.263 72.1429 321.582 74.2065 319.475 74.5076C317.367 74.8088 315.799 73.4537 315.799 72.1429" stroke="#150547" stroke-width="0.550466" stroke-linecap="round" stroke-linejoin="round"/>
<path d="M311.033 75.4375C311.872 76.5322 312.942 77.429 314.167 78.0642C315.391 78.6993 316.74 79.0574 318.119 79.1131C320.834 79.0933 323.483 78.2739 325.735 76.7572" stroke="#150547" stroke-width="0.550466" stroke-linecap="round" stroke-linejoin="round"/>
<path d="M311.577 63.3075C311.453 64.5386 310.806 65.4862 310.133 65.4154C309.46 65.3445 309.008 64.2994 309.132 63.0683C309.256 61.8372 309.903 60.8984 310.576 60.9604C311.249 61.0224 311.701 62.0764 311.577 63.3075Z" fill="#150547"/>
<path d="M326.421 65.8461C326.297 67.0772 325.651 68.016 324.978 67.954C324.304 67.892 323.853 66.8292 323.977 65.5981C324.101 64.367 324.747 63.4282 325.42 63.4902C326.094 63.5522 326.545 64.615 326.421 65.8461Z" fill="#150547"/>
<path d="M318.899 60.9826C318.93 62.6408 318.469 64.271 317.573 65.6668C316.677 67.0625 315.387 68.161 313.866 68.8231C312.346 69.4851 310.663 69.681 309.031 69.3858C307.399 69.0907 305.891 68.3178 304.698 67.1651C303.506 66.0124 302.682 64.5317 302.332 62.9106C301.982 61.2895 302.121 59.6009 302.731 58.0587C303.341 56.5165 304.395 55.1901 305.76 54.2474C307.124 53.3048 308.738 52.7884 310.396 52.7635C312.612 52.7327 314.749 53.5797 316.342 55.1196C317.935 56.6596 318.854 58.7673 318.899 60.9826V60.9826Z" stroke="#150547" stroke-width="0.550466" stroke-linecap="round" stroke-linejoin="round"/>
<path d="M337.517 64.5344C337.548 66.1911 337.087 67.8199 336.193 69.2147C335.299 70.6096 334.011 71.708 332.492 72.3709C330.974 73.0339 329.293 73.2317 327.662 72.9394C326.031 72.647 324.523 71.8776 323.329 70.7284C322.135 69.5793 321.309 68.102 320.955 66.4833C320.601 64.8646 320.735 63.1772 321.339 61.6345C321.944 60.0918 322.993 58.7631 324.352 57.8163C325.712 56.8695 327.322 56.3472 328.979 56.3153C331.201 56.275 333.347 57.1178 334.948 58.6588C336.549 60.1998 337.473 62.3129 337.517 64.5344Z" stroke="#150547" stroke-width="0.550466" stroke-linecap="round" stroke-linejoin="round"/>
<path d="M318.916 61.8779L320.873 62.3296" stroke="#150547" stroke-width="0.550466" stroke-linecap="round" stroke-linejoin="round"/>
<path d="M302.257 58.7785L299.645 58.1763" stroke="#150547" stroke-width="0.550466" stroke-linecap="round" stroke-linejoin="round"/>
<path d="M337.516 64.5342L339.474 64.8973" stroke="#150547" stroke-width="0.550466" stroke-linecap="round" stroke-linejoin="round"/>
<path d="M308.521 57.7236C309.471 56.9009 310.614 56.3315 311.843 56.0683C313.073 55.8051 314.349 55.8566 315.553 56.218" stroke="#150547" stroke-width="0.550466" stroke-linecap="round" stroke-linejoin="round"/>
<path d="M332.257 62.9308C331.661 61.8221 330.796 60.8819 329.739 60.1975C328.683 59.5131 327.472 59.1067 326.216 59.0161" stroke="#150547" stroke-width="0.550466" stroke-linecap="round" stroke-linejoin="round"/>
<path d="M291.231 63.9241C293.054 61.3503 295.07 58.9194 297.263 56.6527C300.451 53.4554 304.711 52.0383 304.711 53.9957C304.711 55.953 301.877 56.2984 299.92 58.7783C297.963 61.2582 293.357 67.8299 293.18 69.6013C293.003 71.3726 293.18 74.3928 296.377 73.8614C299.574 73.33 303.117 70.3187 304.711 69.247C306.306 68.1753 310.743 69.247 309.14 70.673C307.537 72.0989 304.711 72.7986 302.4 74.7471C300.088 76.6956 296.368 80.6014 294.429 81.6731C292.489 82.7447 291.063 83.4444 291.063 83.4444C291.063 83.4444 290.355 84.153 287.866 88.4131C285.377 92.6732 277.574 104.913 272.809 110.236C268.044 115.559 250.101 133.264 245.672 134.893C241.244 136.523 230.412 135.071 228.844 129.393C227.277 123.716 230.97 117.153 238.95 111.476C246.93 105.799 269.647 92.6643 274.616 90.0073C279.585 87.3503 281.533 85.9243 281.701 84.5072C281.87 83.0902 284.181 73.8791 286.316 70.1327C287.638 67.8314 289.295 65.7391 291.231 63.9241Z" fill="#FFD8BF" stroke="#150547" stroke-width="0.550466" stroke-linecap="round" stroke-linejoin="round"/>
<path d="M285.501 72.9838C285.501 72.9838 286.387 66.6689 287.325 65.8275C288.264 64.9862 293.915 65.1279 295.04 65.6858C296.164 66.2438 296.156 71.301 295.739 72.4259C295.323 73.5507 294.614 74.2415 294.198 73.8252C293.782 73.4089 292.932 69.1931 292.932 69.1931L289.991 68.7769L289.008 72.9838" fill="#FFD8BF"/>
<path d="M285.501 72.9838C285.501 72.9838 286.387 66.6689 287.325 65.8275C288.264 64.9862 293.915 65.1279 295.04 65.6858C296.164 66.2438 296.156 71.301 295.739 72.4259C295.323 73.5507 294.614 74.2415 294.198 73.8252C293.782 73.4089 292.932 69.1931 292.932 69.1931L289.991 68.7769L289.008 72.9838" stroke="#150547" stroke-width="0.550466" stroke-linecap="round" stroke-linejoin="round"/>
<path d="M284.936 74.9506C284.936 74.9506 285.822 68.6357 286.76 67.7943C287.699 66.9529 293.359 67.0947 294.475 67.6526C295.591 68.2106 295.599 73.2678 295.183 74.3838C294.767 75.4997 294.058 76.2083 293.633 75.792C293.208 75.3757 292.376 71.1599 292.376 71.1599L289.426 70.7348L288.443 74.9506" fill="#FFD8BF"/>
<path d="M284.936 74.9506C284.936 74.9506 285.822 68.6357 286.76 67.7943C287.699 66.9529 293.359 67.0947 294.475 67.6526C295.591 68.2106 295.599 73.2678 295.183 74.3838C294.767 75.4997 294.058 76.2083 293.633 75.792C293.208 75.3757 292.376 71.1599 292.376 71.1599L289.426 70.7348L288.443 74.9506" stroke="#150547" stroke-width="0.550466" stroke-linecap="round" stroke-linejoin="round"/>
<path d="M284.659 77.5193C284.659 77.5193 285.457 71.5409 286.431 70.7438C287.405 69.9467 292.631 70.0796 293.738 70.611C294.845 71.1424 294.8 75.925 294.402 76.9878C294.003 78.0507 293.339 78.7149 292.941 78.3164C292.542 77.9178 291.745 73.9323 291.745 73.9323L288.955 73.5337L288.069 77.5193" fill="#FFD8BF"/>
<path d="M284.659 77.5193C284.659 77.5193 285.457 71.5409 286.431 70.7438C287.405 69.9467 292.631 70.0796 293.738 70.611C294.845 71.1424 294.8 75.925 294.402 76.9878C294.003 78.0507 293.339 78.7149 292.941 78.3164C292.542 77.9178 291.745 73.9323 291.745 73.9323L288.955 73.5337L288.069 77.5193" stroke="#150547" stroke-width="0.550466" stroke-linecap="round" stroke-linejoin="round"/>
<path d="M290.284 75.1362C290.284 75.1362 291.045 80.3617 289.637 83.1073C288.229 85.8529 286.59 85.8264 286.59 85.8264" fill="#FFD8BF"/>
<path d="M290.284 75.1362C290.284 75.1362 291.045 80.3617 289.637 83.1073C288.229 85.8529 286.59 85.8264 286.59 85.8264" stroke="#150547" stroke-width="0.550466" stroke-linecap="round" stroke-linejoin="round"/>
</g>
<defs>
<clipPath id="clip0_689_122172">
<rect width="477.804" height="367.711" fill="white" transform="translate(0.597778)"/>
</clipPath>
</defs>
</svg>
