<svg width="60" height="60" viewBox="0 0 60 60" fill="none" xmlns="http://www.w3.org/2000/svg">
    <path fill-rule="evenodd" clip-rule="evenodd" d="M10 4a6 6 0 0 0-1 11.917v19.929c0 3.321 0 5.875.167 7.917.168 2.063.512 3.69 1.25 5.139a13 13 0 0 0 5.681 5.681c1.448.738 3.076 1.082 5.139 1.25 2.042.167 4.595.167 7.917.167H30.846c3.321 0 5.875 0 7.917-.167 2.063-.168 3.69-.512 5.139-1.25a13 13 0 0 0 5.681-5.681c.738-1.448 1.082-3.076 1.25-5.139.167-2.042.167-4.596.167-7.917V15.917A6.001 6.001 0 0 0 50 4H10zm39 12H11v19.8c0 3.377 0 5.85.16 7.8.159 1.94.469 3.275 1.039 4.394a11 11 0 0 0 4.807 4.807c1.119.57 2.455.88 4.394 1.039 1.95.16 4.423.16 7.8.16h1.6c3.377 0 5.85 0 7.8-.16 1.94-.159 3.275-.469 4.394-1.039a11 11 0 0 0 4.807-4.807c.57-1.12.88-2.455 1.039-4.394.16-1.95.16-4.423.16-7.8V16zm1-2a4 4 0 1 0 0-8H10a4 4 0 1 0 0 8h40zM21.5 25a1 1 0 0 1 1-1h15a1 1 0 1 1 0 2h-15a1 1 0 0 1-1-1z" fill="#1890FF"/>
</svg>
