<svg width="42" height="42" viewBox="0 0 42 42" fill="none" xmlns="http://www.w3.org/2000/svg">
<rect width="42" height="42" rx="21" fill="#EBEFF4"/>
<mask id="path-2-inside-1_615_5195" fill="white">
<path d="M27.0972 24.6699C26.6083 24.1806 26.0371 23.7813 25.4097 23.4902C26.2945 22.7734 26.8589 21.6797 26.8589 20.4531C26.8589 18.289 25.0542 16.5136 22.8902 16.5468C20.7593 16.58 19.0425 18.3164 19.0425 20.4531C19.0425 21.6797 19.6089 22.7734 20.4917 23.4902C19.8642 23.7811 19.293 24.1804 18.8042 24.6699C17.7378 25.7383 17.1324 27.1484 17.0933 28.6523C17.0928 28.6732 17.0964 28.6939 17.1041 28.7133C17.1117 28.7327 17.1231 28.7504 17.1377 28.7653C17.1522 28.7803 17.1696 28.7921 17.1889 28.8002C17.2081 28.8083 17.2287 28.8125 17.2496 28.8125H18.3433C18.4273 28.8125 18.4976 28.7461 18.4996 28.6621C18.5367 27.5293 18.9957 26.4687 19.8023 25.664C20.2151 25.2491 20.706 24.9201 21.2468 24.6961C21.7876 24.4722 22.3674 24.3577 22.9527 24.3593C24.1421 24.3593 25.2613 24.8222 26.1031 25.664C26.9078 26.4687 27.3667 27.5293 27.4058 28.6621C27.4078 28.7461 27.4781 28.8125 27.5621 28.8125H28.6558C28.6767 28.8125 28.6973 28.8083 28.7165 28.8002C28.7357 28.7921 28.7531 28.7803 28.7677 28.7653C28.7823 28.7504 28.7937 28.7327 28.8013 28.7133C28.8089 28.6939 28.8126 28.6732 28.8121 28.6523C28.773 27.1484 28.1675 25.7383 27.0972 24.6699ZM22.9527 22.9531C22.2847 22.9531 21.6558 22.6933 21.1851 22.2207C20.9489 21.9863 20.7623 21.7068 20.6365 21.3987C20.5106 21.0907 20.4481 20.7604 20.4527 20.4277C20.4585 19.7871 20.7144 19.1679 21.1617 18.709C21.6304 18.2285 22.2574 17.9609 22.9273 17.9531C23.5894 17.9472 24.232 18.205 24.7046 18.6679C25.189 19.1425 25.4546 19.7773 25.4546 20.4531C25.4546 21.1211 25.1949 21.748 24.7222 22.2207C24.4903 22.4537 24.2145 22.6384 23.9108 22.7641C23.6071 22.8898 23.2814 22.9541 22.9527 22.9531ZM18.0601 20.9687C18.0425 20.7988 18.0328 20.6269 18.0328 20.4531C18.0328 20.1425 18.0621 19.8398 18.1167 19.5449C18.1304 19.4746 18.0933 19.4023 18.0289 19.373C17.7632 19.2539 17.5191 19.0898 17.3082 18.8828C17.0596 18.6418 16.864 18.3516 16.7339 18.0308C16.6037 17.71 16.5419 17.3656 16.5523 17.0195C16.5699 16.3925 16.8218 15.7968 17.2613 15.3476C17.7437 14.8535 18.3921 14.584 19.0816 14.5918C19.7046 14.5976 20.3062 14.8379 20.7613 15.2636C20.9156 15.4082 21.0484 15.5683 21.1597 15.7402C21.1988 15.8008 21.275 15.8261 21.3414 15.8027C21.6851 15.6836 22.0484 15.5996 22.4214 15.5605C22.5308 15.5488 22.5933 15.4316 22.5445 15.334C21.9097 14.0781 20.6128 13.2109 19.1128 13.1875C16.9468 13.1543 15.1421 14.9297 15.1421 17.0918C15.1421 18.3183 15.7066 19.4121 16.5914 20.1289C15.9703 20.416 15.398 20.8125 14.9019 21.3086C13.8316 22.3769 13.2261 23.7871 13.1871 25.2929C13.1865 25.3138 13.1902 25.3345 13.1978 25.3539C13.2054 25.3733 13.2169 25.391 13.2314 25.406C13.246 25.4209 13.2634 25.4327 13.2826 25.4408C13.3018 25.4489 13.3225 25.4531 13.3433 25.4531H14.439C14.523 25.4531 14.5933 25.3867 14.5953 25.3027C14.6324 24.1699 15.0914 23.1093 15.898 22.3047C16.4722 21.7304 17.1753 21.332 17.9429 21.1386C18.0191 21.1191 18.0699 21.0468 18.0601 20.9687Z"/>
</mask>
<path d="M27.0972 24.6699C26.6083 24.1806 26.0371 23.7813 25.4097 23.4902C26.2945 22.7734 26.8589 21.6797 26.8589 20.4531C26.8589 18.289 25.0542 16.5136 22.8902 16.5468C20.7593 16.58 19.0425 18.3164 19.0425 20.4531C19.0425 21.6797 19.6089 22.7734 20.4917 23.4902C19.8642 23.7811 19.293 24.1804 18.8042 24.6699C17.7378 25.7383 17.1324 27.1484 17.0933 28.6523C17.0928 28.6732 17.0964 28.6939 17.1041 28.7133C17.1117 28.7327 17.1231 28.7504 17.1377 28.7653C17.1522 28.7803 17.1696 28.7921 17.1889 28.8002C17.2081 28.8083 17.2287 28.8125 17.2496 28.8125H18.3433C18.4273 28.8125 18.4976 28.7461 18.4996 28.6621C18.5367 27.5293 18.9957 26.4687 19.8023 25.664C20.2151 25.2491 20.706 24.9201 21.2468 24.6961C21.7876 24.4722 22.3674 24.3577 22.9527 24.3593C24.1421 24.3593 25.2613 24.8222 26.1031 25.664C26.9078 26.4687 27.3667 27.5293 27.4058 28.6621C27.4078 28.7461 27.4781 28.8125 27.5621 28.8125H28.6558C28.6767 28.8125 28.6973 28.8083 28.7165 28.8002C28.7357 28.7921 28.7531 28.7803 28.7677 28.7653C28.7823 28.7504 28.7937 28.7327 28.8013 28.7133C28.8089 28.6939 28.8126 28.6732 28.8121 28.6523C28.773 27.1484 28.1675 25.7383 27.0972 24.6699ZM22.9527 22.9531C22.2847 22.9531 21.6558 22.6933 21.1851 22.2207C20.9489 21.9863 20.7623 21.7068 20.6365 21.3987C20.5106 21.0907 20.4481 20.7604 20.4527 20.4277C20.4585 19.7871 20.7144 19.1679 21.1617 18.709C21.6304 18.2285 22.2574 17.9609 22.9273 17.9531C23.5894 17.9472 24.232 18.205 24.7046 18.6679C25.189 19.1425 25.4546 19.7773 25.4546 20.4531C25.4546 21.1211 25.1949 21.748 24.7222 22.2207C24.4903 22.4537 24.2145 22.6384 23.9108 22.7641C23.6071 22.8898 23.2814 22.9541 22.9527 22.9531ZM18.0601 20.9687C18.0425 20.7988 18.0328 20.6269 18.0328 20.4531C18.0328 20.1425 18.0621 19.8398 18.1167 19.5449C18.1304 19.4746 18.0933 19.4023 18.0289 19.373C17.7632 19.2539 17.5191 19.0898 17.3082 18.8828C17.0596 18.6418 16.864 18.3516 16.7339 18.0308C16.6037 17.71 16.5419 17.3656 16.5523 17.0195C16.5699 16.3925 16.8218 15.7968 17.2613 15.3476C17.7437 14.8535 18.3921 14.584 19.0816 14.5918C19.7046 14.5976 20.3062 14.8379 20.7613 15.2636C20.9156 15.4082 21.0484 15.5683 21.1597 15.7402C21.1988 15.8008 21.275 15.8261 21.3414 15.8027C21.6851 15.6836 22.0484 15.5996 22.4214 15.5605C22.5308 15.5488 22.5933 15.4316 22.5445 15.334C21.9097 14.0781 20.6128 13.2109 19.1128 13.1875C16.9468 13.1543 15.1421 14.9297 15.1421 17.0918C15.1421 18.3183 15.7066 19.4121 16.5914 20.1289C15.9703 20.416 15.398 20.8125 14.9019 21.3086C13.8316 22.3769 13.2261 23.7871 13.1871 25.2929C13.1865 25.3138 13.1902 25.3345 13.1978 25.3539C13.2054 25.3733 13.2169 25.391 13.2314 25.406C13.246 25.4209 13.2634 25.4327 13.2826 25.4408C13.3018 25.4489 13.3225 25.4531 13.3433 25.4531H14.439C14.523 25.4531 14.5933 25.3867 14.5953 25.3027C14.6324 24.1699 15.0914 23.1093 15.898 22.3047C16.4722 21.7304 17.1753 21.332 17.9429 21.1386C18.0191 21.1191 18.0699 21.0468 18.0601 20.9687Z" fill="#4E1C95"/>
<path d="M27.0972 24.6699L26.3898 25.3767L26.3908 25.3776L27.0972 24.6699ZM25.4097 23.4902L24.7802 22.7132L23.5344 23.7225L24.9888 24.3973L25.4097 23.4902ZM22.8902 16.5468L22.8748 15.547L22.8746 15.547L22.8902 16.5468ZM20.4917 23.4902L20.9123 24.3975L22.3658 23.7237L21.1221 22.7139L20.4917 23.4902ZM18.8042 24.6699L18.0966 23.9633L18.0965 23.9634L18.8042 24.6699ZM17.0933 28.6523L16.0936 28.6263L16.0936 28.6273L17.0933 28.6523ZM17.1889 28.8002L16.8006 29.7218L17.1889 28.8002ZM17.2496 28.8125V27.8125H17.2492L17.2496 28.8125ZM18.4996 28.6621L17.5001 28.6293L17.4998 28.6388L18.4996 28.6621ZM19.8023 25.664L20.5086 26.372L20.5113 26.3693L19.8023 25.664ZM22.9527 24.3593L22.9499 25.3593H22.9527V24.3593ZM26.1031 25.664L26.8102 24.9569L26.1031 25.664ZM27.4058 28.6621L28.4056 28.6388L28.4052 28.6276L27.4058 28.6621ZM28.6558 28.8125L28.6561 27.8125H28.6558V28.8125ZM28.8121 28.6523L29.8118 28.6273L29.8117 28.6263L28.8121 28.6523ZM22.9527 22.9531L22.9556 21.9531H22.9527V22.9531ZM21.1851 22.2207L21.8937 21.515L21.8894 21.5108L21.1851 22.2207ZM20.4527 20.4277L21.4526 20.4414L21.4526 20.4369L20.4527 20.4277ZM21.1617 18.709L20.4459 18.0106L20.4455 18.011L21.1617 18.709ZM22.9273 17.9531L22.9184 16.9531L22.9156 16.9532L22.9273 17.9531ZM24.7046 18.6679L25.4045 17.9537L25.4043 17.9535L24.7046 18.6679ZM24.7222 22.2207L24.0151 21.5136L24.0134 21.5153L24.7222 22.2207ZM18.0601 20.9687L17.0654 21.0716L17.0665 21.0822L17.0678 21.0928L18.0601 20.9687ZM18.1167 19.5449L17.1351 19.354L17.1335 19.3626L18.1167 19.5449ZM18.0289 19.373L18.4427 18.4626L18.4381 18.4606L18.0289 19.373ZM17.3082 18.8828L18.0086 18.1691L18.0043 18.1649L17.3082 18.8828ZM16.5523 17.0195L17.5518 17.0496L17.5519 17.0475L16.5523 17.0195ZM17.2613 15.3476L17.9761 16.0469L17.9768 16.0462L17.2613 15.3476ZM19.0816 14.5918L19.0703 15.5917L19.0722 15.5917L19.0816 14.5918ZM20.7613 15.2636L21.4449 14.5338L21.4445 14.5334L20.7613 15.2636ZM21.1597 15.7402L22 15.1981L21.999 15.1966L21.1597 15.7402ZM21.3414 15.8027L21.0139 14.8578L21.0085 14.8597L21.3414 15.8027ZM22.4214 15.5605L22.5256 16.5551L22.528 16.5548L22.4214 15.5605ZM22.5445 15.334L23.4389 14.8867L23.437 14.8829L22.5445 15.334ZM19.1128 13.1875L19.1285 12.1876L19.1282 12.1876L19.1128 13.1875ZM16.5914 20.1289L17.011 21.0366L18.4686 20.3628L17.2209 19.3519L16.5914 20.1289ZM14.9019 21.3086L15.6084 22.0163L15.609 22.0157L14.9019 21.3086ZM13.1871 25.2929L12.1874 25.267L12.1874 25.2679L13.1871 25.2929ZM13.3433 25.4531V24.4531H13.343L13.3433 25.4531ZM14.5953 25.3027L13.5958 25.27L13.5955 25.2795L14.5953 25.3027ZM15.898 22.3047L16.6042 23.0126L16.6051 23.0118L15.898 22.3047ZM17.9429 21.1386L18.1872 22.1084L18.1913 22.1073L17.9429 21.1386ZM27.8046 23.9631C27.2327 23.3907 26.5645 22.9236 25.8306 22.5831L24.9888 24.3973C25.5097 24.639 25.984 24.9705 26.3898 25.3767L27.8046 23.9631ZM26.0392 24.2672C27.1484 23.3686 27.8589 21.9939 27.8589 20.4531H25.8589C25.8589 21.3654 25.4406 22.1782 24.7802 22.7132L26.0392 24.2672ZM27.8589 20.4531C27.8589 17.7301 25.5965 15.5052 22.8748 15.547L22.9055 17.5467C24.512 17.5221 25.8589 18.848 25.8589 20.4531H27.8589ZM22.8746 15.547C20.1991 15.5887 18.0425 17.7686 18.0425 20.4531H20.0425C20.0425 18.8641 21.3195 17.5714 22.9058 17.5467L22.8746 15.547ZM18.0425 20.4531C18.0425 21.9949 18.7558 23.3688 19.8614 24.2665L21.1221 22.7139C20.4621 22.178 20.0425 21.3645 20.0425 20.4531H18.0425ZM20.0712 22.5829C19.3369 22.9233 18.6685 23.3906 18.0966 23.9633L19.5119 25.3765C19.9175 24.9703 20.3915 24.6389 20.9123 24.3975L20.0712 22.5829ZM18.0965 23.9634C16.8498 25.2124 16.1394 26.8659 16.0936 28.6263L18.093 28.6783C18.1254 27.4309 18.6259 26.2641 19.512 25.3764L18.0965 23.9634ZM16.0936 28.6273C16.0898 28.7816 16.1168 28.935 16.1732 29.0787L18.0349 28.3479C18.0761 28.4528 18.0958 28.5647 18.093 28.6773L16.0936 28.6273ZM16.1732 29.0787C16.2296 29.2223 16.3141 29.3532 16.4219 29.4637L17.8535 28.067C17.9321 28.1476 17.9938 28.2431 18.0349 28.3479L16.1732 29.0787ZM16.4219 29.4637C16.5296 29.5741 16.6584 29.6619 16.8006 29.7218L17.5771 27.8787C17.6809 27.9224 17.7748 27.9864 17.8535 28.067L16.4219 29.4637ZM16.8006 29.7218C16.9428 29.7817 17.0956 29.8125 17.2499 29.8125L17.2492 27.8125C17.3619 27.8124 17.4733 27.8349 17.5771 27.8787L16.8006 29.7218ZM17.2496 29.8125H18.3433V27.8125H17.2496V29.8125ZM18.3433 29.8125C18.951 29.8125 19.4843 29.3317 19.4993 28.6853L17.4998 28.6388C17.511 28.1605 17.9035 27.8125 18.3433 27.8125V29.8125ZM19.499 28.6948C19.5278 27.816 19.8821 26.9969 20.5085 26.372L19.096 24.9561C18.1092 25.9405 17.5455 27.2426 17.5001 28.6293L19.499 28.6948ZM20.5113 26.3693C20.8308 26.048 21.2108 25.7934 21.6294 25.62L20.8642 23.7722C20.2013 24.0468 19.5993 24.4501 19.0933 24.9588L20.5113 26.3693ZM21.6294 25.62C22.048 25.4467 22.4968 25.3581 22.9499 25.3593L22.9555 23.3593C22.2379 23.3573 21.5271 23.4977 20.8642 23.7722L21.6294 25.62ZM22.9527 25.3593C23.8772 25.3593 24.7419 25.7171 25.396 26.3711L26.8102 24.9569C25.7807 23.9274 24.4071 23.3593 22.9527 23.3593V25.3593ZM25.396 26.3711C26.0211 26.9963 26.3761 27.8163 26.4064 28.6965L28.4052 28.6276C28.3574 27.2422 27.7944 25.9411 26.8102 24.9569L25.396 26.3711ZM26.4061 28.6853C26.4211 29.3317 26.9543 29.8125 27.5621 29.8125V27.8125C28.0018 27.8125 28.3944 28.1605 28.4055 28.6388L26.4061 28.6853ZM27.5621 29.8125H28.6558V27.8125H27.5621V29.8125ZM28.6555 29.8125C28.8098 29.8125 28.9626 29.7817 29.1048 29.7218L28.3283 27.8787C28.4321 27.8349 28.5435 27.8124 28.6561 27.8125L28.6555 29.8125ZM29.1048 29.7218C29.247 29.6619 29.3757 29.5741 29.4835 29.4637L28.0519 28.067C28.1306 27.9864 28.2245 27.9224 28.3283 27.8787L29.1048 29.7218ZM29.4835 29.4637C29.5912 29.3532 29.6758 29.2223 29.7322 29.0787L27.8704 28.3479C27.9116 28.2431 27.9733 28.1476 28.0519 28.067L29.4835 29.4637ZM29.7322 29.0787C29.7885 28.9351 29.8156 28.7816 29.8118 28.6273L27.8124 28.6773C27.8096 28.5647 27.8293 28.4527 27.8704 28.3479L29.7322 29.0787ZM29.8117 28.6263C29.766 26.8657 29.0554 25.2115 27.8037 23.9621L26.3908 25.3776C27.2797 26.265 27.78 27.4311 27.8124 28.6783L29.8117 28.6263ZM22.9527 21.9531C22.5489 21.9531 22.1755 21.798 21.8937 21.515L20.4765 22.9263C21.1361 23.5886 22.0205 23.9531 22.9527 23.9531V21.9531ZM21.8894 21.5108C21.7485 21.371 21.6372 21.2043 21.5622 21.0206L19.7107 21.7769C19.8873 22.2093 20.1492 22.6016 20.4808 22.9306L21.8894 21.5108ZM21.5622 21.0206C21.4871 20.8368 21.4499 20.6399 21.4526 20.4414L19.4528 20.414C19.4464 20.881 19.5341 21.3445 19.7107 21.7769L21.5622 21.0206ZM21.4526 20.4369C21.4561 20.0546 21.6098 19.682 21.8779 19.4069L20.4455 18.011C19.8191 18.6539 19.461 19.5195 19.4527 20.4186L21.4526 20.4369ZM21.8775 19.4073C22.1603 19.1173 22.5337 18.9578 22.939 18.953L22.9156 16.9532C21.981 16.9641 21.1005 17.3396 20.4459 18.0106L21.8775 19.4073ZM22.9361 18.9531C23.3349 18.9495 23.7223 19.1056 24.005 19.3824L25.4043 17.9535C24.7417 17.3045 23.8439 16.9449 22.9184 16.9531L22.9361 18.9531ZM24.0048 19.3822C24.2968 19.6683 24.4546 20.0454 24.4546 20.4531H26.4546C26.4546 19.5092 26.0813 18.6168 25.4045 17.9537L24.0048 19.3822ZM24.4546 20.4531C24.4546 20.8557 24.3004 21.2283 24.0151 21.5136L25.4293 22.9278C26.0894 22.2677 26.4546 21.3865 26.4546 20.4531H24.4546ZM24.0134 21.5153C23.8748 21.6545 23.7099 21.765 23.5284 21.8401L24.2932 23.6881C24.7191 23.5118 25.1059 23.2528 25.431 22.9261L24.0134 21.5153ZM23.5284 21.8401C23.3468 21.9153 23.1521 21.9537 22.9556 21.9531L22.9498 23.9531C23.4107 23.9544 23.8673 23.8644 24.2932 23.6881L23.5284 21.8401ZM19.0548 20.8658C19.0404 20.7268 19.0328 20.5894 19.0328 20.4531H17.0328C17.0328 20.6644 17.0446 20.8708 17.0654 21.0716L19.0548 20.8658ZM19.0328 20.4531C19.0328 20.2058 19.0561 19.9641 19.1 19.7272L17.1335 19.3626C17.0681 19.7155 17.0328 20.0793 17.0328 20.4531H19.0328ZM19.0984 19.7358C19.1994 19.216 18.9328 18.6854 18.4427 18.4627L17.6151 20.2834C17.2538 20.1192 17.0614 19.7332 17.1351 19.354L19.0984 19.7358ZM18.4381 18.4606C18.2769 18.3883 18.1322 18.2904 18.0086 18.1691L16.6077 19.5965C16.906 19.8892 17.2496 20.1195 17.6196 20.2854L18.4381 18.4606ZM18.0043 18.1649C17.8555 18.0206 17.7384 17.8469 17.6605 17.6549L15.8072 18.4067C15.9896 18.8563 16.2637 19.263 16.612 19.6007L18.0043 18.1649ZM17.6605 17.6549C17.5826 17.4629 17.5456 17.2567 17.5518 17.0496L15.5527 16.9894C15.5382 17.4744 15.6248 17.9571 15.8072 18.4067L17.6605 17.6549ZM17.5519 17.0475C17.5624 16.6716 17.7131 16.3158 17.9761 16.0469L16.5464 14.6483C15.9306 15.2779 15.5773 16.1135 15.5527 16.9915L17.5519 17.0475ZM17.9768 16.0462C18.269 15.747 18.655 15.587 19.0703 15.5917L19.0929 13.5918C18.1293 13.5809 17.2184 13.96 16.5457 14.6491L17.9768 16.0462ZM19.0722 15.5917C19.4454 15.5952 19.8063 15.7396 20.0781 15.9939L21.4445 14.5334C20.8061 13.9361 19.9639 13.6 19.091 13.5918L19.0722 15.5917ZM20.0776 15.9935C20.1716 16.0815 20.2524 16.1789 20.3204 16.2839L21.999 15.1966C21.8444 14.9578 21.6595 14.7348 21.4449 14.5338L20.0776 15.9935ZM20.3194 16.2823C20.6102 16.733 21.1722 16.9229 21.6742 16.7457L21.0085 14.8597C21.3777 14.7294 21.7874 14.8685 22 15.1981L20.3194 16.2823ZM21.6688 16.7476C21.9445 16.652 22.2329 16.5857 22.5256 16.5551L22.3173 14.566C21.8638 14.6134 21.4257 14.7151 21.0139 14.8578L21.6688 16.7476ZM22.528 16.5548C23.343 16.4675 23.7941 15.5972 23.4389 14.8867L21.6501 15.7812C21.3925 15.266 21.7186 14.6301 22.3149 14.5662L22.528 16.5548ZM23.437 14.8829C22.6404 13.3069 21.0127 12.217 19.1285 12.1876L19.0972 14.1873C20.213 14.2048 21.1791 14.8493 21.652 15.785L23.437 14.8829ZM19.1282 12.1876C16.4053 12.1458 14.1421 14.3701 14.1421 17.0918H16.1421C16.1421 15.4892 17.4884 14.1627 19.0975 14.1874L19.1282 12.1876ZM14.1421 17.0918C14.1421 18.6326 14.8527 20.0073 15.9619 20.9059L17.2209 19.3519C16.5605 18.8169 16.1421 18.0041 16.1421 17.0918H14.1421ZM16.1718 19.2212C15.4445 19.5574 14.7747 20.0215 14.1948 20.6015L15.609 22.0157C16.0213 21.6034 16.4961 21.2746 17.011 21.0366L16.1718 19.2212ZM14.1954 20.6008C12.9436 21.8503 12.2331 23.5046 12.1874 25.267L14.1867 25.3189C14.2191 24.0696 14.7196 22.9035 15.6084 22.0163L14.1954 20.6008ZM12.1874 25.2679C12.1835 25.4222 12.2106 25.5757 12.2669 25.7193L14.1287 24.9886C14.1698 25.0934 14.1896 25.2054 14.1867 25.3179L12.1874 25.2679ZM12.2669 25.7193C12.3233 25.8629 12.4079 25.9938 12.5156 26.1043L13.9472 24.7076C14.0258 24.7882 14.0875 24.8838 14.1287 24.9886L12.2669 25.7193ZM12.5156 26.1043C12.6234 26.2147 12.7522 26.3025 12.8944 26.3624L13.6708 24.5193C13.7746 24.563 13.8686 24.627 13.9472 24.7076L12.5156 26.1043ZM12.8944 26.3624C13.0366 26.4223 13.1893 26.4531 13.3436 26.4531L13.343 24.4531C13.4556 24.4531 13.5671 24.4756 13.6708 24.5193L12.8944 26.3624ZM13.3433 26.4531H14.439V24.4531H13.3433V26.4531ZM14.439 26.4531C15.0467 26.4531 15.58 25.9723 15.595 25.326L13.5955 25.2795C13.6067 24.8011 13.9993 24.4531 14.439 24.4531V26.4531ZM15.5947 25.3354C15.6235 24.4566 15.9778 23.6376 16.6042 23.0126L15.1917 21.5967C14.2049 22.5811 13.6412 23.8832 13.5958 25.27L15.5947 25.3354ZM16.6051 23.0118C17.053 22.5638 17.5967 22.2571 18.1872 22.1083L17.6986 20.1689C16.754 20.4069 15.8914 20.897 15.1909 21.5976L16.6051 23.0118ZM18.1913 22.1073C18.7402 21.9666 19.1265 21.4376 19.0524 20.8447L17.0678 21.0928C17.0133 20.6561 17.298 20.2716 17.6945 20.17L18.1913 22.1073Z" fill="#4E1C95" mask="url(#path-2-inside-1_615_5195)"/>
</svg>
