<svg width="15" height="14" viewBox="0 0 15 14" fill="none" xmlns="http://www.w3.org/2000/svg">
<path d="M7.33398 0C3.45217 0 0.333984 3.11818 0.333984 7C0.333984 10.8818 3.45217 14 7.33398 14C11.2158 14 14.334 10.8818 14.334 7C14.334 3.11818 11.2158 0 7.33398 0ZM11.5976 8.14545C11.534 8.4 11.2794 8.52727 11.0249 8.46364L7.46126 7.76364C7.33398 7.76364 7.20671 7.63636 7.07944 7.57273C6.82489 7.44545 6.69762 7.25455 6.69762 7L6.82489 1.90909C6.82489 1.59091 7.07944 1.4 7.33398 1.4C7.58853 1.4 7.84308 1.65455 7.84308 1.90909L7.90671 6.3L11.2158 7.44545C11.534 7.50909 11.6613 7.82727 11.5976 8.14545Z" fill="#B7B7BC"/>
</svg>
