<svg width="12" height="12" viewBox="0 0 12 12" fill="none" xmlns="http://www.w3.org/2000/svg">
<path fill-rule="evenodd" clip-rule="evenodd" d="M11.6429 8.86288C11.709 8.26839 11.4155 7.69148 10.8962 7.39478L9.65411 6.68524C9.06682 6.34974 8.32766 6.44877 7.8494 6.92703L7.53076 7.24567C7.4049 7.37153 7.28494 7.37189 7.21906 7.34068C6.90959 7.19409 6.4401 6.91188 5.91489 6.38667C5.38967 5.86145 5.10746 5.39196 4.96087 5.0825C4.92966 5.01661 4.93002 4.89666 5.05588 4.7708L5.37452 4.45216C5.85278 3.9739 5.95182 3.23473 5.61632 2.64744L4.90677 1.4054C4.61007 0.886023 4.03316 0.592568 3.43867 0.658623L1.70469 0.851288C1.02122 0.927229 0.405181 1.49565 0.488107 2.28589C0.620722 3.54965 1.23871 5.95314 3.79322 8.50764C6.34769 11.0621 8.75146 11.6804 10.0154 11.8133C10.8057 11.8963 11.3743 11.2803 11.4503 10.5967L11.6429 8.86288ZM10.4001 8.26308C10.5732 8.36198 10.6711 8.55429 10.649 8.75245L10.4564 10.4862C10.4433 10.6042 10.3914 10.6953 10.3304 10.7504C10.2733 10.802 10.2039 10.8276 10.1199 10.8188C9.05774 10.7071 6.87516 10.1754 4.50033 7.80054C2.12547 5.42568 1.59408 3.24344 1.48265 2.18153C1.47384 2.09758 1.49944 2.02819 1.55104 1.97109C1.60607 1.91017 1.69714 1.85828 1.81512 1.84517L3.5491 1.65251C3.74727 1.63049 3.93957 1.72831 4.03847 1.90143L4.74801 3.14348C4.85985 3.33924 4.82684 3.58563 4.66742 3.74505L4.34877 4.06369C4.00179 4.41068 3.80208 4.97215 4.05714 5.51059C4.24974 5.91719 4.59662 6.48261 5.20778 7.09377C5.81894 7.70493 6.38436 8.05181 6.79096 8.24441C7.3294 8.49948 7.89087 8.29977 8.23786 7.95278L8.5565 7.63414C8.71592 7.47472 8.96231 7.44171 9.15807 7.55354L10.4001 8.26308Z" fill="#777EA6"/>
</svg>
