<svg width="12" height="11" viewBox="0 0 12 11" fill="none" xmlns="http://www.w3.org/2000/svg">
<path d="M11.3996 8.65529C11.3996 8.78569 11.374 8.95593 11.3229 9.16601C11.2718 9.3761 11.2181 9.54151 11.1618 9.66225C11.0544 9.90373 10.7425 10.1597 10.226 10.4301C9.74535 10.6765 9.26978 10.7996 8.79932 10.7996C8.66126 10.7996 8.52702 10.7912 8.39663 10.7743C8.26623 10.7573 8.11921 10.7272 7.95557 10.6837C7.79194 10.6402 7.67049 10.6052 7.59123 10.5787C7.51197 10.5521 7.37006 10.5026 7.16552 10.4301C6.96097 10.3577 6.83569 10.3142 6.78967 10.2998C6.28853 10.1307 5.84109 9.93029 5.44734 9.69847C4.79279 9.31694 4.11651 8.79655 3.4185 8.13732C2.72049 7.47809 2.1695 6.83938 1.76552 6.2212C1.52006 5.84932 1.30785 5.42674 1.12887 4.95344C1.11353 4.90998 1.06751 4.79165 0.990803 4.59847C0.914098 4.40529 0.861683 4.27127 0.833558 4.19641C0.805433 4.12156 0.768359 4.00685 0.722337 3.85231C0.676314 3.69776 0.644354 3.55891 0.626456 3.43576C0.608558 3.31261 0.599609 3.18583 0.599609 3.05543C0.599609 2.61111 0.730007 2.16197 0.990803 1.70799C1.27717 1.22021 1.54819 0.925604 1.80387 0.824183C1.93171 0.771058 2.10685 0.720348 2.3293 0.672053C2.55174 0.623757 2.732 0.599609 2.87006 0.599609C2.94165 0.599609 2.99535 0.606854 3.03114 0.621342C3.12319 0.65032 3.2587 0.833842 3.43768 1.17191C3.49393 1.26367 3.57063 1.39407 3.66779 1.5631C3.76495 1.73214 3.85444 1.88548 3.93626 2.02312C4.01808 2.16076 4.09734 2.28995 4.17404 2.41069C4.18938 2.43001 4.23413 2.49038 4.30827 2.5918C4.38242 2.69322 4.43739 2.77894 4.47319 2.84897C4.50898 2.919 4.52688 2.98782 4.52688 3.05543C4.52688 3.15202 4.45401 3.27276 4.30827 3.41765C4.16254 3.56254 4.00401 3.69535 3.83271 3.81609C3.6614 3.93682 3.50288 4.06481 3.35714 4.20004C3.2114 4.33526 3.13853 4.44634 3.13853 4.53327C3.13853 4.57674 3.15131 4.63107 3.17688 4.69627C3.20245 4.76147 3.22418 4.81097 3.24208 4.84478C3.25998 4.87859 3.29577 4.93654 3.34947 5.01864C3.40316 5.10075 3.43256 5.14663 3.43768 5.15628C3.82631 5.81793 4.2712 6.3854 4.77234 6.8587C5.27347 7.332 5.87433 7.75217 6.57489 8.11921C6.58512 8.12404 6.6337 8.15181 6.72063 8.20252C6.80756 8.25323 6.86893 8.28704 6.90472 8.30394C6.94052 8.32084 6.99293 8.34137 7.06197 8.36552C7.131 8.38967 7.18853 8.40174 7.23455 8.40174C7.3266 8.40174 7.44421 8.33292 7.58739 8.19528C7.73058 8.05763 7.86609 7.90792 7.99393 7.74613C8.12177 7.58434 8.26239 7.43462 8.4158 7.29698C8.56921 7.15934 8.69705 7.09052 8.79932 7.09052C8.87092 7.09052 8.94378 7.10742 9.01793 7.14123C9.09208 7.17503 9.18285 7.22695 9.29023 7.29698C9.39762 7.36701 9.46154 7.40927 9.482 7.42376C9.60984 7.4962 9.74663 7.57106 9.89236 7.64833C10.0381 7.7256 10.2005 7.81012 10.3794 7.90188C10.5584 7.99364 10.6965 8.06609 10.7936 8.11921C11.1516 8.28824 11.3459 8.41623 11.3766 8.50316C11.3919 8.53697 11.3996 8.58768 11.3996 8.65529Z" fill="#17082D"/>
</svg>
