<svg width="496" height="200" viewBox="0 0 496 200" fill="none" xmlns="http://www.w3.org/2000/svg">
<rect width="496" height="200" rx="8" fill="#FAFAFA"/>
<path d="M291.75 68.2842V131.715H204.25V68.2842H291.75Z" fill="#BFBFBF"/>
<path d="M273.725 76.6902C272.114 76.3501 270.433 76.5999 268.99 77.3941C267.548 78.1884 266.438 79.4742 265.863 81.0178C265.288 82.5613 265.287 84.2599 265.859 85.8045C266.431 87.3491 267.538 88.637 268.98 89.4339C270.421 90.2307 272.101 90.4836 273.713 90.1464C275.325 89.8093 276.763 88.9045 277.764 87.5968C278.766 86.289 279.264 84.6652 279.169 83.0209C279.074 81.3765 278.392 79.8209 277.247 78.637C276.292 77.6531 275.066 76.9755 273.725 76.6902ZM254.597 112.812C248.922 104.92 243.245 97.0297 237.566 89.1401L212.31 124.268H246.372C249.114 120.452 251.857 116.636 254.603 112.821L254.597 112.812ZM266.928 99.9995C261.11 108.087 255.293 116.176 249.478 124.265H284.381C278.567 116.176 272.749 108.087 266.928 99.9995Z" fill="white"/>
</svg>
