<svg width="9" height="8" viewBox="0 0 9 8" fill="none" xmlns="http://www.w3.org/2000/svg">
<path d="M4.50146 0.5C4.50146 0.223858 4.27761 0 4.00146 0C3.72532 0 3.50146 0.223858 3.50146 0.5V3.5H0.501465C0.225322 3.5 0.00146484 3.72386 0.00146484 4C0.00146484 4.27614 0.225322 4.5 0.501465 4.5H3.50146V7.5C3.50146 7.77614 3.72532 8 4.00146 8C4.27761 8 4.50146 7.77614 4.50146 7.5V4.5H7.50146C7.77761 4.5 8.00146 4.27614 8.00146 4C8.00146 3.72386 7.77761 3.5 7.50146 3.5H4.50146V0.5Z" fill="#8C8C8C"/>
</svg>
