<svg width="18" height="18" viewBox="0 0 18 18" fill="none" xmlns="http://www.w3.org/2000/svg">
<path d="M13.5856 8.1665C12.8953 8.1665 12.3356 8.72615 12.3356 9.4165C12.3356 10.1069 12.8953 10.6665 13.5856 10.6665C14.276 10.6665 14.8356 10.1069 14.8356 9.4165C14.8356 8.72615 14.276 8.1665 13.5856 8.1665Z" fill="#8C8C8C"/>
<path fill-rule="evenodd" clip-rule="evenodd" d="M4.00228 0.666504C3.54204 0.666504 3.16895 1.0396 3.16895 1.49984V4.10485C1.73126 4.47489 0.668945 5.77997 0.668945 7.33317V12.3332C0.668945 12.7934 1.04204 13.1665 1.50228 13.1665H3.16895V16.4998C3.16895 16.9601 3.54204 17.3332 4.00228 17.3332H14.0023C14.4625 17.3332 14.8356 16.9601 14.8356 16.4998V13.1665H16.5023C16.9625 13.1665 17.3356 12.7934 17.3356 12.3332V7.33317C17.3356 5.77997 16.2733 4.47489 14.8356 4.10485V1.49984C14.8356 1.0396 14.4625 0.666504 14.0023 0.666504H4.00228ZM13.1689 3.99984H4.83561V2.33317H13.1689V3.99984ZM4.83561 15.6665V13.1665H13.1689V15.6665H4.83561ZM4.00228 5.6665H14.0023C14.9228 5.6665 15.6689 6.4127 15.6689 7.33317V11.4998H2.33561V7.33317C2.33561 6.4127 3.0818 5.6665 4.00228 5.6665Z" fill="#8C8C8C"/>
</svg>
