<svg width="16" height="19" viewBox="0 0 12 13"  fill="none" xmlns="http://www.w3.org/2000/svg">
<g clip-path="url(#clip0_3545_48268)">
<path d="M6 12.8184C4.4087 12.8184 2.88258 12.1862 1.75736 11.061C0.632141 9.93578 0 8.40966 0 6.81836C0 5.22706 0.632141 3.70094 1.75736 2.57572C2.88258 1.4505 4.4087 0.818359 6 0.818359C7.5913 0.818359 9.11742 1.4505 10.2426 2.57572C11.3679 3.70094 12 5.22706 12 6.81836C12 8.40966 11.3679 9.93578 10.2426 11.061C9.11742 12.1862 7.5913 12.8184 6 12.8184ZM7.2 5.01836C7.2 5.18636 7.074 5.49836 6.948 5.61836L6 6.56636C5.658 6.91436 5.4 7.52636 5.4 8.01836V8.61836H6.6V8.01836C6.6 7.84436 6.726 7.53836 6.852 7.41836L7.8 6.47036C8.142 6.12236 8.4 5.51036 8.4 5.01836C8.4 4.38184 8.14714 3.77139 7.69706 3.3213C7.24697 2.87122 6.63652 2.61836 6 2.61836C5.36348 2.61836 4.75303 2.87122 4.30294 3.3213C3.85286 3.77139 3.6 4.38184 3.6 5.01836H4.8C4.8 4.7001 4.92643 4.39487 5.15147 4.16983C5.37652 3.94479 5.68174 3.81836 6 3.81836C6.31826 3.81836 6.62348 3.94479 6.84853 4.16983C7.07357 4.39487 7.2 4.7001 7.2 5.01836V5.01836ZM5.4 9.81836V11.0184H6.6V9.81836H5.4Z" fill="#4e4a4a"/>
</g>
<defs>
<clipPath id="clip0_3545_48268">
<rect width="12" height="12"  fill="white" font-weight="bold" transform="translate(0 0.818359)"/>
</clipPath>
</defs>
</svg>
