<svg width="20" height="20" viewBox="0 0 20 20" fill="none" xmlns="http://www.w3.org/2000/svg">
<path d="M7.49996 4.16669H5.83329C5.39127 4.16669 4.96734 4.34228 4.65478 4.65484C4.34222 4.9674 4.16663 5.39133 4.16663 5.83335V15.8334C4.16663 16.2754 4.34222 16.6993 4.65478 17.0119C4.96734 17.3244 5.39127 17.5 5.83329 17.5H14.1666C14.6087 17.5 15.0326 17.3244 15.3451 17.0119C15.6577 16.6993 15.8333 16.2754 15.8333 15.8334V5.83335C15.8333 5.39133 15.6577 4.9674 15.3451 4.65484C15.0326 4.34228 14.6087 4.16669 14.1666 4.16669H12.5" stroke="white" stroke-width="2" stroke-linecap="round" stroke-linejoin="round"/>
<path d="M10.8333 2.5H9.16667C8.24619 2.5 7.5 3.24619 7.5 4.16667C7.5 5.08714 8.24619 5.83333 9.16667 5.83333H10.8333C11.7538 5.83333 12.5 5.08714 12.5 4.16667C12.5 3.24619 11.7538 2.5 10.8333 2.5Z" stroke="white" stroke-width="2" stroke-linecap="round" stroke-linejoin="round"/>
<path d="M7.5 14.1667V10M10 14.1667V13.3333M12.5 14.1667V11.6667" stroke="white" stroke-width="2" stroke-linecap="round" stroke-linejoin="round"/>
</svg>
