<svg width="266" height="266" viewBox="0 0 266 266" fill="none" xmlns="http://www.w3.org/2000/svg">
<path d="M203.186 114.233C218.762 114.233 231.389 101.606 231.389 86.03C231.389 70.454 218.762 57.8271 203.186 57.8271C187.61 57.8271 174.983 70.454 174.983 86.03C174.983 101.606 187.61 114.233 203.186 114.233Z" stroke="#BFBFBF" stroke-miterlimit="10" stroke-dasharray="11.95 11.95"/>
<path d="M74.5094 75.3026C68.2845 77.5049 62.0821 80.1791 57.7225 84.3815C53.3628 88.5838 51.183 94.6289 53.7898 99.6852C57.2955 106.449 68.3519 110.382 68.4193 117.708C68.4643 122.944 62.4417 126.967 56.3741 128.854C50.3066 130.765 43.5873 131.439 38.0816 134.225C29.7668 138.428 25.8566 146.563 24.261 154.383C22.5981 162.496 23.2723 171.732 30.396 177.597C39.2501 184.901 53.8797 184.092 66.4193 182.519C83.1388 180.429 99.7908 178.002 116.443 175.552C152.916 170.226 189.411 164.855 225.906 159.507C229.816 158.922 233.884 158.293 237.075 156.383C243.39 152.563 243.929 144.675 240.243 139.034C236.558 133.394 229.794 129.574 223.052 126.27C216.31 122.967 209.187 119.82 204.13 114.921C199.074 110.022 196.557 102.786 200.4 97.2132C203.636 92.494 210.602 89.9771 213.636 85.168C217.636 78.8308 213.029 70.7632 205.793 66.7181C198.557 62.6731 107.454 63.7068 74.5094 75.3026Z" fill="#FAFAFA"/>
<path d="M245.412 215.808H20.2835C18.9576 215.808 17.8564 214.707 17.8564 213.381V202.729C17.8564 201.403 18.9576 200.302 20.2835 200.302H245.412C246.738 200.302 247.839 201.403 247.839 202.729V213.381C247.839 214.707 246.738 215.808 245.412 215.808Z" fill="#D9D9D9"/>
<path d="M173.343 200.954H74.7789C67.7675 200.954 62.1045 192.048 62.1045 181.059C62.1045 175.565 63.5203 170.583 65.8124 166.991C68.1046 163.398 71.2732 161.164 74.7789 161.164H173.343V200.954Z" fill="#D3ADF7"/>
<path d="M106.353 163.821H198.175C198.31 163.821 198.422 163.972 198.422 164.153V197.935C198.422 198.116 198.31 198.267 198.175 198.267H106.353C100.038 198.267 94.8916 191.384 94.8916 182.871V179.218C94.8916 170.704 100.015 163.821 106.353 163.821Z" fill="#F5F5F5"/>
<path d="M98.7345 170.402C97.0042 173.119 95.9255 176.893 95.9255 181.059C95.9255 189.392 100.218 196.124 105.521 196.124H203.905V200.954H105.341C98.33 200.954 92.667 192.048 92.667 181.059C92.667 175.565 94.0828 170.583 96.3749 166.991C98.6671 163.398 101.836 161.164 105.341 161.164H203.905V165.994H105.521C102.869 165.994 100.465 167.655 98.7345 170.402Z" fill="#9254DE"/>
<path d="M106.6 190.66H194.984" stroke="#D9D9D9" stroke-width="2" stroke-miterlimit="10" stroke-linecap="round"/>
<path d="M106.6 184.622H194.984" stroke="#D9D9D9" stroke-width="2" stroke-miterlimit="10" stroke-linecap="round"/>
<path d="M106.6 178.584H194.984" stroke="#D9D9D9" stroke-width="2" stroke-miterlimit="10" stroke-linecap="round"/>
<path d="M106.6 172.546H194.984" stroke="#D9D9D9" stroke-width="2" stroke-miterlimit="10" stroke-linecap="round"/>
<path d="M97.7676 161.133H191.792C198.467 161.133 203.882 154.16 203.882 145.555C203.882 141.238 202.534 137.344 200.332 134.536C198.152 131.729 195.118 129.978 191.77 129.978H97.7676V161.133Z" fill="#FFD666"/>
<path d="M162.736 132.091H74.0597C73.9473 132.091 73.8574 132.212 73.8574 132.363V158.748C73.8574 158.899 73.9473 159.02 74.0597 159.02H162.736C168.197 159.02 172.624 153.073 172.624 145.737V145.374C172.624 138.038 168.197 132.091 162.736 132.091Z" fill="#F5F5F5"/>
<path d="M168.96 137.223C170.623 139.367 171.635 142.295 171.635 145.556C171.635 152.077 167.545 157.36 162.488 157.36H68.6211V161.164H162.646C169.32 161.164 174.736 154.19 174.736 145.586C174.736 141.269 173.388 137.374 171.185 134.566C168.983 131.759 165.972 130.008 162.623 130.008H68.6211V133.812H162.488C165.005 133.751 167.298 135.08 168.96 137.223Z" fill="#FAAD14"/>
<path d="M161.454 155.85H77.1152" stroke="#D9D9D9" stroke-width="2" stroke-miterlimit="10" stroke-linecap="round"/>
<path d="M161.454 149.812H77.1152" stroke="#D9D9D9" stroke-width="2" stroke-miterlimit="10" stroke-linecap="round"/>
<path d="M161.454 143.774H77.1152" stroke="#D9D9D9" stroke-width="2" stroke-miterlimit="10" stroke-linecap="round"/>
<path d="M161.454 137.736H77.1152" stroke="#D9D9D9" stroke-width="2" stroke-miterlimit="10" stroke-linecap="round"/>
<path d="M173.343 129.978H74.7789C67.7675 129.978 62.1045 121.072 62.1045 110.083C62.1045 104.588 63.5203 99.6067 65.8124 96.0142C68.1046 92.4216 71.2732 90.1875 74.7789 90.1875H173.343V129.978Z" fill="#D3ADF7"/>
<path d="M106.353 92.8442H198.175C198.31 92.8442 198.422 92.9952 198.422 93.1763V126.959C198.422 127.14 198.31 127.291 198.175 127.291H106.353C100.038 127.291 94.8916 120.408 94.8916 111.894V108.211C94.8916 99.7275 100.015 92.8442 106.353 92.8442Z" fill="#F5F5F5"/>
<path d="M98.7345 99.4256C97.0042 102.143 95.9255 105.916 95.9255 110.083C95.9255 118.415 100.218 125.147 105.521 125.147H203.905V129.978H105.341C98.33 129.978 92.667 121.072 92.667 110.083C92.667 104.588 94.0828 99.6067 96.3749 96.0142C98.6671 92.4216 101.836 90.1875 105.341 90.1875H203.905V95.0179H105.521C102.869 94.9877 100.465 96.6783 98.7345 99.4256Z" fill="#9254DE"/>
<path d="M106.6 119.683H194.984" stroke="#D9D9D9" stroke-width="2" stroke-miterlimit="10" stroke-linecap="round"/>
<path d="M106.6 113.646H194.984" stroke="#D9D9D9" stroke-width="2" stroke-miterlimit="10" stroke-linecap="round"/>
<path d="M106.6 107.607H194.984" stroke="#D9D9D9" stroke-width="2" stroke-miterlimit="10" stroke-linecap="round"/>
<path d="M106.6 101.569H194.984" stroke="#D9D9D9" stroke-width="2" stroke-miterlimit="10" stroke-linecap="round"/>
<path d="M161.432 166.9L156.264 161.133L150.87 166.9V143.533H161.432V166.9Z" fill="#9254DE"/>
<path d="M224.042 199.853C228.963 199.853 231.031 195.92 231.862 191.763C232.783 187.066 232.109 182.055 232.109 182.055H215.997C215.997 182.055 215.974 182.234 215.929 182.594C215.615 185.538 214.648 199.853 224.042 199.853Z" fill="#D9D9D9"/>
<path d="M215.974 182.055C215.974 182.415 219.592 182.684 224.041 182.684C228.491 182.684 232.109 182.392 232.109 182.055C232.109 181.695 228.491 181.426 224.041 181.426C219.592 181.426 215.974 181.718 215.974 182.055Z" fill="#8C8C8C"/>
<path d="M202.221 137.38C202.221 137.38 210.715 150.301 215.817 158.189C220.918 166.077 222.244 167.717 222.85 170.257C223.457 172.796 223.996 182.212 223.996 182.212H224.379C224.379 182.212 224.244 174.234 223.794 171.538C223.345 168.931 223.817 168.01 224.199 165.268C224.558 162.526 225.053 158.167 222.289 155.133C219.524 152.099 220.266 149.133 219.277 147.11C218.311 145.11 210.783 142.683 209.816 140.616C208.828 138.593 204.58 137.335 202.221 137.38Z" fill="#BFBFBF"/>
<path d="M202.221 137.379C202.221 137.379 204.895 140.413 206.715 141.447C208.535 142.481 209.389 141.559 210.783 144.054C212.176 146.548 212.243 147.627 213.502 148.908C214.783 150.189 216.288 150.234 216.423 153.043C216.536 155.829 215.817 158.211 215.817 158.211C215.817 158.211 202.76 138.054 202.221 137.379Z" fill="#D9D9D9"/>
<path d="M223.344 182.235H222.962C222.962 182.235 222.85 179.651 221.816 178.392C221.165 177.583 218.333 176.662 215.569 175.561C214.041 174.954 212.513 174.302 211.367 173.561C208.131 171.516 205.052 164.886 204.782 163.718C204.692 163.313 204.647 163.066 204.647 162.886C204.647 162.572 204.805 162.527 205.074 162.212C205.209 162.055 205.591 162.1 206.086 162.257C207.479 162.684 208.648 163.628 209.389 164.909C210.063 166.077 211.142 167.538 212.468 167.898C214.76 168.504 214.558 168.886 215.412 171.201C216.243 173.516 218.378 173.898 221.03 176.639C223.682 179.359 223.344 182.235 223.344 182.235Z" fill="#BFBFBF"/>
<path d="M215.569 175.561C214.041 174.954 212.513 174.302 211.367 173.561C208.131 171.516 205.052 164.886 204.782 163.718C204.692 163.313 204.647 163.066 204.647 162.886C204.647 162.954 204.805 164.01 206.49 164.706C208.243 165.426 208.58 165.426 208.805 166.527C209.03 167.628 209.232 168.819 210.131 169.044C211.052 169.268 211.614 168.235 212.333 169.92C213.052 171.583 213.412 172.167 214.063 172.392C214.738 172.617 215.232 172.28 215.389 173.561C215.479 174.37 215.524 175.111 215.569 175.561Z" fill="#D9D9D9"/>
<path d="M226.131 182.234H226.581C226.581 182.234 227.457 166.234 228.671 164.751C229.457 163.784 232.042 162.077 235.323 160.773C237.143 160.054 238.941 159.268 240.289 158.414C244.109 155.987 247.772 148.144 248.087 146.75C248.199 146.256 248.244 145.964 248.244 145.762C248.244 145.38 248.042 145.335 247.727 144.953C247.57 144.773 247.098 144.84 246.536 144.998C244.896 145.492 243.503 146.638 242.626 148.121C241.817 149.514 240.559 151.222 238.986 151.649C236.289 152.368 236.514 152.818 235.502 155.56C234.514 158.301 231.997 158.751 228.851 162.009C225.727 165.245 226.131 182.234 226.131 182.234Z" fill="#BFBFBF"/>
<path d="M235.346 160.773C237.166 160.054 238.964 159.268 240.312 158.414C244.132 155.987 247.795 148.144 248.11 146.751C248.222 146.256 248.267 145.964 248.267 145.762C248.267 145.852 248.088 147.088 246.087 147.919C244.02 148.773 243.616 148.773 243.346 150.076C243.076 151.38 242.851 152.773 241.773 153.043C240.694 153.312 240.02 152.099 239.166 154.077C238.312 156.054 237.908 156.728 237.121 156.998C236.334 157.268 235.728 156.863 235.57 158.391C235.436 159.335 235.368 160.211 235.346 160.773Z" fill="#D9D9D9"/>
<path d="M224.042 199.853C228.963 199.853 231.031 195.92 231.862 191.763C227.03 189.943 220.963 186.999 215.929 182.594C215.615 185.538 214.648 199.853 224.042 199.853Z" fill="#FAFAFA"/>
<path d="M40.3964 200.459C44.4414 200.459 46.1493 197.223 46.8235 193.785C47.5875 189.92 47.0257 185.785 47.0257 185.785H33.767C33.767 185.785 33.7445 185.942 33.7221 186.212C33.4524 188.661 32.6659 200.459 40.3964 200.459Z" fill="#D9D9D9"/>
<path d="M33.7676 185.785C33.7676 186.077 36.7339 186.302 40.397 186.302C44.06 186.302 47.0263 186.077 47.0263 185.785C47.0263 185.493 44.06 185.268 40.397 185.268C36.7339 185.268 33.7676 185.493 33.7676 185.785Z" fill="#8C8C8C"/>
<path d="M18.6211 141.716C18.6211 141.716 27.0033 154.458 32.0371 162.256C37.071 170.032 38.3744 171.65 38.9811 174.167C39.5879 176.684 40.1272 185.965 40.1272 185.965H40.7789C40.7789 185.965 41.2059 178.122 40.4194 175.56C39.6328 172.998 39.9474 171.964 40.307 169.268C40.6666 166.571 41.1385 162.256 38.4193 159.267C35.7001 156.279 36.4193 153.335 35.453 151.357C34.4866 149.38 27.0707 146.997 26.1044 144.952C25.1606 142.907 20.9582 141.649 18.6211 141.716Z" fill="#BFBFBF"/>
<path d="M20.4639 141.717C20.4639 141.717 23.0931 144.706 24.8909 145.717C26.6887 146.728 27.5202 145.829 28.891 148.301C30.2618 150.751 30.3293 151.829 31.5877 153.088C32.8462 154.346 34.3518 154.414 34.4642 157.155C34.5765 159.919 33.8574 162.234 33.8574 162.234C33.8574 162.234 21.0032 142.368 20.4639 141.717Z" fill="#D9D9D9"/>
<path d="M42.9134 185.785L43.3853 185.65C43.3853 185.65 42.5538 182.347 43.3628 180.392C43.8797 179.111 47.0932 176.908 50.1719 174.459C51.8798 173.111 53.5428 171.717 54.7114 170.346C58.0148 166.549 59.3856 157.043 59.2733 155.447C59.2283 154.885 59.1834 154.571 59.116 154.346C58.9811 153.942 58.7789 153.942 58.307 153.649C58.0822 153.515 57.6103 153.717 57.0485 154.076C55.453 155.133 54.3293 156.773 53.8799 158.638C53.4754 160.369 52.6664 162.616 51.1383 163.56C48.4865 165.178 48.8685 165.605 48.6888 168.841C48.509 172.077 45.9696 173.358 43.6549 177.807C41.3852 182.279 42.9134 185.785 42.9134 185.785Z" fill="#BFBFBF"/>
<path d="M50.195 174.459C51.9029 173.111 53.5658 171.717 54.7344 170.347C58.0379 166.549 59.4087 157.043 59.2963 155.447C59.2514 154.886 59.2064 154.571 59.139 154.346C59.1615 154.459 59.3637 155.829 57.4985 157.335C55.5659 158.908 55.1389 159.043 55.2738 160.504C55.4086 161.987 55.6108 163.537 54.5322 164.167C53.476 164.796 52.3523 163.717 52.0827 166.099C51.813 168.481 51.5883 169.335 50.8242 169.875C50.0826 170.414 49.3185 170.167 49.6107 171.852C49.8354 172.908 50.0377 173.852 50.195 174.459Z" fill="#D9D9D9"/>
<path d="M40.3966 200.459C44.4416 200.459 46.1495 197.223 46.8237 193.785C42.8461 192.279 37.8572 189.875 33.6998 186.234C33.4526 188.661 32.6661 200.459 40.3966 200.459Z" fill="#FAFAFA"/>
</svg>
