<svg width="268" height="185" viewBox="0 0 268 185" fill="none" xmlns="http://www.w3.org/2000/svg">
<g clip-path="url(#clip0_2629_60143)">
<path d="M213.187 146.157C213.596 146.244 214.038 146.271 214.286 146.257C218.983 146.063 223.706 146.177 228.41 146.197C228.852 146.197 229.321 146.19 229.683 145.983C231.947 144.684 226.822 144.59 226.346 144.59C224.53 144.59 222.715 144.59 220.899 144.59C218.42 144.59 216.39 144.677 213.489 144.757C213.127 144.771 212.464 144.784 212.303 145.065C211.948 145.702 212.531 146.01 213.187 146.157Z" fill="#CEE4F4"/>
<path d="M216.451 160.643C217.564 160.864 219.553 160.81 219.795 160.81C221.878 160.81 223.962 160.817 226.039 160.824C226.307 160.824 226.582 160.824 226.836 160.743C227.084 160.663 227.312 160.475 227.339 160.248C227.419 159.591 216.967 159.196 216.016 159.853C215.406 160.268 215.761 160.509 216.451 160.643Z" fill="#CEE4F4"/>
<path d="M226.547 160.229L229.623 145.388L229.254 145.328L226.186 160.175L226.547 160.229Z" fill="#CEE4F4"/>
<path d="M216.323 160.229L216.685 160.175L213.61 145.328L213.248 145.388L216.323 160.229Z" fill="#CEE4F4"/>
<path d="M228.845 148.057L228.939 147.923L223.981 145.352L223.887 145.492L228.845 148.057Z" fill="#CEE4F4"/>
<path d="M228.422 150.101L228.516 149.967L220.295 145.734L220.201 145.875L228.422 150.101Z" fill="#CEE4F4"/>
<path d="M227.853 152.846L227.947 152.712L216.081 146.109L215.98 146.243L227.853 152.846Z" fill="#CEE4F4"/>
<path d="M227.291 155.564L227.384 155.43L214.085 148.211L213.984 148.345L227.291 155.564Z" fill="#CEE4F4"/>
<path d="M226.789 157.996L226.883 157.856L214.89 152.137L214.803 152.277L226.789 157.996Z" fill="#CEE4F4"/>
<path d="M224.315 160.241L224.409 160.1L215.592 155.52L215.498 155.653L224.315 160.241Z" fill="#CEE4F4"/>
<path d="M219.907 160.241L219.995 160.101L216.162 158.266L216.068 158.406L219.907 160.241Z" fill="#CEE4F4"/>
<path d="M214.111 148.319L216.429 145.071L216.275 144.984L213.957 148.239L214.111 148.319Z" fill="#CEE4F4"/>
<path d="M214.561 150.509L218.702 145.473L218.555 145.379L214.414 150.415L214.561 150.509Z" fill="#CEE4F4"/>
<path d="M215.109 153.147L221.3 145.473L221.153 145.379L214.955 153.053L215.109 153.147Z" fill="#CEE4F4"/>
<path d="M215.62 155.633L224.437 145.695L224.29 145.602L215.473 155.54L215.62 155.633Z" fill="#CEE4F4"/>
<path d="M216.022 157.587L226.922 145.854L226.782 145.754L215.881 157.487L216.022 157.587Z" fill="#CEE4F4"/>
<path d="M216.565 159.75L229.348 146.182L229.207 146.082L216.424 159.643L216.565 159.75Z" fill="#CEE4F4"/>
<path d="M219.56 159.75L228.31 151.205L228.169 151.098L219.426 159.643L219.56 159.75Z" fill="#CEE4F4"/>
<path d="M222.487 160.221L227.666 154.307L227.519 154.207L222.34 160.12L222.487 160.221Z" fill="#CEE4F4"/>
<path d="M224.811 160.219L226.908 157.975L226.76 157.875L224.67 160.118L224.811 160.219Z" fill="#CEE4F4"/>
<path d="M21.9628 154.153H253.702C253.702 154.153 287.738 72.7129 250.795 55.6493C217.77 40.3939 229.864 -4.8097 183.399 0.413827C136.935 5.63736 134.094 20.9262 87.3682 17.7385C17.8959 12.9905 -24.8032 54.9997 15.7586 113.034C26.0096 127.701 26.8136 142.568 21.9628 154.153Z" fill="#FDE8E2"/>
<g opacity="0.56">
<g opacity="0.56">
<path opacity="0.56" d="M39.7974 138.797C39.7974 139.065 38.6182 139.286 37.1643 139.286C35.7104 139.286 34.5312 139.065 34.5312 138.797C34.5312 138.53 35.7104 138.309 37.1643 138.309C38.6182 138.309 39.7974 138.53 39.7974 138.797Z" fill="#F58A07"/>
<path opacity="0.56" d="M39.7974 152.727C39.7974 152.995 38.6182 153.216 37.1643 153.216C35.7104 153.216 34.5312 152.995 34.5312 152.727C34.5312 152.459 35.7104 152.238 37.1643 152.238C38.6182 152.238 39.7974 152.459 39.7974 152.727Z" fill="#F58A07"/>
<path opacity="0.56" d="M39.7907 138.797H34.5312V152.726H39.7907V138.797Z" fill="#F58A07"/>
</g>
<g opacity="0.56">
<path opacity="0.56" d="M37.1977 140.177H37.0302C37.0302 140.11 37.0838 133.279 35.2949 129.087L35.449 129C37.2513 133.239 37.1977 140.11 37.1977 140.177Z" fill="#F58A07"/>
</g>
<path opacity="0.56" d="M34.7332 125.409L35.6511 124.706C35.3362 123.795 34.8605 122.811 34.1771 121.78H33.7215L33.9225 121.405C33.4535 120.735 32.8907 120.052 32.2207 119.355C32.2207 119.355 32.3011 121.07 32.6763 123.186H33.3999L32.7366 123.528C32.8237 123.983 32.9175 124.452 33.0314 124.921L33.889 124.74L33.1654 125.43C33.7148 127.492 34.5657 129.508 35.8856 130.459C35.8856 130.459 36.7097 128.356 35.832 125.296L34.7332 125.409Z" fill="#F58A07"/>
<g opacity="0.56">
<path opacity="0.56" d="M37.178 140.739C37.178 140.658 37.111 132.367 39.2952 127.258L39.4492 127.345C37.2852 132.408 37.3455 140.651 37.3522 140.739H37.178Z" fill="#F58A07"/>
</g>
<path opacity="0.56" d="M40.1393 122.912L39.0338 122.061C39.4157 120.963 39.9852 119.771 40.8093 118.525H41.3587L41.1175 118.077C41.687 117.273 42.3637 116.443 43.1677 115.605C43.1677 115.605 43.0672 117.675 42.6183 120.226H41.7473L42.5446 120.641C42.4441 121.191 42.3235 121.753 42.1828 122.322L41.151 122.101L42.0287 122.932C41.3721 125.416 40.3403 127.854 38.7457 128.999C38.7457 128.999 37.7541 126.461 38.8127 122.764L40.1393 122.912Z" fill="#F58A07"/>
</g>
<path d="M266.567 152.82H13.8965V154.421H266.567V152.82Z" fill="#F58A07"/>
<path opacity="0.71" d="M267.409 175.339C267.415 169.936 214.478 165.501 149.171 165.433C83.8641 165.366 30.9181 169.691 30.9125 175.095C30.9069 180.498 83.8439 184.934 149.151 185.001C214.457 185.069 267.403 180.743 267.409 175.339Z" fill="#FDE8E2"/>
<g opacity="0.71">
<g opacity="0.71">
<path opacity="0.71" d="M59.2158 149.766C64.9912 146.511 69.5539 140.585 71.7314 133.506L71.2825 133.285C69.1519 140.223 64.683 146.022 59.0215 149.217L59.2158 149.766Z" fill="#C6D2EB"/>
<g opacity="0.71">
<g opacity="0.71">
<path opacity="0.71" d="M70.8594 135.289C71.6969 134.399 72.2329 133.113 72.3535 131.747C72.3803 131.412 72.3736 131.03 72.1793 130.776C72.1257 130.709 72.052 130.648 71.9783 130.642C71.8577 130.628 71.7505 130.736 71.6768 130.849C71.2681 131.445 71.1542 132.269 71.114 133.059C71.0738 133.85 70.9532 134.432 70.8594 135.289Z" fill="#C6D2EB"/>
</g>
<g opacity="0.71">
<path opacity="0.71" d="M69.7818 137.706C70.2374 136.467 70.3044 135.008 69.9627 133.668C69.8756 133.34 69.7483 132.985 69.487 132.844C69.4133 132.804 69.3329 132.784 69.2592 132.818C69.1453 132.865 69.085 133.019 69.0515 133.159C68.8773 133.916 69.0515 134.74 69.2726 135.503C69.5004 136.26 69.5875 136.863 69.7818 137.706Z" fill="#C6D2EB"/>
</g>
<g opacity="0.71">
<path opacity="0.71" d="M68.1664 140.685C68.7493 139.534 68.9637 138.1 68.756 136.728C68.7024 136.393 68.6086 136.024 68.3607 135.844C68.2937 135.797 68.2133 135.763 68.1396 135.783C68.019 135.81 67.9453 135.957 67.8984 136.091C67.6505 136.815 67.7376 137.652 67.885 138.435C68.0324 139.219 68.0592 139.822 68.1664 140.685Z" fill="#C6D2EB"/>
</g>
<g opacity="0.71">
<path opacity="0.71" d="M66.2699 143.306C66.8528 142.155 67.0672 140.721 66.8595 139.349C66.8059 139.014 66.7121 138.645 66.4642 138.465C66.3972 138.418 66.3168 138.384 66.2431 138.404C66.1225 138.431 66.0488 138.579 66.0019 138.712C65.754 139.436 65.8411 140.273 65.9885 141.056C66.1359 141.84 66.1627 142.443 66.2699 143.306Z" fill="#C6D2EB"/>
</g>
<g opacity="0.71">
<path opacity="0.71" d="M63.3958 146.334C64.0792 145.269 64.4142 143.876 64.3204 142.49C64.3003 142.149 64.2333 141.774 64.0055 141.566C63.9452 141.512 63.8648 141.465 63.7911 141.479C63.6705 141.492 63.5834 141.626 63.5231 141.753C63.2149 142.436 63.2283 143.28 63.3087 144.071C63.3891 144.861 63.3623 145.463 63.3958 146.334Z" fill="#C6D2EB"/>
</g>
<g opacity="0.71">
<path opacity="0.71" d="M61.125 148.259C61.8017 147.308 62.2037 145.989 62.2372 144.61C62.2439 144.275 62.2171 143.893 62.0362 143.652C61.9893 143.585 61.9223 143.532 61.8553 143.532C61.7481 143.525 61.6677 143.645 61.6074 143.759C61.2858 144.389 61.2255 145.219 61.2322 146.009C61.2322 146.813 61.1652 147.402 61.125 148.259Z" fill="#C6D2EB"/>
</g>
<g opacity="0.71">
<path opacity="0.71" d="M69.2324 138.77C70.3982 138.991 71.631 138.69 72.636 137.94C72.8839 137.759 73.1318 137.511 73.172 137.163C73.1854 137.069 73.172 136.969 73.1251 136.888C73.0514 136.761 72.904 136.734 72.7767 136.734C72.1 136.728 71.4635 137.136 70.9007 137.598C70.3513 138.074 69.8756 138.328 69.2324 138.77Z" fill="#C6D2EB"/>
</g>
<g opacity="0.71">
<path opacity="0.71" d="M67.918 141.029C69.0235 141.578 70.2898 141.652 71.4288 141.223C71.7102 141.116 72.005 140.955 72.1122 140.634C72.139 140.547 72.1524 140.446 72.1256 140.359C72.0787 140.218 71.938 140.151 71.8174 140.111C71.1541 139.91 70.4439 140.118 69.8007 140.399C69.1575 140.681 68.6416 140.788 67.918 141.029Z" fill="#C6D2EB"/>
</g>
<g opacity="0.71">
<path opacity="0.71" d="M65.9297 143.666C66.928 144.469 68.1742 144.844 69.3735 144.704C69.6683 144.67 69.9899 144.583 70.144 144.302C70.1842 144.221 70.2177 144.128 70.1976 144.041C70.1708 143.893 70.0502 143.793 69.9296 143.726C69.3065 143.364 68.5695 143.398 67.8928 143.511C67.2094 143.625 66.6801 143.605 65.9297 143.666Z" fill="#C6D2EB"/>
</g>
<g opacity="0.71">
<path opacity="0.71" d="M63.1074 146.713C64.2196 147.235 65.4859 147.269 66.6115 146.813C66.8862 146.699 67.181 146.525 67.2815 146.204C67.3083 146.117 67.3217 146.016 67.2882 145.929C67.2346 145.789 67.1006 145.728 66.9733 145.688C66.3033 145.501 65.6065 145.735 64.97 146.03C64.3335 146.324 63.8243 146.452 63.1074 146.713Z" fill="#C6D2EB"/>
</g>
<g opacity="0.71">
<path opacity="0.71" d="M60.7969 148.461C61.621 149.519 62.7667 150.249 63.9727 150.463C64.2675 150.517 64.6025 150.524 64.8102 150.303C64.8705 150.242 64.9174 150.162 64.9174 150.068C64.9241 149.921 64.8236 149.787 64.7164 149.686C64.1737 149.157 63.4501 148.977 62.7533 148.89C62.0632 148.796 61.5473 148.628 60.7969 148.461Z" fill="#C6D2EB"/>
</g>
</g>
</g>
</g>
<path d="M198.186 64.0195H68.668L86.5771 167.82H215.693L198.186 64.0195Z" fill="#7DAFBC"/>
<path d="M195.439 83.8281L200.759 167.82L173.758 176.097L184.699 89.5941L195.439 83.8281Z" fill="#5592A0"/>
<path d="M62.1419 72.2969H191.66L173.757 176.098H44.6348L62.1419 72.2969Z" fill="#A7C7D2"/>
<path d="M62.1419 72.2969H191.66L187.485 97.7515H58.1621L62.1419 72.2969Z" fill="#4E1C95"/>
<path d="M118.241 109.043H107.776L106.51 117.106H116.975L118.241 109.043Z" fill="white"/>
<path d="M101.217 150.832L99.8906 159.263H110.356L111.676 150.832H101.217Z" fill="white"/>
<path d="M113.665 138.189L114.985 129.758H104.526L103.199 138.189H113.665Z" fill="white"/>
<path d="M115.319 127.646L116.639 119.215H106.18L104.854 127.646H115.319Z" fill="white"/>
<path d="M98.3359 169.186L108.801 169.173L110.021 161.371H99.562L98.3359 169.186Z" fill="white"/>
<path d="M102.872 140.289L101.545 148.72H112.01L113.33 140.289H102.872Z" fill="white"/>
<path d="M80.4457 109.043H69.987L68.7207 117.106H79.1794L80.4457 109.043Z" fill="white"/>
<path d="M77.5251 127.646L78.8517 119.215H68.393L67.0664 127.646H77.5251Z" fill="white"/>
<path d="M63.4282 150.832L62.1016 159.263H72.567L73.8869 150.832H63.4282Z" fill="white"/>
<path d="M60.5332 169.233L70.9986 169.22L72.2314 161.371H61.7727L60.5332 169.233Z" fill="white"/>
<path d="M75.5412 140.289H65.0825L63.7559 148.72H74.2213L75.5412 140.289Z" fill="white"/>
<path d="M77.1974 129.758H66.7387L65.4121 138.189H75.8708L77.1974 129.758Z" fill="white"/>
<path d="M73.1367 169.22L83.6021 169.206L84.8282 161.371H74.3695L73.1367 169.22Z" fill="white"/>
<path d="M93.0434 109.043H82.5847L81.3184 117.106H91.7771L93.0434 109.043Z" fill="white"/>
<path d="M77.6801 140.289L76.3535 148.72H86.8189L88.1388 140.289H77.6801Z" fill="white"/>
<path d="M90.1275 127.646L91.4474 119.215H80.9887L79.6621 127.646H90.1275Z" fill="white"/>
<path d="M76.0239 150.832L74.6973 159.263H85.1627L86.4826 150.832H76.0239Z" fill="white"/>
<path d="M88.4732 138.189L89.7931 129.758H79.3344L78.0078 138.189H88.4732Z" fill="white"/>
<path d="M126.26 138.189L127.58 129.758H117.122L115.795 138.189H126.26Z" fill="white"/>
<path d="M115.467 140.289L114.141 148.72H124.606L125.926 140.289H115.467Z" fill="white"/>
<path d="M110.932 169.166L121.397 169.153L122.616 161.371H112.158L110.932 169.166Z" fill="white"/>
<path d="M113.813 150.832L112.486 159.263H122.952L124.272 150.832H113.813Z" fill="white"/>
<path d="M130.837 109.043H120.372L119.105 117.106H129.571L130.837 109.043Z" fill="white"/>
<path d="M127.917 127.646L129.236 119.215H118.778L117.451 127.646H127.917Z" fill="white"/>
<path d="M88.6196 150.832L87.293 159.263H97.7584L99.0783 150.832H88.6196Z" fill="white"/>
<path d="M102.723 127.646L104.043 119.215H93.5844L92.2578 127.646H102.723Z" fill="white"/>
<path d="M90.2758 140.289L88.9492 148.72H99.4146L100.735 140.289H90.2758Z" fill="white"/>
<path d="M101.069 138.189L102.389 129.758H91.9301L90.6035 138.189H101.069Z" fill="white"/>
<path d="M105.639 109.043H95.1804L93.9141 117.106H104.379L105.639 109.043Z" fill="white"/>
<path d="M85.7324 169.2L96.1978 169.186L97.4239 161.371H86.9652L85.7324 169.2Z" fill="white"/>
<path d="M48.6816 169.253L58.4034 169.24L59.6362 161.371H49.9613L48.6816 169.253Z" fill="white"/>
<path d="M62.9464 140.289H53.3989L52.0254 148.72H61.6198L62.9464 140.289Z" fill="white"/>
<path d="M67.8509 109.043H58.4976L57.1777 117.106H66.5845L67.8509 109.043Z" fill="white"/>
<path d="M61.2918 150.832H51.684L50.3105 159.263H59.9652L61.2918 150.832Z" fill="white"/>
<path d="M64.6001 129.758H55.1196L53.7461 138.189H63.2735L64.6001 129.758Z" fill="white"/>
<path d="M66.2566 119.215H56.8364L55.4629 127.646H64.93L66.2566 119.215Z" fill="white"/>
<path d="M128.063 140.289L126.736 148.72H137.202L138.522 140.289H128.063Z" fill="white"/>
<path d="M123.533 169.153L133.992 169.139L135.211 161.371H124.753L123.533 169.153Z" fill="white"/>
<path d="M143.433 109.043H132.967L131.701 117.106H142.167L143.433 109.043Z" fill="white"/>
<path d="M140.512 127.646L141.832 119.215H131.373L130.047 127.646H140.512Z" fill="white"/>
<path d="M126.409 150.832L125.082 159.263H135.547L136.867 150.832H126.409Z" fill="white"/>
<path d="M138.856 138.189L140.176 129.758H129.717L128.391 138.189H138.856Z" fill="white"/>
<path d="M166.18 138.189H176.303L177.871 129.758H167.506L166.18 138.189Z" fill="#4F81A3"/>
<path d="M164.523 148.72H174.346L175.913 140.289H165.85L164.523 148.72Z" fill="#4F81A3"/>
<path d="M161.328 169.099L170.567 169.086L172.001 161.371H162.541L161.328 169.099Z" fill="#4F81A3"/>
<path d="M167.834 127.646H178.259L179.827 119.215H169.161L167.834 127.646Z" fill="#4F81A3"/>
<path d="M162.869 159.263H172.397L173.958 150.832H164.196L162.869 159.263Z" fill="#4F81A3"/>
<path d="M181.709 109.043H170.755L169.488 117.106H180.215L181.709 109.043Z" fill="#4F81A3"/>
<path d="M168.624 109.043H158.159L156.893 117.106H167.358L168.624 109.043Z" fill="white"/>
<path d="M165.704 127.646L167.024 119.215H156.565L155.238 127.646H165.704Z" fill="white"/>
<path d="M151.928 148.72H162.393L163.713 140.289H153.254L151.928 148.72Z" fill="white"/>
<path d="M148.732 169.119L159.191 169.106L160.411 161.371H149.945L148.732 169.119Z" fill="white"/>
<path d="M153.584 138.189H164.049L165.369 129.758H154.911L153.584 138.189Z" fill="white"/>
<path d="M151.6 150.832L150.273 159.263H160.739L162.059 150.832H151.6Z" fill="white"/>
<path d="M136.129 169.133L146.594 169.119L147.807 161.371H137.348L136.129 169.133Z" fill="white"/>
<path d="M151.454 138.189L152.774 129.758H142.315L140.988 138.189H151.454Z" fill="white"/>
<path d="M153.108 127.646L154.428 119.215H143.969L142.643 127.646H153.108Z" fill="white"/>
<path d="M140.659 140.289L139.332 148.72H149.797L151.117 140.289H140.659Z" fill="white"/>
<path d="M156.029 109.043H145.563L144.297 117.106H154.762L156.029 109.043Z" fill="white"/>
<path d="M139.004 150.832L137.678 159.263H148.143L149.463 150.832H139.004Z" fill="white"/>
<path d="M191.66 72.2968L198.186 64.0195L201.757 85.0208L187.486 97.7515L191.66 72.2968Z" fill="#17082D"/>
<path d="M61.0235 122.456C63.3082 120.989 65.2914 119.469 65.2914 119.469C63.0536 119.71 61.2044 120.58 59.7773 121.558C58.5512 120.808 56.8695 120.092 54.5781 119.469C54.5781 119.469 56.6886 120.567 58.7321 122.355C57.1375 123.681 56.3 124.947 56.3 124.947C57.2715 124.632 58.4909 123.996 59.7036 123.273C60.9632 124.558 62.0486 126.099 62.3769 127.793C62.3836 127.793 64.1189 125.107 61.0235 122.456Z" fill="#4E1C95"/>
<path d="M83.3002 136.234C81.7793 138.484 80.5532 140.66 80.5532 140.66C82.5096 139.555 83.8697 138.028 84.7943 136.568C86.2147 136.776 88.0438 136.769 90.3955 136.441C90.3955 136.441 88.0237 136.267 85.4442 135.43C86.3889 133.588 86.6569 132.088 86.6569 132.088C85.8864 132.765 85.0221 133.823 84.1846 134.968C82.5163 134.285 80.915 133.294 79.9435 131.867C79.9502 131.867 79.4142 135.021 83.3002 136.234Z" fill="#4E1C95"/>
<path d="M135.413 124.171C133.893 126.421 132.666 128.598 132.666 128.598C134.623 127.493 135.983 125.966 136.908 124.506C138.328 124.713 140.157 124.707 142.509 124.379C142.509 124.379 140.137 124.204 137.557 123.367C138.502 121.526 138.77 120.026 138.77 120.026C138 120.702 137.135 121.76 136.298 122.905C134.63 122.222 133.028 121.231 132.057 119.805C132.063 119.805 131.527 122.952 135.413 124.171Z" fill="#4E1C95"/>
<path d="M147.493 123.099C145.255 124.633 143.312 126.206 143.312 126.206C145.544 125.898 147.359 124.974 148.76 123.956C150.006 124.666 151.708 125.336 154.019 125.898C154.019 125.898 151.875 124.86 149.785 123.139C151.339 121.766 152.136 120.474 152.136 120.474C151.172 120.815 149.979 121.485 148.78 122.249C147.48 121.003 146.348 119.489 145.979 117.809C145.979 117.809 144.324 120.541 147.493 123.099Z" fill="#4E1C95"/>
<path d="M159.206 124.053C157.309 125.995 155.715 127.917 155.715 127.917C157.839 127.18 159.447 125.921 160.619 124.649C161.979 125.104 163.782 125.426 166.153 125.526C166.153 125.526 163.849 124.93 161.463 123.644C162.723 121.997 163.252 120.577 163.252 120.577C162.375 121.106 161.329 121.99 160.304 122.968C158.79 121.997 157.383 120.738 156.686 119.164C156.693 119.157 155.601 122.158 159.206 124.053Z" fill="#4E1C95"/>
<path d="M75.4752 88.2171H62.524C62.4838 88.2171 62.457 88.1903 62.457 88.1502V87.5474C62.457 87.5073 62.4838 87.4805 62.524 87.4805H75.4752C75.5154 87.4805 75.5422 87.5073 75.5422 87.5474V88.1502C75.5422 88.1836 75.5087 88.2171 75.4752 88.2171Z" fill="#2D2E75"/>
<path d="M70.1486 89.9398H62.524C62.4838 89.9398 62.457 89.913 62.457 89.8728V89.2701C62.457 89.2299 62.4838 89.2031 62.524 89.2031H70.1486C70.1888 89.2031 70.2156 89.2299 70.2156 89.2701V89.8728C70.2156 89.9063 70.1888 89.9398 70.1486 89.9398Z" fill="#2D2E75"/>
<path d="M99.0728 102.034H86.1217C86.0815 102.034 86.0547 102.007 86.0547 101.967V101.364C86.0547 101.324 86.0815 101.297 86.1217 101.297H99.0728C99.113 101.297 99.1398 101.324 99.1398 101.364V101.967C99.1398 102 99.113 102.034 99.0728 102.034Z" fill="#2D2E75"/>
<path d="M93.7541 103.756H86.1295C86.0893 103.756 86.0625 103.729 86.0625 103.689V103.086C86.0625 103.046 86.0893 103.02 86.1295 103.02H93.7541C93.7943 103.02 93.8211 103.046 93.8211 103.086V103.689C93.8211 103.729 93.7876 103.756 93.7541 103.756Z" fill="#2D2E75"/>
<path d="M117.899 102.526H104.948C104.908 102.526 104.881 102.499 104.881 102.459V101.856C104.881 101.816 104.908 101.789 104.948 101.789H117.899C117.939 101.789 117.966 101.816 117.966 101.856V102.459C117.966 102.492 117.939 102.526 117.899 102.526Z" fill="#2D2E75"/>
<path d="M112.572 104.248H104.948C104.908 104.248 104.881 104.222 104.881 104.181V103.579C104.881 103.539 104.908 103.512 104.948 103.512H112.572C112.613 103.512 112.639 103.539 112.639 103.579V104.181C112.639 104.222 112.613 104.248 112.572 104.248Z" fill="#2D2E75"/>
<path d="M136.725 103.022H123.774C123.734 103.022 123.707 102.995 123.707 102.955V102.352C123.707 102.312 123.734 102.285 123.774 102.285H136.725C136.765 102.285 136.792 102.312 136.792 102.352V102.955C136.792 102.988 136.765 103.022 136.725 103.022Z" fill="#2D2E75"/>
<path d="M131.399 104.744H123.774C123.734 104.744 123.707 104.718 123.707 104.678V104.075C123.707 104.035 123.734 104.008 123.774 104.008H131.399C131.439 104.008 131.466 104.035 131.466 104.075V104.678C131.466 104.711 131.439 104.744 131.399 104.744Z" fill="#2D2E75"/>
<path d="M155.553 103.51H142.602C142.562 103.51 142.535 103.483 142.535 103.443V102.84C142.535 102.8 142.562 102.773 142.602 102.773H155.553C155.593 102.773 155.62 102.8 155.62 102.84V103.443C155.62 103.483 155.587 103.51 155.553 103.51Z" fill="#2D2E75"/>
<path d="M150.227 105.237H142.602C142.562 105.237 142.535 105.21 142.535 105.17V104.567C142.535 104.527 142.562 104.5 142.602 104.5H150.227C150.267 104.5 150.294 104.527 150.294 104.567V105.17C150.294 105.203 150.267 105.237 150.227 105.237Z" fill="#2D2E75"/>
<path d="M174.379 104.006H161.428C161.388 104.006 161.361 103.979 161.361 103.939V103.337C161.361 103.296 161.388 103.27 161.428 103.27H174.379C174.42 103.27 174.446 103.296 174.446 103.337V103.939C174.446 103.979 174.413 104.006 174.379 104.006Z" fill="#2D2E75"/>
<path d="M169.053 105.733H161.428C161.388 105.733 161.361 105.706 161.361 105.666V105.063C161.361 105.023 161.388 104.996 161.428 104.996H169.053C169.093 104.996 169.12 105.023 169.12 105.063V105.666C169.12 105.699 169.093 105.733 169.053 105.733Z" fill="#2D2E75"/>
<path d="M69.4009 133.31L50.1875 130.695L47.9252 147.305L67.1386 149.919L69.4009 133.31Z" fill="#4E1C95"/>
<path d="M117.245 150.329L98.0312 147.715L95.769 164.325L114.982 166.939L117.245 150.329Z" fill="#4E1C95"/>
<path d="M129.402 140.774C129.402 140.774 131.573 142.742 132.183 144.343C132.183 144.343 137.663 139.434 140.176 138.992L131.747 146.225L129.402 140.774Z" fill="#14204C"/>
<path d="M142.428 140.559C142.428 140.559 144.599 142.528 145.208 144.128C145.208 144.128 150.689 139.219 153.201 138.777L144.773 146.01L142.428 140.559Z" fill="#14204C"/>
<path d="M112.132 155.969L99.281 154.382C99.2475 154.376 99.2207 154.342 99.2207 154.309L99.2944 153.713C99.3011 153.679 99.3346 153.652 99.3681 153.652L112.219 155.24C112.252 155.246 112.279 155.28 112.279 155.313L112.205 155.909C112.199 155.943 112.165 155.969 112.132 155.969Z" fill="white"/>
<path d="M106.63 157.019L99.0662 156.081C99.0327 156.075 99.0059 156.041 99.0059 156.008L99.0796 155.412C99.0863 155.378 99.1198 155.352 99.1533 155.352L106.718 156.289C106.751 156.296 106.778 156.329 106.778 156.363L106.704 156.959C106.704 156.999 106.671 157.026 106.63 157.019Z" fill="white"/>
<path d="M64.1785 138.977L51.3279 137.39C51.2944 137.383 51.2676 137.35 51.2676 137.316L51.3413 136.72C51.348 136.687 51.3815 136.66 51.415 136.66L64.2656 138.247C64.2991 138.254 64.3259 138.288 64.3259 138.321L64.2522 138.917C64.2522 138.957 64.2187 138.984 64.1785 138.977Z" fill="white"/>
<path d="M58.6852 140.035L51.1208 139.097C51.0873 139.09 51.0605 139.057 51.0605 139.024L51.1342 138.427C51.1409 138.394 51.1744 138.367 51.2079 138.367L58.7723 139.305C58.8058 139.311 58.8325 139.345 58.8325 139.378L58.7589 139.975C58.7522 140.015 58.7187 140.041 58.6852 140.035Z" fill="white"/>
<path d="M63.7097 143.11L50.8591 141.523C50.8256 141.516 50.7988 141.483 50.7988 141.449L50.8725 140.853C50.8792 140.82 50.9127 140.793 50.9462 140.793L63.7968 142.38C63.8303 142.387 63.8571 142.42 63.8571 142.454L63.7834 143.05C63.7767 143.09 63.7432 143.117 63.7097 143.11Z" fill="white"/>
<path d="M58.2164 144.167L50.6521 143.23C50.6186 143.223 50.5918 143.19 50.5918 143.156L50.6655 142.56C50.6722 142.527 50.7057 142.5 50.7392 142.5L58.3035 143.438C58.337 143.444 58.3638 143.478 58.3638 143.511L58.2901 144.107C58.2834 144.147 58.2499 144.174 58.2164 144.167Z" fill="white"/>
<path d="M108.292 151.11C108.403 150.424 107.937 149.777 107.25 149.665C106.564 149.554 105.917 150.02 105.805 150.707C105.694 151.393 106.16 152.04 106.847 152.151C107.534 152.262 108.181 151.796 108.292 151.11Z" fill="#2D2E75"/>
<path d="M60.1554 133.954C60.3135 133.285 59.8987 132.614 59.2289 132.456C58.5591 132.297 57.8879 132.712 57.7297 133.382C57.5716 134.051 57.9864 134.722 58.6562 134.88C59.326 135.038 59.9972 134.623 60.1554 133.954Z" fill="#2D2E75"/>
<path d="M108.721 139.469C108.707 139.429 108.707 139.415 108.701 139.395C108.694 139.402 108.68 139.402 108.68 139.402C108.707 139.475 108.654 139.529 108.634 139.589C108.62 139.616 108.613 139.663 108.627 139.683C108.667 139.743 108.727 139.797 108.774 139.85C108.788 139.871 108.808 139.891 108.828 139.917C108.774 139.944 108.734 139.971 108.68 139.998C108.707 140.018 108.727 140.031 108.754 140.051C108.734 140.058 108.714 140.071 108.707 140.065C108.613 140.045 108.513 140.031 108.419 140.004C108.272 139.958 108.124 139.897 107.984 139.844C107.95 139.83 107.917 139.81 107.903 139.783C107.856 139.71 107.809 139.643 107.809 139.536C107.809 139.455 107.749 139.375 107.702 139.301C107.541 139.047 107.374 138.799 107.206 138.545C107.113 138.397 107.019 138.257 106.925 138.109C106.878 138.036 106.845 137.955 106.798 137.882C106.677 137.667 106.563 137.446 106.436 137.232C106.356 137.085 106.262 136.944 106.175 136.803C106.128 136.716 106.094 136.623 106.047 136.529C105.994 136.428 105.927 136.328 105.873 136.221C105.732 135.946 105.598 135.665 105.458 135.384C105.344 135.156 105.23 134.935 105.123 134.707C105.029 134.506 104.942 134.299 104.855 134.091C104.721 133.756 104.587 133.422 104.459 133.087C104.386 132.892 104.332 132.698 104.272 132.504C104.265 132.477 104.279 132.437 104.265 132.41C104.245 132.357 104.225 132.303 104.212 132.25C104.171 132.109 104.124 131.968 104.098 131.828C104.031 131.459 103.97 131.084 103.977 130.709C103.984 130.401 103.99 130.086 104.011 129.778C104.017 129.658 104.064 129.544 104.091 129.43C104.118 129.316 104.138 129.202 104.185 129.095C104.245 128.955 104.319 128.821 104.399 128.687C104.466 128.573 104.553 128.473 104.627 128.365C104.634 128.352 104.64 128.339 104.654 128.339C104.748 128.332 104.761 128.238 104.821 128.191C104.848 128.164 104.888 128.158 104.928 128.138C104.928 128.138 104.928 128.118 104.928 128.104C104.935 128.111 104.935 128.118 104.942 128.118C104.995 128.077 105.042 128.037 105.096 127.997C105.109 127.984 105.123 127.977 105.136 127.97C105.33 127.877 105.545 127.897 105.753 127.91C105.866 127.917 105.974 127.937 106.081 127.97C106.141 127.99 106.195 128.037 106.255 128.077C106.295 128.104 106.342 128.138 106.376 128.171C106.563 128.319 106.711 128.506 106.838 128.707C106.885 128.774 106.932 128.841 106.972 128.915C107.026 129.002 107.072 129.089 107.119 129.182C107.247 129.464 107.367 129.745 107.488 130.026C107.548 130.16 107.602 130.301 107.655 130.441C107.716 130.602 107.769 130.77 107.83 130.93C107.876 131.058 107.937 131.185 107.984 131.312C108.031 131.433 108.071 131.553 108.111 131.68C108.205 131.968 108.299 132.256 108.386 132.544C108.419 132.651 108.433 132.765 108.466 132.866C108.493 132.953 108.533 133.033 108.573 133.113C108.58 133.127 108.607 133.134 108.647 133.147C108.68 133.033 108.714 132.926 108.741 132.812C108.747 132.799 108.741 132.779 108.747 132.772C108.868 132.665 108.841 132.491 108.948 132.37C109.015 132.296 109.036 132.169 109.076 132.069C109.082 132.055 109.089 132.042 109.096 132.035C109.203 131.935 109.25 131.801 109.33 131.687C109.417 131.553 109.545 131.446 109.625 131.312C109.679 131.225 109.739 131.151 109.813 131.091C109.886 131.031 109.94 130.95 110.007 130.883C110.074 130.816 110.154 130.763 110.235 130.703C110.322 130.636 110.409 130.582 110.496 130.515C110.516 130.495 110.53 130.455 110.55 130.441C110.684 130.354 110.818 130.267 110.952 130.18C111.099 130.086 111.24 129.979 111.394 129.912C111.461 129.886 111.528 129.859 111.582 129.812C111.655 129.879 111.649 129.752 111.709 129.758C111.762 129.765 111.836 129.752 111.863 129.718C111.943 129.638 112.044 129.611 112.144 129.591C112.56 129.511 112.968 129.45 113.391 129.557C113.525 129.591 113.645 129.658 113.739 129.745C113.866 129.865 113.987 130.006 114.034 130.187C114.067 130.321 114.121 130.455 114.154 130.589C114.228 130.863 114.215 131.145 114.195 131.426C114.181 131.687 114.114 131.942 114.047 132.196C114.02 132.29 113.973 132.383 113.94 132.477C113.906 132.564 113.873 132.658 113.839 132.745C113.799 132.839 113.752 132.926 113.712 133.02C113.659 133.12 113.612 133.227 113.558 133.328C113.525 133.388 113.484 133.442 113.451 133.495C113.411 133.562 113.384 133.636 113.344 133.703C113.257 133.87 113.169 134.044 113.069 134.205C113.029 134.265 112.982 134.319 112.962 134.393C112.942 134.453 112.875 134.493 112.828 134.547C112.814 134.56 112.808 134.58 112.801 134.6C112.774 134.647 112.747 134.694 112.721 134.747C112.7 134.788 112.674 134.821 112.654 134.861C112.647 134.868 112.647 134.881 112.64 134.888C112.533 134.948 112.513 135.062 112.453 135.156C112.419 135.21 112.372 135.256 112.332 135.31C112.325 135.317 112.312 135.323 112.312 135.33C112.231 135.457 112.144 135.585 112.064 135.712C112.051 135.732 112.037 135.759 112.03 135.759C111.943 135.759 111.957 135.832 111.93 135.879C111.903 135.926 111.856 135.966 111.823 136.006C111.809 136.027 111.796 136.047 111.783 136.073C111.756 136.114 111.736 136.154 111.702 136.194C111.662 136.248 111.622 136.294 111.582 136.348C111.548 136.388 111.508 136.428 111.474 136.475C111.407 136.562 111.34 136.643 111.28 136.73C111.26 136.75 111.24 136.777 111.226 136.797C111.18 136.897 111.106 136.984 110.999 137.031C110.985 137.038 110.979 137.058 110.979 137.071C110.972 137.138 110.932 137.178 110.885 137.219C110.818 137.286 110.757 137.366 110.697 137.44C110.67 137.473 110.644 137.507 110.617 137.54C110.536 137.634 110.469 137.741 110.369 137.821C110.302 137.875 110.275 137.969 110.188 138.009C110.134 138.036 110.094 138.096 110.054 138.149C109.987 138.23 109.92 138.324 109.853 138.404C109.826 138.437 109.786 138.464 109.759 138.491C109.719 138.531 109.685 138.565 109.645 138.605C109.578 138.672 109.511 138.745 109.438 138.812C109.33 138.92 109.223 139.02 109.116 139.12C108.982 139.214 108.855 139.335 108.721 139.469ZM108.265 135.283C108.258 135.283 108.258 135.29 108.252 135.29C108.232 135.27 108.211 135.256 108.198 135.236C108.178 135.216 108.144 135.203 108.138 135.176C108.111 135.096 108.091 135.009 108.084 134.928C108.064 134.754 108.057 134.573 108.031 134.399C108.004 134.218 107.97 134.038 107.937 133.85C107.93 133.803 107.923 133.763 107.91 133.716C107.85 133.502 107.769 133.288 107.736 133.067C107.696 132.852 107.635 132.651 107.582 132.444C107.548 132.323 107.515 132.209 107.481 132.096C107.468 132.049 107.461 131.995 107.448 131.948C107.374 131.741 107.294 131.54 107.22 131.339C107.166 131.178 107.119 131.017 107.059 130.863C106.945 130.555 106.831 130.254 106.704 129.953C106.61 129.732 106.516 129.511 106.409 129.296C106.329 129.136 106.235 128.982 106.148 128.821C106.074 128.68 105.933 128.606 105.806 128.533C105.773 128.513 105.712 128.533 105.665 128.526C105.511 128.499 105.397 128.586 105.304 128.673C105.176 128.794 105.062 128.935 105.002 129.102C104.969 129.182 104.922 129.256 104.902 129.343C104.861 129.504 104.828 129.665 104.801 129.825C104.754 130.107 104.721 130.388 104.748 130.676C104.768 130.93 104.768 131.191 104.815 131.439C104.875 131.787 104.962 132.136 105.049 132.477C105.123 132.752 105.21 133.026 105.304 133.294C105.397 133.562 105.511 133.817 105.612 134.078C105.665 134.205 105.719 134.339 105.779 134.466C105.813 134.54 105.853 134.614 105.88 134.687C105.974 134.908 106.067 135.129 106.161 135.343C106.215 135.464 106.289 135.585 106.349 135.705C106.463 135.926 106.57 136.154 106.684 136.375C106.764 136.529 106.845 136.683 106.932 136.837C107.166 137.265 107.401 137.701 107.629 138.129C107.696 138.25 107.756 138.377 107.823 138.504C107.89 138.618 107.964 138.725 108.031 138.839C108.057 138.886 108.171 138.966 108.205 138.946C108.258 138.913 108.312 138.879 108.352 138.833C108.412 138.772 108.466 138.692 108.526 138.632C108.634 138.524 108.727 138.397 108.821 138.277C108.915 138.149 109.069 138.069 109.103 137.902C109.103 137.902 109.103 137.895 109.109 137.895C109.216 137.788 109.324 137.681 109.424 137.567C109.478 137.5 109.578 137.466 109.578 137.359C109.578 137.346 109.605 137.326 109.618 137.312C109.645 137.286 109.679 137.259 109.699 137.225C109.84 137.058 109.98 136.884 110.121 136.716C110.208 136.609 110.288 136.502 110.376 136.395C110.402 136.361 110.436 136.328 110.463 136.294C110.53 136.221 110.597 136.147 110.664 136.067C110.845 135.832 111.019 135.598 111.193 135.364C111.226 135.323 111.24 135.263 111.273 135.223C111.34 135.136 111.414 135.062 111.481 134.975C111.635 134.768 111.796 134.567 111.923 134.346C111.99 134.225 112.097 134.131 112.151 134.004C112.198 133.897 112.285 133.803 112.352 133.703C112.432 133.582 112.52 133.462 112.58 133.328C112.613 133.247 112.667 133.174 112.707 133.1C112.814 132.892 112.922 132.685 113.022 132.477C113.062 132.39 113.089 132.303 113.123 132.216C113.156 132.142 113.196 132.069 113.223 131.988C113.283 131.821 113.324 131.654 113.337 131.473C113.337 131.453 113.35 131.433 113.35 131.412C113.364 131.238 113.391 131.071 113.384 130.897C113.377 130.723 113.324 130.555 113.297 130.388C113.277 130.247 113.243 130.214 113.062 130.167C112.935 130.133 112.814 130.127 112.68 130.167C112.446 130.234 112.211 130.281 111.99 130.381C111.749 130.495 111.515 130.602 111.293 130.763C111.099 130.903 110.898 131.037 110.704 131.185C110.61 131.252 110.536 131.339 110.456 131.426C110.389 131.5 110.329 131.573 110.268 131.654C110.181 131.761 110.101 131.875 110.02 131.982C110 132.002 109.98 132.042 109.967 132.042C109.893 132.035 109.9 132.116 109.86 132.142C109.88 132.142 109.893 132.142 109.9 132.142C109.866 132.203 109.84 132.27 109.806 132.33C109.766 132.404 109.732 132.471 109.692 132.544C109.672 132.584 109.652 132.625 109.639 132.665C109.605 132.765 109.572 132.859 109.491 132.933C109.484 132.939 109.491 132.946 109.484 132.953C109.478 132.993 109.471 133.04 109.458 133.08C109.431 133.167 109.391 133.247 109.364 133.334C109.33 133.435 109.31 133.535 109.283 133.636C109.19 134.004 109.096 134.372 109.009 134.741C108.969 134.922 108.935 135.102 108.895 135.283C108.888 135.303 108.861 135.317 108.835 135.35C108.835 135.343 108.841 135.364 108.848 135.377C108.841 135.384 108.841 135.39 108.835 135.397C108.801 135.384 108.761 135.37 108.727 135.357C108.714 135.377 108.707 135.397 108.694 135.417C108.694 135.41 108.694 135.404 108.687 135.39C108.647 135.39 108.593 135.37 108.567 135.39C108.486 135.437 108.412 135.431 108.345 135.364C108.339 135.317 108.299 135.303 108.265 135.283Z" fill="#4E1C95"/>
<path d="M117.604 123.886C104.814 122.874 102 123.491 102 123.491C102 123.491 74.704 128.922 100.64 140.4C126.575 151.878 132.023 125.024 117.604 123.886ZM101.33 139.757C77.7257 129.317 102.563 124.368 102.563 124.368C102.563 124.368 105.129 123.805 116.76 124.729C129.885 125.767 124.934 150.198 101.33 139.757Z" fill="#17082D"/>
<path d="M79.643 64.0195H68.6684L62.1426 72.2968H79.6631C79.2678 70.9708 79.0534 69.5712 79.0534 68.118C79.0601 66.6983 79.2611 65.3187 79.643 64.0195Z" fill="#9792E3"/>
<path d="M107.722 64.0195H104.332H83.0392C82.5501 65.2919 82.2754 66.6715 82.2754 68.118C82.2754 69.5913 82.5568 70.9976 83.066 72.2968H104.298H107.695H191.66L198.185 64.0195H107.722Z" fill="#9792E3"/>
<path d="M92.7546 84.6271C94.6233 84.6271 96.1381 83.113 96.1381 81.2452C96.1381 79.3774 94.6233 77.8633 92.7546 77.8633C90.8859 77.8633 89.3711 79.3774 89.3711 81.2452C89.3711 83.113 90.8859 84.6271 92.7546 84.6271Z" fill="#17082D"/>
<path d="M92.6004 79.5239L92.6138 79.4703C88.2521 79.0685 84.6073 76.209 83.0663 72.2913C82.5571 70.9988 82.2757 69.5925 82.2757 68.1125C82.2757 66.666 82.5504 65.2864 83.0395 64.014C84.6877 59.7415 88.8283 56.7078 93.6858 56.7078C98.5433 56.7078 102.684 59.7415 104.332 64.014H107.722C105.947 57.94 100.332 53.5 93.6858 53.5C87.0327 53.5 81.4181 57.94 79.6493 64.014C79.2674 65.3132 79.0664 66.6928 79.0664 68.1125C79.0664 69.5657 79.2808 70.9653 79.6761 72.2913C81.3779 78.0104 86.49 82.2562 92.654 82.6915C94.5099 80.957 92.6004 79.5239 92.6004 79.5239Z" fill="#A7C7D2"/>
<path d="M125.122 84.6271C126.99 84.6271 128.505 83.113 128.505 81.2452C128.505 79.3774 126.99 77.8633 125.122 77.8633C123.253 77.8633 121.738 79.3774 121.738 81.2452C121.738 83.113 123.253 84.6271 125.122 84.6271Z" fill="#17082D"/>
<path d="M124.968 79.5239L124.981 79.4703C120.619 79.0685 116.975 76.209 115.434 72.2913C114.924 70.9988 114.643 69.5925 114.643 68.1125C114.643 66.666 114.918 65.2864 115.407 64.014C117.055 59.7415 121.196 56.7078 126.053 56.7078C130.911 56.7078 135.051 59.7415 136.699 64.014H140.09C138.314 57.94 132.699 53.5 126.053 53.5C119.407 53.5 113.785 57.94 112.016 64.014C111.635 65.3132 111.434 66.6928 111.434 68.1125C111.434 69.5657 111.648 70.9653 112.043 72.2913C113.745 78.0104 118.857 82.2562 125.021 82.6915C126.877 80.957 124.968 79.5239 124.968 79.5239Z" fill="#A7C7D2"/>
<path d="M157.495 84.6271C159.363 84.6271 160.878 83.113 160.878 81.2452C160.878 79.3774 159.363 77.8633 157.495 77.8633C155.626 77.8633 154.111 79.3774 154.111 81.2452C154.111 83.113 155.626 84.6271 157.495 84.6271Z" fill="#17082D"/>
<path d="M157.335 79.5239L157.348 79.4703C152.986 79.0685 149.342 76.209 147.801 72.2913C147.291 70.9988 147.01 69.5925 147.01 68.1125C147.01 66.666 147.285 65.2864 147.774 64.014C149.422 59.7415 153.563 56.7078 158.42 56.7078C163.278 56.7078 167.418 59.7415 169.066 64.014H172.457C170.681 57.94 165.067 53.5 158.42 53.5C151.767 53.5 146.152 57.94 144.384 64.014C144.002 65.3132 143.801 66.6928 143.801 68.1125C143.801 69.5657 144.015 70.9653 144.41 72.2913C146.112 78.0104 151.224 82.2562 157.388 82.6915C159.244 80.957 157.335 79.5239 157.335 79.5239Z" fill="#A7C7D2"/>
<path d="M172.029 156.289L209.268 140.887L228.269 142.467L209.167 155.606C209.167 155.606 189.999 161.64 189.804 161.439C189.61 161.238 172.029 156.289 172.029 156.289Z" fill="#3C4F87"/>
<path d="M199.003 156.289H172.029V176.145H199.003V156.289Z" fill="#5364A0"/>
<path d="M198.996 156.29L228.268 142.461V162.424L198.996 176.146V156.29Z" fill="#2C406D"/>
<path d="M233.066 164.005C233.066 164.005 235.016 167.085 234.674 168.518C234.333 169.945 238.118 168.197 238.118 168.197C238.118 168.197 235.612 165.378 236.055 162.866C236.497 160.355 233.066 164.005 233.066 164.005Z" fill="#F1A080"/>
<path d="M227.104 142.077C227.104 142.077 229.341 161.826 233.415 165.683C233.415 165.683 235.653 165.831 236.51 165.034C236.51 165.034 236.852 136.291 232.551 136.505C228.249 136.706 227.104 142.077 227.104 142.077Z" fill="#1D2956"/>
<path d="M227.734 144.984C227.734 144.984 229.892 162.684 233.416 165.677L234.676 165.651C234.676 165.651 227.44 145.962 231.292 139.392C235.145 132.816 225.899 142.018 227.734 144.984Z" fill="#121E44"/>
<path d="M210.489 98.6758C210.489 98.6758 207.89 103.035 209.498 105.882L212.057 99.5531L210.489 98.6758Z" fill="#14204C"/>
<path d="M222.763 112.6C222.763 112.6 218.026 117.864 216.224 117.904L215.547 115.734C215.547 115.734 222.22 111.254 222.763 112.6Z" fill="#14204C"/>
<path d="M219.701 171.256C219.701 171.256 220.431 173.272 220.733 176.051C221.034 178.831 224.063 174.283 224.063 174.283C224.063 174.283 222.743 172.683 222.971 169.314C223.205 165.946 219.701 171.256 219.701 171.256Z" fill="#F1A080"/>
<path d="M191.48 144.496C191.48 144.496 191.769 154.501 215.172 149.94C215.172 149.94 218.615 149.21 219.131 149.036C219.131 149.036 215.862 167.995 219.647 172.047C219.647 172.047 222.173 172.844 223.259 171.417C223.259 171.417 224.404 154.005 227.386 148.119C230.367 142.232 227.386 140.203 227.386 140.203L191.48 144.496Z" fill="#232F63"/>
<path d="M221.885 138.42L209.697 143.985L221.885 145.445L234.675 138.059L221.885 138.42Z" fill="#86ADB7"/>
<path d="M220.873 138.883L220.33 139.131C220.33 139.131 225.884 139.908 226.816 139.318C227.754 138.722 220.873 138.883 220.873 138.883Z" fill="#6595A0"/>
<path d="M221.979 141.469C221.979 141.469 223.031 142.842 221.195 143.05C219.359 143.257 215.158 142.481 213.189 143.405C211.212 144.329 208.961 143.07 208.961 143.07C208.961 143.07 215.808 140.786 217.162 141.188C218.515 141.583 221.979 141.469 221.979 141.469Z" fill="#6595A0"/>
<path d="M203.615 143.773C203.615 143.773 198.021 146.619 199.857 148.527C201.692 150.443 206.912 151.052 206.912 151.052C206.912 151.052 192.768 152.01 192.4 145.755C192.024 139.507 203.562 143.21 203.615 143.773Z" fill="#1D2956"/>
<path d="M215.119 131.91C215.119 131.91 216.204 135.138 216.204 135.647C216.204 135.647 222.831 136.216 226.817 137.757L225.725 138.928C225.725 138.928 218.409 139.27 214.054 138.245C214.054 138.245 212.446 138.185 211.93 134.334L215.119 131.91Z" fill="#FAC2AE"/>
<path d="M211.393 116.227C211.393 116.227 209.899 119.174 206.254 120.031C202.609 120.888 212.069 125.549 212.478 124.485C212.887 123.42 210.167 121.344 214.28 117.091C214.28 117.091 220.17 116.83 221.892 112.578C221.892 112.578 225.938 113.12 224.531 109.524C224.531 109.524 223.345 108.191 222.85 109.946C222.85 109.946 225.027 103.591 222.809 102.599C220.592 101.608 214.207 98.2197 212.331 100.048C210.455 101.876 209.349 104.93 209.503 105.881C209.657 106.832 208.358 107.394 208.391 108.915C208.418 110.441 209.222 115.049 211.393 116.227Z" fill="#FAC2AE"/>
<path d="M218 104.24C218.087 104.234 221.578 105.566 221.719 111.352C221.719 111.352 224.09 106.578 222.509 104.883C220.928 103.189 218 104.24 218 104.24Z" fill="#F1A080"/>
<path d="M207.3 119.711C207.3 119.711 209.089 124.573 211.997 122.095L212.245 123.367C212.245 123.367 211.93 125.062 209.772 124.379C207.615 123.689 204.821 120.3 207.3 119.711Z" fill="#F1A080"/>
<path d="M210.267 123.462C207.889 122.799 206.777 119.531 206.777 119.531C203.534 120.696 195.621 123.415 191.876 135.423C190.161 140.934 189.732 144.035 190.308 145.649C190.991 147.564 192.673 147.229 192.673 147.229L202.066 143.64C202.408 143.405 201.738 141.376 202.154 141.376H208.961C210.026 141.376 211.688 141.062 211.781 140.003C211.855 139.16 211.567 137.613 211.688 136.501C211.761 135.798 211.969 135.182 212.632 134.927C213.128 134.733 213.879 134.345 214.388 133.99C215.044 133.528 215.547 132.115 215.547 132.115C215.587 129.724 212.384 122.203 212.384 122.203C211.902 123.235 210.636 123.663 210.267 123.462Z" fill="#4E1C95"/>
<path d="M211.929 128.859L211.688 136.5C211.688 136.5 211.741 135.328 213.182 134.679C213.188 134.679 212.043 132.255 211.929 128.859Z" fill="#17082D"/>
<path d="M206.046 124.371V136.492L205.416 137.39L205.818 140.209L207.547 140.022C207.547 140.022 206.28 139.365 206.481 137.711C206.682 136.05 206.568 124.344 206.046 124.371Z" fill="#17082D"/>
<path d="M199.735 133.707L200.084 138.984L200.546 139.044L202.074 143.632L200.546 144.214C200.539 144.221 198.844 138.676 199.735 133.707Z" fill="#17082D"/>
<path d="M220.109 173.929C220.109 173.929 220.397 174.143 220.115 175.214C219.834 176.286 218.99 178.871 221.04 178.831C223.084 178.791 226.333 181.335 230.065 181.047C233.797 180.759 234.4 178.503 234.199 177.927C233.998 177.351 223.767 174.679 223.566 173.078C223.566 173.078 221.79 174.953 220.109 173.929Z" fill="#14204C"/>
<path d="M233.851 166.834C233.851 166.834 234.112 167.035 233.858 168.013C233.603 168.997 232.826 171.375 234.702 171.335C236.578 171.294 239.566 173.638 242.99 173.37C246.413 173.109 246.969 171.033 246.782 170.504C246.594 169.975 237.201 167.524 237.02 166.051C237.02 166.051 235.399 167.779 233.851 166.834Z" fill="#14204C"/>
<path d="M234.494 138.992L234.675 137.793L221.885 145.447V146.452L234.494 138.992Z" fill="#468391"/>
<path d="M209.697 143.988L221.885 145.448V146.453L209.697 144.778V143.988Z" fill="#6595A0"/>
<path d="M209.698 92.2266C209.698 92.2266 212.358 97.2224 221.269 97.8787C227.299 98.3207 228.88 106.236 224.813 110.301C224.813 110.301 224.136 108.138 222.836 109.946L221.724 111.353C221.724 111.353 222.95 104.656 220.652 104.214C219.011 103.906 208.532 107.073 209.698 92.2266Z" fill="#232F63"/>
<path d="M202.32 114.668L211.459 112.559C211.459 112.559 212.504 113.074 211.875 113.757L202.555 115.813C202.548 115.807 203.292 115.324 202.32 114.668Z" fill="#231F20"/>
<path d="M202.321 114.668L200.398 115.806H202.549L203.641 115.123L202.321 114.668Z" fill="#231F20"/>
<path d="M201.082 115.406C201.082 115.406 201.417 115.607 201.202 115.808H200.398L201.082 115.406Z" fill="#231F20"/>
<path d="M200.539 139.053C200.539 139.053 204.666 138.805 205.417 137.398L205.819 140.218C205.819 140.218 210.482 139.495 215.42 140.218C215.42 140.218 216.894 140.258 218.415 139.742C219.936 139.227 219.272 140.372 221.51 140.713C223.748 141.055 221.048 142.796 219.902 142.743C218.756 142.689 218.348 142.267 218.348 142.267C218.348 142.267 216.874 143.017 215.205 142.006C215.205 142.006 208.432 145.281 202.06 143.426C202.06 143.419 201.176 142.937 200.539 139.053Z" fill="#FAC2AE"/>
<path d="M221.885 145.447L226.816 133.111L240.698 125.457L234.675 138.06L221.885 145.447Z" fill="#86ADB7"/>
<path d="M240.698 125.457L228.692 141.375L221.885 145.447L226.816 133.111L240.698 125.457Z" fill="#A7C7D2"/>
<path d="M219.131 149.043C219.131 149.043 220.772 148.507 221.275 148.246C221.275 148.246 216.37 166.957 221 172.274L219.647 172.053C219.647 172.053 215.787 167.888 219.131 149.043Z" fill="#1D2956"/>
<path d="M205.818 140.209C205.818 140.209 205.168 140.209 204.21 140.838C204.21 140.838 204.137 140.249 204.458 140.041C204.78 139.834 205.751 139.773 205.751 139.773L205.818 140.209Z" fill="#F1A080"/>
<path d="M203.474 138.555C203.474 138.555 201.631 139.84 201.618 140.838C201.604 141.836 201.812 143.155 201.812 143.155C201.812 143.155 200.928 141.937 200.539 139.05C200.539 139.05 202.489 138.836 203.474 138.555Z" fill="#F1A080"/>
<path d="M216.203 135.649C216.203 135.649 215.459 135.636 214.997 135.937C214.541 136.238 214.809 134.738 216.203 135.649Z" fill="#F1A080"/>
<path d="M213.591 134.469C213.591 134.469 212.807 136.424 214.013 137.549C215.219 138.674 217.57 138.775 217.57 138.775L214.053 138.246C214.053 138.246 212.713 138.085 212.137 135.467C212.137 135.467 212.525 134.784 213.591 134.469Z" fill="#F1A080"/>
<path d="M211.045 143.397C211.045 143.397 214.696 142.097 215.125 141.749C215.554 141.401 216.773 142.499 218.167 142.03C219.561 141.562 218.85 142.888 221.269 142.338C221.269 142.338 219.755 143.356 218.348 142.258C218.348 142.258 216.706 143.048 215.206 141.997C215.206 141.997 213.048 143.109 211.045 143.397Z" fill="#F1A080"/>
<path d="M219.373 140.211C219.373 140.211 220.954 141.215 222.368 141.229C222.368 141.229 221.644 141.791 219.373 140.211Z" fill="#F1A080"/>
<path d="M222.214 141.614C222.214 141.614 220.599 141.688 219.654 141.012C219.654 141.018 221.008 142.083 222.214 141.614Z" fill="#F1A080"/>
<path d="M219.574 141.562C219.574 141.562 220.552 142.145 221.718 142.071L219.574 141.562Z" fill="#F1A080"/>
<path d="M211.393 116.227C211.393 116.227 212.344 117.07 214.274 117.09L212.74 119.046C212.74 119.053 211.192 118.216 211.393 116.227Z" fill="#F1A080"/>
<path d="M211.44 109.724L208.593 108.699C207.956 108.471 207.648 107.708 207.909 106.998L208.177 106.255C208.432 105.545 209.162 105.15 209.799 105.384L212.646 106.409C213.283 106.636 213.591 107.4 213.33 108.11L213.062 108.853C212.8 109.563 212.077 109.951 211.44 109.724ZM209.672 105.726C209.209 105.558 208.673 105.846 208.486 106.362L208.218 107.105C208.03 107.621 208.251 108.183 208.72 108.351L211.568 109.375C212.03 109.543 212.566 109.255 212.753 108.739L213.021 107.996C213.209 107.48 212.988 106.918 212.519 106.75L209.672 105.726Z" fill="#2D2E75"/>
<path d="M217.602 112.063L214.755 111.039C214.118 110.811 213.81 110.048 214.072 109.338L214.34 108.594C214.594 107.885 215.324 107.49 215.961 107.724L218.808 108.749C219.445 108.976 219.753 109.74 219.492 110.45L219.224 111.193C218.962 111.896 218.232 112.291 217.602 112.063ZM215.827 108.065C215.365 107.898 214.829 108.186 214.641 108.702L214.373 109.445C214.185 109.961 214.407 110.523 214.876 110.691L217.723 111.715C218.185 111.883 218.721 111.595 218.909 111.079L219.177 110.336C219.364 109.82 219.143 109.257 218.674 109.09L215.827 108.065Z" fill="#2D2E75"/>
<path d="M214.328 108.702C214.274 108.447 214.167 108.273 214 108.186C213.678 108.019 213.236 108.22 213.229 108.226L213.115 107.891C213.142 107.878 213.705 107.617 214.16 107.851C214.415 107.978 214.576 108.233 214.656 108.595L214.328 108.702Z" fill="#2D2E75"/>
</g>
<defs>
<clipPath id="clip0_2629_60143">
<rect width="268" height="185" fill="white"/>
</clipPath>
</defs>
</svg>
