<svg width="18" height="18" viewBox="0 0 18 18" fill="none" xmlns="http://www.w3.org/2000/svg">
<path fill-rule="evenodd" clip-rule="evenodd" d="M9 16.4985C13.1421 16.4985 16.5 13.1407 16.5 8.99854C16.5 4.8564 13.1421 1.49854 9 1.49854C4.85786 1.49854 1.5 4.8564 1.5 8.99854C1.5 13.1407 4.85786 16.4985 9 16.4985ZM11.7625 5.5818C12.0149 5.22243 12.4997 5.14235 12.8462 5.40407C13.1927 5.66383 13.2708 6.16579 13.0185 6.52711L8.88616 12.4197C8.63377 12.7791 8.14903 12.8591 7.8025 12.5974C7.45597 12.3357 5.04429 9.72633 5.04429 9.72633C4.74984 9.40407 4.76587 8.8943 5.07834 8.59157C5.39082 8.28688 5.88157 8.30251 6.17402 8.62672L8.15905 10.7224L11.7625 5.5818Z" fill="#41A036"/>
<path fill-rule="evenodd" clip-rule="evenodd" d="M11.7625 5.58174C12.0148 5.22237 12.4996 5.14229 12.8461 5.40401C13.1926 5.66377 13.2708 6.16573 13.0184 6.52705L8.88607 12.4196C8.63369 12.779 8.14895 12.8591 7.80242 12.5974C7.45589 12.3356 5.04421 9.72627 5.04421 9.72627C4.74976 9.40401 4.76579 8.89424 5.07826 8.59151C5.39074 8.28682 5.88149 8.30244 6.17393 8.62666L8.15896 10.7224L11.7625 5.58174Z" fill="white"/>
</svg>
