<svg width="32" height="32" viewBox="0 0 32 32" fill="none" xmlns="http://www.w3.org/2000/svg">
    <path opacity=".15" d="M24 29.334V14.667c0-1.238 0-1.857-.068-2.377a8 8 0 0 0-6.888-6.888c-.52-.068-1.139-.068-2.377-.068-1.239 0-1.858 0-2.378.068a8 8 0 0 0-6.887 6.888c-.069.52-.069 1.139-.069 2.377v14.667l4.57-2.612c1.737-.992 2.605-1.488 3.527-1.682a5.999 5.999 0 0 1 2.474 0c.922.194 1.79.69 3.526 1.682L24 29.334z" fill="#4E1C95"/>
    <path fill-rule="evenodd" clip-rule="evenodd" d="M18.667 2.334c1.27 0 1.808.002 2.247.06A7 7 0 0 1 26.94 8.42c.058.439.06.977.06 2.247v14.667a1 1 0 0 0 2 0v-14.76c0-1.15 0-1.83-.077-2.415A9 9 0 0 0 21.175.411C20.589.334 19.91.334 18.76.334h-4.427a6.002 6.002 0 0 0-5.836 4.6 7 7 0 0 0-3.508 3.44c-.353.76-.508 1.585-.582 2.57-.074.965-.074 2.162-.074 3.682v14.708a1 1 0 0 0 1.497.868l4.57-2.611c1.794-1.026 2.504-1.418 3.236-1.572a5 5 0 0 1 2.062 0c.731.154 1.442.546 3.235 1.572l4.57 2.611A1 1 0 0 0 25 29.334V14.627c0-1.52 0-2.718-.073-3.684-.075-.984-.23-1.81-.583-2.567a7 7 0 0 0-3.386-3.386c-.757-.353-1.583-.508-2.567-.583-.966-.073-2.163-.073-3.683-.073h-.082c-1.52 0-2.717 0-3.683.073l-.121.01a4 4 0 0 1 3.511-2.083h4.334zM9.22 6.802c.448-.208 1.003-.335 1.874-.4.881-.067 2.003-.068 3.573-.068 1.57 0 2.691 0 3.572.067.871.066 1.426.193 1.874.401a5 5 0 0 1 2.419 2.419c.208.448.335 1.002.4 1.873.067.882.068 2.004.068 3.573v12.944l-3.074-1.757-.155-.088c-1.587-.908-2.584-1.477-3.661-1.704a7 7 0 0 0-2.886 0c-1.078.226-2.074.796-3.662 1.704l-.154.088-3.075 1.757V14.667c0-1.57.001-2.691.068-3.572.066-.872.192-1.426.4-1.874a5 5 0 0 1 2.42-2.419z" fill="#4E1C95"/>
</svg>
