<svg width="16" height="16" viewBox="0 0 16 16" fill="none" xmlns="http://www.w3.org/2000/svg">
<path fill-rule="evenodd" clip-rule="evenodd" d="M2 5.34884C2 3.49825 3.49238 1.99805 5.33333 1.99805H10.6667C12.5076 1.99805 14 3.49825 14 5.34884V12.9911C14 13.8026 13.0927 14.2796 12.4296 13.8167L8.38026 10.99C8.15162 10.8304 7.84838 10.8304 7.61974 10.99L3.5704 13.8167C2.90729 14.2796 2 13.8026 2 12.9911V5.34884ZM5.33333 3.33837C4.22876 3.33837 3.33333 4.23849 3.33333 5.34884V12.3504L6.85921 9.88907C7.54515 9.41023 8.45485 9.41022 9.14079 9.88907L12.6667 12.3504V5.34884C12.6667 4.23849 11.7712 3.33837 10.6667 3.33837H5.33333Z" fill="#262626"/>
</svg>
