<svg width="20" height="20" viewBox="0 0 20 20" fill="none" xmlns="http://www.w3.org/2000/svg">
    <mask id="098ll8ye6a" fill="#fff">
        <path d="M16.767 14.914a7.304 7.304 0 0 0-1.574-2.334 7.335 7.335 0 0 0-2.334-1.574l-.024-.01A4.843 4.843 0 0 0 10 2.226a4.843 4.843 0 0 0-2.835 8.772l-.024.01c-.875.369-1.66.898-2.334 1.574a7.337 7.337 0 0 0-2.15 5.031.157.157 0 0 0 .156.16h1.172a.156.156 0 0 0 .156-.152 5.823 5.823 0 0 1 1.715-3.99A5.82 5.82 0 0 1 10 11.914a5.82 5.82 0 0 1 4.144 1.717 5.823 5.823 0 0 1 1.715 3.99c.002.086.07.152.156.152h1.172a.156.156 0 0 0 .156-.16 7.277 7.277 0 0 0-.576-2.699zM10 10.43c-.897 0-1.74-.35-2.375-.985A3.338 3.338 0 0 1 6.64 7.07c0-.896.35-1.74.985-2.375A3.338 3.338 0 0 1 10 3.711c.896 0 1.74.35 2.375.984.634.635.984 1.479.984 2.375 0 .897-.35 1.74-.984 2.375A3.338 3.338 0 0 1 10 10.43z"/>
    </mask>
    <path d="M16.767 14.914a7.304 7.304 0 0 0-1.574-2.334 7.335 7.335 0 0 0-2.334-1.574l-.024-.01A4.843 4.843 0 0 0 10 2.226a4.843 4.843 0 0 0-2.835 8.772l-.024.01c-.875.369-1.66.898-2.334 1.574a7.337 7.337 0 0 0-2.15 5.031.157.157 0 0 0 .156.16h1.172a.156.156 0 0 0 .156-.152 5.823 5.823 0 0 1 1.715-3.99A5.82 5.82 0 0 1 10 11.914a5.82 5.82 0 0 1 4.144 1.717 5.823 5.823 0 0 1 1.715 3.99c.002.086.07.152.156.152h1.172a.156.156 0 0 0 .156-.16 7.277 7.277 0 0 0-.576-2.699zM10 10.43c-.897 0-1.74-.35-2.375-.985A3.338 3.338 0 0 1 6.64 7.07c0-.896.35-1.74.985-2.375A3.338 3.338 0 0 1 10 3.711c.896 0 1.74.35 2.375.984.634.635.984 1.479.984 2.375 0 .897-.35 1.74-.984 2.375A3.338 3.338 0 0 1 10 10.43z" fill="#fff"/>
    <path d="m16.767 14.914-.921.389v.001l.921-.39zm-1.574-2.334-.708.706.002.003.706-.709zm-2.334-1.574-.447.894.028.014.03.013.389-.921zm-.024-.01-.585-.81-1.338.966 1.476.739.447-.895zm-5.671.002.447.895 1.475-.738-1.336-.967-.586.81zm-.024.01.389.921.03-.012.028-.015-.447-.894zm-2.334 1.574.707.708.001-.002-.708-.706zm-1.574 2.334.92.39-.92-.39zm-.576 2.697 1 .025v-.005l-1-.02zm.156.16v-1 1zm1.328-.152-1-.026v.003l1 .023zm1.715-3.99.707.707-.707-.707zm8.29 0-.708.707.707-.707zm1.714 3.99 1-.023v-.003l-1 .026zm1.328.152v-1 1zm.156-.16-1 .021v.004l1-.025zm.345-3.088a8.305 8.305 0 0 0-1.79-2.653l-1.41 1.417a6.307 6.307 0 0 1 1.358 2.014l1.842-.778zm-1.787-2.651a8.337 8.337 0 0 0-2.652-1.79l-.78 1.843c.754.319 1.438.78 2.016 1.36l1.416-1.413zm-2.595-1.763a1.057 1.057 0 0 0-.098-.043l-.01-.003.004.001a.905.905 0 0 1 .08.036l-.894 1.789.077.034.022.009.01.003-.004-.001a1.337 1.337 0 0 1-.081-.036l.894-1.789zm.115 1.696a5.833 5.833 0 0 0 2.422-4.737h-2a3.833 3.833 0 0 1-1.593 3.115l1.171 1.622zm2.422-4.737A5.843 5.843 0 0 0 10 1.227v2a3.843 3.843 0 0 1 3.843 3.843h2zM10 1.227A5.843 5.843 0 0 0 4.156 7.07h2A3.843 3.843 0 0 1 10 3.227v-2zM4.156 7.07a5.84 5.84 0 0 0 2.421 4.738l1.173-1.62A3.84 3.84 0 0 1 6.156 7.07h-2zm2.56 3.034a.92.92 0 0 1 .081-.036l.004-.001-.01.003-.021.009a1.07 1.07 0 0 0-.077.034l.894 1.79a.932.932 0 0 1-.08.035l-.004.001a.757.757 0 0 1 .031-.012l.077-.034-.895-1.79zm.035-.018a8.275 8.275 0 0 0-2.653 1.79l1.416 1.412A6.273 6.273 0 0 1 7.53 11.93l-.778-1.843zM4.1 11.874a8.337 8.337 0 0 0-1.789 2.652l1.842.78a6.337 6.337 0 0 1 1.36-2.016L4.1 11.874zm-1.788 2.651a8.26 8.26 0 0 0-.656 3.069l2 .039c.015-.8.184-1.59.496-2.326l-1.84-.782zm-.656 3.063c-.004.154.023.308.08.452l1.861-.731c.042.105.061.217.058.33l-1.999-.05zm.08.452c.056.143.14.274.248.385l1.432-1.397c.079.08.14.176.181.28l-1.861.732zm.248.385c.108.11.237.198.38.258l.776-1.843a.844.844 0 0 1 .276.188l-1.432 1.397zm.38.258c.141.06.294.09.448.09v-2c.112 0 .224.023.328.067l-.777 1.843zm.448.09h1.172v-2H2.812v2zm1.172 0c.634 0 1.141-.507 1.156-1.129l-2-.046a.844.844 0 0 1 .844-.825v2zm1.156-1.126a4.823 4.823 0 0 1 1.422-3.309l-1.414-1.414a6.823 6.823 0 0 0-2.007 4.671l1.999.052zm1.422-3.309A4.82 4.82 0 0 1 10 12.914v-2a6.82 6.82 0 0 0-4.852 2.01l1.414 1.414zM10 12.914a4.82 4.82 0 0 1 3.437 1.424l1.414-1.414A6.82 6.82 0 0 0 10 10.914v2zm3.437 1.424c.89.89 1.39 2.057 1.422 3.309l2-.052a6.823 6.823 0 0 0-2.008-4.671l-1.414 1.414zm1.422 3.306c.015.633.53 1.13 1.156 1.13v-2c.454 0 .833.364.844.824l-2 .046zm1.156 1.13h1.172v-2h-1.172v2zm1.172 0c.154 0 .307-.031.449-.091l-.776-1.843a.845.845 0 0 1 .327-.067v2zm.449-.091c.142-.06.271-.148.379-.258l-1.432-1.397a.844.844 0 0 1 .277-.188l.776 1.843zm.379-.258c.107-.11.192-.242.248-.385l-1.861-.731a.844.844 0 0 1 .181-.281l1.432 1.397zm.248-.385c.057-.144.084-.297.08-.452l-2 .05a.844.844 0 0 1 .059-.33l1.861.732zm.08-.448a8.279 8.279 0 0 0-.655-3.068l-1.842.78c.314.74.48 1.523.497 2.33l2-.042zM10 9.43c-.631 0-1.22-.244-1.668-.692l-1.415 1.414A4.338 4.338 0 0 0 10 11.43v-2zm-1.668-.692A2.338 2.338 0 0 1 7.64 7.07h-2c0 1.162.455 2.26 1.277 3.082l1.415-1.414zM7.64 7.07c0-.63.244-1.22.692-1.668L6.917 3.988A4.338 4.338 0 0 0 5.64 7.07h2zm.692-1.668A2.338 2.338 0 0 1 10 4.711v-2c-1.162 0-2.26.455-3.083 1.277l1.415 1.414zM10 4.711c.63 0 1.22.244 1.668.691l1.414-1.414A4.338 4.338 0 0 0 10 2.711v2zm1.668.691c.447.448.69 1.037.69 1.668h2c0-1.162-.454-2.26-1.276-3.082l-1.415 1.414zm.69 1.668c0 .631-.243 1.22-.69 1.668l1.414 1.414a4.337 4.337 0 0 0 1.277-3.082h-2zm-.69 1.668A2.338 2.338 0 0 1 10 9.43v2c1.162 0 2.26-.455 3.082-1.278l-1.415-1.414z" fill="#fff" mask="url(#098ll8ye6a)"/>
</svg>
