<svg width="15" height="16" viewBox="0 0 15 16" fill="none" xmlns="http://www.w3.org/2000/svg">
<path d="M7.25 0.498627L3.125 7.24863H11.375L7.25 0.498627ZM7.25 3.37863L8.6975 5.74863H5.795L7.25 3.37863ZM11.375 8.74863C9.5075 8.74863 8 10.2561 8 12.1236C8 13.9911 9.5075 15.4986 11.375 15.4986C13.2425 15.4986 14.75 13.9911 14.75 12.1236C14.75 10.2561 13.2425 8.74863 11.375 8.74863ZM11.375 13.9986C10.8777 13.9986 10.4008 13.8011 10.0492 13.4495C9.69755 13.0978 9.5 12.6209 9.5 12.1236C9.5 11.6263 9.69755 11.1494 10.0492 10.7978C10.4008 10.4462 10.8777 10.2486 11.375 10.2486C11.8723 10.2486 12.3492 10.4462 12.7008 10.7978C13.0525 11.1494 13.25 11.6263 13.25 12.1236C13.25 12.6209 13.0525 13.0978 12.7008 13.4495C12.3492 13.8011 11.8723 13.9986 11.375 13.9986ZM0.5 15.1236H6.5V9.12363H0.5V15.1236ZM2 10.6236H5V13.6236H2V10.6236Z" fill="#8C8C8C"/>
</svg>
