<svg width="20" height="20" viewBox="0 0 20 20" fill="none" xmlns="http://www.w3.org/2000/svg">
    <path d="M7.848 7.406a.8.8 0 0 0 0 1.6h6.457a.8.8 0 1 0 0-1.6H7.848zM8.924 10.276a.8.8 0 0 0 0 1.6h5.38a.8.8 0 1 0 0-1.6h-5.38zM8.924 13.146a.8.8 0 1 0 0 1.6h5.38a.8.8 0 1 0 0-1.6h-5.38z" fill="#fff"/>
    <path fill-rule="evenodd" clip-rule="evenodd" d="M4.619 1.667a2.959 2.959 0 0 0-2.952 2.952v8.61c0 1.38.956 2.544 2.24 2.865a2.961 2.961 0 0 0 2.864 2.24h8.61a2.959 2.959 0 0 0 2.952-2.953v-8.61c0-1.38-.956-2.544-2.24-2.865a2.961 2.961 0 0 0-2.864-2.24h-8.61zM3.267 4.619c0-.742.61-1.352 1.352-1.352h8.61c.443 0 .84.218 1.087.552H6.771A2.959 2.959 0 0 0 3.82 6.771v7.545a1.354 1.354 0 0 1-.552-1.087v-8.61zm2.152 2.152c0-.742.61-1.352 1.352-1.352h8.61c.742 0 1.352.61 1.352 1.352v8.61c0 .742-.61 1.352-1.352 1.352H6.77c-.742 0-1.352-.61-1.352-1.352v-8.61z" fill="#fff"/>
    <path d="m3.906 16.094.097-.025a.1.1 0 0 0-.072-.072l-.025.097zM16.094 3.906l-.097.025a.1.1 0 0 0 .072.072l.025-.097zm-1.778-.087v.1a.1.1 0 0 0 .08-.16l-.08.06zM3.82 14.316l-.06.08a.1.1 0 0 0 .16-.08h-.1zM1.767 4.62a2.859 2.859 0 0 1 2.852-2.852v-.2a3.059 3.059 0 0 0-3.052 3.052h.2zm0 8.61v-8.61h-.2v8.61h.2zm2.164 2.768a2.861 2.861 0 0 1-2.164-2.768h-.2c0 1.427.988 2.63 2.315 2.962l.049-.194zm2.84 2.236a2.861 2.861 0 0 1-2.768-2.164l-.194.049a3.061 3.061 0 0 0 2.962 2.315v-.2zm8.61 0H6.77v.2h8.61v-.2zm2.852-2.852a2.859 2.859 0 0 1-2.852 2.852v.2a3.059 3.059 0 0 0 3.052-3.052h-.2zm0-8.61v8.61h.2v-8.61h-.2zM16.07 4.003a2.861 2.861 0 0 1 2.164 2.768h.2c0-1.427-.988-2.63-2.315-2.962l-.049.194zm-2.84-2.236c1.333 0 2.458.924 2.768 2.164l.194-.049a3.061 3.061 0 0 0-2.962-2.315v.2zm-8.61 0h8.61v-.2h-8.61v.2zm0 1.4c-.797 0-1.452.655-1.452 1.452h.2c0-.687.565-1.252 1.252-1.252v-.2zm8.61 0h-8.61v.2h8.61v-.2zm1.168.593a1.454 1.454 0 0 0-1.168-.593v.2c.41 0 .777.201 1.007.512l.16-.12zm-7.626.16h7.545v-.2H6.771v.199zM3.92 6.77A2.859 2.859 0 0 1 6.771 3.92v-.2A3.059 3.059 0 0 0 3.72 6.771h.2zm0 7.545V6.771h-.2v7.545h.2zm-.752-1.087c0 .476.234.902.593 1.168l.118-.161a1.254 1.254 0 0 1-.511-1.007h-.2zm0-8.61v8.61h.2v-8.61h-.2zm3.604.7c-.797 0-1.452.655-1.452 1.452h.2c0-.686.566-1.252 1.252-1.252v-.2zm8.61 0H6.77v.2h8.61v-.2zm1.452 1.452c0-.797-.655-1.452-1.452-1.452v.2c.687 0 1.252.566 1.252 1.252h.2zm0 8.61v-8.61h-.2v8.61h.2zm-1.452 1.452c.797 0 1.452-.655 1.452-1.452h-.2c0 .687-.565 1.252-1.252 1.252v.2zm-8.61 0h8.61v-.2H6.77v.2zM5.32 15.381c0 .797.655 1.452 1.452 1.452v-.2a1.259 1.259 0 0 1-1.252-1.252h-.2zm0-8.61v8.61h.2v-8.61h-.2zm1.829 1.435a.7.7 0 0 1 .7-.7v-.2a.9.9 0 0 0-.9.9h.2zm.7.7a.7.7 0 0 1-.7-.7h-.2a.9.9 0 0 0 .9.9v-.2zm6.457 0H7.848v.2h6.457v-.2zm.7-.7a.7.7 0 0 1-.7.7v.2a.9.9 0 0 0 .9-.9h-.2zm-.7-.7a.7.7 0 0 1 .7.7h.2a.9.9 0 0 0-.9-.9v.2zm-6.457 0h6.457v-.2H7.848v.2zm.376 3.57a.7.7 0 0 1 .7-.7v-.2a.9.9 0 0 0-.9.9h.2zm.7.7a.7.7 0 0 1-.7-.7h-.2a.9.9 0 0 0 .9.9v-.2zm5.38 0h-5.38v.2h5.38v-.2zm.7-.7a.7.7 0 0 1-.7.7v.2a.9.9 0 0 0 .9-.9h-.2zm-.7-.7a.7.7 0 0 1 .7.7h.2a.9.9 0 0 0-.9-.9v.2zm-5.38 0h5.38v-.2h-5.38v.2zm-.7 3.57a.7.7 0 0 1 .7-.7v-.2a.9.9 0 0 0-.9.9h.2zm.7.7a.7.7 0 0 1-.7-.7h-.2a.9.9 0 0 0 .9.9v-.2zm5.38 0h-5.38v.2h5.38v-.2zm.7-.7a.7.7 0 0 1-.7.7v.2a.9.9 0 0 0 .9-.9h-.2zm-.7-.7a.7.7 0 0 1 .7.7h.2a.9.9 0 0 0-.9-.9v.2zm-5.38 0h5.38v-.2h-5.38v.2z" fill="#fff"/>
</svg>
