<svg width="12" height="12" viewBox="0 0 12 12" fill="none" xmlns="http://www.w3.org/2000/svg">
<path d="M1.92857 2.57143C2.22321 2.57143 2.47545 2.67634 2.68527 2.88616C2.89509 3.09598 3 3.34821 3 3.64286V10.9286C3 11.2232 2.89509 11.4754 2.68527 11.6853C2.47545 11.8951 2.22321 12 1.92857 12H1.07143C0.776786 12 0.524554 11.8951 0.314732 11.6853C0.104911 11.4754 0 11.2232 0 10.9286V3.64286C0 3.34821 0.104911 3.09598 0.314732 2.88616C0.524554 2.67634 0.776786 2.57143 1.07143 2.57143H1.92857ZM11.1429 3.66295C11.4018 3.81473 11.6094 4.02232 11.7656 4.28571C11.9219 4.54911 12 4.83482 12 5.14286V10.2857C12 10.7589 11.8326 11.1629 11.4978 11.4978C11.1629 11.8326 10.7589 12 10.2857 12H4.5C4.20536 12 3.95312 11.8951 3.7433 11.6853C3.53348 11.4754 3.42857 11.2232 3.42857 10.9286V0.642857C3.42857 0.464286 3.49107 0.3125 3.61607 0.1875C3.74107 0.0625 3.89286 0 4.07143 0H8.57143C8.75 0 8.94643 0.0446429 9.16071 0.133929C9.375 0.223214 9.54464 0.330357 9.66964 0.455357L10.6875 1.47321C10.8125 1.59821 10.9196 1.76786 11.0089 1.98214C11.0982 2.19643 11.1429 2.39286 11.1429 2.57143V3.66295ZM6.21429 10.2857V9.42857C6.21429 9.36607 6.1942 9.31473 6.15402 9.27455C6.11384 9.23438 6.0625 9.21429 6 9.21429H5.14286C5.08036 9.21429 5.02902 9.23438 4.98884 9.27455C4.94866 9.31473 4.92857 9.36607 4.92857 9.42857V10.2857C4.92857 10.3482 4.94866 10.3996 4.98884 10.4397C5.02902 10.4799 5.08036 10.5 5.14286 10.5H6C6.0625 10.5 6.11384 10.4799 6.15402 10.4397C6.1942 10.3996 6.21429 10.3482 6.21429 10.2857ZM6.21429 8.57143V7.71429C6.21429 7.65179 6.1942 7.60045 6.15402 7.56027C6.11384 7.52009 6.0625 7.5 6 7.5H5.14286C5.08036 7.5 5.02902 7.52009 4.98884 7.56027C4.94866 7.60045 4.92857 7.65179 4.92857 7.71429V8.57143C4.92857 8.63393 4.94866 8.68527 4.98884 8.72545C5.02902 8.76562 5.08036 8.78571 5.14286 8.78571H6C6.0625 8.78571 6.11384 8.76562 6.15402 8.72545C6.1942 8.68527 6.21429 8.63393 6.21429 8.57143ZM6.21429 6.85714V6C6.21429 5.9375 6.1942 5.88616 6.15402 5.84598C6.11384 5.8058 6.0625 5.78571 6 5.78571H5.14286C5.08036 5.78571 5.02902 5.8058 4.98884 5.84598C4.94866 5.88616 4.92857 5.9375 4.92857 6V6.85714C4.92857 6.91964 4.94866 6.97098 4.98884 7.01116C5.02902 7.05134 5.08036 7.07143 5.14286 7.07143H6C6.0625 7.07143 6.11384 7.05134 6.15402 7.01116C6.1942 6.97098 6.21429 6.91964 6.21429 6.85714ZM7.92857 10.2857V9.42857C7.92857 9.36607 7.90848 9.31473 7.8683 9.27455C7.82812 9.23438 7.77679 9.21429 7.71429 9.21429H6.85714C6.79464 9.21429 6.7433 9.23438 6.70312 9.27455C6.66295 9.31473 6.64286 9.36607 6.64286 9.42857V10.2857C6.64286 10.3482 6.66295 10.3996 6.70312 10.4397C6.7433 10.4799 6.79464 10.5 6.85714 10.5H7.71429C7.77679 10.5 7.82812 10.4799 7.8683 10.4397C7.90848 10.3996 7.92857 10.3482 7.92857 10.2857ZM7.92857 8.57143V7.71429C7.92857 7.65179 7.90848 7.60045 7.8683 7.56027C7.82812 7.52009 7.77679 7.5 7.71429 7.5H6.85714C6.79464 7.5 6.7433 7.52009 6.70312 7.56027C6.66295 7.60045 6.64286 7.65179 6.64286 7.71429V8.57143C6.64286 8.63393 6.66295 8.68527 6.70312 8.72545C6.7433 8.76562 6.79464 8.78571 6.85714 8.78571H7.71429C7.77679 8.78571 7.82812 8.76562 7.8683 8.72545C7.90848 8.68527 7.92857 8.63393 7.92857 8.57143ZM7.92857 6.85714V6C7.92857 5.9375 7.90848 5.88616 7.8683 5.84598C7.82812 5.8058 7.77679 5.78571 7.71429 5.78571H6.85714C6.79464 5.78571 6.7433 5.8058 6.70312 5.84598C6.66295 5.88616 6.64286 5.9375 6.64286 6V6.85714C6.64286 6.91964 6.66295 6.97098 6.70312 7.01116C6.7433 7.05134 6.79464 7.07143 6.85714 7.07143H7.71429C7.77679 7.07143 7.82812 7.05134 7.8683 7.01116C7.90848 6.97098 7.92857 6.91964 7.92857 6.85714ZM9.64286 10.2857V9.42857C9.64286 9.36607 9.62277 9.31473 9.58259 9.27455C9.54241 9.23438 9.49107 9.21429 9.42857 9.21429H8.57143C8.50893 9.21429 8.45759 9.23438 8.41741 9.27455C8.37723 9.31473 8.35714 9.36607 8.35714 9.42857V10.2857C8.35714 10.3482 8.37723 10.3996 8.41741 10.4397C8.45759 10.4799 8.50893 10.5 8.57143 10.5H9.42857C9.49107 10.5 9.54241 10.4799 9.58259 10.4397C9.62277 10.3996 9.64286 10.3482 9.64286 10.2857ZM9.64286 8.57143V7.71429C9.64286 7.65179 9.62277 7.60045 9.58259 7.56027C9.54241 7.52009 9.49107 7.5 9.42857 7.5H8.57143C8.50893 7.5 8.45759 7.52009 8.41741 7.56027C8.37723 7.60045 8.35714 7.65179 8.35714 7.71429V8.57143C8.35714 8.63393 8.37723 8.68527 8.41741 8.72545C8.45759 8.76562 8.50893 8.78571 8.57143 8.78571H9.42857C9.49107 8.78571 9.54241 8.76562 9.58259 8.72545C9.62277 8.68527 9.64286 8.63393 9.64286 8.57143ZM9.64286 6.85714V6C9.64286 5.9375 9.62277 5.88616 9.58259 5.84598C9.54241 5.8058 9.49107 5.78571 9.42857 5.78571H8.57143C8.50893 5.78571 8.45759 5.8058 8.41741 5.84598C8.37723 5.88616 8.35714 5.9375 8.35714 6V6.85714C8.35714 6.91964 8.37723 6.97098 8.41741 7.01116C8.45759 7.05134 8.50893 7.07143 8.57143 7.07143H9.42857C9.49107 7.07143 9.54241 7.05134 9.58259 7.01116C9.62277 6.97098 9.64286 6.91964 9.64286 6.85714ZM10.2857 4.28571V2.57143H9.21429C9.03571 2.57143 8.88393 2.50893 8.75893 2.38393C8.63393 2.25893 8.57143 2.10714 8.57143 1.92857V0.857143H4.28571V4.28571H10.2857Z" fill="#777EA6"/>
</svg>
