<svg width="12" height="12" viewBox="0 0 12 12" fill="none" xmlns="http://www.w3.org/2000/svg">
<path d="M8.44709 6.56149C8.42504 6.50833 8.39271 6.46005 8.35197 6.41942C8.31133 6.37867 8.26305 6.34635 8.2099 6.32429C8.15675 6.30224 8.09977 6.29088 8.04222 6.29088C7.98467 6.29088 7.92769 6.30224 7.87454 6.32429C7.82139 6.34635 7.77311 6.37867 7.73247 6.41942L5.41722 8.73554L4.41447 7.73191C4.37379 7.69124 4.3255 7.65897 4.27236 7.63696C4.21921 7.61494 4.16225 7.60361 4.10472 7.60361C3.98854 7.60361 3.87712 7.64976 3.79497 7.73191C3.75429 7.77259 3.72203 7.82088 3.70001 7.87403C3.678 7.92718 3.66667 7.98414 3.66667 8.04167C3.66667 8.09919 3.678 8.15615 3.70001 8.2093C3.72203 8.26245 3.75429 8.31074 3.79497 8.35142L5.10747 9.66392C5.14811 9.70466 5.19639 9.73698 5.24954 9.75904C5.30269 9.78109 5.35967 9.79245 5.41722 9.79245C5.47477 9.79245 5.53175 9.78109 5.5849 9.75904C5.63805 9.73698 5.68633 9.70466 5.72697 9.66392L8.35197 7.03892C8.39271 6.99828 8.42504 6.95 8.44709 6.89684C8.46915 6.84369 8.4805 6.78671 8.4805 6.72917C8.4805 6.67162 8.46915 6.61464 8.44709 6.56149Z" fill="#8C8C8C"/>
<path fill-rule="evenodd" clip-rule="evenodd" d="M8.73438 1.51562H11.0312C11.2732 1.51562 11.4688 1.71113 11.4688 1.95312V11.0312C11.4688 11.2732 11.2732 11.4688 11.0312 11.4688H0.96875C0.726758 11.4688 0.53125 11.2732 0.53125 11.0312V1.95312C0.53125 1.71113 0.726758 1.51562 0.96875 1.51562H3.26562V0.640625C3.26562 0.580469 3.31484 0.53125 3.375 0.53125H4.14062C4.20078 0.53125 4.25 0.580469 4.25 0.640625V1.51562H7.75V0.640625C7.75 0.580469 7.79922 0.53125 7.85937 0.53125H8.625C8.68516 0.53125 8.73438 0.580469 8.73438 0.640625V1.51562ZM1.51562 10.4844H10.4844V5.28906H1.51562V10.4844ZM1.51562 2.5V4.35937H10.4844V2.5H8.73438V3.15625C8.73438 3.21641 8.68516 3.26562 8.625 3.26562H7.85937C7.79922 3.26562 7.75 3.21641 7.75 3.15625V2.5H4.25V3.15625C4.25 3.21641 4.20078 3.26562 4.14062 3.26562H3.375C3.31484 3.26562 3.26562 3.21641 3.26562 3.15625V2.5H1.51562Z" fill="#8C8C8C"/>
</svg>
