<svg width="12" height="12" viewBox="0 0 12 12" fill="none" xmlns="http://www.w3.org/2000/svg">
<path d="M10.737 9.43984C10.4791 8.82895 10.1048 8.27405 9.63502 7.80605C9.16667 7.33671 8.61186 6.96251 8.00123 6.7041C7.99576 6.70137 7.99029 6.7 7.98482 6.69727C8.83658 6.08203 9.39029 5.07988 9.39029 3.94922C9.39029 2.07617 7.87271 0.558594 5.99967 0.558594C4.12662 0.558594 2.60904 2.07617 2.60904 3.94922C2.60904 5.07988 3.16275 6.08203 4.01451 6.69863C4.00904 6.70137 4.00357 6.70273 3.99811 6.70547C3.38561 6.96387 2.836 7.33438 2.36432 7.80742C1.89497 8.27578 1.52077 8.83058 1.26236 9.44121C1.00851 10.039 0.871596 10.6799 0.859043 11.3293C0.858678 11.3439 0.861237 11.3584 0.86657 11.372C0.871903 11.3856 0.879902 11.398 0.890095 11.4084C0.900288 11.4189 0.912469 11.4272 0.925921 11.4328C0.939372 11.4385 0.953822 11.4414 0.968418 11.4414H1.78873C1.84889 11.4414 1.89674 11.3936 1.89811 11.3348C1.92545 10.2793 2.34928 9.29082 3.0985 8.5416C3.87369 7.76641 4.90318 7.33984 5.99967 7.33984C7.09615 7.33984 8.12565 7.76641 8.90084 8.5416C9.65006 9.29082 10.0739 10.2793 10.1012 11.3348C10.1026 11.3949 10.1504 11.4414 10.2106 11.4414H11.0309C11.0455 11.4414 11.06 11.4385 11.0734 11.4328C11.0869 11.4272 11.099 11.4189 11.1092 11.4084C11.1194 11.398 11.1274 11.3856 11.1328 11.372C11.1381 11.3584 11.1407 11.3439 11.1403 11.3293C11.1266 10.6758 10.9913 10.04 10.737 9.43984ZM5.99967 6.30078C5.37213 6.30078 4.7815 6.05605 4.33717 5.61172C3.89283 5.16738 3.64811 4.57676 3.64811 3.94922C3.64811 3.32168 3.89283 2.73105 4.33717 2.28672C4.7815 1.84238 5.37213 1.59766 5.99967 1.59766C6.62721 1.59766 7.21783 1.84238 7.66217 2.28672C8.1065 2.73105 8.35123 3.32168 8.35123 3.94922C8.35123 4.57676 8.1065 5.16738 7.66217 5.61172C7.21783 6.05605 6.62721 6.30078 5.99967 6.30078Z" fill="#8C8C8C"/>
</svg>
