<svg width="185" height="116" viewBox="0 0 185 116" fill="none" xmlns="http://www.w3.org/2000/svg">
<path d="M92.5 115.5C143.31 115.5 184.5 106.557 184.5 95.5244C184.5 84.4922 143.31 75.5488 92.5 75.5488C41.6898 75.5488 0.5 84.4922 0.5 95.5244C0.5 106.557 41.6898 115.5 92.5 115.5Z" fill="#22294F" fill-opacity="0.05"/>
<path d="M158.625 37.7662L129.455 4.94342C128.055 2.70615 126.011 1.35352 123.858 1.35352H61.1424C58.989 1.35352 56.9449 2.70615 55.5447 4.94056L26.375 37.7691V64.134H158.625V37.7662Z" stroke="#4E1C95"/>
<path d="M120.137 46.8152C120.137 42.2351 122.995 38.454 126.54 38.4512H158.625V90.208C158.625 96.2663 154.83 101.232 150.144 101.232H34.8562C30.17 101.232 26.375 96.2634 26.375 90.208V38.4512H58.46C62.0049 38.4512 64.8626 42.2266 64.8626 46.8067V46.8695C64.8626 51.4496 67.752 55.1479 71.294 55.1479H113.706C117.248 55.1479 120.137 51.4153 120.137 46.8352V46.8152Z" fill="#CCC5E1" stroke="#4E1C95"/>
</svg>
