<svg width="16" height="16" viewBox="0 0 16 16" fill="none" xmlns="http://www.w3.org/2000/svg">
<path d="M13.4874 11.3033C13.0475 10.863 12.5334 10.5036 11.9687 10.2416C12.765 9.59651 13.273 8.61213 13.273 7.50823C13.273 5.56057 11.6488 3.96272 9.70112 3.9926C7.78334 4.02248 6.23823 5.58518 6.23823 7.50823C6.23823 8.61213 6.74799 9.59651 7.54252 10.2416C6.97775 10.5034 6.46361 10.8628 6.02377 11.3033C5.06401 12.2649 4.51909 13.534 4.48393 14.8875C4.48346 14.9063 4.48675 14.9249 4.49361 14.9424C4.50047 14.9599 4.51075 14.9758 4.52385 14.9892C4.53696 15.0027 4.55262 15.0133 4.56992 15.0206C4.58721 15.0279 4.60579 15.0317 4.62456 15.0317H5.60893C5.68452 15.0317 5.7478 14.9719 5.74956 14.8963C5.78295 13.8768 6.19604 12.9223 6.92202 12.1981C7.29351 11.8246 7.73539 11.5285 8.22208 11.327C8.70877 11.1254 9.2306 11.0224 9.75737 11.0238C10.8279 11.0238 11.8351 11.4405 12.5927 12.1981C13.3169 12.9223 13.73 13.8768 13.7652 14.8963C13.7669 14.9719 13.8302 15.0317 13.9058 15.0317H14.8902C14.9089 15.0317 14.9275 15.0279 14.9448 15.0206C14.9621 15.0133 14.9778 15.0027 14.9909 14.9892C15.004 14.9758 15.0143 14.9599 15.0211 14.9424C15.028 14.9249 15.0313 14.9063 15.0308 14.8875C14.9957 13.534 14.4507 12.2649 13.4874 11.3033ZM9.75737 9.75823C9.1562 9.75823 8.59018 9.52444 8.16655 9.09905C7.95395 8.88812 7.78601 8.63653 7.67276 8.35929C7.5595 8.08204 7.50325 7.78483 7.50737 7.48537C7.51264 6.90881 7.74292 6.35158 8.14545 5.9385C8.56733 5.50608 9.13159 5.26526 9.73452 5.25822C10.3304 5.25295 10.9087 5.48498 11.3341 5.90158C11.7701 6.32873 12.0091 6.90002 12.0091 7.50823C12.0091 8.1094 11.7753 8.67366 11.3499 9.09905C11.1412 9.30875 10.893 9.47498 10.6197 9.58812C10.3463 9.70127 10.0532 9.75909 9.75737 9.75823ZM5.35405 7.97229C5.33823 7.81936 5.32944 7.66467 5.32944 7.50823C5.32944 7.22873 5.35581 6.95627 5.40502 6.69084C5.41733 6.62756 5.38393 6.56252 5.32592 6.53615C5.08686 6.42893 4.86713 6.28127 4.67729 6.09494C4.45359 5.87804 4.27756 5.61689 4.16043 5.32816C4.0433 5.03942 3.98765 4.72944 3.99702 4.41799C4.01284 3.85373 4.23959 3.3176 4.6351 2.9133C5.06928 2.46858 5.65288 2.226 6.27338 2.23303C6.83413 2.2383 7.37553 2.45451 7.7851 2.83772C7.92397 2.9678 8.0435 3.11194 8.1437 3.26662C8.17885 3.32112 8.24741 3.34397 8.30717 3.32287C8.61655 3.21565 8.9435 3.14006 9.27924 3.1049C9.37768 3.09436 9.43393 2.98889 9.38999 2.901C8.8187 1.77072 7.65151 0.990256 6.30151 0.969162C4.35209 0.93928 2.72788 2.53713 2.72788 4.48303C2.72788 5.58694 3.23588 6.57131 4.03217 7.21643C3.47319 7.47483 2.95815 7.83166 2.51167 8.27815C1.54838 9.23967 1.00346 10.5088 0.968306 11.8641C0.967837 11.8828 0.971127 11.9015 0.977984 11.919C0.984841 11.9364 0.995125 11.9524 1.00823 11.9658C1.02134 11.9792 1.037 11.9899 1.05429 11.9972C1.07159 12.0045 1.09016 12.0082 1.10893 12.0082H2.09506C2.17065 12.0082 2.23393 11.9485 2.23569 11.8729C2.26909 10.8533 2.68217 9.89885 3.40815 9.17463C3.92495 8.65783 4.55776 8.29924 5.24858 8.12522C5.31713 8.10764 5.36284 8.0426 5.35405 7.97229Z" fill="#8C8C8C"/>
</svg>
