<svg width="20" height="21" viewBox="0 0 20 21" fill="none" xmlns="http://www.w3.org/2000/svg">
<path fill-rule="evenodd" clip-rule="evenodd" d="M10 20.998C15.5228 20.998 20 16.5209 20 10.998C20 5.4752 15.5228 0.998047 10 0.998047C4.47715 0.998047 0 5.4752 0 10.998C0 16.5209 4.47715 20.998 10 20.998ZM13.6834 6.4424C14.0199 5.96324 14.6662 5.85647 15.1283 6.20542C15.5903 6.55178 15.6945 7.22105 15.358 7.70282L9.84821 15.5596C9.51169 16.0388 8.86537 16.1455 8.40334 15.7966C7.9413 15.4476 4.72572 11.9684 4.72572 11.9684C4.33312 11.5388 4.35449 10.8591 4.77113 10.4554C5.18776 10.0492 5.84209 10.07 6.23202 10.5023L8.87873 13.2966L13.6834 6.4424Z" fill="#41A036"/>
</svg>
