<svg width="32" height="32" viewBox="0 0 32 32" fill="none" xmlns="http://www.w3.org/2000/svg">
    <path opacity=".15" fill-rule="evenodd" clip-rule="evenodd" d="M16 26.667c9.333 0 13.333-7.333 13.333-10.666 0-3.334-4-10.667-13.333-10.667S2.667 12.667 2.667 16.001c0 3.333 4 10.666 13.333 10.666zm0-6.666a4 4 0 1 0 0-8 4 4 0 0 0 0 8z" fill="#4E1C95"/>
    <path fill-rule="evenodd" clip-rule="evenodd" d="M3.667 16c0-1.353.857-3.782 2.886-5.889C8.543 8.045 11.621 6.334 16 6.334c4.38 0 7.457 1.711 9.446 3.777 2.03 2.107 2.887 4.536 2.887 5.89 0 1.353-.858 3.782-2.887 5.89-1.99 2.065-5.067 3.776-9.446 3.776-4.38 0-7.457-1.71-9.447-3.777-2.029-2.107-2.886-4.536-2.886-5.89zM16 4.335c-4.954 0-8.543 1.955-10.887 4.39C2.809 11.117 1.666 14.02 1.666 16c0 1.98 1.143 4.884 3.447 7.277 2.344 2.434 5.933 4.39 10.887 4.39 4.954 0 8.543-1.956 10.887-4.39 2.304-2.393 3.446-5.297 3.446-7.277 0-1.98-1.142-4.884-3.446-7.277-2.344-2.435-5.933-4.39-10.887-4.39zm-3 11.667a3 3 0 1 1 6 0 3 3 0 0 1-6 0zm3-5a5 5 0 1 0 0 10 5 5 0 0 0 0-10z" fill="#4E1C95"/>
</svg>
