<svg width="16" height="16" viewBox="0 0 16 16" fill="none" xmlns="http://www.w3.org/2000/svg">
    <path d="M4.83 8.66a.67.67 0 0 0 0 .57c.69 1.457 1.758 2.207 3.178 2.207s2.488-.751 3.178-2.207a.673.673 0 0 0 .002-.568l-.002-.001-.001-.002c-.69-1.456-1.757-2.206-3.177-2.206-1.42 0-2.487.752-3.178 2.208zm3.178-1.207c.97 0 1.678.469 2.205 1.492-.525 1.024-1.235 1.492-2.205 1.492S6.33 9.97 5.803 8.945c.527-1.023 1.235-1.492 2.205-1.492z" fill="#4E1C95"/>
    <path d="M7.14 8.953a.875.875 0 1 0 1.75 0 .875.875 0 0 0-1.75 0z" fill="#4E1C95"/>
    <path d="M13.75 4.662H8.14L6.309 2.91a.127.127 0 0 0-.086-.034H2.25a.5.5 0 0 0-.5.5v9.25a.5.5 0 0 0 .5.5h11.5a.5.5 0 0 0 .5-.5V5.162a.5.5 0 0 0-.5-.5zM13.125 12H2.875V4H5.82l1.87 1.787h5.435V12z" fill="#4E1C95"/>
</svg>
