<svg width="52" height="48" viewBox="0 0 52 48" fill="none" xmlns="http://www.w3.org/2000/svg">
<path fill-rule="evenodd" clip-rule="evenodd" d="M23.362 1.76842C24.4967 -0.32645 27.503 -0.326452 28.6377 1.76842L51.2798 43.5692C52.3626 45.5681 50.9152 47.9981 48.6419 47.9981H3.35773C1.08442 47.9981 -0.36289 45.5681 0.719849 43.5692L23.362 1.76842ZM26.8791 2.72098C26.5009 2.02269 25.4988 2.02269 25.1205 2.72098L2.47843 44.5218C2.11752 45.1881 2.59996 45.9981 3.35773 45.9981H48.6419C49.3997 45.9981 49.8821 45.1881 49.5212 44.5218L26.8791 2.72098ZM26 16.998C26.5523 16.998 27 17.4458 27 17.998V31.998C27 32.5503 26.5523 32.998 26 32.998C25.4477 32.998 25 32.5503 25 31.998V17.998C25 17.4458 25.4477 16.998 26 16.998ZM26 36.998C26.5523 36.998 27 36.5503 27 35.998C27 35.4458 26.5523 34.998 26 34.998C25.4477 34.998 25 35.4458 25 35.998C25 36.5503 25.4477 36.998 26 36.998Z" fill="#FA8C16"/>
</svg>
