<svg width="16" height="16" viewBox="0 0 16 16" fill="none" xmlns="http://www.w3.org/2000/svg">
<path fill-rule="evenodd" clip-rule="evenodd" d="M8 0.368164C3.85786 0.368164 0.5 3.72603 0.5 7.86816C0.5 12.0103 3.85786 15.3682 8 15.3682C12.1421 15.3682 15.5 12.0103 15.5 7.86816C15.5 3.72603 12.1421 0.368164 8 0.368164ZM1.86364 7.86816C1.86364 4.47914 4.61098 1.7318 8 1.7318C11.389 1.7318 14.1364 4.47914 14.1364 7.86816C14.1364 11.2572 11.389 14.0045 8 14.0045C4.61098 14.0045 1.86364 11.2572 1.86364 7.86816Z" fill="#FAAD14"/>
<path d="M8.03735 4.79316C8.45157 4.79316 8.78735 5.12895 8.78735 5.54316V8.54316C8.78735 8.95738 8.45157 9.29316 8.03735 9.29316C7.62314 9.29316 7.28735 8.95738 7.28735 8.54316V5.54316C7.28735 5.12895 7.62314 4.79316 8.03735 4.79316Z" fill="#FAAD14"/>
<path d="M7.25 10.7932C7.25 10.379 7.58579 10.0432 8 10.0432H8.075C8.48921 10.0432 8.825 10.379 8.825 10.7932V10.8682C8.825 11.2824 8.48921 11.6182 8.075 11.6182H8C7.58579 11.6182 7.25 11.2824 7.25 10.8682V10.7932Z" fill="#FAAD14"/>
</svg>
