<svg width="16" height="16" viewBox="0 0 16 16" fill="none" xmlns="http://www.w3.org/2000/svg">
<path fill-rule="evenodd" clip-rule="evenodd" d="M3.33337 1.33301H4.66671C5.0349 1.33301 5.33337 1.63146 5.33337 1.99963C5.33337 2.34149 5.07601 2.62325 4.74445 2.66176L4.66671 2.66625H3.33337C2.99148 2.66625 2.7097 2.92359 2.67119 3.25512L2.66671 3.33286V12.6655C2.66671 13.0074 2.92407 13.2892 3.25563 13.3277L3.33337 13.3321H12.6667C13.0086 13.3321 13.2904 13.0748 13.3289 12.7433L13.3334 12.6655V11.3323C13.3334 10.9641 13.6319 10.6657 14 10.6657C14.3419 10.6657 14.6237 10.923 14.6622 11.2545L14.6667 11.3323V12.6655C14.6667 13.7306 13.8341 14.6012 12.7842 14.662L12.6667 14.6654H3.33337C2.26825 14.6654 1.3976 13.8328 1.33677 12.783L1.33337 12.6655V3.33286C1.33337 2.26782 2.16599 1.39723 3.21586 1.3364L3.33337 1.33301H4.66671H3.33337ZM14 1.33301L14.054 1.33501L14.1339 1.3465L14.2081 1.36616L14.2822 1.39545L14.3472 1.43033L14.4112 1.47485L14.4714 1.52826L14.5358 1.60278L14.5836 1.67694L14.6043 1.71758L14.6268 1.77188L14.6428 1.82231L14.6621 1.9209L14.6667 1.99963V5.99934C14.6667 6.3675 14.3682 6.66596 14 6.66596C13.6319 6.66596 13.3334 6.3675 13.3334 5.99934V3.60884L9.13811 7.80395C8.89779 8.04425 8.51964 8.06274 8.25811 7.8594L8.1953 7.80395C7.95498 7.56364 7.93649 7.18552 8.13984 6.92401L8.1953 6.86121L12.3894 2.66625H10C9.63185 2.66625 9.33337 2.36779 9.33337 1.99963C9.33337 1.63146 9.63185 1.33301 10 1.33301H14Z" fill="#4E1C95"/>
</svg>
