<svg width="22" height="22" viewBox="0 0 22 22" fill="none" xmlns="http://www.w3.org/2000/svg">
<path d="M10.9999 1.83154C9.18692 1.83154 7.41465 2.36916 5.9072 3.3764C4.39974 4.38365 3.22483 5.81529 2.53103 7.49028C1.83722 9.16527 1.65569 11.0084 2.00939 12.7865C2.36309 14.5647 3.23613 16.198 4.51811 17.48C5.80009 18.762 7.43343 19.635 9.21159 19.9887C10.9898 20.3424 12.8329 20.1609 14.5079 19.4671C16.1828 18.7733 17.6145 17.5984 18.6217 16.0909C19.629 14.5835 20.1666 12.8112 20.1666 10.9982C20.1639 8.56789 19.1972 6.23788 17.4787 4.51939C15.7602 2.80089 13.4302 1.83425 10.9999 1.83154ZM14.5955 13.5137C14.6685 13.5842 14.7267 13.6685 14.7667 13.7616C14.8068 13.8548 14.8278 13.9551 14.8287 14.0565C14.8296 14.1579 14.8103 14.2585 14.7719 14.3524C14.7335 14.4463 14.6767 14.5316 14.605 14.6033C14.5333 14.675 14.448 14.7317 14.3541 14.7702C14.2602 14.8086 14.1597 14.8279 14.0582 14.827C13.9568 14.8261 13.8566 14.8051 13.7634 14.765C13.6702 14.725 13.5859 14.6668 13.5154 14.5938L10.9999 12.0784L8.48443 14.5938C8.34036 14.733 8.1474 14.81 7.94711 14.8082C7.74683 14.8065 7.55523 14.7262 7.4136 14.5845C7.27197 14.4429 7.19163 14.2513 7.18989 14.051C7.18815 13.8507 7.26515 13.6578 7.4043 13.5137L9.91971 10.9982L7.4043 8.48272C7.26515 8.33865 7.18815 8.14569 7.18989 7.9454C7.19163 7.74511 7.27197 7.55352 7.4136 7.41189C7.55523 7.27026 7.74683 7.18992 7.94711 7.18818C8.1474 7.18644 8.34036 7.26344 8.48443 7.40258L10.9999 9.91799L13.5154 7.40258C13.6595 7.26344 13.8524 7.18644 14.0527 7.18818C14.253 7.18992 14.4446 7.27026 14.5862 7.41189C14.7279 7.55352 14.8082 7.74511 14.8099 7.9454C14.8117 8.14569 14.7347 8.33865 14.5955 8.48272L12.0801 10.9982L14.5955 13.5137Z" fill="#F5222D"/>
<path d="M14.5956 13.514C14.6686 13.5845 14.7268 13.6688 14.7668 13.762C14.8068 13.8552 14.8279 13.9554 14.8288 14.0568C14.8297 14.1583 14.8104 14.2589 14.7719 14.3527C14.7335 14.4466 14.6768 14.5319 14.6051 14.6036C14.5334 14.6754 14.4481 14.7321 14.3542 14.7705C14.2603 14.8089 14.1597 14.8282 14.0583 14.8273C13.9569 14.8265 13.8566 14.8054 13.7634 14.7653C13.6702 14.7253 13.5859 14.6671 13.5155 14.5942L11 12.0787L8.48451 14.5942C8.34044 14.7333 8.14748 14.8103 7.94719 14.8086C7.7469 14.8068 7.55531 14.7265 7.41368 14.5849C7.27205 14.4432 7.19171 14.2516 7.18997 14.0513C7.18823 13.8511 7.26523 13.6581 7.40437 13.514L9.91978 10.9985L7.40437 8.48305C7.26523 8.33898 7.18823 8.14602 7.18997 7.94573C7.19171 7.74544 7.27205 7.55385 7.41368 7.41221C7.55531 7.27058 7.7469 7.19025 7.94719 7.18851C8.14748 7.18676 8.34044 7.26376 8.48451 7.40291L11 9.91832L13.5155 7.40291C13.6596 7.26376 13.8525 7.18676 14.0528 7.18851C14.2531 7.19025 14.4447 7.27058 14.5863 7.41221C14.7279 7.55385 14.8083 7.74544 14.81 7.94573C14.8118 8.14602 14.7348 8.33898 14.5956 8.48305L12.0802 10.9985L14.5956 13.514Z" fill="white"/>
</svg>
