<svg width="18" height="18" viewBox="0 0 18 18" fill="none" xmlns="http://www.w3.org/2000/svg">
    <path fill-rule="evenodd" clip-rule="evenodd" d="M2.7 1.5a1.2 1.2 0 0 0-1.2 1.2v12.6a1.2 1.2 0 0 0 1.2 1.2h12.6a1.2 1.2 0 0 0 1.2-1.2v-3.6a1.2 1.2 0 0 0-1.2-1.2H7.5V2.7a1.2 1.2 0 0 0-1.2-1.2H2.7zm8.55 12V12H7.5v1.5a.75.75 0 0 1-1.5 0V12H4.5a.75.75 0 0 1 0-1.5H6V6.75H4.5a.75.75 0 0 1 0-1.5H6V3H3v12h12v-3h-2.25v1.5a.75.75 0 0 1-1.5 0z" fill="#595959"/>
    <path d="M10.987 7.829a.652.652 0 0 1-.282-.35c-.07-.202-.242-.38-.479-.38h-.105c-.375 0-.597.406-.475.742v.001c.22.597.714.958 1.266 1.118v.164c0 .413.304.775.713.775.408 0 .712-.362.712-.775v-.152c.341-.09.653-.25.888-.492.266-.273.425-.642.425-1.106 0-.638-.249-1.076-.616-1.384-.337-.282-.769-.448-1.175-.57a7.983 7.983 0 0 0-.08-.024c-.421-.121-.678-.24-.828-.363a.461.461 0 0 1-.189-.389c0-.18.074-.33.211-.437.14-.11.358-.183.652-.183.246 0 .413.052.525.13.111.077.185.19.226.342.056.208.224.403.471.403h.113c.367 0 .592-.388.48-.726a1.706 1.706 0 0 0-1.103-1.123v-.176c0-.414-.304-.775-.712-.775-.409 0-.713.361-.713.775v.16c-.721.213-1.312.77-1.312 1.619 0 .524.198.926.54 1.229.292.26.685.443 1.135.58.065.02.131.039.199.057.457.121.707.266.844.409.13.136.17.284.17.45a.53.53 0 0 1-.152.375c-.114.114-.324.22-.711.22-.29 0-.496-.057-.638-.144z" fill="#595959"/>
</svg>
