<svg width="18" height="18" viewBox="0 0 18 18" fill="none" xmlns="http://www.w3.org/2000/svg">
    <path d="M12.146 9.722a.564.564 0 0 0-.919-.183l-2.976 2.978-1.29-1.29a.563.563 0 0 0-.796.796l1.687 1.688a.561.561 0 0 0 .797 0l3.375-3.375a.564.564 0 0 0 .122-.614z" fill="#595959"/>
    <path fill-rule="evenodd" clip-rule="evenodd" d="M12.516 3.234h2.953c.31 0 .562.252.562.563v11.672a.562.562 0 0 1-.562.562H2.53a.562.562 0 0 1-.562-.562V3.797c0-.311.251-.563.562-.563h2.953V2.11c0-.077.064-.14.141-.14h.984c.078 0 .141.063.141.14v1.125h4.5V2.11c0-.077.063-.14.14-.14h.985c.077 0 .14.063.14.14v1.125zM3.234 14.766h11.532v-6.68H3.234v6.68zm0-10.266v2.39h11.532V4.5h-2.25v.844c0 .077-.064.14-.141.14h-.984a.141.141 0 0 1-.141-.14V4.5h-4.5v.844c0 .077-.063.14-.14.14h-.985a.141.141 0 0 1-.14-.14V4.5h-2.25z" fill="#595959"/>
</svg>
