<svg width="18" height="18" viewBox="0 0 18 18" fill="none" xmlns="http://www.w3.org/2000/svg">
    <path d="M7.5 3.75v3.375a.375.375 0 1 1-.75 0V3.75h-3v6h3v-.375a.375.375 0 1 1 .75 0v3a.375.375 0 0 1-.75 0V10.5h-3v3.75H9v-1.125a.375.375 0 0 1 .75 0v1.125h4.5v-1a.5.5 0 0 1 .5-.5h.5a.5.5 0 0 1 .5.5v.5a2 2 0 0 1-2 2h-9.5a2 2 0 0 1-2-2v-9.5a2 2 0 0 1 2-2h9.5a2 2 0 0 1 2 2v6.5a.5.5 0 0 1-.5.5h-.5a.5.5 0 0 1-.5-.5V7.5h-4.5v3.375a.375.375 0 0 1-.75 0V7.25a.5.5 0 0 1 .5-.5h4.75v-3H7.5z" fill="#595959"/>
</svg>
