<svg width="18" height="18" viewBox="0 0 18 18" fill="none" xmlns="http://www.w3.org/2000/svg">
    <path d="M15.75 4.5v-.75A.75.75 0 0 0 15 3H7.5v-.25a.5.5 0 0 0-.5-.5H5.75a.5.5 0 0 0-.5.5V3H5a.5.5 0 0 0-.5.5V4a.5.5 0 0 0 .5.5h.25v6.75H4.5v-1a.5.5 0 0 0-.5-.5h-.5a.5.5 0 0 0-.5.5v1h-.75v1.5H3v3h1.5v-3h3.75v3h1.5v-3h.75v-1.5h-.75v-1a.5.5 0 0 0-.5-.5h-.5a.5.5 0 0 0-.5.5v1H7.5V4.5h6v3.465a.91.91 0 0 0-.607.855c0 .33.18.63.457.795v.885h.465c.255 0 .458.21.458.465a.461.461 0 0 1-.458.465.46.46 0 0 1-.397-.232.465.465 0 0 0-.63-.165.456.456 0 0 0-.173.63c.248.42.705.69 1.2.69.758 0 1.38-.623 1.38-1.388 0-.585-.375-1.11-.922-1.305v-.045a.92.92 0 0 0 .465-.795.914.914 0 0 0-.488-.795V4.5h1.5zm-9 5.745-.75.75V9.93l.75-.75v1.065zm0-2.212-.75.75V7.718l.75-.75v1.065zM6 6.533V5.466l.75-.75v1.066l-.75.75z" fill="#595959"/>
</svg>
