<svg width="18" height="18" viewBox="0 0 18 18" fill="none" xmlns="http://www.w3.org/2000/svg">
    <path d="M8.624 2.35a.75.75 0 0 1 .752 0L16.5 6.477a.75.75 0 1 1-.752 1.298L9 3.867 2.25 7.774a.75.75 0 1 1-.75-1.298L8.623 2.35z" fill="#595959"/>
    <path fill-rule="evenodd" clip-rule="evenodd" d="M9 12a3 3 0 0 0-3 3v.75H4.5V15a4.5 4.5 0 0 1 2.321-3.938 3 3 0 1 1 4.358 0A4.5 4.5 0 0 1 13.5 15v.75H12V15a3 3 0 0 0-3-3zm1.06-1.94A1.5 1.5 0 1 1 7.94 7.94a1.5 1.5 0 0 1 2.12 2.122z" fill="#595959"/>
</svg>
